<svg min-width="28" min-height="28" viewBox="0 0 51 51" fill="none" xmlns="http://www.w3.org/2000/svg">
<g clip-path="url(#clip0_9_4654)">
<path d="M47.6184 50.4002C49.1544 50.4002 50.4 49.1548 50.4 47.6185V2.78165C50.4 1.24523 49.1544 0 47.6184 0H2.78165C1.24504 0 0 1.24523 0 2.78165V47.6185C0 49.1548 1.24504 50.4002 2.78165 50.4002H47.6184Z" fill="#A6A6A6"/>
<path d="M34.7748 50.4006V30.883H41.3262L42.3071 23.2767H34.7748V18.4202C34.7748 16.218 35.3865 14.7172 38.5446 14.7172L42.5725 14.7154V7.91239C41.8755 7.81966 39.4847 7.61255 36.7032 7.61255C30.8958 7.61255 26.9201 11.1573 26.9201 17.6672V23.2767H20.352V30.883H26.9201V50.4006H34.7748Z" fill="white"/>
</g>
<defs>
<clipPath id="clip0_9_4654">
<rect width="50.4" height="50.4" fill="white"/>
</clipPath>
</defs>
</svg>
