<svg min-width="28" min-height="28" viewBox="0 0 51 51" fill="none" xmlns="http://www.w3.org/2000/svg">
<path d="M49.8497 10.368C48.0962 11.145 46.2125 11.67 44.2322 11.9073C46.2755 10.6847 47.8042 8.76039 48.533 6.49351C46.6133 7.63379 44.5123 8.43642 42.3212 8.86651C40.8478 7.29333 38.8963 6.25059 36.7695 5.9002C34.6428 5.54981 32.4598 5.91137 30.5596 6.92874C28.6594 7.94611 27.1483 9.56237 26.2608 11.5266C25.3733 13.4908 25.1591 15.6931 25.6514 17.7915C21.7616 17.5962 17.9563 16.5852 14.4824 14.824C11.0086 13.0629 7.94391 10.5909 5.48724 7.56871C4.64724 9.01771 4.16424 10.6977 4.16424 12.4869C4.16331 14.0976 4.55995 15.6836 5.31899 17.1042C6.07803 18.5249 7.17598 19.7362 8.51544 20.6307C6.96202 20.5813 5.44288 20.1615 4.08444 19.4064V19.5324C4.08429 21.7915 4.86571 23.981 6.29613 25.7295C7.72654 27.478 9.71784 28.6778 11.9321 29.1252C10.4911 29.5152 8.98025 29.5727 7.51374 29.2932C8.13849 31.237 9.35543 32.9368 10.9942 34.1546C12.633 35.3723 14.6116 36.0472 16.6529 36.0846C13.1876 38.805 8.90791 40.2806 4.50234 40.2741C3.72194 40.2743 2.9422 40.2287 2.16714 40.1376C6.63904 43.0129 11.8447 44.5388 17.1611 44.5329C35.1581 44.5329 44.9966 29.6271 44.9966 16.6995C44.9966 16.2795 44.9861 15.8553 44.9672 15.4353C46.881 14.0514 48.5329 12.3376 49.8455 10.3743L49.8497 10.368V10.368Z" fill="#A6A6A6"/>
</svg>
