<svg min-width="28" min-height="28" viewBox="0 0 51 51" fill="none" xmlns="http://www.w3.org/2000/svg">
<g clip-path="url(#clip0_9_4660)">
<path d="M49.7412 13.0271C49.4485 11.9809 48.8907 11.0279 48.1217 10.2606C47.3527 9.49322 46.3985 8.93743 45.3517 8.64701C41.4221 7.59649 25.6248 7.59649 25.6248 7.59649C25.6248 7.59649 9.85748 7.57129 5.88691 8.64701C4.84174 8.9387 3.88948 9.49508 3.12219 10.2624C2.3549 11.0297 1.79853 11.9819 1.50683 13.0271C0.7606 17.05 0.393068 21.134 0.40906 25.2255C0.401779 29.2973 0.769253 33.3611 1.50683 37.3656C1.79947 38.4113 2.35601 39.3642 3.12304 40.1329C3.89006 40.9016 4.84181 41.4602 5.88691 41.7551C9.81653 42.8056 25.6248 42.8056 25.6248 42.8056C25.6248 42.8056 41.3827 42.8056 45.3517 41.7551C46.3985 41.4615 47.3521 40.9035 48.1208 40.1347C48.8896 39.366 49.4476 38.4123 49.7412 37.3656C50.4641 33.3635 50.8169 29.2937 50.7917 25.2255C50.8169 21.1305 50.472 17.0544 49.7412 13.0271V13.0271ZM20.5785 32.765V17.6529L33.7282 25.2255L20.5785 32.765Z" fill="#A6A6A6"/>
</g>
<defs>
<clipPath id="clip0_9_4660">
<rect width="50.4" height="50.4" fill="white" transform="translate(0.399902)"/>
</clipPath>
</defs>
</svg>
