<svg min-width="998" min-height="281" viewBox="0 0 998 281" fill="none" xmlns="http://www.w3.org/2000/svg">
<path d="M1 280C45.8333 279.666 150.01 266.322 198 241.5C206.5 237.667 218.3 226.9 221.5 212.5C225.5 194.5 224.5 157.5 198 157C176.8 156.6 171.359 183.834 171.5 194C171.641 204.166 176.34 227.299 182 232.5C207 257.788 247.2 272 306 248C379.5 218 477.5 180 477.5 180C548.833 146.473 693.5 77.6352 701.5 70.4999C731 48.9999 743.5 1 717 1C692.378 1 695.496 31.1334 701.5 57.4999C713 108 776 84.5 814.5 84.5C863.265 84.5 927 46.4994 997 34.9994" stroke="#76B7ED" stroke-width="2" stroke-dasharray="8 8"/>
</svg>
