<svg width="72" height="12" fill="none" xmlns="http://www.w3.org/2000/svg"><path d="M6.7.156l1.36 4.006.01.034h4.43L8.947 6.667l-.03.022.011.035 1.358 4.002L6.73 8.251 6.7 8.23l-.029.02-3.557 2.475 1.358-4.002.012-.035-.031-.022L.9 4.196h4.43l.012-.034L6.7.156zm14.618 0l1.359 4.006.011.034h4.428l-3.551 2.471-.031.022.012.035 1.358 4.002-3.558-2.475-.028-.02-.029.02-3.558 2.475 1.358-4.002.012-.035-.03-.022-3.552-2.471h4.428l.012-.034L21.318.156zm14.617 0l1.36 4.006.011.034h4.428l-3.551 2.471-.031.022.012.035 1.358 4.002-3.558-2.475-.029-.02-.028.02-3.558 2.475 1.358-4.002.012-.035-.03-.022-3.552-2.471h4.428l.011-.034 1.36-4.006zm14.618 0l1.36 4.006.01.034h4.43L52.8 6.667l-.03.022.011.035 1.358 4.002-3.557-2.475-.029-.02-.028.02-3.558 2.475 1.358-4.002.012-.035-.031-.022-3.552-2.471h4.428l.012-.034L50.553.156zm14.617 0l1.36 4.006.011.034h4.428l-3.551 2.471-.03.022.011.035 1.358 4.002-3.558-2.475-.028-.02-.029.02-3.557 2.475 1.357-4.002.012-.035-.03-.022-3.552-2.471H63.8l.012-.034L65.17.156z" fill="#FFD600" stroke="#FAFF01" stroke-width=".1"/></svg>