<svg viewBox="0 0 127 126" fill="none" xmlns="http://www.w3.org/2000/svg"><path d="M16.163.474h-.277v37.488h.277V.474z" fill="#C7C7C7"/><path d="M29.041 50.512l-1.045 2.301H4.05l-1.043-2.301L13.2 43.456h5.648l10.193 7.056z" fill="#EBEBEB"/><path d="M19.557 36.657l-.708 6.799H13.2l-.709-6.8h7.065zm9.484 13.855l-1.048 2.301H4.05l-1.045-2.301H29.04z" fill="#DBDBDB"/><path d="M44.113.474h-.276v30.064h.276V.474z" fill="#C7C7C7"/><path d="M56.992 43.085l-1.046 2.304H32.001l-1.043-2.304 10.193-7.056h5.648l10.193 7.056z" fill="#EBEBEB"/><path d="M47.508 29.232l-.709 6.797h-5.648l-.708-6.797h7.065zm9.484 13.855l-1.048 2.302H32l-1.046-2.302h26.037z" fill="#DBDBDB"/><path d="M7.765 62.25l-2.73 4.401 1.355.83a1.231 1.231 0 01.553 1.16c-.022.25-.03.502-.025.754a1.245 1.245 0 01-.641 1.132l-1.383.75L7.35 75.85l1.383-.75a1.217 1.217 0 011.264.07c.226.157.46.302.703.434a1.208 1.208 0 01.625 1.106l-.05 1.585 5.178.16.047-1.59a1.214 1.214 0 01.703-1.062 8.78 8.78 0 00.708-.382 1.212 1.212 0 011.27 0l1.357.83 2.728-4.4-1.358-.844a1.227 1.227 0 01-.554-1.16c.023-.25.03-.5.025-.751a1.245 1.245 0 01.645-1.132l1.383-.75-2.448-4.563-1.4.75a1.237 1.237 0 01-1.294-.092 7.015 7.015 0 00-.642-.396 1.219 1.219 0 01-.656-1.106l.064-1.588-5.175-.163-.05 1.59a1.228 1.228 0 01-.72 1.068 6.39 6.39 0 00-.675.362 1.234 1.234 0 01-1.29 0l-1.356-.826zm3.911 3.563a4.244 4.244 0 114.948 6.897 4.244 4.244 0 01-4.948-6.897zm109.635-46.53a.725.725 0 01-.357-.672v-.451a.722.722 0 01.357-.672l.81-.468-1.521-2.641-.822.478a.715.715 0 01-.76-.027 4.896 4.896 0 00-.393-.227.726.726 0 01-.401-.645v-.943h-3.043v.932a.728.728 0 01-.406.634 3.514 3.514 0 00-.393.226.72.72 0 01-.761.028l-.81-.467-1.524 2.641.813.47a.715.715 0 01.36.68v.449a.72.72 0 01-.36.675l-.813.467 1.524 2.642.808-.468a.72.72 0 01.76.025c.128.084.26.161.396.23a.725.725 0 01.398.645v.932h3.043v-.935a.73.73 0 01.401-.644c.136-.07.268-.147.395-.23a.723.723 0 01.758-.025l.811.467 1.521-2.641-.791-.465zm-4.603 1.601a2.491 2.491 0 01-2.441-2.975 2.49 2.49 0 112.433 2.973l.008.002zM52.691 88.671a.727.727 0 01-.36-.62v-.37a1.13 1.13 0 01.022-.373.7.7 0 01.183-.324c.094-.082.198-.152.31-.207l.644-.377v.014l-1.538-2.633h.036l-.846.498a.755.755 0 01-.503.06 1.741 1.741 0 01-.451-.215l-.21-.119a.778.778 0 01-.208-.157.76.76 0 01-.21-.47v-.983l.063.064-3.042.028.094-.092v.985a.83.83 0 01-.437.68l-.208.125-.207.122a.9.9 0 01-.26.11.858.858 0 01-.553-.063l-.858-.49.166-.044-1.513 2.647-.05-.185.858.492a.875.875 0 01.379.747v.483a.849.849 0 01-.379.733l-.858.493.047-.174 1.51 2.647-.154-.041.86-.485a.849.849 0 01.553-.058c.089.024.174.06.252.108l.21.125.208.121c.08.045.153.102.215.17a.808.808 0 01.21.494v.988l-.074-.075 3.043.03-.045.045v-.982a.747.747 0 01.205-.46 1.89 1.89 0 01.415-.276 1.84 1.84 0 01.445-.213.714.714 0 01.49.058l.849.493h-.02l1.533-2.636-.816-.438zm0 0l.81.465-1.513 2.644v.014l-.852-.484a.692.692 0 00-.464-.05c-.16.049-.311.121-.448.216a1.711 1.711 0 00-.396.277.68.68 0 00-.18.423v1.023h-.044l-3.042.03h-.072v-1.07a.631.631 0 00-.343-.514l-.216-.122-.216-.121a.633.633 0 00-.608-.028l-.83.495-.097.058-.058-.1-1.535-2.633-.064-.11.11-.064.83-.49a.586.586 0 00.23-.315.69.69 0 00.028-.2v-.497a.692.692 0 00-.028-.2.567.567 0 00-.232-.309l-.83-.492-.119-.067.07-.116 1.532-2.633.063-.108.105.06.83.49a.6.6 0 00.59-.03l.215-.122.218-.121a.6.6 0 00.332-.5V82.3h.092l3.042.028h.07v1.04c.01.152.071.296.174.41.116.11.247.203.39.276.13.093.274.166.426.216.151.036.31.019.45-.047l.855-.479.022-.014v.022l1.513 2.647-.647.371a1.348 1.348 0 00-.307.205.674.674 0 00-.182.315c-.03.121-.038.247-.025.37v.371a.727.727 0 00.351.64z" fill="#EBEBEB"/><path d="M48.088 90.273a2.568 2.568 0 111.859-4.348c.475.497.734 1.163.719 1.85a2.575 2.575 0 01-2.567 2.49l-.01.008zm0 0a2.43 2.43 0 002.426-2.49 2.431 2.431 0 00-4.146-1.647 2.429 2.429 0 001.717 4.146l.003-.009z" fill="#EBEBEB"/><path d="M2.858 121.56l15.16-.067 15.161-.024 30.321-.045 30.321.045 15.161.024 15.161.067-15.161.069-15.16.025-30.322.044-30.32-.044-15.162-.025-15.16-.069z" fill="#263238"/><path d="M121.664 25.371h-45.86v46.353h45.86V25.371z" fill="#EBEBEB"/><path d="M96.89 22.575c1.529-1.796 4.148-2.227 6.682-1.715 2.534.511 5.568 1.79 5.845 6.027.227 3.44-.83 6.796-.83 10.635 0 3.84 4.345 13.191-2.608 17.755-6.249 4.1-18.909.335-19.299-8.104-.307-6.688 7.626-12.873 8.461-15.52.836-2.647.072-7.114 1.748-9.078z" fill="#263238"/><path d="M95.747 26.35c-.047 1.914-.323 3.85-1.106 5.657a5.436 5.436 0 01-.788 1.27c-.307.386-.634.752-.96 1.106a75.24 75.24 0 00-1.936 2.165 19.74 19.74 0 00-3.06 4.81 15.124 15.124 0 00-1.214 5.533c-.078-.961-.05-1.928.086-2.883.15-.96.397-1.9.738-2.81a17.512 17.512 0 013.02-4.993 52.486 52.486 0 011.96-2.174c.663-.708 1.335-1.383 1.747-2.212a12.17 12.17 0 00.96-2.667c.243-.922.427-1.857.553-2.802zm13.495 3.427c-.047 1.953-.171 3.903-.119 5.842a23.8 23.8 0 00.244 2.885c.144.94.426 1.881.661 2.833.235.951.445 1.916.6 2.89.15.978.213 1.968.188 2.957a10.483 10.483 0 01-.553 2.918 7.407 7.407 0 01-1.629 2.473 7.826 7.826 0 001.383-2.556c.258-.925.386-1.883.382-2.843a25.04 25.04 0 00-.902-5.718c-.221-.948-.504-1.889-.639-2.887a18.906 18.906 0 01-.15-2.952c.059-1.956.237-3.907.534-5.842z" fill="#263238"/><path d="M99.183 46.2c-6.362 7.003-11.554 10.366-16.671 10.366-4.865 0-15.26-11.814-16.024-13.37-.658-1.345 7.875-8.7 9.186-7.784 2.213 1.532 9.31 10.403 10.063 10.444.752.042 3.524-1.79 10.198-4.915 4.055-1.895 7.673.404 3.248 5.258z" fill="#EB9481"/><path d="M67.478 44.36c-.935-1.013-4.86-6.066-5.637-7.715-.777-1.648-2.66-6.555-1.458-7.277 1.204-.722 1.867.67 1.867.67s-.467-2.197.81-2.814c1.279-.617 2.241 1.582 2.241 1.582s-.315-2.29 1.002-2.815c1.316-.526 1.92 1.853 1.92 1.853s-.388-2.083.879-2.058c1.524.03 1.803 3.95 2.796 5.706.224.398 5.142 7.745 5.142 7.745l-9.562 5.123z" fill="#EB9481"/><path d="M68.17 27.642c.213 2.88.805 4.105 2.49 6.392.032.045-.026.103-.064.061-1.862-2.091-2.825-3.518-2.573-6.45.02-.144.136-.141.147-.003zm-2.877.938c.481 2.973 1.106 4.306 2.708 6.832.022.036-.036.077-.06.044-1.774-2.348-2.703-3.795-2.794-6.83-.006-.138.124-.185.146-.046zm-2.954 1.585c.675 2.846 1.303 4.337 3.167 6.588.044.056-.03.125-.077.075-2.125-2.113-2.921-3.97-3.173-6.639-.017-.177.041-.204.083-.024z" fill="#263238"/><path d="M79.234 39.94s-.063-3.621-.442-5.206c-.38-1.585-3.95-6.968-5.17-6.26-1.557.913-.102 4.426.83 6.058 0 0-3.596 2.113-3.106 4.863.49 2.75 7.888.545 7.888.545z" fill="#EB9481"/><path d="M73.276 28.864c-.83 1.859.553 3.92 1.341 5.565a.17.17 0 01-.121.247c-1.455.987-3.217 2.799-3.24 4.652a.042.042 0 11-.082 0c-.247-1.991 1.338-3.917 2.998-4.893-.83-1.679-2.122-3.803-.913-5.587l.017.016z" fill="#263238"/><path d="M88.212 43.82l5.112 9.537s6.931-6.73 8.038-9.537c1.106-2.807-.086-4.846-5.018-3.344a43.168 43.168 0 00-8.132 3.344z" fill="#76B8EE"/><path d="M94.505 51.37c-.252-.518-.473-1.052-.736-1.566a66.081 66.081 0 00-.8-1.527 149.754 149.754 0 00-1.681-3.043 36.7 36.7 0 00-1.026-1.66c-.014-.024-.061 0-.047.02.938 2.1 2.074 4.11 3.208 6.107.33.578.703 1.129 1.046 1.699.011.013.05-.012.036-.03z" fill="#263238"/><path d="M101.362 43.82c-1.106 2.808-8.038 9.538-8.038 9.538l-3.443-6.415 11.36-6.281c.652.68.644 1.834.121 3.158z" fill="#263238"/><path d="M89.377 59.877s-2.81 6.727-1.817 11.844h30.985c-1.007-13.91-7.941-25.865-12.038-29.735-3.302-3.12-6.78-2.84-9.2-1.244-.57.379-6.857 9.067-7.537 10.441-2.7 5.425-.393 8.694-.393 8.694z" fill="#76B8EE"/><path d="M97.523 40.332s-1.936 5.568-.813 5.859c2.794.719 6.542-3.842 6.766-4.307.055-.119.304-3.236.489-5.662.119-1.56.21-2.835.21-2.835l-6.892 2.365.22 4.273.02.307z" fill="#EB9481"/><path d="M97.271 35.752l.221 4.273c1.403-.196 4.487-.957 6.462-3.803.119-1.56.21-2.835.21-2.835l-.863.276-6.03 2.089z" fill="#263238"/><path d="M92.137 29.77c-.083 2.17.133 3.927.662 5.094a5.922 5.922 0 005.141 3.469c.83.03 3.22-.188 4.949-1.505 1.344-1.023 2.155-2.868 2.614-6.113 1.051-7.418-2.343-9.913-5.687-10.212-3.344-.299-7.402 1.781-7.679 9.266z" fill="#EB9481"/><path d="M94.054 28.115c.175-.025.335-.075.504-.113a.866.866 0 00.495-.213.276.276 0 000-.327.665.665 0 00-.653-.146.974.974 0 00-.606.351.277.277 0 00.26.448zm4.888.185a4.927 4.927 0 01-.503-.116.83.83 0 01-.493-.216.277.277 0 010-.326.661.661 0 01.656-.141.97.97 0 01.608.357.277.277 0 01-.268.442zm-1.222 1.87c0-.02.038.025.038.047-.042.506 0 1.106.45 1.289v.027c-.564-.105-.608-.89-.489-1.363z" fill="#263238"/><path d="M98.2 29.658c.83-.022.808 1.624.044 1.646-.763.022-.722-1.626-.044-1.646z" fill="#263238"/><path d="M98.524 29.75c.141.094.277.26.454.276.177.017.354-.15.487-.315.013-.017.027 0 .027.02 0 .315-.121.638-.462.682-.34.045-.525-.243-.603-.553-.013-.066.04-.15.097-.11zm-3.529.204c0-.019-.039.025-.039.045 0 .512-.053 1.106-.514 1.267-.014 0-.014.03 0 .027.567-.077.65-.857.553-1.338z" fill="#263238"/><path d="M94.541 29.42c-.83-.063-.888 1.582-.127 1.64.76.059.813-1.584.127-1.64z" fill="#263238"/><path d="M94.204 29.517c-.133.084-.277.236-.423.241-.147.006-.307-.18-.415-.354 0-.02-.025 0-.028.017-.02.315.07.644.37.719.302.075.487-.197.573-.506.006-.061-.036-.15-.077-.117zm3.466 4.613c-.12.125-.236.294-.419.316a1.42 1.42 0 01-.565-.112.016.016 0 00-.016.018.692.692 0 00.664.266.554.554 0 00.385-.465.028.028 0 00-.034-.033.028.028 0 00-.016.01zm-2.083-1.888s-.122.76-.127 1.12c0 .033.085.05.207.06h.014a1.706 1.706 0 001.66-.602c.024-.033-.02-.072-.053-.05a2.59 2.59 0 01-1.568.415c-.022-.102.251-1.295.193-1.3a3.065 3.065 0 00-.83.169c.208-1.59.667-3.134.847-4.72 0-.055-.075-.074-.092-.024-.597 1.582-.873 3.408-1.13 5.042-.023.208.724-.05.879-.11z" fill="#263238"/><path d="M95.896 33.235c.177.271.421.492.708.642a.87.87 0 00.51.072c.378-.07.414-.41.37-.706a2.145 2.145 0 00-.133-.459 2.44 2.44 0 01-1.455.451z" fill="#263238"/><path d="M96.604 33.877a.86.86 0 00.51.071c.378-.069.414-.409.37-.705a.874.874 0 00-.88.633z" fill="#FF98B9"/><path d="M105.367 30.048c-.816.025-3.131-2.01-3.551-5.922 0 0 .622 3.485.932 3.975.309.49-1.295-1.148-1.679-4.296 0 0-1.632 1.422-3.087 1.975-1.455.554-2.365.625-2.49.526-.124-.1 2.014-.99 2.545-1.726 0 0-3.798 2.213-5.612 2.512-.21.033.144-3.234 2.802-5.336 2.658-2.102 6.312-1.577 7.623-.526 0 0 1.433.075 3.159 2.025 1.726 1.95.235 6.766-.642 6.793z" fill="#263238"/><path d="M104.291 31.243s1.519-2.415 2.606-1.883c1.087.53.027 3.974-1.193 4.497a1.26 1.26 0 01-1.728-.595l.315-2.019z" fill="#EB9481"/><path d="M106.567 30.347c.023 0 .025.025 0 .033-.854.396-1.272 1.229-1.554 2.083.246-.337.589-.53 1.037-.243.022.014 0 .052-.022.047a.782.782 0 00-.83.315 3.977 3.977 0 00-.376.711c-.036.08-.18.047-.152-.044a.082.082 0 010-.022c-.077-1.118.711-2.717 1.897-2.88z" fill="#263238"/><path d="M108.905 43.505c3.065 3.538 11.656 16.345 9.665 19.805-1.911 3.32-6.246 4.254-8.741-.205-1.795-3.189-4.813-12.704-5.562-17.268-.609-3.695 1.806-5.604 4.638-2.332z" fill="#EB9481"/><path d="M106.043 54.843l10.156-3.731s-5.7-7.803-8.325-9.288c-2.625-1.486-4.81-.59-4.008 4.503a42.844 42.844 0 002.177 8.516z" fill="#76B8EE"/><path d="M114.396 49.662c-.554.18-1.107.324-1.66.512-.553.188-1.084.379-1.621.58-1.087.405-2.171.809-3.247 1.243-.603.243-1.206.506-1.795.783-.028 0-.017.058 0 .05 2.212-.637 4.359-1.483 6.494-2.327.62-.246 1.215-.553 1.826-.8.041-.01.022-.049.003-.04z" fill="#263238"/><path d="M106.615 54.605a3.713 3.713 0 00-.589.183c-.277-.6-.933-3.24-1.085-3.917-.304-1.35-.553-2.713-.871-4.063 0-.039-.075-.028-.069 0 .094.75.21 1.496.34 2.237-.138-.354-.276-.71-.384-1.073l.001-.008a.011.011 0 00-.003-.007.011.011 0 00-.006-.006.015.015 0 00-.015 0 .011.011 0 00-.006.006.011.011 0 00-.003.007l.001.008c.126.45.28.892.462 1.322.108 1.384 1.367 5.779 1.403 5.762.284-.129.561-.274.829-.434.031.008.031-.02-.005-.017z" fill="#263238"/><path d="M101.591 28.568l-2.89 12.34c-.125.362.06.652.415.647l5.518 1.123a1.02 1.02 0 00.868-.67l2.891-12.339c.124-.362-.061-.653-.415-.644l-5.518-1.126a1.024 1.024 0 00-.869.67z" fill="#A6A6A6"/><path d="M102.064 28.638l-2.882 12.339c-.124.362.061.653.415.647l5.518 1.123a1.02 1.02 0 00.869-.666l2.879-12.34c.125-.365-.061-.652-.415-.647l-5.515-1.126a1.034 1.034 0 00-.869.67z" fill="#DBDBDB"/><path d="M103.813 29.169a.55.55 0 01-.336.522.552.552 0 01-.725-.729.556.556 0 01.525-.333.538.538 0 01.536.54z" fill="#263238"/><path d="M111.303 64.223c1.795 3.319 6.547 1.427 7.266-.913 1.688-5.49.642-14.619-.365-19.716-.323-1.64-11.465 0-11.399 1.773.078 2.143.98 12.328 4.498 18.856z" fill="#EB9481"/><path d="M118.08 46.03a17.28 17.28 0 00.1-7.363c-.587-2.652-2.503-8.278-10.21-10.787-1.828-.598-4.857-.152-2.212 1.906 1.869 1.463 3.496 1.825 4.425 2.876 0 0-3.784 1.024-4.309 2.877a35.787 35.787 0 00-1.032 4.946c.296.11.599.203.907.276a7.357 7.357 0 001.068 4.614l11.263.656z" fill="#EB9481"/><path d="M117.214 36.225c-1.145-.83-3.596-2.595-6.11-3.32-2.788-.83-8.373-1.631-8.953.43-.426 1.512 1.678 2.013 1.678 2.013s-2.378.15-2.464 1.599c-.077 1.322 1.574 1.612 1.574 1.612s-1.427.338-1.259 1.627c.205 1.546 3.167.584 4.73 1.972.351.304 10.804-5.933 10.804-5.933z" fill="#EB9481"/><path d="M110.734 35.984c-1.206-.62-4.31-1.32-6.86-.686-.058 0-.078.064-.022.064 2.31-.062 4.618.155 6.876.647.014.006.019-.02.006-.025zm-.902 2.788c-1.106-.426-4.329-1.006-6.89-.276-.058.016-.075.069-.019.066a30.387 30.387 0 016.915.238.016.016 0 00.009-.006c.002-.003.002-.007.002-.01a.016.016 0 00-.006-.01.014.014 0 00-.011-.002zm.454 23.138c-.083-.276-.164-.553-.252-.804-.183-.554-.34-1.107-.501-1.66a72.118 72.118 0 01-.913-3.358 59.625 59.625 0 01-1.242-6.827c-.077-.636-.143-1.272-.213-1.908-.069-.636-.091-1.297-.213-1.936 0-.034-.323-.52-.45-.761a6.447 6.447 0 01-.346-.775 7.169 7.169 0 01-.418-1.681.018.018 0 00-.007-.01.02.02 0 00-.011-.002.022.022 0 00-.011.003.026.026 0 00-.007.009 5.45 5.45 0 00.244 1.936c.17.523.464.998.857 1.383 0 .083.019 1.106.053 1.679.033.572.085 1.145.149 1.715a55.1 55.1 0 00.492 3.424c.395 2.3.944 4.57 1.643 6.796 0 .036.025.072.036.108v.25c.004.204.021.408.05.61.057.403.156.8.296 1.181-.001.004-.002.007-.001.011 0 .004.002.007.004.01a.017.017 0 00.008.007.02.02 0 00.01.002c.003 0 .007 0 .01-.002a.024.024 0 00.008-.007.033.033 0 00.004-.01l-.001-.01a7.833 7.833 0 01-.2-1.218l-.049-.42c.152.448.312.896.47 1.341.111.31.224.612.351.913.127.302.227.595.376.874 0 .022.045 0 .039-.016-.069-.296-.18-.567-.265-.847z" fill="#263238"/><path d="M75.804 71.721v-7.435l-8.45 7.435h8.45z" fill="#EBEBEB"/><path d="M32.374 87.485c2.434 10.591 7.468 23.287 9.618 25.348 2.719 2.605 20.706 7.385 21.602 7.482 2.213.224 6.675-15.766 4.307-16.112-3.596-.52-16.696-1.231-17.478-2.036-.783-.805-6.343-7.814-12.024-15.689-3.923-5.44-7.538-5.565-6.025 1.007z" fill="#AD6359"/><path d="M61.813 119.452c.262.133 4.021 2.025 6.345 2.697 1.734.504 6.763 1.818 7.507-.038.509-1.262-2.36-2.382-4.368-3.22-1.06-.443-2.365-1.549-2.052-2.23.553-1.189 3.272 0 5.064 1.046 3.466 2.014 8.083 5.64 10.199 3.872.8-.663-.13-1.875-1.488-3.062 2.212 1.383 4.558 2.518 5.474 1.815.528-.401.553-.952.26-1.577.68.222 1.28.177 1.7-.276.717-.753.369-1.859-.417-2.996a.854.854 0 00.653-.426c1.518-2.315-6.085-8.962-8.71-9.584-7.731-1.84-15.88-1.497-15.88-1.497-3.037 2.437-4.296 15.471-4.287 15.476z" fill="#AD6359"/><path d="M73.18 112.335c1.842.288 3.6.964 5.16 1.983 1.96 1.295 3.26 2.811 4.904 4.335.006.008.01.019.009.03a.045.045 0 01-.012.029.043.043 0 01-.027.015.048.048 0 01-.031-.005c-.783-.725-4.03-3.452-4.869-4.072a12.518 12.518 0 00-5.133-2.284c-.025-.003-.02-.036 0-.031zm1.443-3.283c2.033.553 4.115 1.106 6.002 2.08 2.063 1.051 3.679 2.766 5.255 4.426.956.99 1.888 2.004 2.797 3.042.036.044-.022.114-.061.069a127.116 127.116 0 00-4.979-4.979 16.55 16.55 0 00-5.477-3.452c-1.161-.445-2.356-.796-3.551-1.15-.017-.006-.009-.042.014-.036zm2.17-2.869c1.975.407 3.698.753 5.447 1.809 2.315 1.403 4.55 3.762 5.333 4.6a77.088 77.088 0 012.52 2.841c.033.039-.034.1-.07.061a65.406 65.406 0 00-6.021-5.966 13.121 13.121 0 00-3.37-2.191 23.475 23.475 0 00-3.841-1.14s-.014-.016.002-.014z" fill="#263238"/><path d="M64.855 103.34l-5.532 17.526s-14.978-4.277-17.703-7.228c-2.724-2.951-7.789-18.192-9.274-25.58-1.485-7.388 2.249-7.192 5.681-2.548 3.433 4.644 11.98 15.946 12.447 16.193.468.246 14.381 1.637 14.381 1.637z" fill="#76B8EE"/><path opacity=".1" d="M64.855 103.34l-5.532 17.526s-14.978-4.277-17.703-7.228c-2.724-2.951-7.789-18.192-9.274-25.58-1.485-7.388 2.249-7.192 5.681-2.548 3.433 4.644 11.98 15.946 12.447 16.193.468.246 14.381 1.637 14.381 1.637z" fill="#000"/><path d="M57.885 113.079c.672-2.066 1.358-4.127 1.95-6.218.338-1.186.68-2.376 1.007-3.565.014-.047-.06-.072-.077-.028-.756 2.047-1.508 4.102-2.169 6.182s-1.333 4.149-1.964 6.216a61.294 61.294 0 00-.965 3.576c0 .022.033.036.041.014.825-2.022 1.502-4.097 2.177-6.177zm-6.116 5.377l-.664-.232a89.64 89.64 0 01-4.174-1.601c-.24-.1-.481-.202-.713-.305l-.349-.152-.124-.055-.36-.166a28.723 28.723 0 01-1.347-.658l-.277-.155a10.424 10.424 0 01-1.847-1.215 3.839 3.839 0 01-.153-.141c-.047-.047-.096-.094-.138-.138-2.738-2.951-7.789-18.192-9.274-25.58l-.05-.255v-.055c-.1-.553-.188-1.256-.26-2.008-.208-3.676 1.532-4.276 3.681-2.661 5.358 11.498 13.565 30.498 16.049 35.377z" fill="#263238"/><path d="M44 121.4l-32.64.171c.028-.703 4.675-21.254 8.37-28.838 4.738-9.726 7.192-10.511 8.639-11.032 1.866-.669 5.191-.337 5.98.037.896.417 3.745 5.39 4.766 9.039 2.04 7.338 5.343 30.174 4.884 30.623z" fill="#EBEBEB"/><path d="M26.695 82.47s4.149 15.365 4.356 16.386c.313 1.483 2.382 22.637 2.382 22.637l-22.75.078s4.964-19.584 8.66-28.158c4.033-9.405 7.352-10.943 7.352-10.943z" fill="#76B8EE"/><path opacity=".1" d="M26.695 82.47s4.149 15.365 4.356 16.386c.313 1.483 2.382 22.637 2.382 22.637l-22.75.078s4.964-19.584 8.66-28.158c4.033-9.405 7.352-10.943 7.352-10.943z" fill="#000"/><path d="M34.648 81.975c.121.49 3.947 12.973 4.212 16.085.296 3.452 2.913 23.511 2.913 23.511h3.319s-4.805-28.82-6.124-31.865c-2.7-6.215-4.32-7.73-4.32-7.73z" fill="#76B8EE"/><path opacity=".1" d="M34.648 81.975c.121.49 3.947 12.973 4.212 16.085.296 3.452 2.913 23.511 2.913 23.511h3.319s-4.805-28.82-6.124-31.865c-2.7-6.215-4.32-7.73-4.32-7.73z" fill="#000"/><path d="M22.4 86.063c-5.467 5.857-18.755 28.073-14.54 32.125s27.619-1.402 34.19-4.536c1.956-.93-5.473-13.122-7.772-13.407-1.914-.235-11.695 4.237-11.98 3.676-.317-.636 1.237-5.33 3.596-13.83 2.708-9.797-1.078-6.617-3.496-4.028zm21.594 10.249c4.752-.664 6.085-.103 9.789-2.791 2.437-1.765 4.61-.966 3.22 1.836-2.274 4.586-8.227 6.727-10.511 6.877l-2.498-5.922z" fill="#AD6359"/><path d="M31.37 100.881s5.341-2.965 10.337-4.17c3.452-.83 11.169-1.813 18.554 5.808 1.751 1.806 2.965 5.623-.965 3.712-2.794-1.358-4.15-3.062-5.922-3.557 0 0 .968 5.037-.91 6.721a46.544 46.544 0 01-5.22 4.05 9.5 9.5 0 01-.846-.908s-1.903 1.408-5.482 1.065l-9.546-12.721z" fill="#AD6359"/><path d="M45.13 96.456c1.66.86 5.12 2.743 7.422 5.272 2.558 2.81 6.727 8.906 4.633 10.787-1.533 1.369-3.32-.83-3.32-.83s1.193 2.885-.464 3.817c-1.508.852-2.797-.923-2.797-.923s.424 1.872-1.19 2.412c-1.935.647-2.505-3.386-5.036-4.426-.578-.249.752-16.11.752-16.11z" fill="#AD6359"/><path d="M49.136 103.924c1.42 1.065 4.025 4.309 4.744 7.67.017.077-.03.13-.06.064a37.269 37.269 0 00-4.703-7.709c-.022-.025 0-.025.02-.025zm-2.761 2.663c1.132 1.046 3.668 4.509 4.28 7.941.013.078-.04.128-.064.059a40.002 40.002 0 00-4.24-7.978c-.017-.016 0-.036.024-.022zm6.998-3.947c1.55.457 2.556 1.217 3.873 2.125.64.457 1.306.879 1.994 1.264.63.34 1.563.854 2.232.32.376-.296.37-.829.277-1.264a6.225 6.225 0 00-.852-1.762c0-.022.02-.047.036-.027.362.491.674 1.017.93 1.571.167.379.216.801.14 1.209-.23.852-1.236.965-1.936.73a6.867 6.867 0 01-1.217-.589 19.204 19.204 0 01-1.106-.692c-.736-.498-1.441-1.037-2.172-1.543a19.944 19.944 0 00-2.213-1.289.03.03 0 01-.013-.014.025.025 0 01-.001-.018.03.03 0 01.01-.016.037.037 0 01.018-.005z" fill="#263238"/><path d="M56.618 108.089c-.401-.882-2.573-4.561-3.275-5.413a.021.021 0 01-.003-.014c0-.005.002-.009.006-.013a.02.02 0 01.013-.006c.005-.001.01 0 .014.003 1.209 1.145 3.148 4.185 3.596 5.158.448.974.962 2.194.962 3.264 0 1.619-1.073 1.937-1.468 2.006a2.098 2.098 0 01-1.383-.227 4.205 4.205 0 01-1.25-1.173c-.017-.022.013-.052.033-.03.553.639 1.493 1.267 2.37 1.15a1.448 1.448 0 001.002-.539c.24-.389.331-.851.26-1.303a8.95 8.95 0 00-.877-2.863z" fill="#263238"/><path d="M31.37 100.881l7.49 15.766s-29.298 6.578-31.826 1.477c-2.528-5.1 8.852-25.06 13.977-30.874 5.944-6.738 6.702-4.445 5.394 1.527-1.383 6.25-4.02 15.29-4.02 15.29l8.985-3.186z" fill="#76B8EE"/><path opacity=".1" d="M31.37 100.881l7.49 15.766s-29.298 6.578-31.826 1.477c-2.528-5.1 8.852-25.06 13.977-30.874 5.944-6.738 6.702-4.445 5.394 1.527-1.383 6.25-4.02 15.29-4.02 15.29l8.985-3.186z" fill="#000"/><path d="M13.482 108.263a33.062 33.062 0 018.804-4.339c.888-.277 1.784-.54 2.68-.797.028 0 .039.036 0 .044a42.33 42.33 0 00-4.589 1.787 126.48 126.48 0 00-4.425 2.072c-.83.406-1.638.852-2.451 1.286a.038.038 0 01-.015-.007.04.04 0 01-.01-.014.031.031 0 010-.016c0-.006.002-.011.006-.016z" fill="#263238"/><path d="M31.293 100.839c-.147.039-8.16 2.686-8.423 2.808.033-.122 1.472-4.382 1.687-5.007l.061-.185c.144-.276.294-.553.429-.83.171-.362.343-.73.512-1.106h-.017l-.553 1.07c-.086.163-.166.332-.246.501.14-.44.276-.882.412-1.328.216-.705.41-1.419.6-2.132 0-.025-.027-.03-.036 0-.426 1.242-.89 2.47-1.32 3.712-.428 1.242-2.076 5.808-2.063 5.808.014 0 8.824-3.114 8.995-3.183a.068.068 0 00.023-.013.058.058 0 00.017-.02.065.065 0 00-.007-.073.063.063 0 00-.02-.017.075.075 0 00-.05-.005zm.539 10.276c-.83-1.756-1.635-3.524-2.523-5.255-.506-.982-1.007-1.967-1.521-2.943-.02-.036-.086 0-.07.03.759 1.798 1.522 3.596 2.363 5.364.84 1.767 1.66 3.512 2.514 5.255.487.99 1.004 1.965 1.552 2.924 0 .019.044 0 .036 0-.697-1.831-1.519-3.599-2.351-5.375z" fill="#263238"/><path d="M39.239 116.891c-.293-.487-.664-1.184-.977-1.66-.083-.124-.18-.099-.113.031.224.442.41.937.628 1.383-.41.083-.83.155-1.234.24-.475.1-.949.202-1.424.299l-2.8.553a130.29 130.29 0 01-5.698.93c-3.82.559-7.666.92-11.523 1.081-1.078.039-2.16.058-3.239.044a31.394 31.394 0 01-3.186-.154c-.03 0-.036.047 0 .052.91.193 1.836.313 2.766.36.976.047 1.955.069 2.934.058 1.937-.022 3.892-.15 5.831-.327 3.845-.354 7.679-.874 11.48-1.546a109.05 109.05 0 003.189-.6c.536-.108 1.07-.216 1.604-.335.534-.119 1.812-.326 1.762-.409z" fill="#263238"/><path d="M34.653 87.71c-1.936.533-5.402-2.33-6.818-4.703-.097-.163.094-1.922.224-4.072.075-1.303.124-2.766.075-4.088 0-.276 8.416 1.72 8.416 1.72s-.719 2.816-.62 5.134c.01.187.036.372.078.553a.65.65 0 01.017.089c.207 1.026.5 4.849-1.372 5.366z" fill="#AD6359"/><path d="M28.648 74.88c.47 2.235 2.07 7.615 6.522 7.552a5.3 5.3 0 00.852-.078.398.398 0 000-.091 3.596 3.596 0 01-.08-.553c-.097-2.321.62-5.14.62-5.14s-6.091-1.438-7.914-1.69z" fill="#263238"/><path d="M37.555 70.856c-.094 2.041 1.283 3.762 3.075 3.845 1.793.083 3.32-1.51 3.411-3.552.091-2.041-1.286-3.762-3.076-3.842-1.79-.08-3.319 1.508-3.41 3.549z" fill="#455A64"/><path d="M43.712 71.262c.103-2.271-1.43-4.185-3.422-4.275-1.993-.09-3.692 1.677-3.795 3.948-.103 2.271 1.43 4.185 3.423 4.275 1.993.09 3.692-1.677 3.794-3.948z" fill="#C7C7C7"/><path d="M29.232 64.256c-1.45 2.733-1.541 11.421.163 13.695 2.47 3.291 7.324 4.5 10.317 1.355 2.913-3.06 2.83-14.383.852-16.532-2.907-3.173-9.192-2.553-11.332 1.482z" fill="#AD6359"/><path d="M36.456 70.972c0-.022-.047.03-.044.055.03.584-.03 1.259-.553 1.464-.017 0-.014.036 0 .033.647-.105.719-1.001.597-1.552z" fill="#263238"/><path d="M35.92 70.374c-.943-.05-.974 1.84-.102 1.884.871.044.893-1.842.102-1.883zm3.812.67c0-.022.044.03.044.053-.028.586.038 1.26.553 1.463.017 0 0 .036 0 .033-.639-.103-.72-.999-.597-1.55z" fill="#263238"/><path d="M40.265 70.455c.94-.058.985 1.831.11 1.884-.873.052-.901-1.85-.11-1.884zm-5.191-1.591c.276-.013.506-.072.769-.11.277-.006.545-.103.76-.277a.398.398 0 00.028-.487.988.988 0 00-.96-.276 1.44 1.44 0 00-.943.456.427.427 0 00.346.694zm6.079.208a7.127 7.127 0 01-.747-.208 1.247 1.247 0 01-.721-.345.399.399 0 01.03-.487.996.996 0 01.99-.169c.354.074.667.278.88.57a.426.426 0 01-.432.639zm-5.764 7.324c.138.138.276.33.486.351.218-.002.433-.049.631-.138h.012a.022.022 0 01.01.008.023.023 0 01.005.01c0 .005 0 .009-.002.012a.783.783 0 01-.747.307.628.628 0 01-.453-.525c-.009-.033.036-.047.058-.025zm.645-1.742a1.99 1.99 0 001.314.907 2.49 2.49 0 00.854.033l.128-.02a.147.147 0 00.121-.126.44.44 0 000-.061v-.053c.02-.45 0-1.137 0-1.137.163.086.999.479.988.244-.083-1.953-.177-4.122-.672-6.044a.055.055 0 00-.108 0c0 1.878.343 3.742.379 5.629a3.556 3.556 0 00-.935-.302c-.064.02.085 1.325.06 1.527v.022c-.76.083-1.327-.154-2.052-.674-.066-.031-.113.005-.077.055z" fill="#263238"/><path d="M37.801 75.373a2.349 2.349 0 01-.957.719 1.07 1.07 0 01-.647.03c-.465-.132-.47-.553-.38-.926.052-.192.125-.378.22-.553a3.065 3.065 0 001.764.73z" fill="#263238"/><path d="M36.844 76.092a1.07 1.07 0 01-.647.03c-.465-.132-.47-.553-.38-.926.501.06.991.41 1.027.896z" fill="#FF98B9"/><path opacity=".2" d="M28.144 70.39c.57-.09 1.937-2.018 2.515-2.784.578-.767.912-4.874.965-5.81a6.154 6.154 0 00-2.395 2.452c-.648 1.228-1.021 3.642-1.085 6.143z" fill="#263238"/><path d="M38.691 65.2a2.943 2.943 0 01-2.716.91 2.999 2.999 0 01-2.252-1.862c0-.03-.055-.014-.044.014a2.966 2.966 0 002.249 2.082 3.026 3.026 0 002.818-1.106.036.036 0 00-.014-.039.036.036 0 00-.04 0zm-2.81-7.364c-1.707-.016-3.3.877-3.961 2.017a3.303 3.303 0 00-.387 2.14c0 .03.063.025.06 0a3.62 3.62 0 011.812-3.216 4.673 4.673 0 014.15-.366 2.932 2.932 0 011.543 1.323c.033.063.16.027.135-.036-.431-1.085-1.811-1.848-3.352-1.862zm9.778 4.008a3.77 3.77 0 00-1.538-2.072c-1.026-.68-2.213-.622-3.386-.54a.025.025 0 00-.017.043.025.025 0 00.017.008c1.002-.067 2.022-.078 2.924.423a3.69 3.69 0 011.66 1.85 3.595 3.595 0 01-1.632 4.426 3.662 3.662 0 01-2.894.202c-.038-.014-.066.039-.03.055a3.681 3.681 0 004.901-4.395h-.005z" fill="#263238"/><path d="M28.615 65.93s-1.51-3.107-.094-4.822c.802-.97 3.341-.75 3.341-.75s.872-1.43 2.996-1.836c2.124-.407 4.63.924 4.63.924s2.064-1.082 3.917.07c2.586 1.603 2.11 5.611-.595 6.806-1.897.83-4.37-.901-4.37-.901-.246.024-2.796 1.435-4.6-.858 0 0-1.582 1.306-2.924.302a2.213 2.213 0 01-2.3 1.065z" fill="#263238"/><path d="M29.702 71.442s-1.435-3.042-2.788-2.589c-1.353.454-.603 4.664.752 5.455a1.5 1.5 0 002.116-.451l-.08-2.415z" fill="#AD6359"/><path d="M27.157 70.05c-.022 0-.033.028 0 .04.947.586 1.32 1.623 1.525 2.666-.235-.429-.614-.705-1.179-.434a.033.033 0 00.017.06.927.927 0 01.946.49c.143.284.256.583.337.89.034.1.205.078.188-.032a.08.08 0 000-.025c.233-1.292-.462-3.28-1.834-3.654z" fill="#263238"/><path d="M32.83 77.569l-2.724-1.176-2.19-2.727.42-.34 2.107 2.625 2.603 1.123-.216.495z" fill="#C7C7C7"/><path d="M32.54 77.135c.277-.794 2.49-.5 2.088.7-.4 1.2-2.356.088-2.088-.7z" fill="#37474F"/><path d="M26.872 68.77s-.296-4.462 1.01-6.915c1.455-2.741 7.485-5.35 11.617-2.404 0 0-6.713-1.2-9.841 2.6-1.317 1.6-1.284 6.843-1.284 6.843l-1.502-.124z" fill="#C7C7C7"/><path d="M27.48 75.178c1.996-.02 3.595-1.878 3.572-4.151-.022-2.273-1.658-4.1-3.653-4.08-1.995.02-3.594 1.879-3.571 4.151.022 2.274 1.658 4.1 3.653 4.08z" fill="#C7C7C7"/><path d="M29.998 70.909c.02 2.044-1.416 3.714-3.209 3.731-1.792.017-3.264-1.624-3.283-3.668-.02-2.044 1.416-3.715 3.209-3.731 1.792-.017 3.264 1.624 3.283 3.668z" fill="#455A64"/><path d="M35.992 82.205l-1.95 4.923-6.135-6.19-1.72 2.003s6.016 9.85 6.052 9.404l2.005-4.246 2.937 2.935-.276-7.396-.913-1.433z" fill="#EBEBEB"/><path d="M37.253 87.369c-.086-1.22-.136-2.45-.277-3.665 0-.042-.072-.061-.083 0-.237 1.18.114 5.842.114 6.962h-.014c-.122-.127-2.722-2.58-2.747-2.542-.434.675-1.908 3.764-2.008 4.047-.951-1.566-4.979-7.731-6.113-9.211a.041.041 0 00-.072.041c.83 1.66 6.058 9.795 6.13 9.773a48.32 48.32 0 002.1-4.487c.44.534 3.061 3.305 3.07 3.123a38.185 38.185 0 00-.1-4.041z" fill="#263238"/><path d="M103.01 69.26h-8.555a3.131 3.131 0 01-3.129-3.129 3.128 3.128 0 013.129-3.128h8.555a3.126 3.126 0 012.89 4.326 3.117 3.117 0 01-1.693 1.693 3.123 3.123 0 01-1.197.238z" fill="#455A64"/><path d="M96.325 66.076a.554.554 0 01.094-.277l.078-.113.163-.163.19-.139c.264-.167.557-.28.864-.334a5.485 5.485 0 012.144 0c.303.052.592.163.852.329.066.044.132.094.196.14l.16.161c.042.061.081.124.117.188.027.067.049.135.066.205h-1.402a.05.05 0 01-.053-.03.477.477 0 00-.401-.258 9.526 9.526 0 00-1.225 0 .47.47 0 00-.399.255c0 .02-.02.033-.047.033h-1.397v.003zm0 .782v-.511h1.383v.511a.154.154 0 01-.105.172.155.155 0 01-.072.005h-1.032a.153.153 0 01-.17-.105.152.152 0 01-.004-.072zm3.532.017v-.52h1.37v.514a.153.153 0 01-.103.164.157.157 0 01-.069.008h-1.043a.15.15 0 01-.148-.102.15.15 0 01-.007-.064z" fill="#fff"/><path d="M67.909 121.902h-1.898v1.24h1.898v-1.24zm2.459-.083h-1.897v1.24h1.897v-1.24zm2.462-.083h-1.898v1.24h1.898v-1.24zm2.462-.08h-1.898v1.239h1.898v-1.239zm2.461-.083h-1.897v1.239h1.897v-1.239zm2.462-.08h-1.898v1.239h1.898v-1.239zm2.462-.083h-1.898v1.239h1.898v-1.239zm2.463-.083h-1.898v1.239h1.897v-1.239zm2.458-.08H85.7v1.239h1.898v-1.239z" fill="#455A64"/><path d="M88.066 123.853H65.545v-1.508l22.52-.628v2.136z" fill="#37474F"/><path d="M110.044 117.908H72.869l5.91-27.677h37.176l-5.911 27.677z" fill="#455A64"/><path d="M111.419 117.908H74.243l5.911-27.677h37.176l-5.911 27.677z" fill="#37474F"/><path d="M98.143 104.021c1.009-.932 1.18-2.387.385-3.248-.797-.862-2.26-.805-3.269.127-1.008.932-1.18 2.386-.384 3.248.796.862 2.26.805 3.268-.127z" fill="#263238"/><path d="M100.905 125.136H82.622v-1.422l18.283-.589v2.011z" fill="#455A64"/><path d="M105.876 125.133h-9.817l-5.914-15.509h9.817l5.914 15.509z" fill="#455A64"/><path d="M107.492 125.133h-9.817l-5.911-15.509h9.817l5.911 15.509z" fill="#263238"/><path d="M64.85 125.512H46c-1.608 0 .719-4.58 6.591-6.337 5.872-1.756 14.112 4.619 12.26 6.337z" fill="#37474F"/><path d="M57.454 125.512a5.724 5.724 0 01.257-1.538c.152-.502.365-.984.634-1.435a5.22 5.22 0 011.001-1.215 4.408 4.408 0 011.325-.829c-.202.166-.431.276-.617.462l-.276.246-.277.276a6.56 6.56 0 00-.913 1.204 9.051 9.051 0 00-.67 1.363c-.187.478-.342.968-.464 1.466z" fill="#263238"/><path d="M59.686 121.153c1.12.37 2.179.902 3.145 1.579.488.338.93.737 1.314 1.19.188.231.35.482.484.749.131.267.206.558.221.855a2.449 2.449 0 00-.34-.791 3.959 3.959 0 00-.526-.672 9.318 9.318 0 00-1.314-1.107 20.932 20.932 0 00-1.457-.937c-.25-.15-.504-.294-.758-.432-.255-.138-.512-.293-.77-.434z" fill="#263238"/><path d="M66.2 62.68a8.373 8.373 0 01-13.993 5.285l-4.196.625 2.096-3.62a8.298 8.298 0 01-.575-4.033 8.376 8.376 0 1116.66 1.742h.008z" fill="#fff"/><path d="M66.2 62.68a8.418 8.418 0 01-1.69 4.245 9.472 9.472 0 01-.758.874 9.87 9.87 0 01-.885.747 8.168 8.168 0 01-2.019 1.126 8.324 8.324 0 01-2.254.536 7.806 7.806 0 01-1.165.022 7.39 7.39 0 01-1.159-.119 8.464 8.464 0 01-4.149-2.046l.1.03-4.185.645-.302.055.152-.277 2.086-3.632v.144a8.458 8.458 0 1116.237-2.35H66.2zm0 0a8.298 8.298 0 00-9.495-9.065 8.23 8.23 0 00-3.46 1.366 8.67 8.67 0 00-2.507 2.733 8.297 8.297 0 00-1.067 3.546 8.397 8.397 0 00.594 3.662l.03.075-.04.066-2.108 3.616-.15-.222 4.193-.586h.059l.041.039a8.257 8.257 0 004.01 2.066 7.43 7.43 0 001.138.138 8.32 8.32 0 001.145 0 8.186 8.186 0 002.237-.492 7.825 7.825 0 002.02-1.087c.308-.23.604-.476.885-.739.27-.273.525-.562.76-.866a8.407 8.407 0 001.715-4.25z" fill="#263238"/><path d="M62.54 62.063a1.015 1.015 0 11-2.028.006 1.015 1.015 0 012.029-.006zm-3.634 0a1.015 1.015 0 11-2.03.005 1.015 1.015 0 012.03-.005zm-3.631 0a1.015 1.015 0 11-2.03.006 1.015 1.015 0 012.03-.006z" fill="#263238"/><path d="M69.749 19.247a8.375 8.375 0 0013.993 5.291l4.188.614-2.094-3.62a8.375 8.375 0 10-16.087-2.29v.005z" fill="#fff"/><path d="M72.255 12.33A8.358 8.358 0 0179.267 10c1.278.169 2.5.628 3.574 1.342a8.475 8.475 0 013.14 10.256v-.144l2.08 3.638.152.276-.302-.047-4.188-.641.1-.03a8.464 8.464 0 01-4.149 2.046c-.383.07-.77.11-1.159.119-.387.02-.775.013-1.162-.022a8.442 8.442 0 01-4.276-1.66 9.852 9.852 0 01-.885-.747 9.842 9.842 0 01-.758-.874 8.428 8.428 0 01.816-11.163l.005-.02zm-.79 11.144c.235.303.49.59.76.863.28.264.575.51.885.738.616.462 1.298.83 2.022 1.09.719.267 1.47.433 2.235.492a8.36 8.36 0 001.148 0c.381-.017.76-.063 1.134-.138a8.257 8.257 0 004.01-2.066l.042-.039h.058l4.194.586-.15.222-2.107-3.616-.042-.069.03-.074a8.26 8.26 0 00-.472-7.192 8.64 8.64 0 00-2.507-2.733 8.23 8.23 0 00-3.457-1.366 8.282 8.282 0 00-7.784 13.29v.012z" fill="#263238"/><path d="M78.825 19.4v1.045a.773.773 0 01-.789.788.791.791 0 01-.788-.788v-1.66c0-.016.016-.016.016-.033 0-.016-.016-.016-.016-.03a.811.811 0 01.788-.789 1.803 1.803 0 100-3.595 1.777 1.777 0 00-1.543.885.799.799 0 01-1.107.276.784.784 0 01-.276-1.078 3.38 3.38 0 113.698 4.978h.017zm0 3.52v.277a.77.77 0 01-.789.788.788.788 0 01-.788-.788v-.276a.8.8 0 01.788-.789.78.78 0 01.789.789z" fill="#76B8EE"/></svg>