<svg min-width="127" min-height="126" viewBox="0 0 127 126" fill="none" xmlns="http://www.w3.org/2000/svg">
<path d="M16.1628 0.474121H15.8862V37.9621H16.1628V0.474121Z" fill="#C7C7C7"/>
<path d="M29.0412 50.5117L27.9957 52.813H4.05018L3.00739 50.5117L13.2002 43.4556H18.8484L29.0412 50.5117Z" fill="#EBEBEB"/>
<path d="M19.5569 36.6567L18.8488 43.4556H13.2006L12.4925 36.6567H19.5569Z" fill="#DBDBDB"/>
<path d="M29.0414 50.5117L27.9931 52.8131H4.05038L3.00482 50.5117H29.0414Z" fill="#DBDBDB"/>
<path d="M44.1134 0.474121H43.8368V30.5381H44.1134V0.474121Z" fill="#C7C7C7"/>
<path d="M56.9918 43.0849L55.9462 45.389H32.0007L30.9579 43.0849L41.1507 36.0288H46.799L56.9918 43.0849Z" fill="#EBEBEB"/>
<path d="M47.5075 29.2324L46.7994 36.0285H41.1512L40.4431 29.2324H47.5075Z" fill="#DBDBDB"/>
<path d="M56.992 43.0874L55.9437 45.3887H32.0009L30.9554 43.0874H56.992Z" fill="#DBDBDB"/>
<path d="M7.76487 62.2506L5.03481 66.6513L6.39016 67.4811C6.58011 67.6047 6.73228 67.7783 6.82989 67.9828C6.9275 68.1873 6.96676 68.4147 6.94336 68.6401C6.92116 68.8912 6.91285 69.1433 6.91847 69.3952C6.92622 69.6246 6.87038 69.8517 6.75713 70.0514C6.64388 70.251 6.47763 70.4155 6.27675 70.5265L4.89374 71.2761L7.34997 75.8511L8.73298 75.1015C8.92975 74.996 9.15176 74.9466 9.37472 74.9588C9.59767 74.971 9.81297 75.0443 9.99705 75.1707C10.223 75.3284 10.4575 75.4734 10.6996 75.605C10.8963 75.7132 11.0589 75.874 11.1693 76.0694C11.2797 76.2648 11.3335 76.4871 11.3247 76.7114L11.275 78.2963L16.453 78.4567L16.5 76.8663C16.5073 76.6415 16.5768 76.4232 16.7009 76.2357C16.8249 76.0482 16.9986 75.8987 17.2026 75.8041C17.3243 75.746 17.4432 75.6852 17.5621 75.6216C17.6811 75.5579 17.7972 75.4915 17.9107 75.4224C18.1016 75.305 18.3213 75.2428 18.5455 75.2428C18.7696 75.2428 18.9893 75.305 19.1803 75.4224L20.5384 76.2522L23.2657 71.8515L21.9076 71.0078C21.7174 70.8845 21.565 70.711 21.4674 70.5064C21.3698 70.3019 21.3306 70.0743 21.3544 69.8489C21.3765 69.5987 21.3848 69.3476 21.3792 69.0965C21.3718 68.8668 21.428 68.6395 21.5418 68.4399C21.6555 68.2402 21.8223 68.0759 22.0237 67.9652L23.4067 67.2156L20.9588 62.6517L19.5592 63.4013C19.3562 63.5075 19.1276 63.5552 18.899 63.5391C18.6704 63.523 18.4508 63.4437 18.2647 63.31C18.0573 63.1661 17.8415 63.0334 17.623 62.9144C17.4215 62.8094 17.2534 62.6501 17.1376 62.4546C17.0217 62.2591 16.9628 62.0352 16.9674 61.808L17.0311 60.2203L11.8558 60.0571L11.806 61.6476C11.7967 61.8747 11.7245 62.0947 11.5976 62.2832C11.4706 62.4717 11.2938 62.6213 11.0869 62.7153C10.9707 62.7678 10.8573 62.8259 10.7439 62.8868C10.6305 62.9476 10.5198 63.0112 10.412 63.0776C10.2177 63.197 9.99412 63.2602 9.76609 63.2602C9.53807 63.2602 9.3145 63.197 9.12023 63.0776L7.76487 62.2506ZM11.676 65.8132C12.3963 65.2965 13.2604 65.0183 14.1469 65.0177C15.0334 65.0172 15.8978 65.2944 16.6188 65.8103C17.3397 66.3262 17.8809 67.055 18.1664 67.8942C18.452 68.7335 18.4674 69.6411 18.2107 70.4897C17.954 71.3382 17.4379 72.085 16.735 72.6252C16.0321 73.1654 15.1776 73.4718 14.2916 73.5015C13.4056 73.5312 12.5325 73.2827 11.795 72.7908C11.0575 72.2989 10.4926 71.5883 10.1796 70.7589C9.84976 69.8848 9.81763 68.9262 10.0882 68.032C10.3588 67.1378 10.9169 66.3578 11.676 65.8132Z" fill="#EBEBEB"/>
<path d="M121.311 19.283C121.195 19.215 121.1 19.1162 121.037 18.9975C120.974 18.8788 120.945 18.7449 120.954 18.6108C120.954 18.5361 120.954 18.4614 120.954 18.3868C120.954 18.3121 120.954 18.2346 120.954 18.1599C120.945 18.0258 120.974 17.892 121.037 17.7733C121.1 17.6546 121.195 17.5557 121.311 17.4878L122.121 17.0203L120.6 14.3788L119.778 14.8573C119.662 14.9243 119.529 14.9573 119.394 14.9524C119.26 14.9475 119.129 14.905 119.018 14.8296C118.891 14.7494 118.761 14.672 118.625 14.6028C118.505 14.5427 118.405 14.4508 118.334 14.3371C118.263 14.2233 118.225 14.0923 118.224 13.9584V13.0151H115.181V13.9473C115.178 14.08 115.138 14.2092 115.067 14.3209C114.995 14.4326 114.894 14.5225 114.775 14.5807C114.639 14.6499 114.498 14.7273 114.382 14.8075C114.27 14.8828 114.14 14.9253 114.006 14.9302C113.871 14.9351 113.738 14.9022 113.621 14.8352L112.811 14.3677L111.287 17.0093L112.1 17.4795C112.218 17.5472 112.315 17.6471 112.378 17.7676C112.442 17.888 112.47 18.0241 112.46 18.1599C112.46 18.2346 112.46 18.3093 112.46 18.384C112.46 18.4587 112.46 18.5334 112.46 18.608C112.469 18.7429 112.44 18.8775 112.376 18.9968C112.312 19.116 112.217 19.2152 112.1 19.283L111.287 19.7504L112.811 22.392L113.619 21.9245C113.735 21.8577 113.868 21.8247 114.002 21.8291C114.137 21.8335 114.267 21.8751 114.379 21.9494C114.507 22.0334 114.639 22.1101 114.775 22.179C114.894 22.2392 114.995 22.3313 115.065 22.445C115.135 22.5588 115.173 22.6897 115.173 22.8235V23.7556H118.216V22.8207C118.217 22.6868 118.255 22.5557 118.325 22.442C118.396 22.3283 118.497 22.2363 118.617 22.1762C118.753 22.1067 118.885 22.0301 119.012 21.9466C119.124 21.8723 119.254 21.8306 119.388 21.8262C119.522 21.8218 119.654 21.8549 119.77 21.9217L120.581 22.3892L122.102 19.7476L121.311 19.283ZM116.708 20.8845C116.216 20.8845 115.735 20.7385 115.325 20.4649C114.916 20.1914 114.597 19.8026 114.408 19.3477C114.22 18.8928 114.171 18.3923 114.267 17.9094C114.363 17.4265 114.6 16.9829 114.948 16.6348C115.296 16.2866 115.74 16.0495 116.223 15.9535C116.705 15.8574 117.206 15.9067 117.661 16.0951C118.116 16.2835 118.505 16.6026 118.778 17.012C119.052 17.4214 119.198 17.9027 119.198 18.3951C119.197 18.7224 119.132 19.0465 119.007 19.3488C118.881 19.651 118.697 19.9255 118.465 20.1565C118.233 20.3875 117.957 20.5704 117.654 20.6949C117.352 20.8193 117.027 20.8828 116.7 20.8817L116.708 20.8845Z" fill="#EBEBEB"/>
<path d="M52.691 88.6714C52.5827 88.608 52.4927 88.5175 52.4297 88.409C52.3666 88.3004 52.3328 88.1774 52.3314 88.0518C52.3314 87.9274 52.3314 87.8057 52.3314 87.6812C52.318 87.5564 52.3254 87.4302 52.3535 87.3078C52.3841 87.1854 52.4472 87.0736 52.5361 86.9842C52.63 86.9019 52.7341 86.8322 52.8459 86.7767L53.4904 86.4005V86.4144L51.9525 83.7811H51.9884L51.142 84.279C50.9863 84.3567 50.8084 84.3782 50.6386 84.3398C50.4787 84.29 50.3269 84.2173 50.1877 84.1241L49.9775 84.0051C49.9 83.9646 49.8299 83.9113 49.7701 83.8475C49.6475 83.72 49.5731 83.5537 49.5599 83.3773V82.3953L49.6235 82.4589L46.5808 82.4866L46.6749 82.3953V83.38C46.6661 83.5213 46.6214 83.658 46.5449 83.7771C46.4684 83.8962 46.3627 83.9937 46.2379 84.0605L46.0304 84.1849L45.823 84.3066C45.7427 84.357 45.6549 84.3943 45.5629 84.4173C45.3766 84.4582 45.1819 84.4358 45.0097 84.3537L44.1523 83.8641L44.3182 83.8198L42.8052 86.4669L42.7554 86.2816L43.6129 86.7739C43.7335 86.8568 43.8314 86.9685 43.8976 87.099C43.9638 87.2295 43.9962 87.3745 43.9918 87.5208V87.7642V88.0048C43.9934 88.0985 43.9804 88.1918 43.9531 88.2814C43.8956 88.4682 43.7754 88.6294 43.6129 88.7378L42.7554 89.2302L42.8025 89.0559L44.3127 91.703L44.1578 91.6615L45.018 91.1775C45.1907 91.0965 45.3856 91.0761 45.5712 91.1194C45.66 91.1426 45.7449 91.179 45.823 91.2272L46.0332 91.3517L46.2406 91.4734C46.3211 91.5177 46.394 91.5747 46.4564 91.6421C46.581 91.7783 46.6552 91.9531 46.6666 92.1373V93.1247L46.5919 93.05L49.6345 93.0805L49.5903 93.1247V92.1428C49.6034 91.9707 49.6757 91.8084 49.795 91.6836C49.9204 91.5735 50.06 91.4805 50.2099 91.407C50.3481 91.3163 50.4979 91.2447 50.6552 91.194C50.8201 91.1546 50.9937 91.1752 51.1448 91.2521L51.994 91.7445H51.9746L53.507 89.1085L52.691 88.6714ZM52.691 88.6714L53.5014 89.1361L51.9884 91.7804V91.7943L51.1365 91.3102C50.9921 91.2402 50.8278 91.2226 50.6718 91.2604C50.5121 91.3086 50.3609 91.3814 50.2237 91.4762C50.0795 91.5492 49.9463 91.6424 49.8282 91.7528C49.7209 91.8687 49.6574 92.0183 49.6484 92.176V93.1552V93.1994H49.6041L46.5615 93.2298H46.4896V93.1358V92.1594C46.4781 92.0154 46.4176 91.8796 46.3181 91.7749C46.2678 91.7232 46.2099 91.6794 46.1466 91.6449L45.9308 91.5232L45.7151 91.4015C45.6544 91.3649 45.588 91.3387 45.5187 91.3241C45.3797 91.293 45.2342 91.3106 45.1066 91.3738L44.2767 91.869L44.1799 91.927L44.1219 91.8275L42.5867 89.1942L42.5231 89.0836L42.6337 89.0199L43.4635 88.5304C43.5738 88.4545 43.6548 88.3433 43.6931 88.215C43.712 88.1504 43.7213 88.0833 43.7208 88.0159V87.7669V87.518C43.7213 87.4506 43.712 87.3835 43.6931 87.3188C43.6544 87.1915 43.5722 87.0819 43.4608 87.0091L42.631 86.5167L42.512 86.4503L42.5812 86.3341L44.1136 83.7009L44.1772 83.593L44.2823 83.6539L45.1121 84.1434C45.2355 84.2043 45.3762 84.2209 45.5104 84.1905C45.5781 84.1763 45.6428 84.1501 45.7013 84.113L45.917 83.9913L46.1355 83.8696C46.197 83.837 46.253 83.795 46.3015 83.7451C46.3994 83.6432 46.4581 83.51 46.4674 83.369V82.3981V82.3013H46.5587L49.6013 82.3289H49.6705V82.3926V83.369C49.6806 83.5212 49.7421 83.6655 49.8448 83.7783C49.961 83.8885 50.0924 83.9816 50.2348 84.0549C50.365 84.148 50.5087 84.2207 50.6607 84.2707C50.812 84.3066 50.971 84.29 51.1116 84.2237L51.9663 83.7451L51.9884 83.7313V83.7534L53.5014 86.4005L52.8542 86.7712C52.743 86.825 52.6397 86.8939 52.5472 86.9759C52.4586 87.0622 52.3954 87.1713 52.3646 87.2912C52.3355 87.4124 52.3271 87.5378 52.3397 87.6618C52.3397 87.7863 52.3397 87.9108 52.3397 88.0325C52.3369 88.1605 52.3678 88.287 52.4295 88.3991C52.4912 88.5113 52.5814 88.6053 52.691 88.6714Z" fill="#EBEBEB"/>
<path d="M48.0881 90.2734C47.6644 90.2716 47.2478 90.165 46.8753 89.9631C46.5029 89.7612 46.1862 89.4702 45.9535 89.1161C45.7209 88.762 45.5795 88.3559 45.5419 87.9339C45.5044 87.5119 45.5719 87.0871 45.7385 86.6976C45.905 86.308 46.1654 85.9657 46.4964 85.7012C46.8274 85.4367 47.2187 85.2583 47.6354 85.1818C48.0521 85.1053 48.4812 85.1332 48.8846 85.2629C49.2879 85.3926 49.6529 85.6201 49.9469 85.9252C50.4224 86.4223 50.6811 87.0879 50.666 87.7756C50.6438 88.4422 50.3639 89.0742 49.8851 89.5385C49.4064 90.0028 48.7661 90.2633 48.0992 90.2651L48.0881 90.2734ZM48.0881 90.2734C48.412 90.2731 48.7325 90.2081 49.0309 90.0821C49.3293 89.9561 49.5994 89.7717 49.8254 89.5397C50.0515 89.3077 50.2288 89.0329 50.3471 88.7314C50.4653 88.4299 50.522 88.1077 50.5139 87.7839C50.4952 87.1521 50.2312 86.5524 49.7779 86.112C49.3245 85.6715 48.7174 85.425 48.0853 85.4245C47.4412 85.4245 46.8235 85.6804 46.3681 86.1358C45.9126 86.5913 45.6568 87.209 45.6568 87.8531C45.6568 88.4972 45.9126 89.1149 46.3681 89.5704C46.8235 90.0258 47.4412 90.2817 48.0853 90.2817L48.0881 90.2734Z" fill="#EBEBEB"/>
<path d="M2.85791 121.56L18.0185 121.493L33.1791 121.469L63.5003 121.424L93.8214 121.469L108.982 121.493L124.143 121.56L108.982 121.629L93.8214 121.654L63.5003 121.698L33.1791 121.654L18.0185 121.629L2.85791 121.56Z" fill="#263238"/>
<path d="M121.664 25.3711H75.8037V71.7241H121.664V25.3711Z" fill="#EBEBEB"/>
<path d="M96.8894 22.5746C98.419 20.7795 101.038 20.348 103.572 20.8597C106.106 21.3714 109.14 22.6493 109.417 26.8869C109.644 30.3278 108.587 33.683 108.587 37.5222C108.587 41.3615 112.932 50.7134 105.979 55.2773C99.7301 59.3766 87.07 55.612 86.68 47.1729C86.3729 40.4846 94.3059 34.2998 95.1413 31.6527C95.9766 29.0056 95.2132 24.5385 96.8894 22.5746Z" fill="#263238"/>
<path d="M95.7473 26.3501C95.7002 28.2642 95.4236 30.2004 94.6408 32.0066C94.4377 32.4641 94.1725 32.8913 93.8525 33.2762C93.5455 33.6635 93.2191 34.0286 92.8927 34.3826C92.2344 35.099 91.5844 35.8099 90.9565 36.5484C89.7094 37.9954 88.6789 39.6156 87.8973 41.3586C87.1478 43.1097 86.7358 44.9866 86.683 46.8906C86.6051 45.9296 86.6338 44.963 86.7687 44.0084C86.9183 43.0489 87.1657 42.1072 87.5073 41.1981C88.2278 39.3767 89.2488 37.689 90.5278 36.2054C91.1557 35.4559 91.8223 34.7395 92.4861 34.0314C93.15 33.3232 93.8221 32.6483 94.2342 31.8185C94.6569 30.9701 94.979 30.0752 95.194 29.1521C95.4367 28.2305 95.6215 27.2947 95.7473 26.3501Z" fill="#263238"/>
<path d="M109.242 29.7773C109.195 31.7302 109.071 33.6802 109.123 35.6192C109.146 36.5849 109.227 37.5483 109.367 38.5042C109.511 39.4446 109.793 40.385 110.028 41.3366C110.263 42.2881 110.473 43.2534 110.628 44.2271C110.778 45.2052 110.841 46.1947 110.816 47.1839C110.771 48.178 110.585 49.1605 110.263 50.1021C109.892 51.0275 109.338 51.8686 108.634 52.5749C109.25 51.8169 109.72 50.95 110.017 50.0191C110.275 49.0935 110.403 48.1365 110.399 47.1756C110.32 45.2414 110.018 43.3228 109.497 41.4583C109.276 40.5095 108.993 39.5691 108.858 38.5705C108.731 37.5922 108.681 36.6054 108.708 35.6192C108.767 33.6628 108.945 31.7119 109.242 29.7773Z" fill="#263238"/>
<path d="M99.1827 46.1991C92.8209 53.2027 87.629 56.5662 82.5119 56.5662C77.6465 56.5662 67.2517 44.7525 66.4883 43.1952C65.83 41.8509 74.3632 34.4961 75.6743 35.4116C77.8871 36.944 84.9847 45.8147 85.7371 45.8562C86.4894 45.8976 89.261 44.0665 95.9354 40.9409C99.9904 39.0462 103.608 41.3448 99.1827 46.1991Z" fill="#EB9481"/>
<path d="M67.4783 44.3597C66.5434 43.3474 62.6184 38.2938 61.8411 36.6453C61.0639 34.9967 59.1802 30.0898 60.3834 29.3679C61.5866 28.6459 62.2505 30.0372 62.2505 30.0372C62.2505 30.0372 61.783 27.841 63.0609 27.2242C64.3388 26.6074 65.3014 28.8064 65.3014 28.8064C65.3014 28.8064 64.9861 26.5161 66.3027 25.9906C67.6194 25.465 68.2223 27.8438 68.2223 27.8438C68.2223 27.8438 67.8351 25.761 69.1019 25.7859C70.626 25.8163 70.9054 29.7357 71.8984 31.4922C72.1224 31.8905 77.0404 39.237 77.0404 39.237L67.4783 44.3597Z" fill="#EB9481"/>
<path d="M68.1697 27.642C68.3827 30.5214 68.9746 31.7468 70.6591 34.0343C70.6923 34.0786 70.6342 34.1366 70.5955 34.0952C68.734 32.004 67.7714 30.5768 68.0231 27.6448C68.0425 27.5009 68.1586 27.5037 68.1697 27.642Z" fill="#263238"/>
<path d="M65.2931 28.5797C65.7744 31.5532 66.3995 32.8864 68.001 35.4118C68.0232 35.4478 67.9651 35.4893 67.9402 35.4561C66.1672 33.1077 65.2378 31.6611 65.1465 28.6268C65.141 28.4885 65.271 28.4414 65.2931 28.5797Z" fill="#263238"/>
<path d="M62.339 30.1646C63.0139 33.0108 63.6418 34.5017 65.5061 36.7532C65.5503 36.8086 65.4756 36.8777 65.4286 36.8279C63.3043 34.7147 62.5077 32.8587 62.256 30.1895C62.2394 30.0124 62.2975 29.9848 62.339 30.1646Z" fill="#263238"/>
<path d="M79.2343 39.9397C79.2343 39.9397 79.1707 36.3189 78.7917 34.734C78.4128 33.1491 74.8418 27.7664 73.622 28.4745C72.0648 29.3873 73.5197 32.9001 74.4518 34.5321C74.4518 34.5321 70.856 36.6453 71.3456 39.3948C71.8352 42.1442 79.2343 39.9397 79.2343 39.9397Z" fill="#EB9481"/>
<path d="M73.2757 28.8643C72.4459 30.723 73.8289 32.7837 74.6173 34.4295C74.6299 34.4532 74.6368 34.4795 74.6372 34.5064C74.6376 34.5333 74.6317 34.5598 74.6198 34.5839C74.6078 34.608 74.5904 34.6289 74.5688 34.6448C74.5472 34.6608 74.5221 34.6714 74.4955 34.6757C73.0406 35.6631 71.2787 37.4749 71.2565 39.3281C71.2565 39.3391 71.2522 39.3497 71.2444 39.3575C71.2366 39.3652 71.226 39.3696 71.215 39.3696C71.204 39.3696 71.1935 39.3652 71.1857 39.3575C71.1779 39.3497 71.1735 39.3391 71.1735 39.3281C70.9274 37.3366 72.5123 35.4114 74.1719 34.435C73.3421 32.756 72.0504 30.6317 73.2591 28.8477L73.2757 28.8643Z" fill="#263238"/>
<path d="M88.2122 43.8202L93.3238 53.3574C93.3238 53.3574 100.255 46.6277 101.362 43.8202C102.468 41.0127 101.276 38.9741 96.3443 40.4761C93.5269 41.3111 90.802 42.4316 88.2122 43.8202Z" fill="#76B8EE"/>
<path d="M94.5049 51.3691C94.2532 50.8518 94.0319 50.318 93.7691 49.8035C93.5064 49.289 93.2436 48.7801 92.9698 48.2767C92.4166 47.2588 91.8634 46.2381 91.288 45.234C90.9616 44.6808 90.6186 44.111 90.2618 43.5744C90.248 43.5495 90.201 43.5744 90.2148 43.5938C91.1525 45.6932 92.2893 47.7041 93.4234 49.7012C93.7525 50.2793 94.126 50.8297 94.4689 51.3995C94.48 51.4133 94.5187 51.3884 94.5049 51.3691Z" fill="#263238"/>
<path d="M101.362 43.8204C100.256 46.6279 93.3244 53.3577 93.3244 53.3577L89.8806 46.9433L101.241 40.6616C101.893 41.3421 101.885 42.4955 101.362 43.8204Z" fill="#263238"/>
<path d="M89.3772 59.877C89.3772 59.877 86.5669 66.604 87.5599 71.7211H118.545C117.538 57.8108 110.604 45.856 106.507 41.9864C103.205 38.8663 99.7276 39.1456 97.3074 40.7416C96.7376 41.1206 90.4504 49.8087 89.7699 51.1834C87.0703 56.6076 89.3772 59.877 89.3772 59.877Z" fill="#76B8EE"/>
<path d="M97.5232 40.3322C97.5232 40.3322 95.587 45.9002 96.71 46.1906C99.5037 46.9098 103.252 42.3486 103.476 41.884C103.531 41.765 103.78 38.6477 103.965 36.2219C104.084 34.6619 104.175 33.3867 104.175 33.3867L97.2826 35.7517L97.5038 40.0252L97.5232 40.3322Z" fill="#EB9481"/>
<path d="M97.271 35.7517L97.4923 40.0252C98.8946 39.8288 101.979 39.0681 103.954 36.2219C104.073 34.6619 104.164 33.3867 104.164 33.3867L103.301 33.6633L97.271 35.7517Z" fill="#263238"/>
<path d="M92.1374 29.7692C92.0544 31.9405 92.2702 33.697 92.7985 34.8642C93.2511 35.8612 93.9713 36.7132 94.8791 37.3256C95.7868 37.9379 96.8465 38.2865 97.9405 38.3328C98.7703 38.3632 101.16 38.1447 102.889 36.8281C104.233 35.8047 105.044 33.9597 105.503 30.7152C106.554 23.2967 103.16 20.8017 99.8159 20.503C96.4718 20.2043 92.414 22.2843 92.1374 29.7692Z" fill="#EB9481"/>
<path d="M94.0544 28.1151C94.2287 28.0902 94.3891 28.0404 94.5578 28.0017C94.7413 27.9852 94.9148 27.9106 95.053 27.7887C95.0876 27.7414 95.1062 27.6842 95.1062 27.6255C95.1062 27.5669 95.0876 27.5097 95.053 27.4623C94.9669 27.3823 94.8611 27.3266 94.7464 27.3008C94.6317 27.275 94.5122 27.2802 94.4002 27.3157C94.1617 27.3537 93.9458 27.4789 93.7944 27.667C93.7587 27.7106 93.7371 27.764 93.7326 27.8202C93.7281 27.8763 93.7408 27.9325 93.7691 27.9812C93.7974 28.0299 93.8398 28.0689 93.8908 28.0928C93.9418 28.1167 93.9989 28.1245 94.0544 28.1151Z" fill="#263238"/>
<path d="M98.9419 28.3002C98.7722 28.2703 98.6041 28.2315 98.4385 28.184C98.255 28.1687 98.0818 28.0928 97.9461 27.9683C97.9115 27.9209 97.8929 27.8638 97.8929 27.8051C97.8929 27.7464 97.9115 27.6893 97.9461 27.6419C98.0329 27.5621 98.1394 27.5069 98.2547 27.4821C98.37 27.4573 98.4898 27.4638 98.6017 27.5008C98.8421 27.5393 99.0593 27.6666 99.2102 27.8576C99.2449 27.9019 99.2652 27.9556 99.2686 28.0117C99.272 28.0678 99.2582 28.1236 99.229 28.1717C99.1999 28.2197 99.1568 28.2578 99.1055 28.2807C99.0542 28.3037 98.9971 28.3105 98.9419 28.3002Z" fill="#263238"/>
<path d="M97.7192 30.1698C97.7192 30.1505 97.7579 30.1947 97.7579 30.2168C97.7164 30.723 97.7579 31.3233 98.2088 31.5058C98.2088 31.5058 98.2088 31.5362 98.2088 31.5335C97.6445 31.4284 97.6002 30.6428 97.7192 30.1698Z" fill="#263238"/>
<path d="M98.2001 29.6584C99.0299 29.6363 99.0078 31.2821 98.2444 31.3042C97.4809 31.3263 97.5224 29.6778 98.2001 29.6584Z" fill="#263238"/>
<path d="M98.5242 29.7496C98.6653 29.8437 98.8008 30.0096 98.9779 30.0262C99.1549 30.0428 99.3319 29.8769 99.4647 29.7109C99.4785 29.6943 99.4923 29.7109 99.4923 29.7303C99.4923 30.0456 99.3706 30.3692 99.0304 30.4135C98.6902 30.4577 98.5049 30.1701 98.4274 29.8603C98.4136 29.7939 98.4661 29.7109 98.5242 29.7496Z" fill="#263238"/>
<path d="M94.9947 29.9545C94.9947 29.9351 94.956 29.9794 94.956 29.9988C94.956 30.5105 94.9034 31.1052 94.4415 31.2656C94.4277 31.2656 94.4277 31.296 94.4415 31.2933C95.0085 31.2158 95.0915 30.4358 94.9947 29.9545Z" fill="#263238"/>
<path d="M94.5411 29.4203C93.7113 29.3566 93.6532 31.0024 94.4138 31.0605C95.1745 31.1186 95.227 29.4756 94.5411 29.4203Z" fill="#263238"/>
<path d="M94.2038 29.5175C94.071 29.6005 93.9272 29.7526 93.7806 29.7581C93.634 29.7637 93.4736 29.5783 93.3657 29.4041C93.3657 29.3847 93.3408 29.4041 93.338 29.4207C93.3187 29.736 93.4072 30.0652 93.7087 30.1399C94.0102 30.2145 94.1955 29.9435 94.2813 29.6337C94.2868 29.5728 94.2453 29.4843 94.2038 29.5175Z" fill="#263238"/>
<path d="M97.6692 34.1309C97.5503 34.2553 97.4341 34.4241 97.2515 34.4462C97.0618 34.4476 96.8737 34.4109 96.6983 34.3383C96.695 34.3354 96.6907 34.3339 96.6863 34.3341C96.6819 34.3344 96.6778 34.3364 96.6748 34.3397C96.6719 34.343 96.6704 34.3473 96.6707 34.3517C96.6709 34.3562 96.6729 34.3603 96.6762 34.3632C96.753 34.4608 96.8546 34.536 96.9705 34.5808C97.0863 34.6255 97.2121 34.6383 97.3345 34.6177C97.4367 34.5857 97.5274 34.5248 97.5957 34.4423C97.6639 34.3599 97.7068 34.2594 97.719 34.153C97.7206 34.1467 97.7199 34.14 97.717 34.1342C97.7142 34.1283 97.7093 34.1237 97.7034 34.121C97.6975 34.1184 97.6908 34.1179 97.6845 34.1197C97.6783 34.1215 97.6728 34.1255 97.6692 34.1309Z" fill="#263238"/>
<path d="M95.5868 32.2418C95.5868 32.2418 95.4651 33.0024 95.4596 33.362C95.4596 33.3952 95.5453 33.4118 95.667 33.4228C95.667 33.4228 95.667 33.4228 95.6809 33.4228C95.9862 33.4832 96.3022 33.459 96.5947 33.3527C96.8873 33.2464 97.1451 33.0621 97.3405 32.8199C97.3654 32.7867 97.3211 32.7479 97.2879 32.7701C96.8231 33.0728 96.2733 33.2183 95.7196 33.185C95.6975 33.0826 95.9713 31.8905 95.9132 31.8849C95.6301 31.9025 95.3509 31.9593 95.0834 32.0537C95.2909 30.4632 95.75 28.9198 95.9298 27.3348C95.9298 27.2795 95.8551 27.2601 95.8385 27.3099C95.2411 28.8921 94.9645 30.7177 94.7072 32.3524C94.6851 32.5598 95.4319 32.3026 95.5868 32.2418Z" fill="#263238"/>
<path d="M95.8963 33.235C96.0733 33.5062 96.3172 33.7272 96.6044 33.8768C96.7627 33.9522 96.9403 33.9773 97.1133 33.9487C97.4923 33.8795 97.5282 33.5393 97.484 33.2433C97.457 33.0858 97.4124 32.9318 97.3512 32.7842C96.9268 33.0859 96.4169 33.2439 95.8963 33.235Z" fill="#263238"/>
<path d="M96.6043 33.8765C96.7626 33.9519 96.9402 33.977 97.1132 33.9484C97.4922 33.8792 97.5281 33.539 97.4839 33.2431C97.2874 33.2343 97.0937 33.292 96.934 33.407C96.7744 33.5219 96.6582 33.6873 96.6043 33.8765Z" fill="#FF98B9"/>
<path d="M105.367 30.0483C104.551 30.0732 102.236 28.0374 101.816 24.1263C101.816 24.1263 102.438 27.6115 102.748 28.1011C103.057 28.5906 101.453 26.9532 101.069 23.8054C101.069 23.8054 99.4368 25.2272 97.9818 25.7804C96.5269 26.3336 95.6169 26.4055 95.4924 26.3059C95.3679 26.2063 97.5061 25.3157 98.0371 24.5799C98.0371 24.5799 94.2394 26.7927 92.4249 27.0915C92.2147 27.1247 92.5687 23.858 95.2269 21.7558C97.885 19.6536 101.539 20.1792 102.85 21.2303C102.85 21.2303 104.283 21.3049 106.009 23.255C107.735 25.205 106.244 30.0207 105.367 30.0483Z" fill="#263238"/>
<path d="M104.291 31.2432C104.291 31.2432 105.81 28.8284 106.897 29.3595C107.984 29.8906 106.924 33.3343 105.704 33.8571C105.553 33.9355 105.386 33.9824 105.216 33.9948C105.046 34.0073 104.874 33.985 104.713 33.9294C104.551 33.8738 104.403 33.7861 104.276 33.6714C104.149 33.5568 104.047 33.4176 103.976 33.2624L104.291 31.2432Z" fill="#EB9481"/>
<path d="M106.567 30.3472C106.59 30.3472 106.592 30.3721 106.567 30.3804C105.713 30.7759 105.295 31.6085 105.013 32.4632C105.259 32.1257 105.602 31.9321 106.05 32.2198C106.072 32.2336 106.05 32.2723 106.028 32.2668C105.874 32.2292 105.712 32.2391 105.564 32.2955C105.416 32.3518 105.288 32.4517 105.198 32.5821C105.049 32.8057 104.923 33.0439 104.822 33.293C104.786 33.3732 104.642 33.34 104.67 33.2487C104.669 33.2414 104.669 33.2339 104.67 33.2266C104.593 32.1091 105.381 30.5104 106.567 30.3472Z" fill="#263238"/>
<path d="M108.905 43.5053C111.97 47.043 120.561 59.8497 118.57 63.31C116.659 66.6292 112.324 67.5641 109.829 63.1053C108.034 59.9161 105.016 50.401 104.267 45.837C103.658 42.1416 106.073 40.2331 108.905 43.5053Z" fill="#EB9481"/>
<path d="M106.043 54.8432L116.199 51.1118C116.199 51.1118 110.499 43.3089 107.874 41.8235C105.249 40.3382 103.064 41.2344 103.866 46.3266C104.298 49.2326 105.027 52.0865 106.043 54.8432Z" fill="#76B8EE"/>
<path d="M114.396 49.6623C113.842 49.8421 113.289 49.9859 112.736 50.174C112.183 50.3621 111.652 50.5529 111.115 50.7549C110.028 51.1587 108.944 51.5625 107.868 51.9968C107.265 52.2402 106.662 52.503 106.073 52.7796C106.045 52.7796 106.056 52.8377 106.073 52.8294C108.285 52.1932 110.432 51.3468 112.567 50.5032C113.187 50.257 113.782 49.95 114.393 49.7038C114.434 49.6927 114.415 49.654 114.396 49.6623Z" fill="#263238"/>
<path d="M106.615 54.6052C106.414 54.6496 106.217 54.7107 106.026 54.7878C105.749 54.1875 105.093 51.5487 104.941 50.8711C104.637 49.5213 104.388 48.1576 104.07 46.8078C104.07 46.7691 103.995 46.7801 104.001 46.8078C104.095 47.5574 104.211 48.3042 104.341 49.0455C104.203 48.6914 104.065 48.3346 103.957 47.9723C103.958 47.9698 103.958 47.967 103.958 47.9642C103.958 47.9615 103.957 47.9589 103.955 47.9566C103.954 47.9542 103.952 47.9524 103.949 47.951C103.947 47.9497 103.944 47.949 103.941 47.949C103.939 47.949 103.936 47.9497 103.934 47.951C103.931 47.9524 103.929 47.9542 103.928 47.9566C103.926 47.9589 103.925 47.9615 103.925 47.9642C103.925 47.967 103.925 47.9698 103.926 47.9723C104.052 48.4224 104.206 48.864 104.388 49.2944C104.496 50.6775 105.755 55.0727 105.791 55.0561C106.075 54.927 106.352 54.782 106.62 54.6218C106.651 54.6301 106.651 54.6024 106.615 54.6052Z" fill="#263238"/>
<path d="M101.591 28.5683L98.7008 40.9075C98.5763 41.2699 98.7616 41.5603 99.1157 41.5548L104.634 42.6778C104.827 42.6601 105.012 42.5878 105.165 42.4692C105.319 42.3507 105.436 42.1909 105.502 42.0084L108.393 29.6692C108.517 29.3068 108.332 29.0164 107.978 29.0247L102.46 27.8989C102.266 27.9166 102.082 27.989 101.928 28.1075C101.775 28.226 101.658 28.3858 101.591 28.5683Z" fill="#A6A6A6"/>
<path d="M102.064 28.6376L99.1823 40.9769C99.0578 41.3392 99.2431 41.6297 99.5972 41.6241L105.115 42.7471C105.308 42.7297 105.493 42.6577 105.646 42.5397C105.8 42.4217 105.917 42.2625 105.984 42.0805L108.863 29.7413C108.988 29.3762 108.802 29.0885 108.448 29.094L102.933 27.9683C102.74 27.9869 102.556 28.0596 102.402 28.178C102.249 28.2964 102.132 28.4557 102.064 28.6376Z" fill="#DBDBDB"/>
<path d="M103.813 29.1685C103.816 29.2792 103.785 29.3881 103.725 29.4812C103.666 29.5743 103.579 29.6474 103.477 29.6908C103.376 29.7343 103.263 29.7463 103.154 29.7251C103.046 29.704 102.946 29.6508 102.868 29.5723C102.79 29.4938 102.737 29.3937 102.717 29.285C102.696 29.1762 102.708 29.0638 102.752 28.9622C102.797 28.8606 102.87 28.7746 102.963 28.7152C103.057 28.6558 103.166 28.6259 103.277 28.6292C103.419 28.6299 103.556 28.687 103.656 28.7881C103.757 28.8892 103.813 29.026 103.813 29.1685Z" fill="#263238"/>
<path d="M111.303 64.2226C113.098 67.5419 117.85 65.6499 118.569 63.3098C120.257 57.8193 119.211 48.6914 118.204 43.5936C117.881 41.9533 106.739 43.5936 106.805 45.3666C106.883 47.5103 107.785 57.6948 111.303 64.2226Z" fill="#EB9481"/>
<path d="M118.08 46.0306C118.642 43.6118 118.676 41.1005 118.18 38.6675C117.593 36.0148 115.677 30.3887 107.97 27.88C106.142 27.2825 103.113 27.7278 105.758 29.7857C107.627 31.249 109.254 31.6113 110.183 32.6624C110.183 32.6624 106.399 33.6858 105.874 35.5391C105.414 37.1612 105.069 38.8139 104.842 40.4847C105.138 40.5958 105.441 40.6882 105.749 40.7613C105.587 42.3749 105.962 43.9969 106.817 45.3751L118.08 46.0306Z" fill="#EB9481"/>
<path d="M117.214 36.225C116.069 35.3952 113.618 33.6304 111.104 32.9057C108.316 32.0759 102.731 31.2738 102.151 33.3345C101.725 34.8475 103.829 35.3481 103.829 35.3481C103.829 35.3481 101.451 35.4975 101.365 36.9469C101.288 38.2691 102.939 38.5595 102.939 38.5595C102.939 38.5595 101.512 38.897 101.68 40.1859C101.885 41.7321 104.847 40.7695 106.41 42.1581C106.761 42.4624 117.214 36.225 117.214 36.225Z" fill="#EB9481"/>
<path d="M110.734 35.9843C109.528 35.3647 106.424 34.6649 103.874 35.2984C103.816 35.2984 103.796 35.362 103.852 35.362C106.162 35.2996 108.47 35.517 110.728 36.0092C110.742 36.0148 110.747 35.9899 110.734 35.9843Z" fill="#263238"/>
<path d="M109.832 38.7724C108.726 38.3464 105.503 37.7655 102.942 38.4958C102.884 38.5124 102.867 38.5649 102.923 38.5622C105.229 38.3779 107.549 38.4577 109.838 38.8C109.841 38.7993 109.845 38.7971 109.847 38.794C109.849 38.7909 109.849 38.7871 109.849 38.7834C109.848 38.7798 109.846 38.7765 109.843 38.7745C109.84 38.7724 109.836 38.7716 109.832 38.7724Z" fill="#263238"/>
<path d="M110.286 61.9104C110.203 61.6338 110.122 61.3572 110.034 61.1055C109.851 60.5523 109.694 59.999 109.533 59.4458C109.207 58.3394 108.894 57.2164 108.62 56.0879C108.074 53.8385 107.659 51.5591 107.378 49.2613C107.301 48.6252 107.235 47.989 107.165 47.3528C107.096 46.7166 107.074 46.0555 106.952 45.4166C106.952 45.3834 106.629 44.8965 106.502 44.6559C106.37 44.4056 106.254 44.1469 106.156 43.8814C105.949 43.3398 105.809 42.7751 105.738 42.1997C105.737 42.1961 105.734 42.193 105.731 42.1908C105.728 42.1887 105.724 42.1875 105.72 42.1875C105.716 42.1875 105.713 42.1887 105.709 42.1908C105.706 42.193 105.704 42.1961 105.702 42.1997C105.666 42.8545 105.749 43.5104 105.946 44.1359C106.116 44.6591 106.41 45.1336 106.803 45.5189C106.803 45.6019 106.822 46.6253 106.856 47.1979C106.889 47.7705 106.941 48.343 107.005 48.9128C107.135 50.058 107.295 51.2003 107.497 52.3372C107.892 54.6368 108.441 56.9073 109.14 59.1333C109.14 59.1692 109.165 59.2052 109.176 59.2412C109.176 59.3241 109.176 59.4071 109.176 59.4901C109.18 59.6947 109.197 59.8988 109.226 60.1014C109.283 60.5044 109.382 60.9003 109.522 61.2825C109.521 61.2858 109.52 61.2894 109.521 61.293C109.521 61.2965 109.523 61.2999 109.525 61.3028C109.527 61.3057 109.529 61.3081 109.533 61.3098C109.536 61.3114 109.539 61.3123 109.543 61.3123C109.546 61.3123 109.55 61.3114 109.553 61.3098C109.556 61.3081 109.559 61.3057 109.561 61.3028C109.563 61.2999 109.564 61.2965 109.565 61.293C109.565 61.2894 109.565 61.2858 109.564 61.2825C109.465 60.8826 109.399 60.4757 109.364 60.0654L109.315 59.645C109.467 60.0931 109.627 60.5412 109.785 60.9865C109.896 61.2963 110.009 61.5978 110.136 61.8993C110.263 62.2008 110.363 62.494 110.512 62.7734C110.512 62.7955 110.557 62.7734 110.551 62.7568C110.482 62.4608 110.371 62.1897 110.286 61.9104Z" fill="#263238"/>
<path d="M75.8042 71.7212V64.2861L67.354 71.7212H75.8042Z" fill="#EBEBEB"/>
<path d="M32.3742 87.485C34.8083 98.0761 39.8425 110.772 41.9917 112.833C44.7107 115.438 62.6981 120.218 63.5943 120.315C65.8071 120.539 70.2687 104.549 67.901 104.203C64.3052 103.683 51.2053 102.972 50.4225 102.167C49.6397 101.362 44.08 94.3531 38.3986 86.4782C34.4764 81.0374 30.8612 80.9129 32.3742 87.485Z" fill="#AD6359"/>
<path d="M61.8125 119.452C62.0753 119.585 65.8343 121.477 68.1577 122.149C69.892 122.653 74.9207 123.967 75.6647 122.111C76.1737 120.849 73.3053 119.729 71.2972 118.891C70.2378 118.448 68.9322 117.342 69.2448 116.661C69.798 115.472 72.517 116.661 74.3094 117.707C77.7752 119.721 82.3917 123.347 84.5077 121.579C85.3071 120.916 84.3777 119.704 83.0196 118.517C85.2324 119.9 87.578 121.035 88.4936 120.332C89.0219 119.931 89.0468 119.38 88.7536 118.755C89.434 118.977 90.0342 118.932 90.4547 118.479C91.1711 117.726 90.8226 116.62 90.037 115.483C90.1719 115.469 90.3014 115.423 90.415 115.349C90.5285 115.275 90.6227 115.175 90.6898 115.057C92.2083 112.742 84.6045 106.095 81.9796 105.473C74.2485 103.633 66.0998 103.976 66.0998 103.976C63.0627 106.413 61.8042 119.447 61.8125 119.452Z" fill="#AD6359"/>
<path d="M73.1808 112.335C75.0216 112.623 76.7801 113.299 78.3394 114.318C80.3005 115.613 81.6005 117.129 83.2436 118.653C83.2501 118.661 83.2534 118.672 83.253 118.683C83.2526 118.694 83.2485 118.704 83.2413 118.712C83.2342 118.72 83.2244 118.726 83.2138 118.727C83.2031 118.729 83.1921 118.727 83.1827 118.722C82.3999 117.997 79.1526 115.27 78.3145 114.65C76.7985 113.51 75.043 112.728 73.1808 112.366C73.1559 112.363 73.1614 112.33 73.1808 112.335Z" fill="#263238"/>
<path d="M74.6225 109.052C76.6556 109.605 78.7384 110.158 80.6248 111.132C82.6883 112.183 84.3036 113.898 85.8803 115.558C86.8355 116.548 87.7676 117.562 88.6767 118.6C88.7127 118.644 88.6546 118.714 88.6159 118.669C87.0042 116.965 85.3446 115.306 83.637 113.69C82.0565 112.19 80.1954 111.017 78.1603 110.238C76.9986 109.793 75.8036 109.442 74.6087 109.088C74.5921 109.082 74.6004 109.046 74.6225 109.052Z" fill="#263238"/>
<path d="M76.7933 106.183C78.7683 106.59 80.4915 106.936 82.2396 107.992C84.5548 109.395 86.7897 111.754 87.5725 112.592C88.4383 113.516 89.2736 114.468 90.0924 115.433C90.1256 115.472 90.0592 115.533 90.0232 115.494C88.1468 113.377 86.1354 111.384 84.0016 109.528C82.9978 108.629 81.8614 107.89 80.6326 107.337C79.3868 106.848 78.1015 106.467 76.7906 106.197C76.7906 106.197 76.7767 106.181 76.7933 106.183Z" fill="#263238"/>
<path d="M64.855 103.34L59.323 120.866C59.323 120.866 44.3449 116.589 41.6204 113.638C38.8959 110.687 33.8313 95.4458 32.3459 88.0578C30.8606 80.6697 34.5947 80.8661 38.0273 85.5103C41.46 90.1544 50.007 101.456 50.4745 101.703C50.9419 101.949 64.855 103.34 64.855 103.34Z" fill="#76B8EE"/>
<path opacity="0.1" d="M64.855 103.34L59.323 120.866C59.323 120.866 44.3449 116.589 41.6204 113.638C38.8959 110.687 33.8313 95.4458 32.3459 88.0578C30.8606 80.6697 34.5947 80.8661 38.0273 85.5103C41.46 90.1544 50.007 101.456 50.4745 101.703C50.9419 101.949 64.855 103.34 64.855 103.34Z" fill="black"/>
<path d="M57.8851 113.079C58.5573 111.013 59.2433 108.952 59.8352 106.861C60.1726 105.675 60.5156 104.485 60.842 103.296C60.8558 103.249 60.7812 103.224 60.7646 103.268C60.0094 105.315 59.2571 107.37 58.596 109.45C57.9349 111.53 57.2628 113.599 56.6321 115.666C56.2753 116.849 55.9517 118.039 55.6668 119.242C55.6668 119.264 55.7 119.278 55.7083 119.256C56.5325 117.234 57.2102 115.159 57.8851 113.079Z" fill="#263238"/>
<path d="M51.7689 118.456L51.1051 118.224C49.8576 117.779 48.5852 117.3 47.3875 116.811C47.2326 116.75 47.0805 116.686 46.9311 116.623C46.6905 116.523 46.4498 116.421 46.2175 116.318L45.869 116.166L45.7445 116.111L45.3849 115.945C44.9092 115.726 44.4583 115.508 44.0379 115.287L43.7613 115.132C43.104 114.794 42.4847 114.386 41.9136 113.917C41.861 113.87 41.8085 113.823 41.7614 113.776C41.7144 113.729 41.6646 113.682 41.6231 113.638C38.8848 110.687 33.834 95.4458 32.3486 88.0578L32.2989 87.8033V87.748C32.1993 87.1948 32.1108 86.4922 32.0388 85.7398C31.8314 82.0638 33.5712 81.4636 35.7204 83.0789C41.0782 94.5773 49.285 113.577 51.7689 118.456Z" fill="#263238"/>
<path d="M43.9993 121.4L11.3602 121.571C11.3878 120.868 16.0348 100.317 19.7302 92.7325C24.4684 83.0071 26.9218 82.2216 28.3685 81.7015C30.2355 81.0322 33.5603 81.3641 34.3486 81.7375C35.2448 82.1552 38.0938 87.1285 39.1145 90.7769C41.1558 98.1151 44.4584 120.951 43.9993 121.4Z" fill="#EBEBEB"/>
<path d="M26.6948 82.4702C26.6948 82.4702 30.8439 97.8355 31.0513 98.8561C31.3639 100.339 33.4329 121.493 33.4329 121.493L10.6823 121.571C10.6823 121.571 15.6473 101.987 19.3427 93.4126C23.3756 84.0081 26.6948 82.4702 26.6948 82.4702Z" fill="#76B8EE"/>
<g opacity="0.1">
<path opacity="0.1" d="M26.6948 82.4702C26.6948 82.4702 30.8439 97.8355 31.0513 98.8561C31.3639 100.339 33.4329 121.493 33.4329 121.493L10.6823 121.571C10.6823 121.571 15.6473 101.987 19.3427 93.4126C23.3756 84.0081 26.6948 82.4702 26.6948 82.4702Z" fill="black"/>
</g>
<path d="M34.6475 81.9751C34.7692 82.4647 38.5946 94.9478 38.8601 98.0595C39.1561 101.512 41.7727 121.571 41.7727 121.571H45.092C45.092 121.571 40.2874 92.7515 38.968 89.7061C36.2684 83.4909 34.6475 81.9751 34.6475 81.9751Z" fill="#76B8EE"/>
<path opacity="0.1" d="M34.6475 81.9751C34.7692 82.4647 38.5946 94.9478 38.8601 98.0595C39.1561 101.512 41.7727 121.571 41.7727 121.571H45.092C45.092 121.571 40.2874 92.7515 38.968 89.7061C36.2684 83.4909 34.6475 81.9751 34.6475 81.9751Z" fill="black"/>
<path d="M22.3992 86.0634C16.9335 91.9191 3.64554 114.136 7.86096 118.188C12.0764 122.24 35.4797 116.786 42.0518 113.652C44.0074 112.722 36.5778 100.53 34.2793 100.245C32.3652 100.01 22.5845 104.482 22.2996 103.921C21.9815 103.285 23.536 98.5908 25.8955 90.0908C28.6034 80.2935 24.8167 83.4744 22.3992 86.0634Z" fill="#AD6359"/>
<path d="M43.9938 96.3116C48.7459 95.6477 50.0791 96.2092 53.7828 93.5206C56.2197 91.7559 58.3938 92.5553 57.0025 95.3573C54.7288 99.9434 48.7763 102.084 46.4916 102.234L43.9938 96.3116Z" fill="#AD6359"/>
<path d="M31.3701 100.881C31.3701 100.881 36.7113 97.9161 41.7067 96.7101C45.1587 95.8803 52.8759 94.8983 60.2612 102.519C62.0121 104.325 63.2264 108.142 59.2959 106.231C56.5022 104.873 55.1468 103.169 53.3738 102.674C53.3738 102.674 54.3419 107.711 52.4638 109.395C50.8223 110.867 49.078 112.22 47.2443 113.445C46.9427 113.161 46.66 112.858 46.3979 112.537C46.3979 112.537 44.4949 113.945 40.9156 113.602L31.3701 100.881Z" fill="#AD6359"/>
<path d="M45.1303 96.4556C46.79 97.3158 50.2503 99.1995 52.5516 101.728C55.1102 104.538 59.2786 110.634 57.1847 112.515C55.6523 113.884 53.8655 111.685 53.8655 111.685C53.8655 111.685 55.0576 114.57 53.4008 115.502C51.8933 116.354 50.6043 114.579 50.6043 114.579C50.6043 114.579 51.0275 116.451 49.4149 116.991C47.4787 117.638 46.9089 113.605 44.378 112.565C43.7999 112.316 45.1303 96.4556 45.1303 96.4556Z" fill="#AD6359"/>
<path d="M49.1363 103.924C50.5552 104.989 53.1608 108.233 53.88 111.594C53.8966 111.671 53.8496 111.724 53.8191 111.658C52.5697 108.907 50.9907 106.318 49.1169 103.949C49.0948 103.924 49.1169 103.924 49.1363 103.924Z" fill="#263238"/>
<path d="M46.3752 106.587C47.5065 107.633 50.043 111.096 50.6542 114.528C50.6681 114.606 50.6155 114.656 50.5906 114.587C49.4831 111.776 48.0605 109.1 46.3503 106.609C46.3337 106.593 46.3503 106.573 46.3752 106.587Z" fill="#263238"/>
<path d="M53.3733 102.64C54.9223 103.097 55.9291 103.857 57.2458 104.765C57.8866 105.222 58.5524 105.644 59.2401 106.029C59.8707 106.369 60.8029 106.883 61.4722 106.349C61.8484 106.053 61.8429 105.52 61.7488 105.085C61.5597 104.457 61.2722 103.862 60.8969 103.323C60.8969 103.301 60.9163 103.276 60.9329 103.296C61.2952 103.787 61.6066 104.313 61.8623 104.867C62.0297 105.246 62.0789 105.668 62.0033 106.076C61.7737 106.928 60.7669 107.041 60.0671 106.806C59.643 106.65 59.2353 106.453 58.8501 106.217C58.4739 106.001 58.1088 105.769 57.7436 105.525C57.0079 105.027 56.3025 104.488 55.5723 103.982C54.8629 103.505 54.1238 103.075 53.3595 102.693C53.3537 102.69 53.349 102.685 53.3463 102.679C53.3436 102.674 53.343 102.667 53.3447 102.661C53.3463 102.655 53.3501 102.649 53.3553 102.645C53.3605 102.642 53.3669 102.64 53.3733 102.64Z" fill="#263238"/>
<path d="M56.6176 108.089C56.2166 107.207 54.0452 103.528 53.3427 102.676C53.3401 102.672 53.339 102.667 53.3396 102.662C53.3402 102.657 53.3424 102.653 53.3459 102.649C53.3494 102.646 53.354 102.643 53.3589 102.643C53.3639 102.642 53.3689 102.643 53.3731 102.646C54.5819 103.791 56.5208 106.831 56.9689 107.804C57.417 108.778 57.9315 109.998 57.9315 111.068C57.9315 112.687 56.8583 113.005 56.4627 113.074C55.9894 113.159 55.5009 113.079 55.0797 112.847C54.587 112.546 54.1614 112.147 53.8295 111.674C53.8129 111.652 53.8433 111.622 53.8627 111.644C54.4159 112.283 55.3563 112.911 56.2332 112.794C56.4277 112.776 56.6165 112.719 56.7885 112.626C56.9605 112.534 57.1121 112.407 57.2345 112.255C57.4741 111.866 57.5664 111.404 57.4945 110.952C57.3651 109.955 57.0687 108.988 56.6176 108.089Z" fill="#263238"/>
<path d="M31.3698 100.881L38.8602 116.647C38.8602 116.647 9.56242 123.225 7.03428 118.124C4.50613 113.024 15.8856 93.064 21.011 87.2498C26.9552 80.5118 27.7131 82.8048 26.4048 88.7767C25.0217 95.0279 22.3857 104.067 22.3857 104.067L31.3698 100.881Z" fill="#76B8EE"/>
<path opacity="0.1" d="M31.3698 100.881L38.8602 116.647C38.8602 116.647 9.56242 123.225 7.03428 118.124C4.50613 113.024 15.8856 93.064 21.011 87.2498C26.9552 80.5118 27.7131 82.8048 26.4048 88.7767C25.0217 95.0279 22.3857 104.067 22.3857 104.067L31.3698 100.881Z" fill="black"/>
<path d="M13.4816 108.263C16.184 106.387 19.1514 104.924 22.2858 103.924C23.1737 103.647 24.0699 103.384 24.9661 103.127C24.9938 103.127 25.0048 103.163 24.9661 103.171C23.403 103.677 21.8708 104.274 20.3773 104.958C18.8855 105.622 17.4103 106.312 15.9516 107.03C15.1218 107.436 14.3142 107.882 13.5009 108.316C13.4955 108.315 13.4904 108.312 13.4862 108.309C13.482 108.305 13.4788 108.3 13.4768 108.295C13.4749 108.29 13.4743 108.284 13.4752 108.279C13.476 108.273 13.4782 108.268 13.4816 108.263Z" fill="#263238"/>
<path d="M31.2927 100.839C31.1461 100.878 23.1329 103.525 22.8702 103.647C22.9034 103.525 24.3417 99.2655 24.5574 98.6404C24.5768 98.5796 24.5962 98.516 24.6183 98.4551C24.7621 98.1785 24.9115 97.9019 25.047 97.6253C25.2185 97.2629 25.39 96.8951 25.5587 96.5189H25.5422L24.9889 97.5893C24.9032 97.7525 24.823 97.9213 24.7428 98.09C24.8838 97.6502 25.0194 97.2076 25.1549 96.7623C25.3707 96.057 25.5643 95.3433 25.7551 94.6297C25.7551 94.6048 25.7275 94.5993 25.7192 94.6297C25.2932 95.8716 24.8285 97.0997 24.3998 98.3417C23.9711 99.5836 22.3225 104.15 22.3363 104.15C22.3502 104.15 31.16 101.036 31.3314 100.967C31.3398 100.964 31.3476 100.96 31.3543 100.954C31.3611 100.949 31.3666 100.942 31.3708 100.934C31.3749 100.927 31.3774 100.918 31.3783 100.909C31.3791 100.901 31.3782 100.892 31.3757 100.884C31.3732 100.875 31.369 100.868 31.3634 100.861C31.3579 100.854 31.3511 100.848 31.3434 100.844C31.3357 100.84 31.3272 100.838 31.3185 100.837C31.3098 100.836 31.3011 100.837 31.2927 100.839Z" fill="#263238"/>
<path d="M31.8319 111.115C31.0021 109.359 30.1972 107.591 29.3093 105.86C28.8031 104.878 28.3025 103.893 27.788 102.917C27.7686 102.881 27.7022 102.917 27.7188 102.947C28.4767 104.745 29.2401 106.543 30.081 108.311C30.9219 110.078 31.7406 111.823 32.5953 113.566C33.0821 114.556 33.5994 115.531 34.1471 116.49C34.1471 116.509 34.1913 116.49 34.183 116.49C33.486 114.659 32.6645 112.891 31.8319 111.115Z" fill="#263238"/>
<path d="M39.2388 116.891C38.9456 116.404 38.575 115.707 38.2624 115.231C38.1794 115.107 38.0826 115.132 38.149 115.262C38.373 115.704 38.5584 116.199 38.7769 116.645C38.3675 116.728 37.9471 116.8 37.5432 116.885C37.0675 116.985 36.5945 117.087 36.1187 117.184C35.1857 117.368 34.2526 117.553 33.3195 117.737C31.4276 118.089 29.5282 118.399 27.6215 118.667C23.8017 119.226 19.9554 119.587 16.0982 119.748C15.0195 119.787 13.938 119.806 12.8592 119.792C11.7951 119.795 10.7316 119.743 9.67276 119.638C9.64234 119.638 9.63681 119.685 9.67276 119.69C10.5839 119.883 11.5087 120.003 12.4388 120.05C13.4152 120.097 14.3944 120.119 15.3735 120.108C17.3098 120.086 19.2653 119.958 21.2043 119.781C25.0491 119.427 28.8828 118.907 32.6833 118.235C33.7492 118.051 34.8122 117.851 35.8726 117.635C36.4092 117.527 36.943 117.419 37.4769 117.3C38.0107 117.181 39.2886 116.974 39.2388 116.891Z" fill="#263238"/>
<path d="M34.653 87.7091C32.7168 88.243 29.251 85.3801 27.8348 83.0069C27.738 82.8437 27.9288 81.0845 28.0588 78.9353C28.1335 77.6325 28.1833 76.1693 28.1335 74.8471C28.1335 74.5705 36.5505 76.5676 36.5505 76.5676C36.5505 76.5676 35.8313 79.3834 35.9309 81.7013C35.9397 81.8877 35.9656 82.0729 36.0084 82.2545C36.016 82.2836 36.0215 82.3132 36.025 82.343C36.2324 83.3692 36.5256 87.1919 34.653 87.7091Z" fill="#AD6359"/>
<path d="M28.6482 74.8804C29.1184 77.1153 30.7172 82.4952 35.1705 82.4316C35.4561 82.4288 35.741 82.4029 36.0224 82.3542C36.0259 82.3238 36.0259 82.2932 36.0224 82.2629C35.9814 82.0809 35.9545 81.8959 35.9422 81.7097C35.8454 79.389 36.5618 76.5704 36.5618 76.5704C36.5618 76.5704 30.471 75.1321 28.6482 74.8804Z" fill="#263238"/>
<path d="M37.5547 70.8559C37.4607 72.8972 38.8382 74.6177 40.6305 74.7007C42.4229 74.7837 43.9498 73.1904 44.041 71.1491C44.1323 69.1078 42.7548 67.3873 40.9652 67.3071C39.1756 67.2269 37.646 68.8146 37.5547 70.8559Z" fill="#455A64"/>
<path d="M43.7124 71.2617C43.8151 68.9909 42.2827 67.077 40.2897 66.9868C38.2966 66.8967 36.5977 68.6644 36.4949 70.9352C36.3922 73.206 37.9246 75.12 39.9177 75.2101C41.9108 75.3003 43.6097 73.5325 43.7124 71.2617Z" fill="#C7C7C7"/>
<path d="M29.2315 64.2561C27.7821 66.989 27.6908 75.677 29.3947 77.9507C31.8648 81.2423 36.7192 82.451 39.712 79.3061C42.6246 76.2468 42.5416 64.9227 40.5639 62.7735C37.6568 59.6009 31.3724 60.2205 29.2315 64.2561Z" fill="#AD6359"/>
<path d="M36.4562 70.9721C36.4562 70.95 36.4092 71.0025 36.4119 71.0274C36.4424 71.6111 36.3815 72.286 35.8587 72.4907C35.8421 72.4907 35.8449 72.5266 35.8587 72.5239C36.506 72.4187 36.5779 71.5226 36.4562 70.9721Z" fill="#263238"/>
<path d="M35.92 70.3745C34.9768 70.3247 34.9464 72.2139 35.8177 72.2582C36.689 72.3024 36.7111 70.416 35.92 70.3745Z" fill="#263238"/>
<path d="M39.7316 71.0439C39.7316 71.0218 39.7758 71.0743 39.7758 71.0965C39.7482 71.6829 39.8145 72.3578 40.329 72.5597C40.3456 72.5597 40.329 72.5956 40.329 72.5929C39.6901 72.4905 39.6099 71.5943 39.7316 71.0439Z" fill="#263238"/>
<path d="M40.2651 70.4549C41.2055 70.3968 41.2498 72.286 40.3757 72.3386C39.5016 72.3911 39.474 70.4881 40.2651 70.4549Z" fill="#263238"/>
<path d="M35.0739 68.8644C35.3505 68.8506 35.5801 68.7925 35.8429 68.7538C36.1201 68.7484 36.3876 68.6511 36.6035 68.4772C36.6614 68.4105 36.6955 68.3266 36.7005 68.2385C36.7056 68.1504 36.6811 68.0631 36.6312 67.9903C36.5102 67.8631 36.3575 67.7703 36.1888 67.7217C36.0201 67.6731 35.8415 67.6703 35.6714 67.7137C35.3109 67.7424 34.9743 67.9053 34.7281 68.1701C34.6766 68.2336 34.6444 68.3106 34.6354 68.3919C34.6264 68.4732 34.641 68.5554 34.6775 68.6286C34.7139 68.7018 34.7707 68.763 34.841 68.8048C34.9113 68.8466 34.9922 68.8673 35.0739 68.8644Z" fill="#263238"/>
<path d="M41.1532 69.0719C40.9007 69.0163 40.6514 68.9471 40.4064 68.8644C40.1343 68.8316 39.8806 68.7101 39.6845 68.5187C39.6349 68.4456 39.6109 68.3582 39.6164 68.2701C39.6219 68.1819 39.6566 68.0981 39.7149 68.0318C39.8502 67.9185 40.0132 67.8431 40.1872 67.8135C40.3612 67.7838 40.5399 67.801 40.7051 67.8631C41.0588 67.9374 41.3723 68.1405 41.5847 68.4329C41.6261 68.5024 41.6469 68.5822 41.6446 68.663C41.6423 68.7439 41.6171 68.8224 41.5718 68.8894C41.5266 68.9564 41.4632 69.0091 41.389 69.0414C41.3149 69.0738 41.2331 69.0843 41.1532 69.0719Z" fill="#263238"/>
<path d="M35.3887 76.396C35.527 76.5343 35.6653 76.7252 35.8755 76.7473C36.093 76.7453 36.3078 76.6983 36.5062 76.609C36.5101 76.6082 36.5143 76.6084 36.5181 76.6098C36.5219 76.6111 36.5253 76.6135 36.5279 76.6166C36.5305 76.6198 36.5321 76.6236 36.5327 76.6276C36.5332 76.6316 36.5327 76.6357 36.5311 76.6394C36.4462 76.7536 36.3319 76.8426 36.2003 76.8967C36.0687 76.9508 35.9249 76.968 35.7842 76.9464C35.6653 76.9132 35.5589 76.8455 35.4782 76.7521C35.3975 76.6586 35.3462 76.5434 35.3306 76.4209C35.3223 76.3877 35.3666 76.3739 35.3887 76.396Z" fill="#263238"/>
<path d="M36.0337 74.6538C36.1782 74.8876 36.3695 75.0889 36.5956 75.2451C36.8218 75.4012 37.0778 75.5088 37.3476 75.561C37.5829 75.6112 37.8242 75.6271 38.064 75.6081C38.1103 75.6064 38.1565 75.6017 38.2023 75.5942L38.3295 75.5749C38.3609 75.5697 38.3897 75.5545 38.4116 75.5316C38.4336 75.5086 38.4475 75.4792 38.4512 75.4476C38.4526 75.4274 38.4526 75.407 38.4512 75.3868V75.3342C38.4706 74.8834 38.4512 74.1974 38.4512 74.1974C38.6144 74.2831 39.4498 74.6759 39.4387 74.4408C39.3557 72.488 39.2617 70.3194 38.7666 68.397C38.7638 68.3848 38.7569 68.3739 38.7471 68.3661C38.7373 68.3583 38.7252 68.354 38.7126 68.354C38.7001 68.354 38.6879 68.3583 38.6781 68.3661C38.6683 68.3739 38.6615 68.3848 38.6587 68.397C38.6587 70.2752 39.0017 72.1395 39.0376 74.0259C38.7414 73.8826 38.4268 73.7812 38.1027 73.7244C38.0391 73.7438 38.1885 75.0493 38.1636 75.2512C38.1642 75.2586 38.1642 75.266 38.1636 75.2734C37.4029 75.3564 36.8359 75.1185 36.1112 74.5985C36.0448 74.568 35.9978 74.604 36.0337 74.6538Z" fill="#263238"/>
<path d="M37.801 75.3728C37.5494 75.6912 37.2197 75.939 36.8439 76.092C36.6365 76.1687 36.4104 76.1794 36.1967 76.1224C35.732 75.9896 35.7264 75.5692 35.8177 75.1958C35.8687 75.0035 35.942 74.8178 36.0362 74.6426C36.5317 75.0677 37.15 75.3236 37.801 75.3728Z" fill="#263238"/>
<path d="M36.8439 76.092C36.6365 76.1688 36.4104 76.1794 36.1967 76.1224C35.732 75.9896 35.7264 75.5692 35.8177 75.1958C36.3184 75.2567 36.808 75.6052 36.8439 76.092Z" fill="#FF98B9"/>
<path opacity="0.2" d="M28.1443 70.3909C28.7141 70.2996 30.0805 68.3717 30.6586 67.6055C31.2367 66.8393 31.5714 62.7318 31.6239 61.7969C30.6096 62.3705 29.7789 63.2204 29.2286 64.2476C28.5813 65.4757 28.2079 67.8904 28.1443 70.3909Z" fill="#263238"/>
<path d="M38.6911 65.1992C38.3533 65.5697 37.9265 65.8478 37.4511 66.007C36.9758 66.1663 36.4676 66.2015 35.9748 66.1093C35.4719 66.0167 35.0011 65.7971 34.607 65.4713C34.2129 65.1455 33.9087 64.7243 33.7233 64.2477C33.7233 64.2173 33.668 64.2339 33.679 64.2616C33.8286 64.7806 34.1171 65.249 34.5134 65.6161C34.9097 65.9832 35.3988 66.235 35.9278 66.3444C36.4534 66.4238 36.9906 66.3633 37.4854 66.1691C37.9802 65.9748 38.4151 65.6537 38.7464 65.238C38.7483 65.2309 38.7479 65.2233 38.7454 65.2164C38.7429 65.2095 38.7383 65.2035 38.7322 65.1993C38.7262 65.1951 38.719 65.1928 38.7117 65.1928C38.7043 65.1928 38.6971 65.195 38.6911 65.1992Z" fill="#263238"/>
<path d="M35.881 57.8362C34.1743 57.8196 32.5811 58.713 31.92 59.8526C31.5528 60.502 31.4164 61.2566 31.5328 61.9935C31.5328 62.0239 31.5964 62.0184 31.5936 61.9935C31.5793 61.3441 31.7399 60.7028 32.0587 60.1368C32.3774 59.5708 32.8426 59.101 33.4054 58.7766C34.0216 58.399 34.717 58.1695 35.437 58.1061C36.1569 58.0427 36.8817 58.1473 37.5544 58.4115C38.2101 58.6541 38.7575 59.123 39.0979 59.7337C39.1311 59.7973 39.2583 59.7613 39.2334 59.6977C38.8019 58.6134 37.4217 57.85 35.881 57.8362Z" fill="#263238"/>
<path d="M45.6589 61.8439C45.4059 60.994 44.8613 60.2604 44.121 59.7722C43.0948 59.0918 41.9081 59.1498 40.7353 59.2328C40.7287 59.2328 40.7224 59.2354 40.7177 59.2401C40.7131 59.2448 40.7104 59.2511 40.7104 59.2577C40.7104 59.2643 40.7131 59.2706 40.7177 59.2753C40.7224 59.28 40.7287 59.2826 40.7353 59.2826C41.7366 59.2162 42.7573 59.2052 43.659 59.7058C44.4096 60.1121 44.9961 60.7661 45.3186 61.5563C45.6257 62.3668 45.6296 63.2609 45.3297 64.0741C45.0299 64.8873 44.4464 65.5648 43.6867 65.9819C43.2436 66.2108 42.7584 66.3468 42.2609 66.3815C41.7634 66.4162 41.264 66.349 40.7934 66.1838C40.7547 66.17 40.727 66.2226 40.763 66.2392C41.3987 66.4897 42.0915 66.5584 42.764 66.4375C43.4365 66.3167 44.0621 66.0111 44.5708 65.5549C45.0795 65.0988 45.4512 64.5101 45.6444 63.8547C45.8375 63.1993 45.8444 62.5031 45.6644 61.8439H45.6589Z" fill="#263238"/>
<path d="M28.6151 65.9295C28.6151 65.9295 27.1049 62.8233 28.5211 61.1083C29.3232 60.1375 31.8625 60.3587 31.8625 60.3587C31.8625 60.3587 32.7338 58.9287 34.8581 58.5221C36.9824 58.1155 39.4884 59.4459 39.4884 59.4459C39.4884 59.4459 41.5518 58.3644 43.4051 59.5151C45.9913 61.1194 45.5156 65.1274 42.8104 66.3223C40.9129 67.1521 38.4401 65.4206 38.4401 65.4206C38.1939 65.4455 35.6436 66.8561 33.8402 64.5631C33.8402 64.5631 32.258 65.8687 30.9165 64.8646C30.6883 65.2566 30.3451 65.5689 29.9335 65.7594C29.5219 65.9499 29.0616 66.0093 28.6151 65.9295Z" fill="#263238"/>
<path d="M29.7022 71.4422C29.7022 71.4422 28.2666 68.3996 26.9141 68.8532C25.5615 69.3069 26.3111 73.5168 27.6664 74.3078C27.8337 74.4213 28.0221 74.4998 28.2204 74.5386C28.4188 74.5773 28.6229 74.5756 28.8205 74.5335C29.0182 74.4914 29.2053 74.4098 29.3706 74.2935C29.5359 74.1772 29.676 74.0288 29.7824 73.857L29.7022 71.4422Z" fill="#AD6359"/>
<path d="M27.1575 70.0508C27.1354 70.0508 27.1243 70.0784 27.1575 70.0895C28.1035 70.6759 28.4769 71.7132 28.6816 72.756C28.4465 72.3272 28.0675 72.0506 27.5032 72.3217C27.4974 72.3255 27.4929 72.3311 27.4905 72.3377C27.488 72.3442 27.4877 72.3514 27.4895 72.3581C27.4913 72.3649 27.4953 72.3709 27.5007 72.3752C27.5062 72.3796 27.5128 72.3822 27.5198 72.3825C27.7087 72.3569 27.9009 72.3902 28.0702 72.4778C28.2395 72.5654 28.3776 72.7031 28.4658 72.8721C28.6092 73.1564 28.7223 73.4549 28.8033 73.7628C28.8365 73.8624 29.008 73.8402 28.9914 73.7296C28.9927 73.7213 28.9927 73.713 28.9914 73.7047C29.2237 72.413 28.5294 70.4242 27.1575 70.0508Z" fill="#263238"/>
<path d="M32.8304 77.5688L30.1059 76.3932L27.9152 73.6659L28.3356 73.3257L30.4433 75.9506L33.0461 77.0736L32.8304 77.5688Z" fill="#C7C7C7"/>
<path d="M32.5399 77.1349C32.8166 76.341 35.0294 76.6342 34.6283 77.8347C34.2272 79.0352 32.2716 77.9232 32.5399 77.1349Z" fill="#37474F"/>
<path d="M26.8725 68.7701C26.8725 68.7701 26.5765 64.3085 27.8821 61.855C29.337 59.1139 35.367 56.5055 39.4994 59.4513C39.4994 59.4513 32.7863 58.2509 29.6579 62.0514C28.3413 63.6501 28.3744 68.8945 28.3744 68.8945L26.8725 68.7701Z" fill="#C7C7C7"/>
<path d="M27.4809 75.1783C29.4759 75.1584 31.0748 73.2997 31.0522 71.0267C31.0296 68.7537 29.394 66.9271 27.399 66.947C25.404 66.9668 23.8051 68.8255 23.8277 71.0985C23.8503 73.3716 25.4859 75.1981 27.4809 75.1783Z" fill="#C7C7C7"/>
<path d="M29.998 70.9086C30.0174 72.9527 28.5818 74.6234 26.7894 74.64C24.9971 74.6566 23.5255 73.0163 23.5062 70.9722C23.4868 68.9281 24.9224 67.2574 26.7148 67.2408C28.5071 67.2243 29.9787 68.8645 29.998 70.9086Z" fill="#455A64"/>
<path d="M35.992 82.2048L34.042 87.1284L27.9069 80.938L26.1865 82.9406C26.1865 82.9406 32.2026 92.7904 32.2385 92.3451L34.2439 88.0992L37.1814 91.034L36.9048 83.6376L35.992 82.2048Z" fill="#EBEBEB"/>
<path d="M37.253 87.3688C37.1672 86.149 37.1174 84.9181 36.9764 83.7038C36.9764 83.6623 36.9045 83.6429 36.8934 83.7038C36.6555 84.8849 37.0068 89.5456 37.0068 90.6659H36.993C36.8713 90.5386 34.2712 88.0852 34.2463 88.1239C33.812 88.7988 32.3378 91.8885 32.2382 92.1706C31.2867 90.605 27.2593 84.4396 26.1253 82.9597C26.1198 82.9502 26.1107 82.9432 26.1001 82.9404C26.0894 82.9375 26.0781 82.939 26.0686 82.9445C26.059 82.95 26.0521 82.9591 26.0492 82.9697C26.0464 82.9804 26.0478 82.9917 26.0533 83.0012C26.8832 84.6608 32.1109 92.7957 32.1829 92.7736C32.9589 91.315 33.6597 89.8175 34.2823 88.2871C34.7221 88.8209 37.3443 91.5925 37.3526 91.4099C37.3908 90.0621 37.3575 88.7131 37.253 87.3688Z" fill="#263238"/>
<path d="M103.01 69.2597H94.4548C93.6253 69.2589 92.83 68.9291 92.2435 68.3426C91.657 67.7561 91.3271 66.9608 91.3264 66.1313C91.3264 65.3016 91.656 64.5059 92.2427 63.9192C92.8294 63.3325 93.6251 63.0029 94.4548 63.0029H103.01C103.84 63.0029 104.636 63.3325 105.222 63.9192C105.809 64.5059 106.138 65.3016 106.138 66.1313C106.138 66.5421 106.058 66.9489 105.9 67.3285C105.743 67.708 105.513 68.0529 105.222 68.3434C104.932 68.6339 104.587 68.8643 104.207 69.0215C103.828 69.1788 103.421 69.2597 103.01 69.2597Z" fill="#455A64"/>
<path d="M96.3254 66.0758C96.3314 65.9769 96.3639 65.8813 96.4194 65.7992L96.4969 65.6858L96.6601 65.5226L96.8509 65.3843C97.1138 65.2171 97.407 65.1033 97.7139 65.0496C98.4215 64.9086 99.15 64.9086 99.8576 65.0496C100.161 65.1015 100.45 65.2134 100.71 65.3788C100.776 65.4231 100.842 65.4728 100.906 65.5199L101.066 65.6803C101.108 65.741 101.147 65.8037 101.183 65.8684C101.21 65.9349 101.232 66.0033 101.249 66.0731H99.8465C99.8356 66.0745 99.8246 66.0723 99.8151 66.0668C99.8056 66.0613 99.7981 66.0528 99.794 66.0426C99.7556 65.9683 99.6984 65.9054 99.628 65.8602C99.5575 65.815 99.4765 65.7892 99.3929 65.7854C98.9849 65.7591 98.5756 65.7591 98.1675 65.7854C98.0846 65.7889 98.0041 65.8143 97.9341 65.859C97.8641 65.9037 97.8073 65.9661 97.7692 66.0399C97.7692 66.0592 97.7499 66.0731 97.7222 66.0731H96.3254V66.0758Z" fill="white"/>
<path d="M96.3248 66.8584V66.3467H97.7078C97.7078 66.3771 97.7078 66.4103 97.7078 66.4463V66.8584C97.7116 66.8825 97.7096 66.9072 97.702 66.9304C97.6945 66.9536 97.6816 66.9747 97.6643 66.9919C97.647 67.0092 97.6259 67.0221 97.6027 67.0297C97.5795 67.0372 97.5549 67.0392 97.5308 67.0354H96.499C96.475 67.0393 96.4504 67.0374 96.4273 67.0299C96.4042 67.0223 96.3832 67.0093 96.3661 66.992C96.349 66.9747 96.3364 66.9535 96.3292 66.9302C96.322 66.907 96.3205 66.8823 96.3248 66.8584Z" fill="white"/>
<path d="M99.8574 66.875C99.8574 66.7007 99.8574 66.5265 99.8574 66.355H101.227V66.3854C101.227 66.5458 101.227 66.709 101.227 66.8695C101.229 66.8926 101.227 66.9161 101.219 66.9381C101.211 66.9601 101.199 66.9801 101.182 66.9966C101.166 67.0131 101.146 67.0256 101.124 67.0333C101.102 67.041 101.078 67.0436 101.055 67.041H100.012C99.9908 67.0419 99.9693 67.0381 99.9493 67.03C99.9293 67.0218 99.9114 67.0094 99.8966 66.9936C99.8819 66.9779 99.8708 66.9591 99.864 66.9386C99.8573 66.9181 99.855 66.8964 99.8574 66.875Z" fill="white"/>
<path d="M67.909 121.902H66.0115V123.142H67.909V121.902Z" fill="#455A64"/>
<path d="M70.3681 121.819H68.4706V123.059H70.3681V121.819Z" fill="#455A64"/>
<path d="M72.8298 121.736H70.9323V122.976H72.8298V121.736Z" fill="#455A64"/>
<path d="M75.2916 121.656H73.3941V122.895H75.2916V121.656Z" fill="#455A64"/>
<path d="M77.7533 121.573H75.8558V122.812H77.7533V121.573Z" fill="#455A64"/>
<path d="M80.215 121.493H78.3175V122.732H80.215V121.493Z" fill="#455A64"/>
<path d="M82.6767 121.41H80.7792V122.649H82.6767V121.41Z" fill="#455A64"/>
<path d="M85.1393 121.327H83.2418V122.566H85.1393V121.327Z" fill="#455A64"/>
<path d="M87.5976 121.247H85.7001V122.486H87.5976V121.247Z" fill="#455A64"/>
<path d="M88.0656 123.853H65.5446V122.345L88.0656 121.717V123.853Z" fill="#37474F"/>
<path d="M110.044 117.908H72.8687L78.7796 90.2314H115.955L110.044 117.908Z" fill="#455A64"/>
<path d="M111.419 117.908H74.2433L80.1543 90.2314H117.33L111.419 117.908Z" fill="#37474F"/>
<path d="M98.1429 104.021C99.1516 103.089 99.3237 101.634 98.5275 100.773C97.7313 99.9112 96.2681 99.9682 95.2595 100.9C94.2509 101.832 94.0787 103.286 94.8749 104.148C95.6711 105.01 97.1343 104.953 98.1429 104.021Z" fill="#263238"/>
<path d="M100.905 125.136H82.6216V123.714L100.905 123.125V125.136Z" fill="#455A64"/>
<path d="M105.876 125.133H96.0592L90.1454 109.624H99.9621L105.876 125.133Z" fill="#455A64"/>
<path d="M107.492 125.133H97.6749L91.7639 109.624H101.581L107.492 125.133Z" fill="#263238"/>
<path d="M64.8501 125.512H45.9996C44.3925 125.512 46.7188 120.932 52.591 119.175C58.4633 117.419 66.7033 123.794 64.8501 125.512Z" fill="#37474F"/>
<path d="M57.4541 125.512C57.4692 124.99 57.5558 124.473 57.7113 123.974C57.8632 123.472 58.0759 122.99 58.3447 122.539C58.6152 122.086 58.9528 121.676 59.346 121.324C59.7349 120.971 60.1836 120.69 60.671 120.495C60.469 120.661 60.2395 120.771 60.0541 120.957L59.7775 121.203L59.5009 121.479C59.1514 121.844 58.8451 122.248 58.5881 122.683C58.3271 123.118 58.1032 123.574 57.9188 124.046C57.7311 124.524 57.5758 125.014 57.4541 125.512Z" fill="#263238"/>
<path d="M59.6858 121.153C60.8054 121.523 61.8649 122.055 62.8308 122.732C63.3189 123.07 63.7606 123.469 64.1446 123.922C64.3332 124.153 64.4955 124.404 64.6287 124.671C64.7601 124.938 64.8354 125.229 64.85 125.526C64.784 125.244 64.6688 124.976 64.5097 124.735C64.3592 124.493 64.183 124.267 63.9842 124.063C63.5812 123.654 63.1414 123.284 62.6703 122.956C62.2029 122.619 61.7078 122.317 61.2126 122.019C60.9637 121.869 60.7092 121.725 60.4547 121.587C60.2003 121.449 59.943 121.294 59.6858 121.153Z" fill="#263238"/>
<path d="M66.2003 62.6791C66.0376 64.2219 65.4496 65.6891 64.5017 66.9171C63.5539 68.1451 62.2835 69.0857 60.8323 69.6339C59.3811 70.182 57.8062 70.3163 56.2832 70.0216C54.7601 69.7269 53.3489 69.0149 52.2069 67.965L48.0109 68.5901L50.1075 64.9694C49.5836 63.6938 49.3859 62.3078 49.5322 60.9365C49.6396 59.8371 49.9635 58.7697 50.4851 57.796C51.0068 56.8222 51.7159 55.9612 52.5717 55.2627C53.4275 54.5641 54.413 54.0417 55.4715 53.7257C56.53 53.4096 57.6406 53.306 58.7393 53.4209C59.838 53.5359 60.9031 53.867 61.8733 54.3953C62.8435 54.9236 63.6996 55.6386 64.3923 56.4991C65.085 57.3596 65.6007 58.3487 65.9095 59.4093C66.2184 60.47 66.3144 61.5812 66.192 62.6791H66.2003Z" fill="white"/>
<path d="M66.2004 62.6791C66.0393 64.2232 65.4544 65.6926 64.5103 66.925C64.2757 67.2315 64.0226 67.5234 63.7524 67.799C63.4723 68.0651 63.1767 68.3144 62.8673 68.5458C62.251 69.0149 61.5711 69.394 60.8481 69.6716C60.1254 69.9547 59.3666 70.1353 58.5938 70.2082C58.2067 70.2446 57.8175 70.252 57.4293 70.2304C57.0404 70.2213 56.6529 70.1815 56.2703 70.1114C54.7241 69.8277 53.2874 69.1189 52.1213 68.0646L52.2209 68.095L48.0359 68.7395L47.7344 68.7948L47.8865 68.5182L49.9721 64.8864V65.0302C49.4827 63.8405 49.2711 62.5548 49.3535 61.271C49.4359 59.9871 49.81 58.739 50.4474 57.6216C51.0848 56.5041 51.9687 55.5468 53.0318 54.8224C54.0949 54.098 55.3093 53.6257 56.5825 53.4413C57.8557 53.257 59.1541 53.3654 60.3791 53.7585C61.604 54.1516 62.7231 54.8188 63.6513 55.7096C64.5795 56.6003 65.2923 57.6911 65.7355 58.8988C66.1786 60.1065 66.3405 61.3994 66.2087 62.6791H66.2004ZM66.2004 62.6791C66.3317 61.4185 66.1725 60.1446 65.735 58.9551C65.2975 57.7656 64.5934 56.6921 63.6766 55.817C62.7598 54.9418 61.6548 54.2884 60.4462 53.9066C59.2377 53.5249 57.9577 53.4251 56.7046 53.6148C55.462 53.8002 54.2783 54.2676 53.2443 54.9813C52.2217 55.7009 51.3668 56.6331 50.7383 57.7141C50.1198 58.8006 49.7548 60.0128 49.6706 61.2601C49.5933 62.5099 49.7965 63.7612 50.2653 64.9223L50.2957 64.997L50.2542 65.0634L48.1465 68.6786L47.9971 68.4573L52.1904 67.8709H52.2485L52.29 67.9097C53.4092 68.9574 54.7979 69.6728 56.3008 69.9759C56.6756 70.0512 57.0557 70.0974 57.4376 70.1142C57.8189 70.1405 58.2015 70.1405 58.5827 70.1142C59.348 70.0558 60.1013 69.89 60.8204 69.6218C61.5432 69.3606 62.2236 68.9943 62.8396 68.5348C63.1483 68.3054 63.4438 68.0588 63.7248 67.7963C63.9958 67.5235 64.2498 67.2344 64.4854 66.9305C65.4399 65.6996 66.0336 64.2277 66.2004 62.6791Z" fill="#263238"/>
<path d="M62.5409 62.0627C62.5415 62.2636 62.4824 62.4601 62.3712 62.6274C62.26 62.7947 62.1016 62.9252 61.9162 63.0025C61.7308 63.0797 61.5266 63.1002 61.3295 63.0614C61.1324 63.0225 60.9512 62.9261 60.809 62.7842C60.6667 62.6424 60.5698 62.4615 60.5304 62.2645C60.491 62.0675 60.5109 61.8632 60.5877 61.6776C60.6644 61.4919 60.7946 61.3332 60.9615 61.2216C61.1285 61.1099 61.3249 61.0503 61.5258 61.0503C61.659 61.0499 61.7909 61.0759 61.9141 61.1266C62.0372 61.1773 62.1492 61.2518 62.2435 61.3458C62.3378 61.4399 62.4126 61.5516 62.4636 61.6746C62.5147 61.7976 62.5409 61.9295 62.5409 62.0627Z" fill="#263238"/>
<path d="M58.9061 62.0627C58.9066 62.2637 58.8475 62.4603 58.7361 62.6277C58.6248 62.795 58.4663 62.9256 58.2807 63.0028C58.0951 63.0799 57.8907 63.1003 57.6936 63.0612C57.4964 63.0221 57.3153 62.9254 57.1731 62.7832C57.031 62.6411 56.9342 62.46 56.8952 62.2628C56.8561 62.0656 56.8764 61.8613 56.9536 61.6757C57.0308 61.4901 57.1613 61.3316 57.3287 61.2202C57.496 61.1089 57.6927 61.0497 57.8937 61.0503C58.1622 61.0503 58.4197 61.157 58.6095 61.3468C58.7994 61.5367 58.9061 61.7942 58.9061 62.0627Z" fill="#263238"/>
<path d="M55.2746 62.0627C55.2752 62.2636 55.2161 62.4601 55.1049 62.6274C54.9937 62.7947 54.8353 62.9252 54.6499 63.0025C54.4645 63.0797 54.2603 63.1002 54.0632 63.0614C53.8661 63.0225 53.6849 62.9261 53.5427 62.7842C53.4004 62.6424 53.3035 62.4615 53.2641 62.2645C53.2247 62.0675 53.2446 61.8632 53.3214 61.6776C53.3981 61.4919 53.5283 61.3332 53.6952 61.2216C53.8622 61.1099 54.0586 61.0503 54.2595 61.0503C54.5283 61.0503 54.786 61.1569 54.9763 61.3466C55.1666 61.5364 55.2739 61.7939 55.2746 62.0627Z" fill="#263238"/>
<path d="M69.749 19.247C69.9117 20.7897 70.4996 22.2569 71.4472 23.485C72.3949 24.7131 73.6649 25.6539 75.1159 26.2026C76.5668 26.7513 78.1417 26.8862 79.6648 26.5924C81.1879 26.2985 82.5995 25.5875 83.7423 24.5384L87.93 25.1525L85.8362 21.5318C86.3164 20.3527 86.5215 19.0798 86.4359 17.8096C86.3503 16.5394 85.9763 15.3054 85.3423 14.2014C84.7083 13.0975 83.8309 12.1526 82.777 11.4385C81.723 10.7245 80.5201 10.2601 79.2598 10.0807C77.9994 9.90125 76.7147 10.0115 75.5034 10.403C74.292 10.7946 73.1858 11.4571 72.2689 12.3402C71.352 13.2234 70.6485 14.304 70.2119 15.4998C69.7752 16.6957 69.6169 17.9753 69.749 19.2415V19.247Z" fill="white"/>
<path d="M72.2555 12.3293C73.1676 11.4297 74.2743 10.7518 75.4901 10.348C76.7059 9.94419 77.9983 9.82522 79.2673 10.0003C80.5454 10.1689 81.7678 10.6278 82.8411 11.3418C84.4669 12.4271 85.6676 14.041 86.2397 15.9102C86.8119 17.7794 86.7203 19.7889 85.9805 21.5982V21.4544L88.0605 25.0917L88.2127 25.3683L87.9112 25.3213L83.7234 24.6796L83.823 24.6492C82.6569 25.7035 81.2202 26.4123 79.674 26.696C79.2914 26.7661 78.9038 26.8059 78.515 26.815C78.1277 26.8353 77.7395 26.8279 77.3533 26.7928C75.802 26.6449 74.3219 26.0705 73.077 25.1332C72.7676 24.9018 72.472 24.6525 72.1919 24.3864C71.9223 24.1101 71.6693 23.8183 71.434 23.5123C70.1801 21.8741 69.5707 19.833 69.721 17.7755C69.8714 15.718 70.7712 13.7871 72.2499 12.3487L72.2555 12.3293ZM71.4644 23.4736C71.7 23.7766 71.9541 24.0648 72.225 24.3366C72.5046 24.6008 72.8002 24.8474 73.1102 25.0751C73.7261 25.5371 74.4076 25.9045 75.1321 26.165C75.8507 26.4319 76.6029 26.5976 77.3671 26.6573C77.7493 26.6836 78.1328 26.6836 78.515 26.6573C78.896 26.6404 79.2751 26.5942 79.6491 26.519C81.1519 26.216 82.5406 25.5005 83.6598 24.4528L83.7013 24.4141H83.7594L87.9527 25.0005L87.8033 25.2217L85.6956 21.6065L85.6541 21.5374L85.6845 21.4627C86.1541 20.3061 86.3555 19.0582 86.2735 17.8126C86.1916 16.567 85.8285 15.3562 85.2115 14.271C84.5838 13.1895 83.7288 12.2571 82.7055 11.5382C81.6723 10.825 80.4896 10.3576 79.248 10.1718C77.6068 9.9184 75.9273 10.1643 74.4276 10.8774C72.9279 11.5906 71.6773 12.7382 70.8381 14.1712C69.9989 15.6042 69.6099 17.2564 69.7216 18.9132C69.8332 20.5701 70.4405 22.1552 71.4644 23.4626V23.4736Z" fill="#263238"/>
<path d="M78.8246 19.3994V20.445C78.8268 20.5491 78.808 20.6527 78.7692 20.7493C78.7304 20.846 78.6724 20.9338 78.5987 21.0075C78.5251 21.0811 78.4373 21.1391 78.3406 21.1779C78.2439 21.2167 78.1404 21.2356 78.0363 21.2333C77.8274 21.2326 77.6273 21.1493 77.4796 21.0016C77.332 20.8539 77.2487 20.6539 77.2479 20.445V18.7854C77.2479 18.7688 77.2645 18.7688 77.2645 18.7522C77.2645 18.7356 77.2479 18.7356 77.2479 18.7218C77.2535 18.5145 77.3384 18.3172 77.485 18.1705C77.6317 18.0239 77.8289 17.939 78.0363 17.9334C78.2842 17.9529 78.5335 17.9209 78.7685 17.8394C79.0035 17.7578 79.2191 17.6286 79.4017 17.4597C79.5843 17.2909 79.7301 17.0861 79.8297 16.8582C79.9294 16.6303 79.9809 16.3843 79.9809 16.1355C79.9809 15.8868 79.9294 15.6408 79.8297 15.4129C79.7301 15.185 79.5843 14.9802 79.4017 14.8113C79.2191 14.6425 79.0035 14.5132 78.7685 14.4317C78.5335 14.3502 78.2842 14.3181 78.0363 14.3376C77.7239 14.3364 77.4167 14.4175 77.1457 14.5729C76.8747 14.7283 76.6495 14.9525 76.4928 15.2227C76.439 15.3143 76.3675 15.3941 76.2825 15.4577C76.1974 15.5213 76.1006 15.5673 75.9976 15.5931C75.8946 15.6188 75.7875 15.6238 75.6826 15.6077C75.5776 15.5916 75.477 15.5548 75.3864 15.4993C75.2972 15.4469 75.2193 15.3773 75.1571 15.2946C75.0949 15.2119 75.0496 15.1177 75.0239 15.0175C74.9982 14.9172 74.9926 14.8129 75.0073 14.7105C75.022 14.608 75.0569 14.5095 75.1098 14.4206C75.3897 13.9349 75.7859 13.5264 76.263 13.2319C76.74 12.9375 77.2827 12.7663 77.8423 12.7337C78.402 12.7012 78.9609 12.8084 79.4688 13.0456C79.9767 13.2828 80.4177 13.6426 80.7519 14.0926C81.0862 14.5426 81.3033 15.0687 81.3837 15.6235C81.464 16.1783 81.4052 16.7444 81.2123 17.2707C81.0195 17.7971 80.6988 18.2673 80.2791 18.6389C79.8594 19.0105 79.3538 19.2718 78.808 19.3994H78.8246ZM78.8246 22.9206V23.1972C78.8272 23.3014 78.8087 23.4051 78.77 23.502C78.7313 23.5988 78.6733 23.6868 78.5996 23.7605C78.5259 23.8343 78.4379 23.8923 78.341 23.9309C78.2442 23.9696 78.1405 23.9882 78.0363 23.9855C77.8272 23.9855 77.6267 23.9025 77.4788 23.7546C77.331 23.6068 77.2479 23.4063 77.2479 23.1972V22.9206C77.2508 22.7124 77.3348 22.5136 77.482 22.3663C77.6292 22.2191 77.8281 22.1351 78.0363 22.1323C78.1401 22.1312 78.2431 22.1508 78.3392 22.19C78.4354 22.2292 78.5227 22.2873 78.5962 22.3607C78.6696 22.4341 78.7276 22.5215 78.7668 22.6176C78.806 22.7138 78.8257 22.8168 78.8246 22.9206Z" fill="#76B8EE"/>
</svg>
