<svg viewBox="0 0 48 48" fill="none" xmlns="http://www.w3.org/2000/svg"><g clip-path="url(#clip0_68_8691)"><path d="M10.618 22.022h10.279l9.607-1.948 6.274-3.832-1.202-3.304-13.333 3.093-11.625 5.991z" fill="#EAF4FC"/><path d="M24 15.624v5.769l6.504-1.319 6.274-3.832-1.203-3.304L24 15.624z" fill="#EAF4FC"/><path d="M34.774 10.736a2.637 2.637 0 00-3.38-1.576l-19.822 7.214a2.637 2.637 0 00-1.575 3.38l.365 1.004v1.264h.255l24.958-9.084-.801-2.202z" fill="#FFC24D"/><path d="M31.394 9.16L24 11.85v5.3l11.575-4.213-.801-2.202a2.637 2.637 0 00-3.38-1.576zM24 22.022h14.882l-2.104-5.78L24 20.891v1.13z" fill="#FFC04A"/><path d="M36.305 39h-24.61a2.64 2.64 0 01-2.636-2.637V22.301a2.64 2.64 0 012.636-2.637h24.61a2.64 2.64 0 012.636 2.637v14.062A2.64 2.64 0 0136.305 39z" fill="#084D5B"/><path d="M39 36.41V22.59c0-1.428-.237-2.59-.53-2.59H36v19h2.47c.293 0 .53-1.162.53-2.59z" fill="#06353F"/><path d="M19.313 28.453h-5.86a.879.879 0 01-.879-.879V24.06a.88.88 0 01.88-.88h5.858a.88.88 0 01.88.88v3.515a.879.879 0 01-.88.88z" fill="#FFC24D"/><path d="M15.797 31.969h-2.344a.879.879 0 010-1.758h2.344a.879.879 0 010 1.758zm3.516 3.515h-5.86a.879.879 0 010-1.757h5.86a.879.879 0 010 1.757zm2.343-3.515h-2.343a.879.879 0 010-1.758h2.343a.88.88 0 010 1.758zm5.86 0h-2.344a.879.879 0 010-1.758h2.344a.879.879 0 010 1.758zm5.859 0h-2.344a.88.88 0 010-1.758h2.344a.879.879 0 010 1.758z" fill="#EAF4FC"/></g><defs><clipPath id="clip0_68_8691"><path fill="#fff" transform="translate(9 9)" d="M0 0h30v30H0z"/></clipPath></defs></svg>