<svg viewBox="0 0 48 48" fill="none" xmlns="http://www.w3.org/2000/svg"><g clip-path="url(#clip0_68_8652)"><path d="M24 40c8.284 0 15-6.716 15-15 0-8.284-6.716-15-15-15-8.284 0-15 6.716-15 15 0 8.284 6.716 15 15 15z" fill="#084D5B"/><path d="M22.529 35.58c5.843 0 10.58-4.737 10.58-10.58s-4.737-10.58-10.58-10.58c-5.844 0-10.58 4.737-10.58 10.58s4.736 10.58 10.58 10.58z" fill="#06353F"/><path d="M24 10c-.396 0-.788.016-1.177.046 7.734.6 13.823 7.066 13.823 14.954 0 7.888-6.089 14.354-13.823 14.954.389.03.781.046 1.177.046 8.285 0 15-6.716 15-15 0-8.284-6.715-15-15-15z" fill="#06353F"/><path d="M24 35.58c5.844 0 10.58-4.737 10.58-10.58S29.845 14.42 24 14.42c-5.843 0-10.58 4.737-10.58 10.58S18.157 35.58 24 35.58z" fill="url(#paint0_linear_68_8652)"/><path d="M24.76 15.86l-1.214-1.428a.871.871 0 00-1.328 0l-1.87 2.2a.465.465 0 00.354.766h1.012v7.234a2.178 2.178 0 00-.959 2.315l-2.142 2.142-.716-.716a.465.465 0 00-.793.292l-.232 2.878a.871.871 0 00.939.939l2.878-.233a.465.465 0 00.291-.792l-.716-.716 2.143-2.142c.243.054.501.069.768.032a2.19 2.19 0 001.883-2.035 2.178 2.178 0 00-1.008-1.964v-7.234a.933.933 0 00.71-1.537z" fill="url(#paint1_linear_68_8652)"/><path d="M33.109 25c0 5.596-4.345 10.176-9.845 10.554.243.017.488.026.736.026 5.843 0 10.58-4.737 10.58-10.58S29.843 14.42 24 14.42c-.248 0-.493.01-.736.026 5.5.378 9.845 4.958 9.845 10.554z" fill="url(#paint2_linear_68_8652)"/><path d="M24 14.877a.59.59 0 00-.59.59v1.092a.59.59 0 001.179 0v-1.092a.59.59 0 00-.59-.59z" fill="url(#paint3_linear_68_8652)"/><path d="M24 32.852a.59.59 0 00-.59.59v1.091a.59.59 0 001.179 0v-1.092a.59.59 0 00-.59-.589z" fill="url(#paint4_linear_68_8652)"/><path d="M33.532 24.41h-1.091a.59.59 0 000 1.179h1.091a.59.59 0 000-1.178z" fill="url(#paint5_linear_68_8652)"/><path d="M16.147 25a.59.59 0 00-.589-.59h-1.092a.59.59 0 000 1.179h1.092a.59.59 0 00.59-.59z" fill="url(#paint6_linear_68_8652)"/><path d="M29.065 16.236a.59.59 0 00-.805.215l-.546.946a.59.59 0 001.02.59l.546-.946a.589.589 0 00-.215-.805z" fill="url(#paint7_linear_68_8652)"/><path d="M20.07 31.798a.59.59 0 00-.804.216l-.546.945a.59.59 0 101.02.59l.546-.946a.59.59 0 00-.215-.805z" fill="url(#paint8_linear_68_8652)"/><path d="M32.548 29.26l-.946-.546a.59.59 0 10-.589 1.02l.945.546a.589.589 0 10.59-1.02z" fill="url(#paint9_linear_68_8652)"/><path d="M16.985 20.266l-.945-.546a.589.589 0 10-.59 1.02l.946.546a.59.59 0 00.59-1.02z" fill="url(#paint10_linear_68_8652)"/><path d="M16.396 28.714l-.945.546a.59.59 0 00.59 1.02l.945-.546a.59.59 0 10-.59-1.02z" fill="url(#paint11_linear_68_8652)"/><path d="M31.603 21.286l.946-.546a.589.589 0 10-.59-1.02l-.945.546a.59.59 0 10.59 1.02z" fill="url(#paint12_linear_68_8652)"/><path d="M28.734 32.014a.59.59 0 10-1.02.59l.546.945a.59.59 0 001.02-.59l-.546-.945z" fill="url(#paint13_linear_68_8652)"/><path d="M19.74 16.451a.59.59 0 10-1.02.59l.546.945a.59.59 0 001.02-.59l-.546-.945z" fill="url(#paint14_linear_68_8652)"/><path d="M26.18 15.927h-1.012V25h-2.336v-9.073H21.82a.465.465 0 01-.355-.766l1.871-2.2a.871.871 0 011.328 0l1.87 2.2a.465.465 0 01-.354.766z" fill="url(#paint15_linear_68_8652)"/><path d="M19.014 26.902l.716.716 3.443-3.444 1.652 1.652-3.443 3.444.716.715c.28.28.104.76-.292.793l-2.878.232a.871.871 0 01-.939-.939l.233-2.878a.465.465 0 01.792-.291z" fill="url(#paint16_linear_68_8652)"/><path d="M24 27.18a2.18 2.18 0 100-4.36 2.18 2.18 0 000 4.36z" fill="#5A93AC"/><path d="M26.18 25a2.18 2.18 0 01-3.976 1.233 2.536 2.536 0 002.71-3.213A2.18 2.18 0 0126.18 25z" fill="url(#paint17_linear_68_8652)"/><path d="M33.533 24.411h-.441a10.837 10.837 0 010 1.178h.44a.589.589 0 100-1.178z" fill="url(#paint18_linear_68_8652)"/><path d="M29.065 16.236a.587.587 0 00-.6.006c.303.205.594.426.873.66a.589.589 0 00-.273-.666z" fill="url(#paint19_linear_68_8652)"/><path d="M32.548 29.26l-.266-.154a10.54 10.54 0 01-.519 1.061l.196.114a.59.59 0 00.59-1.02z" fill="url(#paint20_linear_68_8652)"/><path d="M31.96 19.72l-.197.113c.192.343.366.697.52 1.061l.265-.154a.59.59 0 00-.589-1.02z" fill="url(#paint21_linear_68_8652)"/><path d="M28.465 33.758a.588.588 0 00.872-.66c-.278.234-.57.455-.872.66z" fill="url(#paint22_linear_68_8652)"/></g><defs><linearGradient id="paint0_linear_68_8652" x1="12.922" y1="25" x2="34.337" y2="25" gradientUnits="userSpaceOnUse"><stop stop-color="#fff"/><stop offset="1" stop-color="#F9F3F1"/></linearGradient><linearGradient id="paint1_linear_68_8652" x1="12.154" y1="23.305" x2="25.247" y2="23.305" gradientUnits="userSpaceOnUse"><stop stop-color="#F9F3F1"/><stop offset=".573" stop-color="#EFE2DD"/><stop offset="1" stop-color="#CDBFBA"/></linearGradient><linearGradient id="paint2_linear_68_8652" x1="39.114" y1="25" x2="28.703" y2="25" gradientUnits="userSpaceOnUse"><stop stop-color="#F9F3F1"/><stop offset="1" stop-color="#EFE2DD"/></linearGradient><linearGradient id="paint3_linear_68_8652" x1="13.705" y1="16.013" x2="34.092" y2="16.013" gradientUnits="userSpaceOnUse"><stop stop-color="#537983"/><stop offset="1" stop-color="#3E5959"/></linearGradient><linearGradient id="paint4_linear_68_8652" x1="13.705" y1="33.987" x2="34.092" y2="33.987" gradientUnits="userSpaceOnUse"><stop stop-color="#537983"/><stop offset="1" stop-color="#3E5959"/></linearGradient><linearGradient id="paint5_linear_68_8652" x1="13.705" y1="25" x2="34.092" y2="25" gradientUnits="userSpaceOnUse"><stop stop-color="#537983"/><stop offset="1" stop-color="#3E5959"/></linearGradient><linearGradient id="paint6_linear_68_8652" x1="13.705" y1="25" x2="34.092" y2="25" gradientUnits="userSpaceOnUse"><stop stop-color="#537983"/><stop offset="1" stop-color="#3E5959"/></linearGradient><linearGradient id="paint7_linear_68_8652" x1="13.706" y1="17.219" x2="34.093" y2="17.219" gradientUnits="userSpaceOnUse"><stop stop-color="#537983"/><stop offset="1" stop-color="#3E5959"/></linearGradient><linearGradient id="paint8_linear_68_8652" x1="13.706" y1="32.781" x2="34.093" y2="32.781" gradientUnits="userSpaceOnUse"><stop stop-color="#537983"/><stop offset="1" stop-color="#3E5959"/></linearGradient><linearGradient id="paint9_linear_68_8652" x1="13.705" y1="29.497" x2="34.092" y2="29.497" gradientUnits="userSpaceOnUse"><stop stop-color="#537983"/><stop offset="1" stop-color="#3E5959"/></linearGradient><linearGradient id="paint10_linear_68_8652" x1="13.705" y1="20.503" x2="34.092" y2="20.503" gradientUnits="userSpaceOnUse"><stop stop-color="#537983"/><stop offset="1" stop-color="#3E5959"/></linearGradient><linearGradient id="paint11_linear_68_8652" x1="13.706" y1="29.497" x2="34.092" y2="29.497" gradientUnits="userSpaceOnUse"><stop stop-color="#537983"/><stop offset="1" stop-color="#3E5959"/></linearGradient><linearGradient id="paint12_linear_68_8652" x1="13.706" y1="20.503" x2="34.093" y2="20.503" gradientUnits="userSpaceOnUse"><stop stop-color="#537983"/><stop offset="1" stop-color="#3E5959"/></linearGradient><linearGradient id="paint13_linear_68_8652" x1="13.706" y1="32.781" x2="34.093" y2="32.781" gradientUnits="userSpaceOnUse"><stop stop-color="#537983"/><stop offset="1" stop-color="#3E5959"/></linearGradient><linearGradient id="paint14_linear_68_8652" x1="13.706" y1="17.219" x2="34.093" y2="17.219" gradientUnits="userSpaceOnUse"><stop stop-color="#537983"/><stop offset="1" stop-color="#3E5959"/></linearGradient><linearGradient id="paint15_linear_68_8652" x1="24" y1="12.654" x2="24" y2="25" gradientUnits="userSpaceOnUse"><stop stop-color="#FFCC5B"/><stop offset="1" stop-color="#FEB53C"/></linearGradient><linearGradient id="paint16_linear_68_8652" x1="17.196" y1="27.594" x2="26.442" y2="27.594" gradientUnits="userSpaceOnUse"><stop stop-color="#FFC856"/><stop offset="1" stop-color="#FFD263"/></linearGradient><linearGradient id="paint17_linear_68_8652" x1="20.115" y1="25.1" x2="26.369" y2="25.1" gradientUnits="userSpaceOnUse"><stop stop-color="#AEDAFE"/><stop offset="1" stop-color="#094F5E"/></linearGradient><linearGradient id="paint18_linear_68_8652" x1="20.568" y1="25" x2="32.914" y2="25" gradientUnits="userSpaceOnUse"><stop stop-color="#537983"/><stop offset="1" stop-color="#384949"/></linearGradient><linearGradient id="paint19_linear_68_8652" x1="20.568" y1="16.529" x2="32.915" y2="16.529" gradientUnits="userSpaceOnUse"><stop stop-color="#537983"/><stop offset="1" stop-color="#384949"/></linearGradient><linearGradient id="paint20_linear_68_8652" x1="20.568" y1="29.733" x2="32.915" y2="29.733" gradientUnits="userSpaceOnUse"><stop stop-color="#537983"/><stop offset="1" stop-color="#384949"/></linearGradient><linearGradient id="paint21_linear_68_8652" x1="20.568" y1="20.267" x2="32.915" y2="20.267" gradientUnits="userSpaceOnUse"><stop stop-color="#537983"/><stop offset="1" stop-color="#384949"/></linearGradient><linearGradient id="paint22_linear_68_8652" x1="20.568" y1="33.471" x2="32.915" y2="33.471" gradientUnits="userSpaceOnUse"><stop stop-color="#537983"/><stop offset="1" stop-color="#384949"/></linearGradient><clipPath id="clip0_68_8652"><path fill="#fff" transform="translate(9 10)" d="M0 0h30v30H0z"/></clipPath></defs></svg>