<svg viewBox="0 0 132 132" fill="none" xmlns="http://www.w3.org/2000/svg"><path d="M108.495 34.864l2.83 1.756.537-.866a.795.795 0 01.745-.368c.167.013.331.019.497.016a.788.788 0 01.721.411l.481.9 2.935-1.574-.481-.898a.8.8 0 01.053-.828 5.01 5.01 0 00.269-.425.787.787 0 01.718-.417l1.018.033.105-3.33-1.024-.03a.786.786 0 01-.688-.465 7.407 7.407 0 00-.11-.217 3.585 3.585 0 00-.124-.215.81.81 0 010-.826l.538-.873-2.83-1.755-.538.868a.79.79 0 01-.747.366 5.022 5.022 0 00-.495-.017.808.808 0 01-.717-.413l-.484-.898-2.935 1.575.481.898a.808.808 0 01-.051.827 4.116 4.116 0 00-.269.422.783.783 0 01-.72.417l-1.022-.03-.102 3.328 1.022.032a.81.81 0 01.688.462 4.645 4.645 0 00.231.436.791.791 0 010 .83l-.532.868zm2.102-2.819a2.722 2.722 0 01.295-3.017 2.73 2.73 0 014.218-.002 2.73 2.73 0 01-.82 4.137 2.728 2.728 0 01-3.693-1.118zm-4.87 16.121l1.166 2.022.618-.358a.539.539 0 01.583.019c.097.064.198.122.301.175a.542.542 0 01.307.491v.715h2.336v-.715a.533.533 0 01.306-.492c.104-.052.204-.11.301-.174a.537.537 0 01.583-.019l.618.358 1.167-2.022-.621-.36a.547.547 0 01-.269-.513v-.344a.558.558 0 01.269-.514l.624-.357-1.167-2.021-.621.357a.55.55 0 01-.58-.021 4.284 4.284 0 00-.301-.175.542.542 0 01-.307-.492v-.715h-2.335v.715a.534.534 0 01-.307.492 4.22 4.22 0 00-.298.175.558.558 0 01-.583.021l-.621-.357-1.167 2.021.621.357a.547.547 0 01.269.514v.344a.562.562 0 01-.269.516l-.623.357zm2.23-1.045a1.917 1.917 0 011.182-1.769 1.914 1.914 0 11-1.182 1.769zM12.585 71.273l1.166 2.021.618-.357a.551.551 0 01.58.021c.1.062.2.121.305.175a.553.553 0 01.306.492v.707h2.327v-.715a.538.538 0 01.31-.492 4.05 4.05 0 00.3-.175.55.55 0 01.581-.021l.621.357 1.164-2.021-.621-.358a.55.55 0 01-.269-.513v-.344a.55.55 0 01.269-.513l.62-.36-1.163-2.022-.62.358a.538.538 0 01-.584-.019 3.057 3.057 0 00-.301-.175.553.553 0 01-.306-.484v-.714H15.56v.715a.553.553 0 01-.306.491 2.989 2.989 0 00-.301.175.538.538 0 01-.581.019l-.62-.358-1.167 2.022.62.36a.558.558 0 01.27.51v.347a.554.554 0 01-.27.514l-.62.357zm2.23-1.043a1.91 1.91 0 113.822 0 1.91 1.91 0 01-3.822 0zM46.994 8.293H11.583v54.299h35.41v-54.3z" fill="#EBEBEB"/><path d="M28.467 10.468H13.512V34.62h14.955V10.468zm16.599 0H30.114V34.62h14.952V10.468zM28.467 36.265H13.512v24.152h14.955V36.265zm16.599 0H30.114v24.152h14.952V36.265z" fill="#fff"/><path d="M22.567 10.468l-9.055 9.055V14.18l3.715-3.712h5.34zm-9.055 49.057L28.467 44.57v5.338L17.96 60.417h-4.448v-.892zm28.601-23.26L30.112 48.266v-5.34l6.66-6.66h5.34zm2.953-8.292v5.338l-1.308 1.309h-5.341l6.65-6.647zm0 26.848v5.34l-.255.256h-5.338l5.593-5.596zM14.37 36.265h2.668l-3.526 3.526V37.12l.857-.855zm1.644-1.645l12.453-12.455v2.669l-9.784 9.786h-2.669zm26.822-24.152l-12.724 12.72V20.52l10.055-10.052h2.669zm-15.88 0L13.512 23.912v-.67l12.775-12.774h.67zm-5.084 49.949l6.595-6.598v.67l-5.926 5.928h-.67zm23.194-23.192v.663L30.112 52.843v-.67l14.954-14.948zM90.36 8.293H54.95v54.299h35.41v-54.3z" fill="#EBEBEB"/><path d="M71.834 10.468H56.879V34.62h14.955V10.468zm16.596 0H73.48V34.62h14.95V10.468zM71.834 36.265H56.879v24.152h14.955V36.265zm16.596 0H73.48v24.152h14.95V36.265z" fill="#fff"/><path d="M56.879 36.265h1.408l-1.408 1.408v-1.408zm0-3.932l14.955-14.957v5.343L59.932 34.62H56.88v-2.287zm27.206-21.865L73.479 21.074V15.73l5.262-5.262h5.344zm4.345 33.64v5.34l-10.965 10.97h-3.986V59.06L88.43 44.108zm-16.596-33.64v.494L56.879 25.917v-2.672l12.775-12.777h2.18zM65.9 60.417l5.934-5.935v2.67l-3.266 3.265H65.9zm22.53-22.534v2.671L73.48 55.506v-2.669l14.95-14.954zm-28.326-1.618h.67l-3.895 3.895v-.667l3.225-3.228zm1.646-1.645l10.084-10.084v.669l-9.416 9.415h-.669zm24.82-24.152L73.48 23.56v-.67L85.9 10.469h.67zM56.879 59.915L71.834 44.96v.666L57.043 60.418h-.164v-.502zm24.316-23.65l-7.716 7.717v-.667l7.047-7.05h.67zm7.235-7.905v.67l-5.59 5.59h-.67l6.26-6.26zm-22.432 88.038c21.815 0 39.499-2.384 39.499-5.325 0-2.94-17.684-5.324-39.499-5.324S26.5 108.133 26.5 111.073c0 2.941 17.684 5.325 39.5 5.325z" fill="#EBEBEB"/><path d="M113.002 113.339c6.125 0 11.09-.983 11.09-2.196s-4.965-2.196-11.09-2.196-11.09.983-11.09 2.196 4.965 2.196 11.09 2.196zm-68.914 8.171c22.863 0 41.397-2.171 41.397-4.849 0-2.678-18.534-4.849-41.397-4.849S2.69 113.983 2.69 116.661c0 2.678 18.534 4.849 41.397 4.849z" fill="#EBEBEB"/><path d="M7.782 104.567l14.554-.065 14.554-.024 29.11-.046 29.108.046 14.554.024 14.554.065-14.554.067-14.554.021-29.108.046-29.109-.046-14.554-.021-14.554-.067z" fill="#263238"/><path d="M37.151 100.733l-3.832 10.34h4.499l8.332-5.676-8.999-4.664z" fill="#76B8EE"/><path opacity=".1" d="M37.151 100.733l-3.832 10.34h4.499l8.332-5.676-8.999-4.664z" fill="#000"/><path d="M94.847 100.733l3.832 10.34H94.18l-8.332-5.676 8.999-4.664z" fill="#76B8EE"/><path opacity=".1" d="M94.847 100.733l3.832 10.34H94.18l-8.332-5.676 8.999-4.664z" fill="#000"/><path d="M98.508 98.508c17.955-17.953 17.955-47.063 0-65.016-17.953-17.954-47.063-17.954-65.016 0-17.954 17.953-17.954 47.063 0 65.017 17.953 17.954 47.063 17.954 65.017 0z" fill="#76B8EE"/><path opacity=".1" d="M65.44 109.114c24.228 0 43.87-19.641 43.87-43.87 0-24.228-19.642-43.869-43.87-43.869-24.228 0-43.87 19.641-43.87 43.87 0 24.228 19.642 43.869 43.87 43.869z" fill="#000"/><path d="M95.059 94.866c16.05-16.05 16.05-42.072 0-58.122-16.05-16.05-42.072-16.05-58.122 0-16.05 16.05-16.05 42.072 0 58.122 16.05 16.05 42.072 16.05 58.122 0z" fill="#fff"/><path d="M106.159 57.074c-18.714 11.34-49.473 29.941-66.656 40.139A41.124 41.124 0 0128.271 82.11l56.854-52.696a41.137 41.137 0 0121.034 27.66zm.903 10.156a40.736 40.736 0 01-2.717 13.356l-51.247 24.241a40.64 40.64 0 01-6.475-2.782c15.473-8.948 43.77-25.227 60.439-34.814z" fill="#EBEBEB"/><path d="M66.394 27.689h-.793v6.23h.793v-6.23zm-19.107 4.903l-.689.397 3.115 5.396.69-.398-3.116-5.395zm-14.1 13.805l-.396.687 5.395 3.115.397-.687-5.396-3.115zm.927 19.009h-6.23v.793h6.23v-.793zm4.068 15.998l-5.396 3.115.397.687 5.395-3.115-.396-.687zm11.529 11.82L46.6 98.62l.689.397 3.112-5.397-.689-.397zm16.683 4.465h-.793v6.23h.793v-6.23zm15.894-4.473l-.689.398 3.115 5.396.69-.398-3.116-5.395zm11.521-11.82l-.397.687 5.396 3.115.396-.686-5.395-3.116zm10.305-15.99h-6.23v.793h6.23v-.793zM98.81 46.409l-5.396 3.115.396.687 5.396-3.115-.397-.687zM84.714 32.6l-3.112 5.397.689.398 3.112-5.398-.689-.397z" fill="#C7C7C7"/><path d="M103.804 66.333l-39.862 1.113.049-3.898 39.824 1.726-.011 1.059z" fill="#76B8EE"/><path d="M66.273 37.773l1.726 30.334-3.9-.051 1.118-30.297 1.056.014z" fill="#263238"/><path d="M65.999 67.134a1.33 1.33 0 100-2.66 1.33 1.33 0 000 2.66z" fill="#76B8EE"/><path d="M102.695 65.78c-.148-.447-8.064-10.9-8.601-11.098-.062-.027-3.596 2.489-3.596 2.489-.148.193-6.868-1.226-6.868-1.226l-.067 8.106 12.243-.268s1.653.973 3.166 1.765a18.11 18.11 0 001.989.965c.621.167 1.884-.29 1.734-.733z" fill="#DD6A57"/><path d="M100.969 66.522a17.386 17.386 0 01-1.989-.965 116.664 116.664 0 01-3.166-1.766l-2.725.059-4.271-6.883c.938.166 1.634.268 1.682.204 0 0 3.535-2.519 3.597-2.49.537.2 8.45 10.65 8.6 11.099.151.448-1.115.9-1.728.742z" fill="#fff"/><path d="M102.767 65.793c-.156-.457-8.101-10.902-8.658-11.109-.21-.08-1.938.99-3.61 2.487l5.129 6.719s4.733 2.508 5.375 2.669c.643.161 1.92-.31 1.764-.766z" fill="#A6A6A6"/><path d="M102.235 65.96c-1.376-1.718-6.76-8.776-7.988-10.58 0-.016 0-.021 0 0 1.398 1.672 6.72 8.776 8.004 10.566.033.03.014.054-.016.013zm-2.126.22a1.755 1.755 0 01-.368-1.37 1.7 1.7 0 01.637-1.105s.024 0 .016.021a2.04 2.04 0 00-.269 2.438l.006.003a.015.015 0 01.004.006v.007a.015.015 0 01-.004.006c-.001.002-.003.003-.006.004h-.007a.018.018 0 01-.006-.004.008.008 0 01-.003-.006zm-3.887-1.866c-.537-.693-.913-1.695-.672-2.566 0-.035.06-.02.062 0 .145.858.382 1.697.707 2.505a.057.057 0 11-.097.061zm.624.38c-.537-.694-.913-1.694-.672-2.565 0-.035.057-.021.062 0 .146.857.382 1.696.704 2.503a.056.056 0 11-.094.061zm.621.381c-.538-.693-.914-1.696-.672-2.567 0-.032.059-.019.064 0 .143.857.38 1.696.705 2.502a.058.058 0 01-.06.09.058.058 0 01-.037-.025zm.623.388c-.537-.694-.913-1.694-.671-2.565 0-.035.056-.021.062 0 .145.857.381 1.696.704 2.503a.056.056 0 01-.094.062zm-5.165-8.37c-.597-.79.626-1.718 1.225-.928.6.79-.629 1.715-1.225.928z" fill="#263238"/><path d="M95.914 65.656c.201-.75.07-1.56.035-2.32a.108.108 0 00-.056-.08.106.106 0 00-.098-.003.021.021 0 00-.017-.01.021.021 0 00-.017.009 4.639 4.639 0 00-1.31 2c-.14.452-.085 1.119.479 1.25.564.132.868-.408.984-.846zm-.557.473c-.806.51-.752-.621-.637-.952.077-.21.166-.416.27-.615.224-.407.47-.801.736-1.183 0 .374.021.747.03 1.12.018.447.053 1.35-.399 1.63z" fill="#263238"/><path d="M93.413 61.097c-.416.404-.118 1 .234 1.315a4.62 4.62 0 002.15 1.04l.01-.001a.026.026 0 00.01-.005.025.025 0 00.007-.018.11.11 0 00.09-.15c-.364-.67-.67-1.433-1.227-1.97-.32-.315-.876-.592-1.273-.21zm1.745 1.277c.185.325.355.659.553.976a13.87 13.87 0 01-1.244-.635 5.21 5.21 0 01-.554-.384c-.268-.22-.905-1.16.054-1.145.538.01.973.801 1.196 1.188h-.005z" fill="#263238"/><path d="M83.262 53.459h-5.494s-5.749-2.763-10.377-1.65c-5.309 1.276-5.989 7.942-2.021 10.299 5.028 2.986 27.396 2.419 27.396 2.419l-4.835-8.203s-7.44-1.564-14.186-1.344l9.517 1.298v-2.82z" fill="#455A64"/><path d="M88.25 56.862a.238.238 0 010-.043v-.035c0-.025-.013-.051-.019-.078-.005-.027-.037-.108-.056-.162-.019-.053-.046-.104-.07-.155a.95.95 0 00-.089-.146h-.013c-.82-.153-6.378-.948-7.203-1.043a84.394 84.394 0 00-2.505-.241 49.59 49.59 0 00-5.016-.18h-.47c-.032 0-.07-.017-.102-.025l-.242-.056c-.15-.027-.304-.051-.454-.073-.317-.048-.635-.083-.952-.142-.019 0-.024.027 0 .03.317.072.627.163.944.23l.268.06a51.77 51.77 0 00-1.838.134c-.019 0-.019.032 0 .032a32.525 32.525 0 012.508-.043c.833.014 1.655.033 2.483.081 1.675.097 3.346.245 5.013.42.935.099 6.604.924 7.542.964h.013a.618.618 0 00.024.065l.08.153c.028.048.055.094.084.14l.046.07.024.032s.022.024.024.035c.003.01-.01-.024-.024-.024z" fill="#263238"/><path d="M91.022 64.019a25.44 25.44 0 01-.834-1.484 41.747 41.747 0 00-.825-1.486c-.55-.986-2.524-4.3-2.72-4.54 0-.013-.037 0-.032.02.094.268 1.328 2.456 1.612 2.956.568.98 1.164 1.94 1.753 2.91.167.27.341.538.51.823.17.285.353.537.509.828 0 .005.037-.01.026-.027zm-4.432-6.682c-.493-.12-.998-.196-1.498-.29l-1.5-.282-3.004-.538a81.48 81.48 0 00-6.034-.806c-1.14-.108-2.282-.18-3.427-.27-.025 0-.022.036 0 .038 2.034.092 4.066.366 6.082.656 2.016.29 3.986.602 5.975.938l1.682.288c.57.1 1.14.22 1.713.293.024.008.034-.024.01-.027z" fill="#263238"/><path d="M92.274 92.447c-.48-.048-12.463-5.434-12.79-5.929-.124-.185.558-1.975 1.443-4.118.193-.462.392-.938.599-1.419 1.344-3.134 2.825-6.429 2.825-6.429l8.025 3.58-3.045 6.33-.666 1.39s3.663 4.112 3.964 4.692c.301.58.13 1.952-.355 1.903z" fill="#DD6A57"/><path d="M92.274 92.447c-.48-.048-12.463-5.434-12.79-5.929-.151-.226.886-2.822 2.042-5.537l7.794 3.481-.666 1.39s3.663 4.112 3.964 4.692c.301.581.14 1.952-.344 1.903z" fill="#fff"/><path d="M92.274 92.447c-.48-.048-12.463-5.434-12.79-5.929-.124-.185.558-1.975 1.443-4.118l7.738 3.451s3.663 4.113 3.964 4.693c.301.58.13 1.952-.355 1.903z" fill="#A6A6A6"/><path d="M92.32 91.89c-1.986-.95-10.09-4.603-12.124-5.393-.02 0-.022 0 0 0 1.948.986 10.082 4.569 12.116 5.415.027.03.049-.002.008-.021zm-.27-2.122a1.769 1.769 0 00-1.42-.049 1.693 1.693 0 00-.93.871s.015.022.023 0a2.04 2.04 0 012.317-.806.016.016 0 00.005-.002.014.014 0 00.006-.009v-.005zM89.352 86.4c-.806-.371-1.86-.506-2.653-.073-.032.016 0 .06.022.057.87-.052 1.741-.01 2.602.123a.056.056 0 00.06-.04.057.057 0 00-.03-.067zm.511.521c-.806-.37-1.857-.508-2.653-.075-.03.019 0 .062.025.06a12.2 12.2 0 012.62.122.053.053 0 00.036-.02.054.054 0 00.011-.04.056.056 0 00-.02-.037.052.052 0 00-.019-.01zm.513.522c-.806-.374-1.86-.508-2.652-.076-.033.017 0 .062.021.06a12.23 12.23 0 012.6.12.056.056 0 00.031-.104zm.511.521c-.806-.373-1.857-.508-2.652-.075-.03.016 0 .059.024.059a12.2 12.2 0 012.599.121.055.055 0 00.067-.038.055.055 0 00-.038-.067zm-9.324-3.15c-.903-.403-1.532 1-.626 1.406.906.406 1.532-1 .626-1.406z" fill="#263238"/><path d="M91.186 84.647c-.256-.521-.917-.422-1.326-.185a4.615 4.615 0 00-1.657 1.738.021.021 0 00.008.02.02.02 0 00.01.005.107.107 0 00.025.094.108.108 0 00.09.035c.75-.137 1.57-.193 2.256-.559.403-.212.835-.656.594-1.148zm-1.756 1.264c-.365.078-.736.137-1.099.228.323-.336.632-.685.987-.989.17-.148.35-.286.537-.411.296-.186 1.387-.503 1.075.408-.175.5-1.061.672-1.5.764z" fill="#263238"/><path d="M86.076 85.591c.65.422 1.462.538 2.199.75.075.021.129-.054.126-.121a.022.022 0 00.01-.004.022.022 0 00.01-.018 4.607 4.607 0 00-1.503-1.873c-.388-.269-1.038-.427-1.345.07-.306.497.121.957.503 1.196zm-.282-.677c-.234-.933.828-.525 1.105-.312.176.14.343.292.5.454.318.343.618.702.9 1.075-.355-.12-.718-.212-1.075-.32-.43-.134-1.301-.381-1.43-.897z" fill="#263238"/><path d="M81.708 80.245l9.018 4.08s10.751-20.62 11.019-26.934c.24-5.376-3.494-7.445-15.589-3.97l-2.956.038V55.5c1.298.172 4.768.718 4.768.718 2.524.951 3.335 1.344 3.295 1.427-6.284 12.708-9.555 22.599-9.555 22.599z" fill="#455A64"/><path d="M92.75 55.378a22.11 22.11 0 00-1.024 1.508 21.66 21.66 0 00-6.15-1.613 25.837 25.837 0 00-1.79-.159c-.024 0-.024.035 0 .038 2.126.142 4.227.535 6.26 1.172.562.172 1.113.373 1.667.572a37.786 37.786 0 00-1.102 1.895 37.686 37.686 0 00-1.766 3.696 39.45 39.45 0 00-.823 2.11c0 .021.027.035.035.013a97.558 97.558 0 013.613-7.22c.368-.663.752-1.319 1.112-1.988.011-.019-.019-.04-.032-.024zm-1.817 26.767c-.538-.207-1.038-.462-1.554-.693l-1.55-.696c-1.03-.463-4.6-1.941-4.895-2.01-.019 0-.03.023-.013.034.228.148 2.531 1.172 3.05 1.395 1.043.446 2.094.86 3.145 1.285.3.12.602.234.903.355.3.12.607.225.9.357.019.008.03-.022.014-.027zm1.774-25.821c-.712 1.344-1.32 2.77-1.938 4.169a197.14 197.14 0 00-1.798 4.198 152.94 152.94 0 00-3.225 8.504 157.465 157.465 0 00-1.613 4.889c0 .021.03.032.038 0a201.485 201.485 0 013.075-8.601 199.782 199.782 0 013.437-8.448c.34-.78.686-1.561 1.038-2.34.352-.78.717-1.554 1.048-2.342 0-.048-.046-.075-.062-.03z" fill="#263238"/><path d="M77.825 54.114c.204.202 12.753.081 12.815 0 .164-.22-1.715-8.127-3.126-11.127-1.806-3.843-2.76-4.163-3.333-4.378a4.44 4.44 0 00-2.346-.02c-.355.16-1.855 1.958-2.277 3.385-.846 2.865-1.914 11.963-1.733 12.14z" fill="#76B8EE"/><path d="M86.291 39.598c5.54 3.887 10.402 9.375 10.01 11.176-.415 1.903-4.083 4.139-7.37 4.676-.672.11-2.927-4.778-2.242-5.031.537-.194 2.956-.97 3.247-1.317.196-.242-3.785-5.472-5.107-8.23-1.4-2.884-.016-2.314 1.462-1.274z" fill="#DD6A57"/><path d="M88.078 50.226s-2.056.268-3.395.516c-.744.137-2.002.48-2.505.833-.75.524-3.558 3.193-2.924 3.889.573.629 1.37-.422 1.37-.422s-.98 1.075-.22 1.513c.761.438 1.675-1.016 1.675-1.016s-1.12 1.06-.269 1.462c.742.35 1.973-1.23 1.973-1.23s-1.298.983-.573 1.416c.807.478 2.957-1.658 2.957-1.658a9.735 9.735 0 004.088-.406c.22-.073-2.177-4.897-2.177-4.897z" fill="#DD6A57"/><path d="M81.778 55.894l.234-.334a6.85 6.85 0 01.473-.637 8.82 8.82 0 01.538-.561c.19-.183.408-.363.596-.56a.016.016 0 01.03.003v.007a.016.016 0 01-.008.012c-.19.192-.37.394-.538.605l-.502.61c-.164.202-.339.387-.508.583a8.456 8.456 0 00-.242.299c-.07.1-.149.194-.234.282l-.019-.014a1.86 1.86 0 01.18-.295zm-1.352-.626c.255-.42.54-.82.852-1.199.317-.378.67-.723 1.056-1.03a.016.016 0 01.01 0 .016.016 0 01.012.022c-.317.38-.64.753-.96 1.124-.158.182-.846 1.034-.93 1.115-.021.019-.05-.01-.04-.032zm2.61 1.249c.25-.388.524-.76.822-1.112a9.204 9.204 0 011.075-.914.016.016 0 01.022.021c-.336.33-.677.654-.995 1.003-.155.17-.736.879-.9 1.027-.008.013-.032-.006-.024-.025z" fill="#263238"/><path d="M92.467 44.412l-4.031 2.803s-3.21-4.631-4.075-6.846c-.865-2.215.06-2.25 2.274-.696 2.215 1.554 5.832 4.739 5.832 4.739z" fill="#76B8EE"/><path d="M91.513 43.853a33.74 33.74 0 01-3.354 2.419c-.014 0-.03-.014-.014-.024.307-.2 1.946-1.49 3.352-2.42.016-.013.035.011.016.025z" fill="#263238"/><path d="M79.512 39.66c-4.316 2.419-8.332 5.332-9.057 7.284-.447 1.228.225 3.405.758 4.711.268.634 6.249-2.067 5.727-2.583-1.29-1.28-1.508-1.803-1.381-2.075.078-.172 4.746-4.5 6.03-6.42 1.794-2.68-.19-1.974-2.077-.917z" fill="#DD6A57"/><path d="M79.438 54.953c-.565.341-1.285-1.118-1.285-1.118a1.213 1.213 0 01-.315.763c-.352.352-1.061-.045-1.061-.045a1.505 1.505 0 01-.46.752c-.373.304-1.145 0-1.145 0a1.325 1.325 0 01-.822.406c-.842.054-1.591-.992-2.075-1.653-.484-.661-1.237-2.983-1.425-3.413l4.21-3.14s3.01 2.341 3.466 3.199c.374.728 1.761 3.739.912 4.25z" fill="#DD6A57"/><path d="M78.15 53.814a10.938 10.938 0 00-1.075-2.454c0-.016-.035 0-.027.016.432.769.672 1.669 1.075 2.454a.021.021 0 00.017-.002.02.02 0 00.01-.014zm-1.342.686a2.246 2.246 0 00-.282-.538 11.58 11.58 0 00-.35-.538 35.075 35.075 0 00-.744-1.075c0-.016-.037 0-.026 0a28.857 28.857 0 011.02 1.65c.093.183.204.356.331.516a.03.03 0 00.031.008.03.03 0 00.02-.024zm-1.658.794a1.613 1.613 0 00-.282-.473l-.333-.489c-.22-.325-.44-.653-.65-.986 0-.019-.038 0-.027.013.21.342.416.686.631 1.024.105.167.21.334.317.497.084.16.195.304.328.425l.016-.01z" fill="#263238"/><path d="M73.282 43.288l3.317 3.046s4.104-3.879 5.257-5.959c1.153-2.08.245-2.236-2.15-.997-2.395 1.239-6.424 3.91-6.424 3.91z" fill="#76B8EE"/><path d="M73.282 43.288l3.317 3.046s4.104-3.879 5.257-5.959c1.153-2.08.245-2.236-2.15-.997-2.395 1.239-6.424 3.91-6.424 3.91z" fill="#76B8EE"/><path d="M77.242 45.49a31.49 31.49 0 01-2.927-2.734c-.014 0 0-.03.019-.016.247.252 1.779 1.57 2.93 2.728.023.013-.009.032-.022.021zm2.703-4.284c-.15.349-.3.698-.424 1.058a.674.674 0 000-.072c.011-.218.037-.436.078-.65 0-.025-.033-.033-.035 0-.043.215-.08.432-.108.653-.013.104-.019.21-.024.314v.038c-.14.478-.223.965-.341 1.446 0 .024.032.032.037 0 .116-.473.29-.933.441-1.395.15-.463.269-.933.411-1.395-.005-.003-.027-.014-.035.002z" fill="#263238"/><path d="M82.195 40.757c.712.172 1.94-.914 2.42-1.793.031-.062-.057-.699-.13-1.481a16.98 16.98 0 01-.078-1.486c0-.1-3.042.725-3.042.725a7.78 7.78 0 01.285 1.863.936.936 0 01-.022.199v.032c-.06.379-.12 1.774.567 1.94z" fill="#DD6A57"/><path d="M84.23 36.007c-.145.82-.664 2.798-2.288 2.828a1.607 1.607 0 01-.309-.019v-.032a1.2 1.2 0 00.025-.2 7.716 7.716 0 00-.288-1.862s2.198-.596 2.86-.715z" fill="#263238"/><path d="M84.254 31.978c.537.992.588 4.158-.027 4.989-.893 1.207-2.659 1.658-3.763.516-1.105-1.142-1.075-5.233-.35-6.02 1.06-1.162 3.355-.941 4.14.515z" fill="#DD6A57"/><path d="M81.857 34.806s.016 0 .016.019c0 .214.032.46.226.537-.242-.027-.283-.352-.242-.556z" fill="#263238"/><path d="M82.036 34.58c.341-.032.385.653.067.686-.317.032-.354-.656-.067-.686zm-1.376.306s-.016 0-.016.019c.021.212 0 .46-.18.538.234-.033.247-.352.196-.557z" fill="#263238"/><path d="M80.456 34.674c-.344 0-.328.686 0 .688.328.003.287-.682 0-.688zm1.866-.658c-.097 0-.189-.02-.282-.03a.454.454 0 01-.283-.083.15.15 0 01-.019-.178.363.363 0 01.347-.12.536.536 0 01.35.15.157.157 0 01-.03.234.156.156 0 01-.083.027zm-2.212.177c.09-.024.18-.054.268-.089a.446.446 0 00.269-.14.145.145 0 00-.019-.177.358.358 0 00-.384-.04.537.537 0 00-.312.223.156.156 0 00.177.223zm2.217 2.569c-.049.054-.094.127-.172.137a.574.574 0 01-.231-.04s-.014 0 0 0a.284.284 0 00.268.1.227.227 0 00.156-.2s-.013-.005-.021.003zm-.264-.623a.723.723 0 01-.462.352 1.053 1.053 0 01-.269.03h-.097a.054.054 0 01-.045-.046v-.04c-.017-.164-.014-.414-.014-.414-.059.032-.355.188-.357.102-.025-.74.025-1.48.147-2.21a.021.021 0 01.008-.01.021.021 0 01.033.01c.027.686-.065 1.369-.049 2.057.106-.057.22-.1.336-.127.025 0 0 .484 0 .557a1.015 1.015 0 00.737-.27c.027-.02.045-.007.032.009z" fill="#263238"/><path d="M81.432 36.434a.874.874 0 00.36.248.4.4 0 00.237 0c.166-.057.161-.213.123-.344a.94.94 0 00-.088-.2 1.112 1.112 0 01-.632.296z" fill="#263238"/><path d="M81.792 36.677c.077.024.16.024.236 0 .167-.057.161-.213.124-.344a.403.403 0 00-.36.344z" fill="#FF98B9"/><path d="M79.891 32.879c1.121.586 2.42-.656 2.42-.656a1.134 1.134 0 001.228.578s.411 1.73.87 1.671c.705-.088.64-2.505.363-2.956a1.274 1.274 0 00-.89-.495c-.1-.276-.3-.504-.56-.64-.538-.311-2.127.382-2.127.382a1.56 1.56 0 00-.494-.537.441.441 0 00-.621.132 1 1 0 01.22.413c.145.503-.269.551-.325.087a.726.726 0 01.105-.5c-.242-.27-.592-.34-.777-.151-.347.36-.341 2.196.588 2.672z" fill="#263238"/><path d="M80.3 35.83c-.32.021-.607-.352-.64-.834-.031-.48.197-.895.517-.916.32-.021.605.352.64.833.035.481-.197.893-.516.917zm-.115-1.632c-.255.016-.438.371-.409.79.03.42.27.742.517.723.247-.018.438-.37.405-.79-.032-.419-.26-.742-.513-.723zm2.075 1.492a.88.88 0 11.755-.932.852.852 0 01-.756.932zm-.116-1.634a.764.764 0 10.755.71.737.737 0 00-.755-.71z" fill="#76B8EE"/><path d="M81.416 34.792c-.45-.123-.637.035-.637.035l-.08-.086s.23-.204.746-.062l-.03.113zm1.534-.107l-.03-.116c.076-.019 1.836-.476 2.03-.5.264.03.52.11.755.234l-.048.105a2.26 2.26 0 00-.683-.223c-.161.019-1.392.336-2.024.5z" fill="#76B8EE"/><path d="M84.1 34.596s.514-1.115 1.008-.949c.495.167.231 1.696-.268 1.99a.537.537 0 01-.772-.162l.032-.879z" fill="#DD6A57"/><path d="M84.995 39.176c-.317.423-.658.827-1.021 1.212a2.335 2.335 0 01-1.274.737c-.478.064-.962 0-1.164-.597a3.494 3.494 0 01-.1-1.543c0-.027-.034-.032-.037 0-.078.777-.142 1.973.57 2.21.806.268 1.545-.17 2.072-.734.369-.387.694-.812.97-1.269 0 0-.008-.024-.016-.016zm4.801 17.534h-14.42v.649h14.42v-.648z" fill="#263238"/><path d="M86.095 57.356H72.041l-1.17-9.544h14.052l1.172 9.544z" fill="#263238"/><path d="M79.338 52.585a.836.836 0 01-.842.855.876.876 0 01-.87-.855.837.837 0 01.84-.857.876.876 0 01.872.857z" fill="#fff"/><path d="M76.81 117.118H24.968l-9.06-37.62H67.75l9.06 37.62z" fill="#A6A6A6"/><path d="M6.696 117.118H58.54l9.06-37.62H15.756l-9.06 37.62z" fill="#DBDBDB"/><path d="M60.083 86.566l-1.156 4.806-.07.296-1.196 4.99-.07.297-1.196 4.985-.072.296-1.199 4.988-.07.299-1.172 4.886h-38.06l1.171-4.886.07-.299 1.199-4.988.072-.296 1.196-4.985.073-.296 1.196-4.991.07-.296 1.155-4.806h38.06z" fill="#fff"/><path d="M27.599 86.566l-1.156 4.806-.07.296-1.196 4.99-.07.297-1.196 4.985-.072.296-1.197 4.988-.072.299-1.172 4.886h-.304l1.175-4.886.07-.299 1.196-4.988.072-.296 1.194-4.985.072-.296 1.2-4.991.069-.296 1.15-4.806h.307zm5.421 0l-1.156 4.806-.07.296-1.195 4.99-.07.297-1.197 4.985-.072.296-1.196 4.988-.073.299-1.171 4.886h-.304l1.174-4.886.07-.299 1.196-4.988.073-.296 1.193-4.985.073-.296 1.198-4.991.07-.296 1.15-4.806h.307zm5.423 0l-1.153 4.806-.072.296-1.196 4.99-.07.297-1.196 4.985-.07.296-1.199 4.988-.073.299-1.171 4.886h-.304l1.175-4.886.072-.299 1.193-4.988.073-.296 1.196-4.985.07-.296 1.199-4.991.07-.296 1.153-4.806h.303zm5.422 0l-1.153 4.806-.073.296-1.196 4.99-.07.297-1.196 4.985-.07.296-1.199 4.988-.072.299-1.172 4.886h-.304l1.175-4.886.073-.299 1.193-4.988.072-.296 1.197-4.985.07-.296 1.198-4.991.07-.296 1.153-4.806h.304zm5.424 0l-1.153 4.806-.073.296-1.193 4.99-.073.297-1.196 4.985-.07.296-1.198 4.988-.07.299-1.172 4.886h-.307l1.175-4.886.072-.299 1.197-4.988.07-.296 1.195-4.985.07-.296 1.2-4.991.069-.296 1.153-4.806h.304zm5.421 0l-1.153 4.806-.072.296-1.194 4.99-.072.297-1.196 4.985-.07.296-1.199 4.988-.07.299-1.172 4.886h-.306l1.174-4.886.073-.299 1.196-4.988.07-.296 1.196-4.985.07-.296 1.199-4.991.072-.296 1.15-4.806h.304z" fill="#EBEBEB"/><path d="M58.927 91.372l-.07.296H20.8l.07-.296h38.058zm-1.267 5.287l-.07.295H19.53l.072-.295h38.059zm-1.265 5.281l-.073.296h-38.06l.072-.296h38.061zm-1.271 5.284l-.07.298H16.993l.07-.298h38.061z" fill="#EBEBEB"/><path d="M25.631 97.117l-.57.461 3.312 4.103.57-.461-3.312-4.103z" fill="#C7C7C7"/><path d="M29.004 97.077l-4.585 4.179.495.543 4.584-4.18-.494-.542zm8.658-5.101l-.57.46 3.312 4.103.571-.46-3.313-4.103z" fill="#C7C7C7"/><path d="M41.037 91.937l-4.585 4.18.495.541 4.584-4.178-.494-.543z" fill="#C7C7C7"/><path d="M22.484 96.567l-1.4-2.448.637-.366.876 1.532 3.193-3.851.564.467-3.87 4.666zm6.776 15.563l-1.4-2.449.637-.365.873 1.532 3.193-3.852.565.468-3.868 4.666zm19.268-14.953a8.64 8.64 0 00-1.86 1.376c-.538.538-1.008 1.191-1.075 1.925a1.262 1.262 0 00.247.975c.248.258.567.435.917.508a4.824 4.824 0 002.225-.056 4.93 4.93 0 002.019-.943c.287-.23.525-.516.701-.839.175-.31.25-.667.218-1.021a1.302 1.302 0 00-.562-.86 2.846 2.846 0 00-1.024-.444 4.774 4.774 0 00-2.287.024 4.568 4.568 0 012.327-.215c.401.066.785.21 1.13.428a1.613 1.613 0 01.72 1.013c.063.423-.014.856-.22 1.231a3.12 3.12 0 01-.772.957 5.47 5.47 0 01-4.57 1.075 2.1 2.1 0 01-1.075-.632 1.303 1.303 0 01-.268-.594 2.073 2.073 0 010-.631c.123-.836.658-1.505 1.239-2.024a7.91 7.91 0 011.97-1.253z" fill="#76B8EE"/><path d="M26.408 87.905h-4.043l.113-.495h4.043l-.113.495zm-1.86.844h-2.376l.113-.492h2.376l-.113.492zm18.29 14.686H40.38l.113-.492h2.46l-.114.492zm-.389 1.722h-2.46l.113-.491h2.462l-.115.491zm1.591-.876h-3.857l.115-.494h3.855l-.113.494zm5.168-4.644h-2.46l.113-.495h2.462l-.115.495zm1.202.844h-3.858l.116-.492h3.854l-.113.492z" fill="#C7C7C7"/><path d="M16.178 90.515l2.373-1.774c.267-.199.457-.484.538-.806a.903.903 0 00-.115-.72.839.839 0 00-.718-.356c-.29 0-.574.095-.806.27l-.248.185a.136.136 0 01-.158.033.136.136 0 01-.046-.033.148.148 0 01.054-.205l.247-.193a1.753 1.753 0 011.013-.355 1.043 1.043 0 01.92.457 1.132 1.132 0 01.147.92 1.834 1.834 0 01-.685 1.02l-2.032 1.52h1.986a.116.116 0 01.11.15.197.197 0 01-.177.145h-2.363a.108.108 0 01-.096-.043.167.167 0 01.056-.215zm-1.174 5.367a3.39 3.39 0 01.734-1.47 1.72 1.72 0 011.198-.632.98.98 0 01.904.632c.175.47.2.985.07 1.47a3.374 3.374 0 01-.748 1.465 1.71 1.71 0 01-1.19.637.979.979 0 01-.903-.637 2.384 2.384 0 01-.065-1.465zm.296 0c-.119.43-.1.885.05 1.304a.76.76 0 00.691.505 1.342 1.342 0 00.92-.513 3.01 3.01 0 00.658-1.296 2.15 2.15 0 00-.062-1.303.741.741 0 00-.688-.506 1.302 1.302 0 00-.922.506 3 3 0 00-.647 1.303zm-2.452 9.058l2.373-1.774c.267-.199.457-.484.538-.806a.907.907 0 00-.116-.721.834.834 0 00-.712-.352c-.29 0-.574.094-.806.269l-.248.185a.135.135 0 01-.204 0 .144.144 0 01-.016-.113.153.153 0 01.026-.053.16.16 0 01.044-.038l.247-.193a1.746 1.746 0 011.013-.355 1.04 1.04 0 011.079.895c.025.159.017.321-.025.476a1.837 1.837 0 01-.686 1.021l-2.034 1.518h1.989a.12.12 0 01.093.048.117.117 0 01.017.103.195.195 0 01-.177.145h-2.355a.101.101 0 01-.054-.009.102.102 0 01-.043-.034.167.167 0 01.057-.212zm-1.175 5.367a3.393 3.393 0 01.742-1.47 1.726 1.726 0 011.199-.64.988.988 0 01.903.632c.174.471.199.985.07 1.47a3.404 3.404 0 01-.747 1.465 1.723 1.723 0 01-.534.443 1.724 1.724 0 01-.665.194.978.978 0 01-.903-.637 2.384 2.384 0 01-.065-1.457zm.296 0c-.118.429-.1.885.051 1.304a.768.768 0 00.69.505 1.335 1.335 0 00.92-.505 2.98 2.98 0 00.661-1.304c.118-.43.098-.886-.059-1.303a.74.74 0 00-.688-.506 1.31 1.31 0 00-.922.506c-.32.374-.542.822-.648 1.303h-.005z" fill="#A6A6A6"/><path d="M60.747 85.547l-1.637 7.099c-.486 2.112-2.492 3.456-2.492 3.456h-10.98s1.955-2.325 2.353-4.05l1.502-6.505h11.254z" fill="#76B8EE"/><path d="M51.068 89.184l-.575.605a.065.065 0 01-.043.021.034.034 0 01-.035-.021l-.296-.602-.269 1.115a.061.061 0 01-.056.046c-.006 0-.012 0-.017-.002a.035.035 0 01-.02-.043l.29-1.259a.058.058 0 01.027-.037.042.042 0 01.048-.01c.005.002.01.006.013.01l.331.669.634-.67a.054.054 0 01.07 0 .034.034 0 010 .017.07.07 0 010 .024l-.29 1.258a.061.061 0 01-.056.046.033.033 0 01-.017-.004.035.035 0 01-.02-.025c0-.006 0-.012.002-.017l.28-1.12zm.527-.147a.064.064 0 01.059-.046h.699a.034.034 0 01.029.013c.004.005.006.01.007.016a.034.034 0 01-.002.017.062.062 0 01-.059.048h-.65l-.124.537h.57a.038.038 0 01.036.032.037.037 0 01-.001.017.061.061 0 01-.056.048h-.57l-.124.538h.65a.035.035 0 01.038.03c0 .006 0 .012-.003.018a.059.059 0 01-.056.046h-.704a.035.035 0 01-.034-.03c0-.005 0-.01.002-.016l.293-1.269zm1.153-.001a.062.062 0 01.056-.045h.699c.006 0 .011 0 .016.003a.038.038 0 01.022.042.065.065 0 01-.06.049h-.653l-.123.537h.57a.037.037 0 01.029.016c.003.005.005.01.006.016a.038.038 0 010 .017.062.062 0 01-.06.048h-.567l-.123.538h.65c.027 0 .04.021.035.048a.061.061 0 01-.06.046h-.7a.035.035 0 01-.032-.046l.295-1.269zm1.492.049h-.41a.038.038 0 01-.017-.004.037.037 0 01-.02-.045.067.067 0 01.06-.046h.91c.006 0 .012.002.017.004a.038.038 0 01.02.042.065.065 0 01-.058.049h-.409l-.268 1.217a.062.062 0 01-.057.046.036.036 0 01-.017-.003.037.037 0 01-.021-.042l.27-1.218zm.932-.049a.061.061 0 01.057-.045.038.038 0 01.038.046l-.288 1.265a.067.067 0 01-.062.046.035.035 0 01-.036-.029.035.035 0 01.001-.017l.29-1.266zm.643.154l-.269 1.112a.062.062 0 01-.056.046.035.035 0 01-.035-.046l.287-1.247a.054.054 0 01.03-.051h.062l.561 1.142.256-1.107a.062.062 0 01.056-.046c.006 0 .012.001.017.004a.038.038 0 01.02.042l-.29 1.252a.064.064 0 01-.059.046.037.037 0 01-.032-.016l-.548-1.132zm1.808.548a.035.035 0 01-.031-.013.035.035 0 01-.007-.016.034.034 0 010-.017.062.062 0 01.063-.048h.424a.036.036 0 01.027.016.03.03 0 01.005.016c0 .005 0 .01-.002.016l-.108.465a.07.07 0 01-.027.035.864.864 0 01-.473.148.538.538 0 01-.537-.691.925.925 0 01.865-.685.562.562 0 01.403.153.045.045 0 010 .064.054.054 0 01-.07 0 .486.486 0 00-.349-.131.805.805 0 00-.747.591.464.464 0 00.473.597.755.755 0 00.387-.116l.091-.4-.387.016zm-8.374 1.72l-.218.113a.051.051 0 01-.027 0 .034.034 0 01-.02-.005.034.034 0 01-.015-.017.05.05 0 01.032-.064l.299-.161a.046.046 0 01.035-.004.045.045 0 01.026.023.054.054 0 010 .034l-.295 1.256a.064.064 0 01-.06.048.037.037 0 01-.029-.016.038.038 0 01-.005-.033l.277-1.174zm1.262-.051l-.435.36a.35.35 0 01.204.126.39.39 0 01.06.326.626.626 0 01-.57.462.36.36 0 01-.294-.137c-.016-.016 0-.049.017-.067a.046.046 0 01.067 0 .29.29 0 00.234.104.473.473 0 00.435-.374.293.293 0 00-.048-.255.267.267 0 00-.231-.107.043.043 0 01-.036-.019.054.054 0 01.016-.07l.42-.35h-.522a.037.037 0 01-.037-.047.067.067 0 01.062-.049h.634a.037.037 0 01.031.015.037.037 0 01.007.034.056.056 0 010 .021l-.014.027zm.683.368a.067.067 0 01-.056.049h-.124l-.158.69a.056.056 0 00.01.048.057.057 0 00.044.022.04.04 0 01.03.016.041.041 0 01.007.033.072.072 0 01-.06.048.126.126 0 01-.133-.105.127.127 0 01.005-.062l.159-.69h-.119c-.045 0-.04-.025-.035-.049a.049.049 0 01.018-.035.049.049 0 01.039-.01h.126l.084-.355a.067.067 0 01.056-.046.04.04 0 01.039.029.041.041 0 01.001.017l-.083.355h.124c.01.002.017.008.022.017a.038.038 0 01.005.028zm1.03.328a.218.218 0 00-.236-.269.374.374 0 00-.366.27l-.123.537a.048.048 0 01-.035.024c-.007 0-.013 0-.019-.004a.035.035 0 01-.014-.012.04.04 0 010-.016.04.04 0 010-.016l.121-.538v-.016l.164-.72a.067.067 0 01.06-.046.038.038 0 01.037.046l-.116.502a.497.497 0 01.334-.14.293.293 0 01.312.374l-.124.538a.061.061 0 01-.06.048.038.038 0 01-.035-.031v-.017l.1-.514zm.462-.099a.046.046 0 01.046-.035h.413a.03.03 0 01.03.022.029.029 0 010 .013.05.05 0 01-.046.04h-.414a.03.03 0 01-.031-.026c0-.005 0-.01.002-.014zm1.062-.546l-.218.113a.051.051 0 01-.027 0 .034.034 0 01-.02-.005.034.034 0 01-.015-.017.05.05 0 01.032-.064l.299-.161a.046.046 0 01.05.005.046.046 0 01.012.014.076.076 0 010 .034l-.288 1.248a.065.065 0 01-.059.048.038.038 0 01-.035-.048l.269-1.167zm.322.542a1.12 1.12 0 01.24-.475.559.559 0 01.386-.204.315.315 0 01.282.212.807.807 0 01.024.476 1.1 1.1 0 01-.241.473.553.553 0 01-.387.207.312.312 0 01-.293-.207.785.785 0 01-.011-.481zm.097 0a.682.682 0 00.016.423.245.245 0 00.223.161.44.44 0 00.298-.161.964.964 0 00.212-.422.68.68 0 00-.018-.422.239.239 0 00-.223-.161.419.419 0 00-.299.16.96.96 0 00-.204.423h-.005zm2.027.34h-.618l-.197.32a.064.064 0 01-.05.032h-.017a.04.04 0 01-.021-.028.04.04 0 01.008-.034l.763-1.26a.07.07 0 01.054-.03c.019 0 .038 0 .038.03l.182 1.26a.066.066 0 01-.04.062h-.019a.043.043 0 01-.037-.032l-.046-.32zm-.562-.094h.538l-.105-.731-.433.73zm2.303-.732l-.572.605a.06.06 0 01-.046.022c-.019 0-.03 0-.035-.022l-.298-.602-.256 1.115a.065.065 0 01-.059.049.037.037 0 01-.031-.015.037.037 0 01-.006-.034l.29-1.258a.075.075 0 01.03-.034.046.046 0 01.035-.008.047.047 0 01.016.008.04.04 0 01.013.013l.328.67.637-.67a.051.051 0 01.067-.013v.016a.038.038 0 010 .024l-.29 1.258a.062.062 0 01-.057.048.037.037 0 01-.031-.014.037.037 0 01-.006-.034l.271-1.124z" fill="#000"/><path d="M17.377 82.067a1.365 1.365 0 01-1-.479c-.269-.309-.648-1.018-.269-2.306.357-1.18 1.215-1.666 1.881-1.54.511.097 1.075.616.976 1.758a.32.32 0 01-.223.283.328.328 0 01-.422-.34c.051-.594-.124-1.002-.451-1.075-.371-.07-.898.288-1.14 1.092-.22.733-.175 1.344.132 1.696a.678.678 0 00.55.268.326.326 0 11.09.643 1.064 1.064 0 01-.124 0zm4.004 0a1.36 1.36 0 01-1.01-.479c-.269-.309-.648-1.018-.269-2.306.355-1.18 1.215-1.666 1.882-1.54.51.097 1.075.616.975 1.758a.322.322 0 01-.223.282.32.32 0 01-.126.014.328.328 0 01-.288-.358c.051-.594-.123-1.002-.451-1.075-.374-.07-.898.288-1.14 1.091-.223.734-.175 1.344.132 1.696a.677.677 0 00.55.269.326.326 0 01.322.524.325.325 0 01-.232.118 1.23 1.23 0 01-.122.006zm3.981 0a1.361 1.361 0 01-.997-.479c-.269-.309-.648-1.018-.269-2.306.355-1.18 1.215-1.666 1.882-1.54.51.097 1.075.616.975 1.758a.318.318 0 01-.349.296.325.325 0 01-.296-.353c.051-.593-.123-1.002-.454-1.075-.33-.072-.895.288-1.137 1.092-.223.733-.174 1.344.132 1.696a.678.678 0 00.537.268.326.326 0 01.321.524.327.327 0 01-.232.119 1.119 1.119 0 01-.113 0zm3.995 0a1.342 1.342 0 01-.987-.479c-.269-.309-.65-1.018-.269-2.306.355-1.18 1.215-1.666 1.882-1.54.51.097 1.075.616.978 1.758a.325.325 0 11-.645-.057c.049-.594-.123-1.002-.454-1.075-.33-.072-.895.288-1.137 1.092-.223.733-.175 1.344.132 1.696a.674.674 0 00.537.268.326.326 0 01.321.524.327.327 0 01-.232.119 1.109 1.109 0 01-.126 0zm3.993 0a1.365 1.365 0 01-1-.492c-.268-.309-.647-1.019-.268-2.306.355-1.18 1.215-1.666 1.881-1.54.511.097 1.075.615.979 1.758a.324.324 0 11-.645-.057c.048-.594-.124-1.002-.455-1.075-.33-.072-.895.288-1.136 1.091-.224.734-.178 1.344.131 1.696a.673.673 0 00.538.27.328.328 0 01.346.147.325.325 0 01-.257.495 1.1 1.1 0 01-.113.013zm3.995 0a1.365 1.365 0 01-1-.492c-.269-.309-.648-1.019-.269-2.306.355-1.18 1.215-1.666 1.882-1.54.51.097 1.075.615.978 1.758a.323.323 0 01-.572.18.328.328 0 01-.076-.237c.051-.594-.12-1.002-.451-1.075-.371-.07-.898.288-1.14 1.091-.22.734-.175 1.344.132 1.696a.68.68 0 00.55.27.325.325 0 01.09.641 1.046 1.046 0 01-.124.014zm3.993 0a1.365 1.365 0 01-1-.492c-.269-.309-.648-1.019-.269-2.306.358-1.18 1.218-1.666 1.882-1.54.51.097 1.075.615.978 1.758a.323.323 0 01-.572.18.328.328 0 01-.076-.237c.052-.594-.123-1.002-.451-1.075-.371-.07-.898.288-1.14 1.091-.22.734-.174 1.344.132 1.696a.677.677 0 00.537.27.328.328 0 01.347.147.326.326 0 01-.258.495c-.036.006-.073.01-.11.013zm3.994 0a1.365 1.365 0 01-1-.492c-.268-.309-.647-1.019-.268-2.306.357-1.18 1.214-1.666 1.881-1.54.51.097 1.075.615.976 1.758a.316.316 0 01-.35.295.328.328 0 01-.295-.352c.05-.594-.124-1.002-.452-1.075-.37-.07-.898.288-1.14 1.091-.22.734-.174 1.344.132 1.696a.678.678 0 00.551.27.325.325 0 01.089.641 1.023 1.023 0 01-.124.014zm4.002 0a1.36 1.36 0 01-.997-.492c-.269-.309-.648-1.019-.269-2.306.355-1.18 1.215-1.666 1.882-1.54.51.097 1.075.615.975 1.758a.32.32 0 01-.349.295.326.326 0 01-.296-.352c.051-.594-.123-1.002-.454-1.075-.33-.072-.895.288-1.137 1.091-.223.734-.175 1.344.132 1.696a.677.677 0 00.538.27.328.328 0 01.346.147.323.323 0 01-.026.376.325.325 0 01-.232.118 1.1 1.1 0 01-.113.014zm3.984 0a1.343 1.343 0 01-.997-.492c-.269-.309-.65-1.019-.269-2.306.355-1.18 1.215-1.666 1.882-1.54.513.097 1.075.615.978 1.758a.32.32 0 01-.35.295.326.326 0 01-.295-.352c.048-.594-.124-1.002-.454-1.075-.371-.07-.895.288-1.137 1.091-.223.734-.175 1.344.131 1.696a.678.678 0 00.551.27.325.325 0 01.09.641 1.095 1.095 0 01-.13.014zm3.994 0a1.367 1.367 0 01-.99-.479c-.268-.309-.647-1.018-.268-2.306.355-1.18 1.215-1.666 1.881-1.54.511.097 1.075.616.979 1.758a.32.32 0 01-.35.296.323.323 0 01-.295-.353c.048-.593-.124-1.002-.454-1.075-.331-.072-.895.288-1.137 1.092-.223.733-.175 1.344.131 1.696a.674.674 0 00.538.268.326.326 0 01.32.524.325.325 0 01-.232.119 1.108 1.108 0 01-.123 0zm3.993 0a1.364 1.364 0 01-1-.492c-.268-.309-.647-1.019-.268-2.306.354-1.18 1.215-1.666 1.881-1.54.51.097 1.075.615.978 1.758a.322.322 0 01-.35.294.324.324 0 01-.295-.35c.049-.595-.123-1.003-.454-1.076-.37-.07-.895.288-1.14 1.091-.22.734-.174 1.344.132 1.696a.678.678 0 00.538.27.326.326 0 01.091.641 1.057 1.057 0 01-.113.014zm3.995 0a1.365 1.365 0 01-1-.492c-.27-.309-.648-1.019-.27-2.306.356-1.18 1.216-1.666 1.882-1.54.51.097 1.075.615.979 1.758a.323.323 0 01-.572.18.328.328 0 01-.076-.237c.05-.594-.124-1.002-.452-1.075-.37-.07-.895.288-1.14 1.091-.22.734-.174 1.344.132 1.696a.678.678 0 00.551.27.325.325 0 01.089.641 1 1 0 01-.124.014z" fill="#A6A6A6"/><path d="M110.285 84.884a21.1 21.1 0 01.487-3.43 7.632 7.632 0 011.225-2.892 3.687 3.687 0 012.403-1.497c.941-.115 1.823.304 2.527.898.873.734 1.54 1.707 2.166 2.647a32.04 32.04 0 011.881 3.277.029.029 0 010 .022.032.032 0 01-.037.02.032.032 0 01-.019-.013 20.23 20.23 0 00-1.672-2.739 17.072 17.072 0 00-1.927-2.333c-.645-.631-1.467-1.22-2.403-1.25a2.958 2.958 0 00-2.349 1.21c-.629.806-.946 1.804-1.185 2.782a20.465 20.465 0 00-.497 3.266c-.186 2.257-.234 4.531-.285 6.797a259.236 259.236 0 00-.059 3.846l-.017 1.949c.025.628 0 1.257-.075 1.881a.13.13 0 01-.046.067.132.132 0 01-.155 0 .13.13 0 01-.046-.067 10.944 10.944 0 01-.086-1.782c-.011-.615-.019-1.23-.024-1.846a358.173 358.173 0 01-.014-3.591c.014-2.411.043-4.825.207-7.222z" fill="#263238"/><path d="M113.513 83.183c.121-.64.336-1.473.699-1.968.656-.89 1.36-.502.707.481a5.87 5.87 0 00-.917 2.42s1.099 1.569 2.419 2.343c-.056-.605-.228-1.532-.11-2.419.255-1.938 1.427-1.83 1.137-.288a13.298 13.298 0 00-.269 3.116c.443.288.918.521 1.416.696a15.583 15.583 0 01-.244-.823c-.473-1.739.688-2.282.726-1.303.073.834.224 1.66.451 2.467.637.215 1.164.36 1.486.473.837.309 1.584.82 2.175 1.486a6.82 6.82 0 001.483-1.916 25.575 25.575 0 00-1.935-1.497c-1.669-1.177-1.075-2.664.234-1.739.954.667 1.693 1.903 2.029 2.537.453-1.104.71-2.28.758-3.472-1.311-1.229-4.55-2.943-3.574-2.943.878 0 2.846 1.287 3.566 1.784a9.214 9.214 0 00-.11-1.008c-1.234-.806-5.244-2.067-4.604-2.419.701-.395 3.494.898 4.343 1.31a5.018 5.018 0 00-.739-1.535c-1.707-2.282-4.779-3.07-6.12-2.634-.949.306-.672 2.714-.876 2.634-3.803-1.546-5.534-.463-4.131 4.217zm9.345-.27c.269-.324 1.521.635 1.161 1.162-.36.527-1.51-.74-1.161-1.158v-.003zm-6.536-2.053c.328.21-.159 1.428-.667 1.06-.43-.312.336-1.267.667-1.057v-.003z" fill="#76B8EE"/><path d="M116.819 81.237c.172-.341.352-.677.538-1.005.181-.324.393-.63.631-.914l-.164-.202c-.021-.027.017-.064.041-.037.064.072.123.147.185.223a.057.057 0 01.017.011.057.057 0 01.01.018c.237.269.457.573.669.871a9.94 9.94 0 011.108.32c.373.126.744.269 1.107.408.04.017.021.081-.019.062a12.93 12.93 0 00-1.096-.438c-.374-.126-.713-.212-1.076-.312.116.164.229.328.339.498.674.215 1.329.485 1.959.806.662.314 1.299.68 1.933 1.045.035.022 0 .078-.035.057a21.294 21.294 0 00-1.922-.995c-.613-.287-1.247-.524-1.865-.806 1.556 2.42 2.489 5.236 3.739 7.83.018.037-.041.07-.057.032-.381-.911-.82-1.798-1.236-2.688-.371-.806-.737-1.613-1.11-2.419-.108-.234-.221-.47-.333-.704.067 1.298.04 2.618.252 3.9a.032.032 0 01-.009.023.033.033 0 01-.023.01.032.032 0 01-.032-.033c-.089-1.387-.334-2.752-.326-4.147v-.02a20.486 20.486 0 00-.849-1.56c-.516 1.214-1.059 2.448-1.298 3.762 0 .04-.073.022-.062-.019.35-1.306.675-2.615 1.306-3.824a14.9 14.9 0 00-1.096-1.58c-.175.322-.395.628-.592.934-.196.307-.381.605-.559.917a13.038 13.038 0 00-.975 2.059c-.014.038-.078.019-.062-.019.322-.699.623-1.392.962-2.064zM105.738 85c.857-1.127 1.833-2.583 3.365-2.788 1.478-.196 2.722.85 3.513 1.992.825 1.196 1.255 2.618 1.628 4.005.445 1.664.803 3.35 1.076 5.05.155.943.268 1.881.381 2.84.13.961.187 1.93.169 2.898 0 .156-.252.197-.284.033-.151-.793-.226-1.6-.328-2.398a55.418 55.418 0 00-.355-2.352 58.327 58.327 0 00-.997-4.706c-.35-1.36-.67-2.76-1.261-4.032-.537-1.153-1.416-2.432-2.704-2.797-1.76-.498-3.209 1.037-4.147 2.295-.016.027-.081-.008-.056-.04z" fill="#263238"/><path d="M100.233 86.696v.607a3.564 3.564 0 011.666-.6c1.425-.082 1.282.99.333.99a5.417 5.417 0 00-1.962.296c.143 1.881.586 3.41.662 3.434a27.63 27.63 0 003.762-.295c-.317-.766-1.075-1.804-.658-1.863.417-.059.806.847.997 1.812.937-.133 1.862-.34 2.766-.618-.597-.568-1.527-1.285-1.145-1.554.381-.269 1.099.712 1.524 1.422.426-.15.832-.35 1.209-.6-.782-1.273-2.814-1.612-2.505-2.502.309-.89 2.164.45 2.957 2.15 1.059-1 1.424-2.464 1.379-3.736-.874-.145-2.575-.04-2.419-.666.156-.626 1.368-.446 2.351-.03a3.495 3.495 0 00-.521-1.419c-.868-1.234-3.763.143-3.763.143s.438-2.828-.618-3.37c-.607-.313-1.704-.361-2.836.233.616.08 1.344.312 1.632.755.357.565-.269.834-.634.562-.269-.19-.742-.777-1.651-.895-.405.308-.767.67-1.075 1.075a5.76 5.76 0 00-.32.457 3.876 3.876 0 013.306.218c1.196.666.452 1.905-.58 1.362-1.032-.542-2.011-1.075-3.142-.852a7.919 7.919 0 00-.691 3.142 5.644 5.644 0 011.857-.784c1.237-.27 1.57.483.223.556a5.373 5.373 0 00-2.104.57zm1.575-1.882c-.065-.4.806-.473.935-.145.105.269-.871.532-.935.145zm7.292 2.54c.091-.212.658.06.591.325-.089.344-.688-.126-.591-.335v.01zm-4.15 1.188c.43-.148 1.037.933.567 1.15-.47.218-.917-1.037-.567-1.16v.01z" fill="#76B8EE"/><path opacity=".1" d="M100.233 86.696v.607a3.564 3.564 0 011.666-.6c1.425-.082 1.282.99.333.99a5.417 5.417 0 00-1.962.296c.143 1.881.586 3.41.662 3.434a27.63 27.63 0 003.762-.295c-.317-.766-1.075-1.804-.658-1.863.417-.059.806.847.997 1.812.937-.133 1.862-.34 2.766-.618-.597-.568-1.527-1.285-1.145-1.554.381-.269 1.099.712 1.524 1.422.426-.15.832-.35 1.209-.6-.782-1.273-2.814-1.612-2.505-2.502.309-.89 2.164.45 2.957 2.15 1.059-1 1.424-2.464 1.379-3.736-.874-.145-2.575-.04-2.419-.666.156-.626 1.368-.446 2.351-.03a3.495 3.495 0 00-.521-1.419c-.868-1.234-3.763.143-3.763.143s.438-2.828-.618-3.37c-.607-.313-1.704-.361-2.836.233.616.08 1.344.312 1.632.755.357.565-.269.834-.634.562-.269-.19-.742-.777-1.651-.895-.405.308-.767.67-1.075 1.075a5.76 5.76 0 00-.32.457 3.876 3.876 0 013.306.218c1.196.666.452 1.905-.58 1.362-1.032-.542-2.011-1.075-3.142-.852a7.919 7.919 0 00-.691 3.142 5.644 5.644 0 011.857-.784c1.237-.27 1.57.483.223.556a5.373 5.373 0 00-2.104.57zm1.575-1.882c-.065-.4.806-.473.935-.145.105.269-.871.532-.935.145zm7.292 2.54c.091-.212.658.06.591.325-.089.344-.688-.126-.591-.335v.01zm-4.15 1.188c.43-.148 1.037.933.567 1.15-.47.218-.917-1.037-.567-1.16v.01z" fill="#000"/><path d="M101.111 91.208c.686-1.032 1.366-2.07 2.083-3.08.334-.47.68-.93 1.041-1.381l-.148-.043-.253-.06a8.553 8.553 0 00-.583-.11 5.574 5.574 0 00-.556-.059 2.963 2.963 0 00-.597 0c-.024 0-.027-.032 0-.032.199.019.403 0 .602 0 .199 0 .387.021.578.043.191.021.36.046.537.08l.293.068c.06.01.12.026.178.045a39.36 39.36 0 011.137-1.344 12.709 12.709 0 00-3.425-1.273c-.018 0 0-.035 0-.033 1.217.229 2.389.647 3.476 1.24.215-.24.43-.48.647-.716.218-.236.503-.524.723-.806.017-.019.043 0 .027.019a12.19 12.19 0 00-.854.949c.439.338.854.705 1.244 1.099.403.395.806.806 1.18 1.218.013.016 0 .037-.024.024a18.119 18.119 0 00-1.183-1.186c-.414-.379-.846-.728-1.263-1.102l-.315.374a4.988 4.988 0 01-.158.188.03.03 0 010 .014l-.527.634c.179.288.329.593.449.911.129.306.236.62.336.938.196.66.342 1.334.435 2.016 0 .019-.029.027-.032 0a11.63 11.63 0 00-.484-1.981c-.107-.33-.234-.653-.363-.976-.129-.322-.268-.578-.376-.873l-.451.55-.127.165c.002.003.002.006.002.009a.014.014 0 01-.003.009.012.012 0 01-.006.006.02.02 0 01-.009.003 43.869 43.869 0 00-1.344 1.803.653.653 0 01.049.143 5.43 5.43 0 01.15.712c.019.15.032.303.04.454a4.23 4.23 0 00.014.516c0 .027-.038.027-.03 0 .017-.16.013-.322-.013-.481a6.27 6.27 0 00-.067-.495c-.03-.163-.062-.292-.097-.438a5.077 5.077 0 00-.059-.217c-.022-.07-.03-.081-.04-.121-.202.287-.404.575-.603.868-.395.575-.784 1.153-1.177 1.73-.027.036-.072.009-.054-.02zm8.894 6.115c.016-.537.1-1.059.156-1.583.056-.524.116-1.053.172-1.583.071-1.024.208-2.042.409-3.048a4.43 4.43 0 011.241-2.282 2.013 2.013 0 011.218-.58 2.08 2.08 0 011.29.397c.428.315.796.703 1.089 1.145.314.439.597.898.846 1.376 0 .02-.019.03-.029 0a7.046 7.046 0 00-1.833-2.053 2.172 2.172 0 00-1.156-.481 1.569 1.569 0 00-1.121.446 4.22 4.22 0 00-1.183 2.094 21.13 21.13 0 00-.456 2.82 200.04 200.04 0 00-.221 1.674c-.072.553-.121 1.123-.236 1.672a.094.094 0 01-.186-.014z" fill="#263238"/><path d="M112.602 93.224c.162.222.355.42.572.589-.086-.516-.191-1.43.07-1.916.403-.758.879-.382.64.268a5.38 5.38 0 00-.39 1.866c.549.343 1.138.62 1.753.825a2.948 2.948 0 01-.062-.903c.08-.807.699-.807.537.045a5.376 5.376 0 00-.083.99c.893.275 1.806.48 2.731.615a7.982 7.982 0 001.129-2.013c-.656-.164-1.989-.202-1.962-.672.037-.632 1.343-.145 2.085.314.173-.55.249-1.127.226-1.704a8.548 8.548 0 00-1.814-.3c-1.344-.116-1.288-.885-.307-.866.726.013 1.643.457 2.075.685-.282-1.84-1.688-3.023-2.814-3.07-1.895-.074-1.215 2.283-1.215 2.283s-1.284-.903-2.494-.88c-1.209.025-1.973 2.044-.677 3.844zm5.061-3.408c-.043-.269.806-.328.847 0 .051.393-.804.272-.847 0zm1.36 2.766c-.016-.172.349-.202.43.016.056.142-.414.156-.43-.016zm-4.55.161c.284.04.448 1.062-.043 1.043-.377-.016-.199-1.075.043-1.043z" fill="#76B8EE"/><path d="M114.867 93.877c.049-.126.089-.269.129-.384a6.485 6.485 0 00-.096.403.012.012 0 01-.006.006.017.017 0 01-.008.003h-.008a.015.015 0 01-.007-.005.02.02 0 01-.005-.007l-.001-.008.002-.008zm.501-1.639a13.617 13.617 0 01.462-1.185 1.57 1.57 0 01.169-.344 2.245 2.245 0 01-.153-.331s0-.019.016 0c.141.178.264.37.368.573.054.088.105.18.156.268.108.01.215.028.32.051.113.02.226.043.339.068l.338.08c.111.024.221.062.336.08.024 0 .014.046 0 .036a2.303 2.303 0 00-.354-.094 6.523 6.523 0 00-.328-.057l-.331-.04-.25-.022c.043.081.091.159.134.24l.022.037c.091 0 .181.01.269.032.096.017.196.035.293.057.196.046.395.091.588.145.412.116.807.247 1.221.379.021 0 0 .04-.014.032a12.094 12.094 0 00-1.226-.338c-.193-.043-.387-.09-.583-.13l-.29-.061a1.628 1.628 0 01-.228-.051c.209.387.405.776.585 1.177.393.868.726 1.766 1.062 2.658 0 .022-.027.035-.035 0a24.1 24.1 0 00-1.129-2.599l-.228-.46a1.011 1.011 0 00-.022.095l-.056.317c-.035.21-.07.422-.102.634-.09.434-.141.874-.153 1.317 0 .027-.041.024-.035 0 .032-.21.032-.43.045-.642.014-.213.03-.444.057-.664.027-.22.051-.425.086-.637l.056-.317a.67.67 0 01.059-.229c-.11-.223-.22-.446-.333-.67a54.58 54.58 0 00-.32-.62c-.045-.089-.094-.177-.142-.269a3.334 3.334 0 01-.127.32c-.048.118-.096.24-.147.358-.108.268-.21.537-.309.806-.146.379-.304.769-.42 1.164.108-.387.205-.793.334-1.164zm-.371 1.255c0-.032.019-.062.03-.092-.011.03-.019.06-.03.092z" fill="#263238"/><path d="M105.67 97.476l.231 3.405.597 8.779h13.009l.594-8.779.231-3.405H105.67z" fill="#37474F"/><path d="M105.67 97.476l.231 3.405h14.2l.231-3.405H105.67z" fill="#263238"/><path d="M104.745 98.852h16.511V96.1h-16.511v2.752zm13.708 10.808h-2.284v1.44h2.284v-1.44z" fill="#37474F"/><path d="M118.453 109.66h-2.284v.72h2.284v-.72z" fill="#263238"/><path d="M109.831 109.66h-2.282v1.44h2.282v-1.44z" fill="#37474F"/><path d="M109.831 109.66h-2.282v.72h2.282v-.72z" fill="#263238"/><path d="M102.531 27.61a6.658 6.658 0 01-11.13 4.215l-3.333.489 1.666-2.882a6.588 6.588 0 01-.456-3.206 6.662 6.662 0 1113.253 1.384z" fill="#fff"/><path d="M102.531 27.61a6.72 6.72 0 01-1.344 3.379c-.188.243-.39.474-.605.693a7.415 7.415 0 01-.704.597 6.54 6.54 0 01-1.612.895 6.494 6.494 0 01-2.702.446 5.896 5.896 0 01-.922-.097 6.72 6.72 0 01-3.297-1.628l.08.024-3.33.513-.242.035.124-.212 1.655-2.887v.113a6.744 6.744 0 018.354-8.948c.963.328 1.84.866 2.569 1.575a6.714 6.714 0 011.976 5.502zm0 0a6.586 6.586 0 00-2.005-5.461 6.599 6.599 0 00-5.55-1.747 6.54 6.54 0 00-2.753 1.075 6.878 6.878 0 00-1.991 2.174 6.562 6.562 0 00-.376 5.723l.021.059-.03.053-1.677 2.876-.12-.174 3.335-.468h.048l.032.032a6.545 6.545 0 003.19 1.642c.298.063.6.1.904.11.303.022.608.022.911 0a6.508 6.508 0 001.78-.392 6.33 6.33 0 001.612-.865c.246-.182.481-.379.704-.589.217-.216.419-.446.605-.688a6.683 6.683 0 001.36-3.36z" fill="#263238"/><path d="M95.123 30.717L92.28 27.84l.954-.946 1.663 1.682 3.454-5.413 1.132.723-4.36 6.832z" fill="#76B8EE"/></svg>