<svg viewBox="0 0 48 48" fill="none" xmlns="http://www.w3.org/2000/svg"><g clip-path="url(#clip0_68_8566)"><path d="M22.125 9.657h1.47v26.667h-1.47V9.657z" fill="url(#paint0_linear_68_8566)"/><path d="M24.621 11.407a11.723 11.723 0 00-13.344 13.344 11.646 11.646 0 009.824 9.824A11.723 11.723 0 0034.445 21.23a11.646 11.646 0 00-9.824-9.824z" fill="url(#paint1_linear_68_8566)"/><path d="M22.86 11.278c-.396 0-.789.02-1.176.059.104.01.207.022.31.035-2.144.467-3.977 2.644-5.022 5.71-3.014 1.016-5.173 2.796-5.695 4.884a4.211 4.211 0 00-.129 1.024c0 2.512 2.332 4.706 5.805 5.89 1.015 3.013 2.794 5.172 4.883 5.694.05.013.102.025.153.035-.101.013-.203.025-.305.035.387.039.78.059 1.176.059 6.469 0 11.713-5.244 11.713-11.712 0-6.469-5.244-11.713-11.712-11.713zm-8.906 14.275c-.468-.43-1.004-1.06-1.228-1.828h3.329c.012.34.032.681.061 1.026.07.82.19 1.614.354 2.37-1.002-.432-1.856-.961-2.516-1.568zm2.101-3.297H12.72c.283-1.018 1.196-2.019 2.583-2.826a10.72 10.72 0 011.18-.588 19.07 19.07 0 00-.428 3.414zm14.363 4.295c-.366.213-.761.41-1.18.588a19.08 19.08 0 00.428-3.414h2.53v.017a3.484 3.484 0 01-1.778 2.81zm1.778-4.312v.017h-2.53c-.012-.34-.032-.681-.061-1.026-.07-.82-.19-1.614-.354-2.37.435.187 1.005.544 1.512.887a3.267 3.267 0 011.433 2.492zm-.996-4.036a13.105 13.105 0 00-2.432-1.101c-.613-1.822-1.506-3.33-2.578-4.354a11.76 11.76 0 015.01 5.455zM24.497 28.27c-.301.026-.602.044-.902.055v-4.6h4.6a17.185 17.185 0 01-.587 3.888l-.03.106c-.968.272-2.008.46-3.081.551zm2.494 1.111c-.432 1.002-.961 1.856-1.567 2.516-.43.468-1.06 1.004-1.829 1.228v-3.329a20.86 20.86 0 001.026-.061c.82-.07 1.614-.19 2.37-.354zm-3.396-7.125v-4.6a17.18 17.18 0 013.888.587l.107.03c.271.968.46 2.008.55 3.082.026.3.044.6.055.9h-4.6zm0-6.07V12.85c1.018.283 2.02 1.196 2.826 2.583.213.366.41.761.588 1.18a19.08 19.08 0 00-3.414-.428zm-3.297-2.102c.43-.467 1.06-1.004 1.828-1.228v3.329c-.34.012-.681.032-1.026.061-.82.07-1.614.19-2.37.354.432-1.002.962-1.856 1.568-2.516zm-2.185 4.284l.03-.106a16.66 16.66 0 013.082-.551c.3-.026.6-.044.9-.055v4.6h-4.599a17.2 17.2 0 01.587-3.888zm.019 9.34a16.67 16.67 0 01-.551-3.082 19.37 19.37 0 01-.055-.9h4.6v4.599a17.18 17.18 0 01-3.888-.587l-.106-.03zm1.168 2.84a10.718 10.718 0 01-.588-1.18c1.072.237 2.219.385 3.414.428v3.335c-1.018-.283-2.019-1.196-2.826-2.583zm6.84 2.713c1.083-1.022 1.986-2.534 2.61-4.363a13.09 13.09 0 002.44-1.096 11.759 11.759 0 01-5.05 5.459z" fill="#084D5B"/><path d="M22.752 9h-.626a.735.735 0 100 1.47h.735a12.48 12.48 0 018.854 3.667 12.482 12.482 0 013.667 8.854 12.482 12.482 0 01-3.667 8.854 12.48 12.48 0 01-8.854 3.667h-.735a.735.735 0 100 1.47h.735c7.71 0 13.962-6.237 13.99-13.94C36.88 15.32 30.475 9 22.752 9z" fill="#094F5E"/><path d="M29.073 39H16.648a1.746 1.746 0 110-3.493h12.425a1.746 1.746 0 010 3.493z" fill="url(#paint2_linear_68_8566)"/><path d="M29.073 35.507h-2.245a1.746 1.746 0 010 3.493h2.245a1.746 1.746 0 100-3.493z" fill="url(#paint3_linear_68_8566)"/></g><circle cx="13" cy="14" r="3" fill="#FEB137"/><defs><linearGradient id="paint0_linear_68_8566" x1="20.075" y1="22.991" x2="25.21" y2="22.991" gradientUnits="userSpaceOnUse"><stop offset="1" stop-color="#094F5E"/></linearGradient><linearGradient id="paint1_linear_68_8566" x1="10.598" y1="22.991" x2="36.765" y2="22.991" gradientUnits="userSpaceOnUse"><stop stop-color="#94CFFF" stop-opacity=".69"/></linearGradient><linearGradient id="paint2_linear_68_8566" x1="14.952" y1="37.254" x2="31.744" y2="37.254" gradientUnits="userSpaceOnUse"><stop stop-color="#1F6574"/></linearGradient><linearGradient id="paint3_linear_68_8566" x1="11.515" y1="37.254" x2="26.567" y2="37.254" gradientUnits="userSpaceOnUse"><stop stop-color="#094F5E"/></linearGradient><clipPath id="clip0_68_8566"><path fill="#fff" transform="translate(9 9)" d="M0 0h30v30H0z"/></clipPath></defs></svg>