<svg viewBox="0 0 230 187" fill="none" xmlns="http://www.w3.org/2000/svg"><path d="M41.852 74.39v59.761h59.698L41.852 74.389zm10.945 27.079l21.76 21.76h-21.73l-.03-21.76z" fill="#DBDBDB"/><path d="M41.855 74.39v59.761h59.695L43.954 76.496l-.262-.266-1.837-1.84zm10.941 27.079l21.76 21.76h-21.73l-.03-21.76z" fill="#EBEBEB"/><path d="M43.905 76.911h-2.05v.285h2.05v-.285zm-.842 1.329h-1.208v.284h1.208v-.284zm0 1.324h-1.208v.285h1.208v-.285zm0 1.333h-1.208v.284h1.208v-.284zm0 1.328h-1.208v.284h1.208v-.284zm0 1.325h-1.208v.287h1.208v-.288zm0 1.328h-1.208v.284h1.208v-.284zm.842 1.328h-2.05v.285h2.05v-.285zm-.842 1.329h-1.208v.284h1.208v-.284zm0 1.325h-1.208v.284h1.208v-.285zm0 1.328h-1.208v.284h1.208v-.284zm0 1.328h-1.208v.284h1.208v-.284zm0 1.324h-1.208v.285h1.208v-.284zm0 1.329h-1.208v.284h1.208v-.284zm.842 1.332h-2.05v.285h2.05V95.5zm-.842 1.325h-1.208v.284h1.208v-.284zm0 1.328h-1.208v.285h1.208v-.285zm0 1.329h-1.208v.284h1.208v-.284zm0 1.324h-1.208v.288h1.208v-.288zm0 1.328h-1.208v.285h1.208v-.285zm0 1.329h-1.208v.284h1.208v-.284zm.842 1.328h-2.05v.285h2.05v-.285zm-.842 1.325h-1.208v.284h1.208v-.284zm0 1.328h-1.208v.285h1.208v-.285zm0 1.329h-1.208v.284h1.208v-.284zm0 1.324h-1.208v.285h1.208v-.285zm0 1.332h-1.208v.285h1.208v-.285zm0 1.329h-1.208v.284h1.208v-.284zm.842 1.324h-2.05v.289h2.05v-.289zm-.842 1.329h-1.208v.284h1.208v-.284zm0 1.328h-1.208v.285h1.208v-.285zm0 1.329h-1.208v.284h1.208v-.284zm0 1.324h-1.208v.285h1.208v-.285zm0 1.329h-1.208v.284h1.208v-.284zm0 1.328h-1.208v.284h1.208v-.284zm.842 1.325h-2.05v.284h2.05v-.284zm-.842 1.328h-1.208v.285h1.208v-.285zm0 1.332h-1.208v.285h1.208v-.285zm0 1.321h-1.208v.284h1.208v-.284zm0 1.332h-1.208v.285h1.208v-.285zm0 1.329h-1.208v.284h1.208v-.284zm0 1.324h-1.208v.288h1.208v-.288z" fill="#C7C7C7"/><path d="M177.156 109.765a12.831 12.831 0 01-12.592-15.336 12.826 12.826 0 0110.083-10.086 12.835 12.835 0 0115.34 12.587 12.847 12.847 0 01-12.831 12.835zm0-25.093a12.262 12.262 0 1012.262 12.258 12.273 12.273 0 00-12.262-12.258z" fill="#EBEBEB"/><path d="M176.512 111.58c-.194 0-.374-.022-.584-.037l.049-.569c.183 0 .374.026.558.034l-.023.572zm2.043-.052l-.052-.569c.183-.019.374-.037.557-.064l.075.565c-.191.019-.385.049-.58.068zm-4.647-.296c-.191-.041-.374-.09-.569-.138l.15-.554c.179.049.374.094.546.135l-.127.557zm7.229-.187l-.153-.546.535-.165.179.543c-.187.06-.374.116-.561.168zm-9.729-.621l-.535-.24.243-.516c.172.079.341.157.513.228l-.221.528zm12.184-.314l-.251-.513c.169-.082.333-.168.498-.258l.273.505c-.172.09-.344.18-.52.266zm-14.5-.932a11.136 11.136 0 01-.483-.333l.333-.464c.154.112.307.217.464.322l-.314.475zm16.745-.43l-.337-.461c.15-.108.296-.224.446-.34l.355.445c-.153.124-.307.24-.464.356zm-18.803-1.205a13.452 13.452 0 01-.415-.412l.407-.4c.131.134.266.269.401.396l-.393.416zm20.768-.532l-.412-.396c.131-.139.254-.277.374-.416l.43.375a8.381 8.381 0 01-.389.437h-.003zm-22.501-1.444a12.9 12.9 0 01-.336-.479l.475-.318.322.46-.461.337zm24.128-.617l-.475-.315c.101-.157.202-.314.296-.475l.49.292a9.679 9.679 0 01-.307.498h-.004zm-25.478-1.636a27.144 27.144 0 01-.247-.527l.523-.229c.075.169.154.341.236.509l-.512.247zm26.713-.684l-.524-.225c.071-.172.142-.348.21-.524l.531.202a7.447 7.447 0 01-.213.547h-.004zm-27.641-1.77a12.124 12.124 0 01-.146-.569l.557-.131c.041.183.09.374.139.546l-.55.154zm28.438-.749l-.557-.123c.042-.185.079-.368.112-.55l.561.1a6.952 6.952 0 01-.108.584l-.008-.011zm-28.917-1.837c0-.195-.03-.374-.042-.584l.573-.03c0 .191.022.374.037.562l-.568.052zm29.25-.748l-.569-.023v-.617h.573v.052c.019.19.015.385.007.58l-.011.008zm-28.685-1.823l-.569-.048c0-.195.037-.375.06-.58l.569.07c-.015.177-.034.364-.049.55l-.011.008zm27.982-.782a13.987 13.987 0 00-.09-.554l.561-.1c.034.19.068.374.094.576l-.565.078zM163.55 93.22l-.55-.15c.052-.19.105-.374.165-.561l.546.172c-.045.172-.101.351-.15.531l-.011.008zm26.942-.749c-.06-.18-.124-.355-.191-.527l.535-.206c.071.183.135.374.199.554l-.543.18zm-26.077-1.612l-.517-.248c.086-.175.172-.351.266-.523l.505.27c-.06.168-.142.317-.225.49l-.029.01zm25.07-.7a11.64 11.64 0 00-.28-.483l.49-.296c.1.165.197.334.292.506l-.502.273zm-23.772-1.47l-.46-.338c.116-.157.232-.314.351-.467l.45.374a11.66 11.66 0 00-.319.419l-.022.011zm22.365-.622a6.348 6.348 0 00-.374-.427l.431-.374c.127.146.254.292.374.445l-.431.356zm-20.67-1.284l-.397-.411c.143-.135.285-.27.431-.397l.374.427a2.63 2.63 0 00-.408.382zm18.942-.527l-.434-.356.355-.449c.154.12.303.247.453.375l-.374.43zM169.376 85.2l-.318-.475.494-.311.296.486-.472.3zm14.919-.412a12.428 12.428 0 00-.49-.277l.27-.501c.172.09.344.187.508.284l-.288.494zm-12.7-.79l-.228-.523c.18-.079.374-.15.539-.221l.206.531c-.184.056-.36.127-.528.202l.011.012zm10.418-.291l-.535-.184.176-.542c.187.06.374.123.553.19l-.194.536zm-8.023-.494l-.127-.558.572-.12.105.562-.55.116zm5.579-.157l-.553-.083.074-.565c.195.026.375.053.577.086l-.098.562zm-3.076-.188l-.029-.568c.194 0 .374 0 .587-.019v.572a5.751 5.751 0 00-.569.004l.011.011zm-120-10.941a12.831 12.831 0 1112.831-12.835 12.846 12.846 0 01-12.83 12.835zm0-25.093a12.262 12.262 0 1012.262 12.258 12.273 12.273 0 00-12.262-12.258z" fill="#EBEBEB"/><path d="M55.85 73.742c-.194 0-.374-.019-.584-.038l.05-.568c.182.018.373.03.56.037l-.026.569zm2.043-.053l-.052-.568c.187 0 .374-.038.557-.064l.075.569-.58.063zm-4.647-.291l-.565-.142.146-.55c.18.048.374.093.546.134l-.127.558zm7.23-.187l-.154-.55c.18-.053.374-.105.539-.165l.175.542c-.187.06-.37.12-.56.173zm-9.73-.625a7.96 7.96 0 01-.535-.24l.243-.516c.172.082.34.157.517.232l-.225.524zm12.184-.315l-.25-.512c.167-.083.336-.169.497-.255l.273.502a9.83 9.83 0 01-.52.265zm-14.515-.931c-.165-.105-.322-.217-.483-.33l.333-.464.464.318-.314.476zm16.745-.427l-.337-.46c.15-.112.3-.225.446-.344l.374.449c-.157.134-.31.239-.468.355h-.015zm-18.8-1.209a14.64 14.64 0 01-.415-.411l.412-.397c.127.135.262.266.397.397l-.393.411zm20.768-.531l-.415-.393a8.59 8.59 0 00.374-.415l.43.374a4.43 4.43 0 01-.374.434h-.015zm-22.5-1.444c-.116-.157-.224-.318-.333-.48l.472-.317c.104.157.213.31.321.46l-.46.337zm24.128-.618l-.475-.314c.1-.157.202-.314.3-.475l.486.292c-.071.168-.188.336-.296.497h-.015zM43.277 65.48a9.638 9.638 0 01-.243-.532l.524-.228c.071.172.15.34.232.51l-.513.25zm26.718-.689l-.528-.224c.075-.172.142-.344.21-.52l.535.198a6.013 6.013 0 01-.202.546h-.015zm-27.63-1.77a14.032 14.032 0 01-.147-.565l.558-.13c.041.183.09.373.138.542l-.55.153zm28.438-.748l-.558-.123c.04-.183.078-.366.113-.55l.56.1c-.03.203-.052.386-.111.584l-.004-.011zm-28.914-1.849c0-.19-.03-.374-.041-.583h.58c0 .187.022.374.037.557l-.576.026zm29.25-.748l-.568-.022v-.622h.569v.06c.015.199.01.393.003.588l-.003-.004zm-28.685-1.819l-.569-.052c0-.194.038-.374.06-.58l.569.071c-.019.191-.041.378-.056.565l-.004-.003zm27.982-.782a12.057 12.057 0 00-.09-.553l.562-.105c.037.19.067.374.097.576l-.569.082zm-27.54-1.706l-.55-.15c.052-.187.108-.374.164-.56l.547.175-.158.539-.003-.004zm26.96-.748c-.06-.176-.123-.352-.187-.528l.531-.202c.072.18.135.374.199.55l-.543.18zM43.78 53.008l-.513-.247c.082-.176.172-.352.262-.524l.505.27c-.086.164-.168.333-.25.501h-.004zm25.07-.696a12.25 12.25 0 00-.28-.486l.49-.296c.102.17.2.338.292.505l-.501.277zm-23.768-1.474l-.464-.337c.116-.157.232-.31.352-.464l.449.352a9.42 9.42 0 00-.34.449h.003zm22.362-.618a6.704 6.704 0 00-.375-.43l.427-.374c.131.146.254.295.374.445l-.426.36zM46.74 48.933l-.397-.412c.142-.134.284-.269.43-.396l.375.426a13.4 13.4 0 00-.412.382h.004zm18.941-.524c-.142-.123-.284-.243-.434-.374l.374-.445c.154.12.303.243.453.374l-.393.445zm-16.973-1.055l-.315-.475c.161-.109.326-.214.49-.315l.3.487a9.704 9.704 0 00-.479.303h.004zm14.919-.415l-.49-.277.27-.502c.171.094.343.187.512.285l-.292.494zm-12.704-.79l-.228-.524.542-.22.202.535-.516.209zm10.418-.288c-.176-.064-.375-.127-.536-.183l.176-.543c.187.06.375.12.554.187l-.194.539zm-8.023-.498l-.127-.554a9.11 9.11 0 01.572-.12l.105.562c-.182.032-.365.07-.55.112zm5.575-.153c-.183-.034-.374-.06-.553-.086l.074-.565.577.086-.098.565zm-3.076-.187l-.026-.573h.584v.569a4.558 4.558 0 00-.554.004h-.004z" fill="#EBEBEB"/><path d="M165.803 30.923a1.874 1.874 0 01-1.729-1.155 1.867 1.867 0 011.364-2.551 1.871 1.871 0 11.365 3.706zm0-3.338a1.498 1.498 0 00-1.059 2.555 1.5 1.5 0 002.303-.226 1.495 1.495 0 00-1.244-2.328zm-1.67-1.773a2.657 2.657 0 01-2.451-1.638 2.654 2.654 0 014.657-2.49 2.65 2.65 0 01-.331 3.35 2.655 2.655 0 01-1.875.778zm0-4.932a2.28 2.28 0 00-2.235 2.724 2.278 2.278 0 102.235-2.724zm3.57-1.422a9.729 9.729 0 110-19.458 9.729 9.729 0 010 19.458zm0-19.084a9.356 9.356 0 00-1.825 18.53 9.354 9.354 0 008.439-15.787 9.354 9.354 0 00-6.614-2.74V.375z" fill="#C7C7C7"/><path d="M138.295 168.775c25.248 0 45.715-1.745 45.715-3.899 0-2.153-20.467-3.899-45.715-3.899-25.248 0-45.715 1.746-45.715 3.899 0 2.154 20.467 3.899 45.715 3.899z" fill="#EBEBEB"/><path d="M40.463 134.151l19.11-.089 19.106-.034 38.213-.06 38.212.06 19.11.034 19.106.089-19.106.094-19.11.034-38.212.059-38.213-.059-19.106-.034-19.11-.094zM14.75 180.954c.034-.327.343-.524.606-.671.275-.149.563-.274.86-.374a18.21 18.21 0 011.82-.512c1.23-.284 2.473-.494 3.72-.692 2.49-.379 4.998-.667 7.506-.916 5.02-.499 10.052-.861 15.084-1.149 10.07-.563 20.152-.882 30.234-1.075 20.164-.357 40.342-.258 60.502.49 5.037.207 10.078.46 15.11.792 5.033.331 10.061.739 15.055 1.363a55.4 55.4 0 017.462 1.351 6.171 6.171 0 011.785.757c.158.108.285.256.366.43a.621.621 0 01-.103.606c-.234.251-.52.446-.839.572-1.19.458-2.424.792-3.682.998-2.486.469-4.994.774-7.501 1.05-2.508.275-4.994.499-7.51.675-20.122 1.475-40.303 1.772-60.468 1.721a1133.77 1133.77 0 0030.243-.508c10.077-.301 20.155-.723 30.203-1.505 2.512-.203 5.024-.431 7.527-.702 2.504-.271 5.003-.593 7.472-1.062a18.688 18.688 0 003.604-.985c.268-.107.511-.268.714-.473a.288.288 0 00.056-.28.753.753 0 00-.254-.275 6.019 6.019 0 00-1.681-.701 55.004 55.004 0 00-7.416-1.321c-4.998-.61-10.022-.997-15.054-1.324-5.033-.327-10.065-.56-15.102-.757-20.147-.8-40.32-.947-60.48-.637-10.078.168-20.16.465-30.225.998-5.037.262-10.065.581-15.085 1.045-2.512.232-5.02.503-7.51.86-1.247.19-2.49.392-3.72.667-.616.138-1.223.309-1.82.512a5.844 5.844 0 00-.86.366c-.271.146-.581.339-.62.666z" fill="#263238"/><path d="M36.6 166.928h-1.29v-.43h2.58v.43H36.6zm-3.872-.026l-2.58-.047v-.43l2.58.047v.43zm7.743 0v-.43l2.58-.047v.43l-2.58.047zm-12.904-.12c-.86-.032-1.72-.066-2.58-.104v-.43c.86.039 1.72.073 2.58.103v.431zm18.065 0v-.431l2.581-.099v.431l-2.58.099zm-23.196-.228l-2.581-.164.026-.43c.86.06 1.694.112 2.58.163l-.025.431zm28.35 0l-.027-.431c.86-.047 1.72-.103 2.581-.159l.03.43c-.847.048-1.703.104-2.58.151l-.005.009zm-33.495-.357c-.886-.072-1.746-.151-2.58-.237l.042-.43c.83.082 1.682.159 2.581.236l-.043.431zm38.643 0l-.039-.431c.883-.071 1.743-.15 2.58-.236l.044.43c-.843.073-1.7.155-2.58.228l-.005.009zm-43.774-.53c-.9-.107-1.76-.223-2.581-.339l.06-.43c.8.116 1.656.232 2.55.339l-.03.43zm48.91 0l-.052-.43a97.976 97.976 0 002.55-.339l.06.43c-.812.116-1.672.219-2.559.335v.004zm-54.02-.761c-.93-.172-1.78-.353-2.534-.542l.104-.43a44.05 44.05 0 002.507.538l-.077.434zm59.13 0l-.078-.43c.92-.172 1.763-.353 2.508-.538l.103.431c-.753.176-1.604.361-2.534.533v.004zm-64.146-1.303c-1.35-.538-2.017-1.101-2.034-1.721h.43c0 .431.641.899 1.764 1.347l-.16.374zm69.17 0l-.16-.4c1.123-.43 1.72-.925 1.72-1.346l.43-.056v.051c.018.628-.619 1.196-1.995 1.738l.004.013zm-69.062-3.101l-.16-.396a19.714 19.714 0 012.487-.774l.108.43a18.97 18.97 0 00-2.435.74zm68.855 0a19.356 19.356 0 00-2.435-.749l.104-.43c.846.2 1.678.456 2.49.766l-.16.413zM7.08 159.211l-.078-.43c.792-.146 1.652-.288 2.551-.43l.065.43c-.895.146-1.751.284-2.538.43zm58.975 0a94.017 94.017 0 00-2.534-.43l.06-.43a53.31 53.31 0 012.551.43l-.077.43zm-53.891-.761l-.052-.43c.82-.101 1.68-.195 2.581-.284l.043.43c-.899.09-1.755.185-2.572.284zm48.807 0c-.818-.1-1.67-.194-2.555-.28l.043-.43c.886.092 1.746.187 2.58.284l-.068.426zm-43.688-.52l-.035-.431c.835-.074 1.695-.14 2.58-.197l.031.43c-.88.066-1.74.132-2.577.198zm38.57 0c-.833-.069-1.693-.135-2.582-.198l.03-.43c.878.06 1.738.124 2.581.193l-.03.435zm-33.435-.353l-.026-.43a289.46 289.46 0 012.581-.129v.43l-2.555.129zm28.298 0c-.86-.048-1.72-.091-2.58-.129v-.43c.86.04 1.72.083 2.58.129v.43zm-23.158-.228v-.43c.86-.029 1.72-.055 2.581-.078v.43c-.872.018-1.732.041-2.58.069v.009zm18.018 0l-2.58-.073v-.43l2.58.073v.43zm-12.87-.121v-.43c.861 0 1.721-.008 2.582-.026v.431c-.873-.009-1.734 0-2.581.012v.013zm7.722 0c-.86 0-1.72-.021-2.581-.025v-.431c.86 0 1.72.009 2.58.026v.43z" fill="#76B7ED"/><path d="M111.622 165.177c-36.174 0-64.519-4.817-64.519-10.973 0-6.155 28.333-10.972 64.519-10.972 36.187 0 64.519 4.822 64.519 10.972 0 6.151-28.349 10.973-64.519 10.973zm0-21.506c-17.162 0-33.296 1.118-45.426 3.148-11.854 1.983-18.65 4.68-18.65 7.394 0 2.714 6.796 5.411 18.65 7.398 12.134 2.026 28.264 3.145 45.426 3.145 17.162 0 33.292-1.119 45.426-3.145 11.85-1.987 18.65-4.68 18.65-7.398s-6.8-5.411-18.65-7.394c-12.134-2.039-28.264-3.157-45.426-3.157v.009z" fill="#C7C7C7"/><path d="M38.079 82.855a34.324 34.324 0 1134.32-34.303 34.358 34.358 0 01-34.32 34.303zm0-68.214a33.894 33.894 0 1033.89 33.911 33.933 33.933 0 00-33.89-33.911z" fill="#263238"/><mask id="a" fill="#fff"><path d="M59.374 40.186l-.021-.43c.85-.043 1.694-.146 2.529-.31l.082.43a19.25 19.25 0 01-2.59.31zm-2.606-.038a19.22 19.22 0 01-2.581-.396l.095-.43c.829.185 1.67.314 2.516.387l-.03.439zm7.716-.947l-.142-.43c.806-.273 1.59-.604 2.349-.99l.193.388a18.99 18.99 0 01-2.4 1.032zM51.692 39a19.056 19.056 0 01-2.374-1.084l.206-.378c.749.405 1.523.76 2.319 1.062l-.15.4zm17.433-2.15l-.245-.357a18.26 18.26 0 001.992-1.592l.288.318a19.08 19.08 0 01-2.026 1.64l-.009-.01zm-22.005-.34a19.035 19.035 0 01-1.983-1.69l.301-.31a17.838 17.838 0 001.94 1.656l-.258.344zm25.838-3.175l-.331-.275a19.497 19.497 0 001.484-2.069l.365.224a19.83 19.83 0 01-1.518 2.12zm-29.559-.464a19.15 19.15 0 01-1.45-2.15l.375-.216c.424.738.898 1.445 1.42 2.116l-.345.25zm32.29-3.966l-.396-.172c.342-.78.63-1.581.86-2.4l.43.116a19.195 19.195 0 01-.894 2.456zm-34.879-.542a19.206 19.206 0 01-.804-2.482l.43-.103c.206.825.469 1.634.787 2.422l-.413.163zm36.294-4.465l-.43-.06c.116-.842.173-1.692.172-2.542h.43c.001.87-.056 1.74-.172 2.602zm-37.55-.585a18.597 18.597 0 01-.108-2.017v-.59h.43v.577c0 .66.035 1.319.104 1.974l-.426.056zM76.8 19.897a18.483 18.483 0 00-.366-2.525l.43-.09c.185.85.31 1.713.375 2.58l-.44.035zm-36.66-1.72l-.43-.073c.144-.855.347-1.699.606-2.525l.409.129c-.25.811-.446 1.64-.585 2.477v-.008zm35.584-3.26a18.07 18.07 0 00-1.04-2.323l.378-.203c.41.768.767 1.562 1.067 2.38l-.404.145zm-34.048-1.588l-.392-.185c.378-.786.809-1.544 1.29-2.27l.362.236a18.484 18.484 0 00-1.26 2.228v-.009zm31.657-2.895a18.755 18.755 0 00-1.634-1.957l.31-.296c.6.628 1.16 1.297 1.672 2l-.348.253zm-28.857-1.35l-.323-.284a19.16 19.16 0 011.854-1.837l.28.327a19.257 19.257 0 00-1.811 1.802v-.008zM69.81 6.765a18.96 18.96 0 00-2.107-1.436l.219-.37c.75.441 1.468.933 2.15 1.47l-.262.336zM48.324 5.76l-.232-.357a18.41 18.41 0 012.28-1.265l.18.387c-.769.365-1.513.78-2.228 1.243V5.76zm17.098-1.566A19.268 19.268 0 0063 3.39l.108-.43c.845.228 1.673.515 2.477.86l-.163.374zm-12.474-.58l-.124-.43a18.89 18.89 0 012.537-.59l.07.43c-.847.142-1.682.342-2.5.598l.017-.008zm7.566-.693a19.356 19.356 0 00-2.546-.116v-.43a19.49 19.49 0 012.602.12l-.056.426z"/></mask><path d="M59.374 40.186l-.021-.43c.85-.043 1.694-.146 2.529-.31l.082.43a19.25 19.25 0 01-2.59.31zm-2.606-.038a19.22 19.22 0 01-2.581-.396l.095-.43c.829.185 1.67.314 2.516.387l-.03.439zm7.716-.947l-.142-.43c.806-.273 1.59-.604 2.349-.99l.193.388a18.99 18.99 0 01-2.4 1.032zM51.692 39a19.056 19.056 0 01-2.374-1.084l.206-.378c.749.405 1.523.76 2.319 1.062l-.15.4zm17.433-2.15l-.245-.357a18.26 18.26 0 001.992-1.592l.288.318a19.08 19.08 0 01-2.026 1.64l-.009-.01zm-22.005-.34a19.035 19.035 0 01-1.983-1.69l.301-.31a17.838 17.838 0 001.94 1.656l-.258.344zm25.838-3.175l-.331-.275a19.497 19.497 0 001.484-2.069l.365.224a19.83 19.83 0 01-1.518 2.12zm-29.559-.464a19.15 19.15 0 01-1.45-2.15l.375-.216c.424.738.898 1.445 1.42 2.116l-.345.25zm32.29-3.966l-.396-.172c.342-.78.63-1.581.86-2.4l.43.116a19.195 19.195 0 01-.894 2.456zm-34.879-.542a19.206 19.206 0 01-.804-2.482l.43-.103c.206.825.469 1.634.787 2.422l-.413.163zm36.294-4.465l-.43-.06c.116-.842.173-1.692.172-2.542h.43c.001.87-.056 1.74-.172 2.602zm-37.55-.585a18.597 18.597 0 01-.108-2.017v-.59h.43v.577c0 .66.035 1.319.104 1.974l-.426.056zM76.8 19.897a18.483 18.483 0 00-.366-2.525l.43-.09c.185.85.31 1.713.375 2.58l-.44.035zm-36.66-1.72l-.43-.073c.144-.855.347-1.699.606-2.525l.409.129c-.25.811-.446 1.64-.585 2.477v-.008zm35.584-3.26a18.07 18.07 0 00-1.04-2.323l.378-.203c.41.768.767 1.562 1.067 2.38l-.404.145zm-34.048-1.588l-.392-.185c.378-.786.809-1.544 1.29-2.27l.362.236a18.484 18.484 0 00-1.26 2.228v-.009zm31.657-2.895a18.755 18.755 0 00-1.634-1.957l.31-.296c.6.628 1.16 1.297 1.672 2l-.348.253zm-28.857-1.35l-.323-.284a19.16 19.16 0 011.854-1.837l.28.327a19.257 19.257 0 00-1.811 1.802v-.008zM69.81 6.765a18.96 18.96 0 00-2.107-1.436l.219-.37c.75.441 1.468.933 2.15 1.47l-.262.336zM48.324 5.76l-.232-.357a18.41 18.41 0 012.28-1.265l.18.387c-.769.365-1.513.78-2.228 1.243V5.76zm17.098-1.566A19.268 19.268 0 0063 3.39l.108-.43c.845.228 1.673.515 2.477.86l-.163.374zm-12.474-.58l-.124-.43a18.89 18.89 0 012.537-.59l.07.43c-.847.142-1.682.342-2.5.598l.017-.008zm7.566-.693a19.356 19.356 0 00-2.546-.116v-.43a19.49 19.49 0 012.602.12l-.056.426z" stroke="#FEA41D" stroke-width="2" mask="url(#a)"/><mask id="b" fill="#fff"><path d="M193.497 56.018a18.928 18.928 0 01-17.875-12.68 18.924 18.924 0 1136.305-1.988 18.949 18.949 0 01-18.43 14.667zm0-37.42a18.496 18.496 0 104.155.472 18.523 18.523 0 00-4.16-.46l.005-.013z"/></mask><path d="M193.497 18.597l.948.317.439-1.317h-1.387v1zm4.155.473l.224-.974h-.003l-.221.974zm-4.16-.46l-.948-.316-.441 1.32 1.392-.004-.003-1zm.004 36.408a17.923 17.923 0 01-10.38-3.305l-1.157 1.631a19.925 19.925 0 0011.538 3.674l-.001-2zm-10.38-3.305a17.92 17.92 0 01-6.55-8.704l-1.888.66a19.924 19.924 0 007.281 9.675l1.157-1.63zm-6.55-8.704a17.92 17.92 0 01-.301-10.89l-1.921-.555a19.929 19.929 0 00.334 12.105l1.888-.66zm-.301-10.89a17.927 17.927 0 016.06-9.053l-1.245-1.565a19.925 19.925 0 00-6.736 10.063l1.921.555zm6.06-9.053a17.926 17.926 0 0110.182-3.872l-.109-1.997A19.923 19.923 0 00181.08 21.5l1.245 1.565zm10.182-3.872a17.924 17.924 0 0110.544 2.738l1.067-1.692a19.923 19.923 0 00-11.72-3.043l.109 1.997zm10.544 2.738a17.924 17.924 0 017.012 8.337l1.849-.762a19.918 19.918 0 00-7.794-9.267l-1.067 1.692zm7.012 8.337a17.923 17.923 0 01.89 10.857l1.949.45c.93-4.028.584-8.246-.99-12.069l-1.849.762zm.89 10.856a17.95 17.95 0 01-6.308 9.988l1.245 1.565a19.953 19.953 0 007.012-11.101l-1.949-.452zm-6.308 9.988a17.953 17.953 0 01-11.15 3.905l.003 2a19.952 19.952 0 0012.392-4.34l-1.245-1.565zm-11.148-33.516c-4.98 0-9.771 1.905-13.39 5.324l1.373 1.454a17.495 17.495 0 0112.016-4.778l.001-2zm-13.39 5.324a19.492 19.492 0 00-6.076 13.066l1.997.113a17.494 17.494 0 015.452-11.725l-1.373-1.454zm-6.076 13.066a19.493 19.493 0 004.557 13.67l1.529-1.289a17.492 17.492 0 01-4.089-12.268l-1.997-.113zm4.557 13.67a19.496 19.496 0 0012.701 6.806l.226-1.987a17.496 17.496 0 01-11.398-6.108l-1.529 1.289zm12.701 6.806a19.495 19.495 0 0013.906-3.776l-1.2-1.6a17.498 17.498 0 01-12.48 3.389l-.226 1.987zm13.906-3.776a19.493 19.493 0 007.514-12.295l-1.971-.339a17.496 17.496 0 01-6.743 11.034l1.2 1.6zm7.514-12.295a19.49 19.49 0 00-2.983-14.098l-1.665 1.108a17.497 17.497 0 012.677 12.651l1.971.339zm-2.983-14.098a19.495 19.495 0 00-11.85-8.198l-.449 1.949a17.495 17.495 0 0110.634 7.357l1.665-1.108zm-11.853-8.199a19.522 19.522 0 00-4.384-.485l.006 2a17.522 17.522 0 013.935.435l.443-1.95zm-3.432.832l.004-.013-1.897-.633-.004.013 1.897.633z" fill="#FF9F0E" mask="url(#b)"/><mask id="c" fill="#fff"><path d="M186.937 31.282a2.233 2.233 0 01-2.218-1.868 2.23 2.23 0 011.027-2.27 2.244 2.244 0 013.088.71 2.239 2.239 0 01-.755 3.13 2.24 2.24 0 01-1.142.31v-.012zm0-4.052a1.812 1.812 0 00-1.759 1.406 1.805 1.805 0 002.721 1.923 1.81 1.81 0 00-.549-3.3 1.917 1.917 0 00-.421-.03h.008z"/></mask><path d="M186.937 31.282h1v-1.004l-1.003.004.003 1zm-.507-.056l-.222.975h.001l.221-.975zm-.684-4.082l.527.85.002-.002-.529-.848zm3.088.71l-.846.532.001.003.845-.536zm-1.897 3.44h-1v.998l.998.002.002-1zm0-4.064l.003 1-.003-2v1zm-.955.275l.527.85.003-.002-.53-.848zm-.804 1.131l-.976-.218v.002l.976.216zm1.355 2.15l-.226.975.226-.974zm.817-3.526l.226-.974-.023-.006-.023-.004-.18.984zm-.421-.03l-.039-1 .039 2v-1zm.005 3.052a1.27 1.27 0 01-.284-.032l-.441 1.951c.24.054.485.081.731.08l-.006-2zm-.283-.032a1.235 1.235 0 01-.625-.356l-1.454 1.373a3.23 3.23 0 001.636.934l.443-1.95zm-.625-.356a1.237 1.237 0 01-.321-.645l-1.973.33c.107.634.399 1.22.84 1.688l1.454-1.373zm-.321-.645a1.234 1.234 0 01.093-.714l-1.822-.825a3.235 3.235 0 00-.244 1.87l1.973-.331zm.093-.714c.101-.224.266-.412.475-.541l-1.054-1.7a3.231 3.231 0 00-1.243 1.416l1.822.825zm.477-.543c.279-.174.616-.23.937-.157l.448-1.949a3.244 3.244 0 00-2.443.41l1.058 1.696zm.937-.157c.321.074.6.272.776.55l1.692-1.064a3.244 3.244 0 00-2.02-1.435l-.448 1.95zm.777.554c.12.188.186.404.193.627l1.999-.062a3.243 3.243 0 00-.502-1.636l-1.69 1.07zm.193.627c.007.222-.046.442-.154.637l1.752.965c.28-.509.419-1.083.401-1.664l-1.999.061zm-.154.637a1.24 1.24 0 01-.456.47l1.015 1.723c.5-.295.912-.72 1.193-1.228l-1.752-.965zm-.456.47a1.246 1.246 0 01-.633.171l-.004 2a3.24 3.24 0 001.652-.448l-1.015-1.723zm.365 1.171v-.012h-2v.012h2zm-1.003-5.064a2.811 2.811 0 00-1.482.427l1.06 1.696a.815.815 0 01.428-.123l-.006-2zm-1.478.425c-.316.195-.59.452-.805.755l1.63 1.159a.783.783 0 01.228-.214l-1.053-1.7zm-.805.755a2.794 2.794 0 00-.449 1.008l1.952.436a.79.79 0 01.127-.285l-1.63-1.159zm-.449 1.01a2.807 2.807 0 00.365 2.103l1.692-1.066a.808.808 0 01-.105-.604l-1.952-.433zm.365 2.103a2.806 2.806 0 001.74 1.238l.452-1.948a.81.81 0 01-.5-.356l-1.692 1.066zm1.74 1.238a2.815 2.815 0 002.122-.353l-1.059-1.697a.81.81 0 01-.612.102l-.451 1.948zm2.122-.353a2.81 2.81 0 001.25-1.75l-1.948-.452a.81.81 0 01-.361.505l1.059 1.697zm1.25-1.75a2.812 2.812 0 00-.353-2.122l-1.697 1.059c.113.182.15.402.102.612l1.948.45zm-.353-2.122a2.813 2.813 0 00-1.75-1.25l-.452 1.948a.813.813 0 01.505.36l1.697-1.058zm-1.796-1.26a2.93 2.93 0 00-.64-.046l.077 1.999a.934.934 0 01.203.015l.36-1.968zm-.601 1.954h.008v-2h-.008v2z" fill="#FF9F0E" mask="url(#c)"/><path d="M195.015 34.938a4.459 4.459 0 01-.983-.114l-.01-.002a4.434 4.434 0 01-2.752-1.952l-.012-.018a4.434 4.434 0 01-.646-2.853l.403.092 4 4.847z" stroke="#FF9F0E"/><mask id="d" fill="#fff"><path d="M202.921 34.972a2.229 2.229 0 11.022-4.457 2.229 2.229 0 01-.022 4.457zm0-4.052a1.81 1.81 0 101.537.848 1.817 1.817 0 00-1.129-.805 1.894 1.894 0 00-.408-.056v.013z"/></mask><path d="M202.417 34.912l-.231.973h.004l.227-.973zm.504-3.992l.001 1 .999-.001v-.999h-1zm.405 3.577l-.222-.975.222.975zm.003-3.534l-.243.97.009.002.008.002.226-.974zm-.408-.056l.026-1-1.026-.026v1.026h1zm.008 3.065c-.096 0-.191-.012-.284-.034l-.455 1.948c.237.055.479.084.722.086l.017-2zm-.281-.033a1.228 1.228 0 01-.743-.521l-1.672 1.097a3.23 3.23 0 001.953 1.37l.462-1.946zm-.743-.521a1.228 1.228 0 01-.182-.89l-1.969-.35a3.227 3.227 0 00.479 2.337l1.672-1.097zm-.182-.89c.055-.308.226-.584.478-.77l-1.191-1.607a3.227 3.227 0 00-1.256 2.027l1.969.35zm.478-.77c.252-.187.565-.27.877-.233l.237-1.986a3.227 3.227 0 00-2.305.612l1.191 1.606zm.877-.233c.311.037.597.192.797.433l1.537-1.28a3.23 3.23 0 00-2.097-1.14l-.237 1.987zm.797.433c.201.24.302.55.283.862l1.996.124a3.232 3.232 0 00-.742-2.267l-1.537 1.28zm.283.862a1.23 1.23 0 01-.387.821l1.366 1.461a3.228 3.228 0 001.017-2.158l-1.996-.124zm-.387.821a1.23 1.23 0 01-.845.331l-.011 2a3.23 3.23 0 002.222-.87l-1.366-1.46zm-.852-3.72a2.8 2.8 0 00-1.494.432l1.066 1.692a.81.81 0 01.431-.125l-.003-2zm-1.494.432a2.813 2.813 0 00-1.035 1.16l1.802.867a.812.812 0 01.299-.335l-1.066-1.692zm-1.035 1.16a2.816 2.816 0 00-.26 1.535l1.988-.226a.804.804 0 01.074-.442l-1.802-.866zm-.26 1.535c.06.525.266 1.023.596 1.436l1.564-1.247a.802.802 0 01-.172-.415l-1.988.226zm.596 1.436c.33.414.77.726 1.269.9l.661-1.888a.809.809 0 01-.366-.26l-1.564 1.248zm1.269.9a2.81 2.81 0 001.553.088l-.444-1.95a.81.81 0 01-.448-.026l-.661 1.888zm1.553.088a2.81 2.81 0 001.362-.752l-1.414-1.415a.812.812 0 01-.392.217l.444 1.95zm1.362-.752a2.81 2.81 0 00.753-1.361l-1.949-.447a.81.81 0 01-.218.393l1.414 1.415zm.753-1.362a2.815 2.815 0 00-.358-2.12L203.61 32.3a.817.817 0 01.103.614l1.95.445zm-.358-2.12a2.814 2.814 0 00-1.75-1.249l-.452 1.948c.21.05.392.18.507.362l1.695-1.06zm-1.733-1.245a2.866 2.866 0 00-.625-.085l-.053 1.999c.065.002.129.01.192.026l.486-1.94zm-1.651.914v.013h2v-.013h-2z" fill="#FF9F0E" mask="url(#d)"/><path d="M224.55 126.137h-16.624a19.467 19.467 0 00-38.931 0h-16.628a36.088 36.088 0 0136.091-36.092 36.092 36.092 0 0136.092 36.092z" fill="#76B7ED"/><path d="M230 126.137h-83.084v14.295H230v-14.295z" fill="#76B7ED"/><path d="M155.323 124.772v.332l-2.93-.082v-.327l2.93.077zm.064-1.155c0 .109 0 .218-.022.327l-2.921-.177c0-.11 0-.223.023-.332l2.92.182zm.105-1.152c0 .11-.027.219-.032.328l-2.916-.282c0-.109.023-.218.037-.328l2.911.282zm.146-1.151c-.023.109-.032.219-.045.328l-2.894-.382c.009-.11.024-.22.046-.328l2.893.382zm.182-1.146a7.48 7.48 0 00-.059.327l-2.875-.482.063-.323 2.871.478zm.223-1.133c-.028.105-.05.214-.069.319l-2.852-.574c0-.109.041-.214.068-.323l2.853.578zm.546-2.247c-.032.104-.06.209-.091.313l-2.803-.773.096-.314 2.798.774zm.358-1.106c-.036.1-.068.209-.1.314l-2.77-.855c.036-.105.068-.21.104-.314l2.766.855zm.378-1.096c-.036.104-.077.209-.109.314l-2.73-.97c.037-.104.078-.204.114-.309l2.725.965zm.423-1.079c-.045.101-.086.205-.127.305l-2.694-1.06c.046-.104.082-.204.128-.309l2.693 1.064zm.456-1.069c-.045.1-.091.205-.132.305l-2.652-1.156c.041-.104.086-.2.132-.3l2.652 1.151zm.5-1.046c-.054.1-.104.2-.145.296l-2.612-1.242c.046-.1.096-.196.146-.296l2.611 1.242zm1.092-2.043c-.055.096-.114.191-.164.287l-2.511-1.42c.059-.095.109-.191.168-.286l2.507 1.419zm.601-.992l-.173.282-2.453-1.501a3.13 3.13 0 01.173-.282l2.453 1.501zm.636-.951c-.064.087-.123.182-.182.273l-2.402-1.587.186-.273 2.398 1.587zm.674-.964l-.195.268-2.339-1.669c.064-.091.127-.182.196-.269l2.338 1.67zm.7-.924a3.896 3.896 0 00-.205.264l-2.275-1.747c.064-.091.132-.177.205-.264l2.275 1.747zm.734-.896a6.306 6.306 0 00-.21.25l-2.215-1.819.214-.246 2.211 1.815zm1.559-1.72l-.232.237-2.074-1.97c.077-.077.15-.159.232-.232l2.074 1.965zm.82-.814l-.232.227-2.007-2.038.237-.227 2.002 2.038zm.855-.787l-.246.218-1.929-2.106.246-.219 1.929 2.107zm.877-.76l-.255.214-1.851-2.165c.08-.078.165-.151.255-.219l1.851 2.17zm.905-.728c-.086.069-.177.132-.264.205l-1.774-2.23c.087-.072.178-.14.264-.204l1.774 2.23zm.929-.691a4.919 4.919 0 00-.269.19l-1.692-2.274c.091-.073.177-.132.268-.196l1.693 2.28zm1.93-1.27a3.765 3.765 0 00-.282.178l-1.528-2.402.282-.178 1.528 2.402zm.995-.618c-.096.054-.196.109-.287.168l-1.446-2.452.286-.164 1.447 2.448zm1.015-.56c-.096.05-.191.1-.287.16l-1.364-2.498c.1-.06.195-.11.291-.155l1.36 2.493zm1.042-.519c-.1.046-.2.091-.3.146l-1.256-2.543.3-.15 1.256 2.547zm1.055-.487c-.105.037-.205.087-.305.132l-1.178-2.588.305-.132 1.178 2.588zm1.065-.45c-.101.041-.205.077-.301.123l-1.092-2.62.31-.128 1.083 2.625zm2.188-.782c-.105.031-.214.063-.314.104l-.91-2.693.314-.1.91 2.689zm1.11-.337l-.318.096-.801-2.73.314-.091.805 2.725zm1.125-.291c-.105 0-.214.05-.319.082l-.709-2.73a3.62 3.62 0 01.323-.073l.705 2.72zm1.137-.255l-.328.068-.614-2.761.323-.073.619 2.766zm1.136-.209c-.109 0-.218.032-.323.054l-.496-2.789.323-.05.496 2.785zm1.152-.174c-.109 0-.218.015-.328.042l-.418-2.798c.108-.022.217-.037.327-.046l.419 2.803zm2.311-.227h-.332l-.223-2.82.332-.023.223 2.843zm1.179-.059h-.332l-.123-2.811h.332l.123 2.811zm1.142-.009h-.333l-.027-2.825h.332l.028 2.825zm1.232-2.802l-.073 2.83h-.332l.073-2.826c.109-.014.232-.014.332-.004zm1.265.067l-.173 2.826h-.327l.172-2.82a.723.723 0 01.328-.005zm1.246.12l-.273 2.82c-.104 0-.213-.027-.323-.036l.269-2.821.327.036zm2.498.359l-.455 2.793-.328-.055.455-2.793.328.055zm1.234.245l-.564 2.78c-.109-.032-.214-.05-.323-.073l.564-2.775c.109.018.214.04.323.068zm1.228.291l-.66 2.753c-.109-.032-.218-.055-.327-.078l.664-2.757c.109.023.214.05.323.082zm1.215.328l-.76 2.73-.314-.096.755-2.73.319.096zm1.223.373l-.851 2.73-.314-.1.851-2.703c.086.005.187.037.314.073zm1.17.419l-.951 2.675-.309-.114.951-2.675.309.114zm2.333.955l-1.137 2.607c-.1-.05-.2-.096-.305-.137l1.138-2.606.304.136zm1.138.528l-1.223 2.57c-.096-.05-.196-.1-.301-.145l1.224-2.57.3.145zm1.12.592l-1.315 2.52-.291-.155 1.305-2.502c.105.027.201.082.301.136zm1.095.618l-1.396 2.475-.282-.168 1.396-2.475.282.168zm1.079.655l-1.493 2.425c-.091-.064-.186-.118-.277-.173l1.488-2.43.282.178zm1.051.692l-1.574 2.375a5.577 5.577 0 00-.273-.187l1.57-2.375.277.187zm2.028 1.492l-1.738 2.275a3.306 3.306 0 00-.259-.205l1.738-2.275c.087.064.164.136.259.205zm.974.801l-1.82 2.202-.254-.214 1.819-2.202c.096.068.173.136.255.214zm.946.828l-1.892 2.143-.246-.223 1.893-2.139c.081.069.163.146.245.219zm.919.869l-1.974 2.097c-.073-.082-.155-.159-.232-.232l1.965-2.075.241.21zm.887.891l-2.043 2.007c-.077-.078-.15-.16-.232-.237l2.043-2.006.232.236zm.851.928l-2.111 1.934c-.072-.082-.145-.169-.218-.246l2.111-1.938.218.25zm1.611 1.938l-2.247 1.784c-.064-.091-.132-.173-.2-.259l2.247-1.788c.068.086.137.172.2.263zm.754 1.006l-2.311 1.706c-.059-.086-.127-.177-.191-.264l2.307-1.71.195.268zm.72 1.037l-2.37 1.629c-.059-.096-.123-.187-.187-.278l2.375-1.628c.059.095.123.182.182.277zm.678 1.056l-2.425 1.551c-.054-.095-.113-.186-.173-.282l2.425-1.547c.064.096.123.187.173.278zm.664 1.087l-2.484 1.46c-.059-.095-.109-.191-.168-.286l2.484-1.461c.045.096.1.192.168.287zm.592 1.106l-2.539 1.365c-.05-.101-.1-.196-.154-.292l2.538-1.365.155.292zm1.091 2.265l-2.63 1.201c-.045-.1-.086-.2-.132-.304l2.63-1.197c.045.1.091.182.132.3zm.487 1.16l-2.67 1.111c-.046-.105-.082-.205-.128-.305l2.676-1.11c.045.1.081.204.122.304zm.446 1.183l-2.73 1.015-.109-.309 2.729-1.015.11.309zm.405 1.179l-2.752.909c-.032-.104-.064-.209-.1-.313l2.729-.91c.055.118.091.223.123.314zm.365 1.223l-2.789.824c-.027-.109-.059-.214-.087-.319l2.785-.823c.032.105.059.209.091.318zm.318 1.215l-2.821.733c-.023-.11-.045-.219-.077-.323l2.821-.728c.013.104.054.209.077.318zm.509 2.466l-2.848.555c0-.109-.037-.218-.055-.323l2.866-.532c0 .082.019.191.037.3zm.187 1.247l-2.889.455c0-.11-.028-.219-.046-.328l2.889-.455c.018.091.032.218.046.328zm.15 1.251l-2.912.336c0-.113 0-.223-.027-.332l2.903-.332c.036.109.036.205.036.328zm.1 1.242l-2.921.227c0-.109 0-.214-.022-.323l2.921-.232c.009.123.013.232.022.328zm.055 1.274l-2.926.132v-.332l2.93-.128c-.009.109-.004.219-.004.328zm-67.297.855v.223h-4.868v-.182l4.868-.041zm.995-7.543a4.112 4.112 0 00-.082.318l-4.745-1.142c.028-.109.055-.213.078-.323l4.749 1.147zm2.799-7.075a5.814 5.814 0 00-.159.291l-4.354-2.274.155-.296 4.358 2.279zm4.417-6.164l-.218.245-3.69-3.262.218-.25 3.69 3.267zm5.779-4.946c-.091.055-.182.119-.278.182l-2.793-4.072a3.55 3.55 0 01.273-.186l2.798 4.076zm6.792-3.398l-.314.114-1.734-4.641.314-.114 1.734 4.64zm7.411-1.638c-.11.004-.219.014-.328.032l-.564-4.927.332-.037.56 4.932zm8.235-4.732l-.646 4.914c-.109 0-.218-.037-.328-.046l.646-4.913c.105.009.219.027.328.045zm8.485 2.316l-1.82 4.609c-.1-.05-.204-.087-.309-.128l1.82-4.608c.109.04.214.082.309.127zm7.671 4.313l-2.866 4.017-.269-.195 2.867-4.017c.095.059.182.127.268.195zm6.404 6.033l-3.744 3.184-.214-.25 3.749-3.184.209.25zm4.765 7.398l-4.395 2.188c-.046-.1-.096-.2-.146-.3l4.391-2.189c.054.1.104.2.15.301zm2.821 8.33l-4.772 1.06c0-.11-.046-.219-.069-.323l4.773-1.06.068.323zm.741 7.329h-4.864a.661.661 0 000-.109l4.868-.041-.004.15zm-75.023 12.22h-.355v2.075h.355v-2.075zm1.188 0h-.355v2.075h.355v-2.075zm1.183 0h-.355v2.075h.355v-2.075zm1.188 0h-.355v2.075h.355v-2.075zm2.37 0h-.355v2.075h.355v-2.075zm1.183 0h-.355v2.075h.355v-2.075zm1.187 0h-.355v2.075h.355v-2.075zm1.183 0h-.355v2.075h.355v-2.075zm1.188 0h-.355v2.075h.355v-2.075zm2.369 0h-.355v2.075h.355v-2.075zm1.184 0h-.355v2.075h.355v-2.075zm1.188 0h-.355v2.075h.355v-2.075zm1.182 0h-.355v2.075h.355v-2.075zm1.187 0h-.355v2.075h.355v-2.075zm2.371 0h-.355v2.075h.355v-2.075zm1.183 0h-.355v2.075h.355v-2.075zm1.187 0h-.355v2.075h.355v-2.075zm1.182 0h-.355v2.075h.355v-2.075zm1.189 0h-.355v2.075h.355v-2.075zm2.37 0h-.355v2.075h.355v-2.075zm1.182 0h-.355v2.075h.355v-2.075zm1.188 0h-.355v2.075h.355v-2.075zm1.183 0h-.355v2.075h.355v-2.075zm1.187 0h-.355v2.075h.355v-2.075zm2.371 0h-.355v2.075h.355v-2.075zm1.182 0h-.354v2.075h.354v-2.075zm1.184 0h-.355v2.075h.355v-2.075zm1.187 0h-.355v2.075h.355v-2.075zm1.183 0h-.355v2.075h.355v-2.075zm2.37 0h-.355v2.075h.355v-2.075zm1.187 0h-.355v2.075h.355v-2.075zm1.184 0h-.355v2.075h.355v-2.075zm1.187 0h-.355v2.075h.355v-2.075zm1.182 0h-.354v2.075h.354v-2.075zm2.372 0h-.355v2.075h.355v-2.075zm1.187 0h-.355v2.075h.355v-2.075zm1.182 0h-.355v2.075h.355v-2.075zm1.187 0h-.355v2.075h.355v-2.075zm1.183 0h-.355v2.075h.355v-2.075zm2.371 0h-.355v2.075h.355v-2.075zm1.187 0h-.355v2.075h.355v-2.075zm1.183 0h-.355v2.075h.355v-2.075zm1.188 0h-.355v2.075h.355v-2.075zm1.183 0h-.355v2.075h.355v-2.075zm2.37 0h-.355v2.075h.355v-2.075zm1.187 0h-.355v2.075h.355v-2.075zm1.184 0h-.355v2.075h.355v-2.075zm1.187 0h-.355v2.075h.355v-2.075zm1.183 0h-.355v2.075h.355v-2.075zm2.37 0h-.355v2.075h.355v-2.075zm1.187 0h-.355v2.075h.355v-2.075zm1.182 0h-.355v2.075h.355v-2.075zm1.188 0h-.355v2.075h.355v-2.075zm1.183 0h-.355v2.075h.355v-2.075zm2.371 0h-.354v2.075h.354v-2.075zm1.188 0h-.355v2.075h.355v-2.075zm1.182 0h-.355v2.075h.355v-2.075zm-80.586-1.419h-.355v3.498h.355v-3.498zm5.923 0h-.355v3.498h.355v-3.498zm7.111 0h-.355v3.498h.355v-3.498zm7.111 0h-.355v3.498h.355v-3.498zm7.112 0h-.355v3.498h.355v-3.498zm7.11 0h-.355v3.498h.355v-3.498zm7.111 0h-.355v3.498h.355v-3.498zm7.11 0h-.354v3.498h.354v-3.498zm7.112 0h-.355v3.498h.355v-3.498zm7.111 0h-.355v3.498h.355v-3.498zm7.111 0h-.355v3.498h.355v-3.498zm7.11 0h-.355v3.498h.355v-3.498z" fill="#263238"/><path d="M99.244 166.01c.921.307 27.208.228 28.21-.408.375-.235.592-4.067.715-8.703.03-.999.049-2.028.067-3.084.019-1.242.034-2.503.042-3.723.033-5.493-.042-10.328-.042-10.328h-17.115v14.051l.09 3.084s-10.036 4.535-11.061 5.351c-1.026.815-1.823 3.457-.906 3.76z" fill="#FFBE9D"/><path d="M99.244 166.01c.921.307 27.208.228 28.21-.408.375-.235.592-4.067.715-8.703.03-1 .049-2.029.067-3.084.019-1.242.034-2.503.042-3.723h-17.15v3.723l.09 3.084s-10.043 4.535-11.068 5.351c-1.026.815-1.823 3.457-.906 3.76z" fill="#fff"/><path d="M99.165 166.048c.599.198 11.795.239 19.948.071 1.871-.041 3.611-.094 5.003-.154 1.92-.089 3.207-.194 3.417-.325.46-.3.681-5.92.785-11.855h-17.212l.089 3.102s-10.103 4.558-11.136 5.378c-1.032.819-1.814 3.472-.894 3.783z" fill="#76B7ED"/><path d="M99.54 164.988c4.43-.123 22.316-.194 26.705.023.034 0 .034.026 0 .026-4.389.217-22.271.146-26.706.023-.093 0-.093-.072 0-.072zm11.042-9.085c1.744-.329 3.877-.067 5.213 1.171.052.049 0 .12-.075.105a24.48 24.48 0 00-5.13-1.055.12.12 0 01-.068-.036.117.117 0 01-.028-.071.112.112 0 01.088-.114zm-1.257.764c1.744-.33 3.876-.068 5.212 1.171.053.048-.018.12-.075.101a24.653 24.653 0 00-5.13-1.052.104.104 0 01-.067-.036.112.112 0 01-.029-.071.111.111 0 01.089-.113zm-1.258.763c1.744-.329 3.877-.071 5.213 1.167.052.049 0 .124-.071.105a24.445 24.445 0 00-5.134-1.051.11.11 0 01-.067-.037.11.11 0 01-.005-.143.108.108 0 01.064-.041zm-1.253.763c1.74-.333 3.873-.071 5.213 1.168.048.048-.019.119-.075.104a24.493 24.493 0 00-5.13-1.055.098.098 0 01-.042-.007.095.095 0 01-.036-.022.103.103 0 01-.025-.034.118.118 0 01-.01-.042.114.114 0 01.029-.077.107.107 0 01.035-.025.117.117 0 01.041-.01z" fill="#263238"/><path d="M108.138 154.362c1.235.957 2.844 1.343 4.285 1.87a.203.203 0 00.101.001.215.215 0 00.152-.123.22.22 0 00.02-.098.048.048 0 00.02-.007.046.046 0 00.016-.015.048.048 0 00.007-.02.04.04 0 00-.002-.022 9.296 9.296 0 00-2.698-3.985c-.729-.61-2.009-1.029-2.69-.086s.067 1.927.789 2.485zm-.449-1.4c-.31-1.912 1.744-.913 2.264-.445.332.31.642.643.928.995.606.726 1.097 1.519 1.628 2.294-.692-.303-1.407-.543-2.107-.82-.838-.333-2.54-.969-2.713-2.024z" fill="#263238"/><path d="M118.548 153.28c-.423-1.089-1.766-.999-2.619-.591a9.301 9.301 0 00-3.608 3.188.072.072 0 00-.009.02.042.042 0 00.002.022.042.042 0 00.011.018.045.045 0 00.019.011c-.026.131.052.296.209.281 1.527-.154 3.181-.127 4.618-.749.842-.355 1.781-1.175 1.377-2.2zm-3.742 2.245c-.748.094-1.497.15-2.245.273a27.52 27.52 0 012.144-1.818c.367-.268.75-.512 1.149-.73.621-.325 2.862-.782 2.08.992-.415.976-2.222 1.171-3.113 1.28l-.015.003zm19.137-88.69s-4.625 45.767-4.733 46.324c0 .079-.049.958-.094 2.395-.247 7.877-.864 32.431-.864 32.431h-18.871s1.231-29.085 1.939-35.87c.901-8.655 6.578-45.277 6.578-45.277l16.045-.003z" fill="#263238"/><path d="M126.96 114.772a501.05 501.05 0 012.62-29.666c.662-5.556 1.459-11.095 2.245-16.636 0-.049.082-.045.075 0-1.46 9.86-2.496 19.798-3.387 29.725-.89 9.928-1.496 19.851-1.916 29.797-.232 5.639-.404 11.275-.587 16.914a.107.107 0 01-.036.061.11.11 0 01-.067.024.11.11 0 01-.067-.024.112.112 0 01-.036-.061c.277-10.047.565-20.098 1.156-30.134z" fill="#37474F"/><path d="M110.571 144.943c.494-.063 1.032-.045 1.534-.063.565-.019 1.122-.023 1.699-.045a149.02 149.02 0 013.281-.086 138.87 138.87 0 016.612.044l1.819.064c.643.026 1.291.086 1.938.082.049 0 .045.057 0 .057-1.122 0-2.245.097-3.341.138-1.097.041-2.186.056-3.278.071-2.2.034-4.412 0-6.612-.067-.606-.023-1.213-.03-1.819-.049l-.969-.041c-.288 0-.576 0-.864-.03-.041-.008-.041-.067 0-.075zm23.372-78.108s-4.625 45.767-4.734 46.324c0 .079-.048.958-.093 2.395l-8.895-48.72h13.722z" fill="#37474F"/><path d="M148.226 165.195c.965-.101 24.876-11.017 25.527-12.012.247-.374-1.123-3.951-2.937-8.232-.375-.924-.749-1.897-1.213-2.837a180.426 180.426 0 00-1.755-3.495c-2.526-4.913-4.842-8.943-4.842-8.943l-15.151 6.874 4.375 8.955 1.796 3.674 1.35 2.773s-7.285 8.277-7.88 9.441c-.595 1.163-.232 3.903.73 3.802z" fill="#FFBE9D"/><path d="M148.226 165.194c.965-.101 24.876-11.016 25.527-12.011.247-.374-1.123-3.952-2.937-8.232-.375-.925-.749-1.897-1.213-2.837a177.605 177.605 0 00-1.755-3.495 2070.938 2070.938 0 01-15.618 6.874l1.796 3.675 1.35 2.773s-7.285 8.277-7.88 9.44c-.595 1.164-.232 3.915.73 3.813z" fill="#fff"/><path d="M148.169 165.262c.966-.101 25.015-11.08 25.67-12.076.299-.464-1.823-5.676-4.176-11.124l-15.664 7.109 1.358 2.792s-7.326 8.318-7.925 9.489c-.599 1.172-.232 3.911.737 3.81z" fill="#76B7ED"/><path d="M148.072 164.143c3.989-1.938 20.247-9.385 24.322-10.997.034 0 .045 0 0 .026-3.906 2.005-20.229 9.321-24.322 11.035-.056.033-.083-.023 0-.064zm6.309-12.831c1.452-1.022 3.503-1.665 5.239-1.085.067.022.033.116-.023.123a24.748 24.748 0 00-5.119 1.168.104.104 0 01-.043.01.11.11 0 01-.108-.065.114.114 0 01.054-.151zm-.82 1.212c1.452-1.021 3.503-1.661 5.239-1.085.067.023.034.116-.023.124-1.738.203-3.451.59-5.107 1.156a.116.116 0 01-.08.002.116.116 0 01-.06-.051.109.109 0 01-.012-.079.116.116 0 01.043-.067zm-.837 1.213c1.448-1.022 3.502-1.662 5.239-1.085.067.022.037.116-.023.123a24.368 24.368 0 00-5.107 1.16.114.114 0 01-.154-.045.112.112 0 01-.009-.086.11.11 0 01.054-.067zm-.832 1.212c1.452-1.022 3.503-1.662 5.239-1.085.067.022.034.116-.026.123a24.503 24.503 0 00-5.108 1.16.109.109 0 01-.083.005.107.107 0 01-.064-.054.112.112 0 01.042-.149z" fill="#263238"/><path d="M151.519 150.915c1.523.374 3.143.049 4.677-.063a.223.223 0 00.157-.116.22.22 0 000-.195c.023-.019.038-.049 0-.075a9.288 9.288 0 00-4.116-2.518c-.917-.255-2.245-.112-2.484 1.033-.195 1.081.879 1.721 1.766 1.934zm-.984-1.093c-1.074-1.612 1.212-1.552 1.871-1.339.431.146.851.322 1.257.527.832.432 1.641.905 2.425 1.419-.749 0-1.497.082-2.246.119-.901.045-2.716.161-3.307-.726z" fill="#263238"/><path d="M160.555 145.632c-.835-.816-2.021-.18-2.619.546a9.31 9.31 0 00-1.969 4.389.041.041 0 000 .022.044.044 0 00.01.019c.005.006.011.01.017.013a.055.055 0 00.022.002.216.216 0 00.307.169c1.328-.771 2.847-1.426 3.899-2.582.599-.674 1.126-1.807.333-2.578zm-2.47 3.581c-.643.396-1.306.748-1.934 1.175.359-.867.763-1.715 1.208-2.541.223-.397.473-.779.749-1.141.43-.554 2.286-1.89 2.305.048.007 1.067-1.561 1.991-2.328 2.459zm-40.187-82.378s1.246 6.608 5.856 9.968c0 0 10.163 34.018 11.484 37.921 2.279 6.735 14.511 29.49 14.511 29.49l18.885-8.105s-14.402-25.367-15.959-27.316c-1.033-1.295-8.79-28.873-8.692-29.584 1.122-8.453-2.878-12.408-2.878-12.408l-23.207.034z" fill="#263238"/><path d="M133.176 69.23a6.3 6.3 0 002.312 3.333A7.768 7.768 0 00139.679 74c.255.022.277.404 0 .408-3.075 0-6.185-1.95-6.634-5.141-.004-.072.112-.105.131-.038zm-12.375 5.481a17.056 17.056 0 013.177 1.688c1.058.65 2.031 1.418 3.053 2.125.037.026 0 .09-.038.064-1.07-.614-2.181-1.149-3.24-1.785a20.044 20.044 0 01-2.994-2.01c-.041-.03-.007-.1.042-.082z" fill="#37474F"/><path d="M120.367 68.297c.164.704.374 1.4.554 2.1.179.7.31 1.328.516 1.975A3.405 3.405 0 00122.443 74c.27.232.569.43.854.64.157.112.321.22.482.333l-.067-.284c-.056-.266-.116-.535-.172-.801a247.28 247.28 0 01-.374-1.785c-.236-1.171-.457-2.357-.749-3.514a.05.05 0 01.009-.024.038.038 0 01.021-.014.04.04 0 01.045.016c.344 1.145.722 2.275 1.033 3.431.15.565.726 3.368.748 3.57.023.202.056.412.075.621.036.209.046.421.03.633 0 .052-.075.044-.097 0a2.549 2.549 0 01-.206-.607 6.467 6.467 0 01-.161-.606 2.074 2.074 0 01-.045-.22c-.288-.158-.557-.375-.827-.547a11.374 11.374 0 01-.857-.587 3.179 3.179 0 01-1.089-1.538c-.2-.659-.343-1.334-.426-2.017-.124-.797-.228-1.602-.374-2.399-.012-.03.06-.052.071-.004zm29.329 72.104c.427-.259 4.894-2.339 5.886-2.792 2.006-.92 8.924-3.742 9.576-3.993.213-.078.228.042.063.12-1.025.498-5.025 2.335-6.021 2.788-2.005.913-9.197 3.865-9.474 3.948a.039.039 0 01-.051-.021.037.037 0 010-.029.04.04 0 01.021-.021zm-9.814-72.788a15.087 15.087 0 011.908 4.007c.449 1.426.686 2.91.703 4.405.009.751-.045 1.502-.16 2.245-.034.183-.057.374-.098.554l-.056.273a.725.725 0 00-.034.236c.045.34.135.71.217 1.07.341 1.437.719 2.87 1.101 4.303 1.538 5.729 3.094 11.45 4.733 17.149l1.25 4.262c.213.707.427 1.418.651 2.122.112.348.225.707.374 1.029.15.322.311.651.49.976 1.4 2.62 2.908 5.164 4.367 7.742 0 0 7.443 12.502 8.981 15.384.071.134.034.22-.105.041-1.328-1.733-6.178-10.13-9.198-15.234a287.174 287.174 0 01-4.434-7.723c-.179-.322-.344-.67-.512-1.007-.169-.336-.262-.714-.375-1.07-.228-.707-.445-1.418-.662-2.129a350.901 350.901 0 01-1.25-4.269c-1.598-5.718-3.173-11.436-4.617-17.213a122.206 122.206 0 01-1.037-4.33 11.22 11.22 0 01-.202-1.122.905.905 0 01.041-.315l.06-.265c.041-.18.068-.374.101-.543.122-.725.189-1.458.199-2.193a15.727 15.727 0 00-2.436-8.385z" fill="#37474F"/><path d="M121.497 44.709c1.415 4.722-1.837 21.587-4.823 25.025-4.442 5.108-11.581 8.094-14.803 9.46-1.403.599-6.934-9.276-5.445-9.939 3.263-1.451 10.852-5.036 11.694-5.93.842-.895 5.482-9.673 7.42-14.643 2.604-6.672 5.246-6.36 5.957-3.974z" fill="#FFBE9D"/><path d="M101.362 78.924c-.98.622-5.729 3.065-7.203 3.45-1.474.386-5.789 1.183-6.2.083-.412-1.1.838-1.433.838-1.433s-1.871.048-2.19-1.093c-.317-1.141 1.647-1.602 1.647-1.602s-1.934-.09-2.163-1.253c-.228-1.164 1.815-1.291 1.815-1.291s-1.77 0-1.553-1.036c.259-1.25 3.518-.88 5.116-1.426.374-.124 7.158-3.039 7.158-3.039l2.735 8.64z" fill="#FFBE9D"/><path d="M87.73 75.811c2.402.266 3.499-.033 5.635-1.074.041-.018.083.038.041.064-2.002 1.209-3.322 1.781-5.695 1.123-.116-.03-.093-.128.019-.113zm.348 2.507c2.515.056 3.708-.254 6.028-1.178.03 0 .056.04.026.056-2.2 1.096-3.532 1.639-6.039 1.25-.127-.02-.146-.131-.015-.128zm.835 2.668c2.44-.12 3.76-.408 5.897-1.594.052-.026.097.045.049.075-2.058 1.422-3.705 1.792-5.935 1.59-.15-.01-.165-.063-.011-.07z" fill="#263238"/><path d="M99.11 68.02s-3.028.023-4.352.326c-1.325.303-5.86 3.252-5.276 4.266.748 1.313 3.7.123 5.07-.647 0 0 1.732 3.03 4.034 2.619 2.301-.412.523-6.564.523-6.564z" fill="#FFBE9D"/><path d="M89.803 72.907c1.549.7 3.278-.426 4.662-1.077a.143.143 0 01.182.045c.013.02.021.04.024.063.812 1.22 2.313 2.71 3.858 2.743a.037.037 0 01.026.036.037.037 0 01-.026.035c-1.665.187-3.26-1.152-4.064-2.548-1.407.685-3.195 1.74-4.677.719 0-.008.007-.023.015-.016z" fill="#263238"/><path d="M122.986 45.247c.532 4.382-1.755 14.283-1.755 14.283l-2.514-1.164-8.322-3.831s4.135-6.736 7.188-10.8c.355-.481.748-.934 1.175-1.354 2.283-2.212 3.776-.91 4.228 2.866z" fill="#76B7ED"/><path d="M116.771 50.737s.704.482.374.868c-.329.385-.748-.326-.748-.621 0 0-.397.606-.662.318-.266-.288.22-.577.426-.633 0 0-.572-.438-.228-.722s.599.172.591.468a.973.973 0 01.236-.28c.176-.136.423-.207.58 0 .228.321-.273.643-.569.602zm5.751.565a.23.23 0 00.184.078c.026-.217.056-.43.082-.643-.221.123-.475.336-.266.565zm.199-1.355c-.225.187-.053.442.089.591.027-.224.049-.449.075-.67a.346.346 0 00-.164.08zm-3.742-4.011c-.045.262.179.374.4.415a.933.933 0 00.374-.03c-.209.202-.321.715.09.748.412.034.348-.673.348-.673.183.108.749.254.749-.146s-.682-.254-.682-.254c.206-.21.427-.996-.078-.958-.505.037-.352.879-.352.879-.194-.228-.774-.355-.838.019h-.011zm-5.55 9.59c.206-.21.431-.995-.078-.958-.509.038-.352.88-.352.88-.164-.217-.666-.345-.797-.079l1.366.629c.232.063.535.067.546-.228.038-.39-.673-.244-.673-.244h-.012zm5.55-.07c-.045.261.179.373.4.414a.934.934 0 00.374-.03c-.209.203-.321.715.09.749.412.034.348-.674.348-.674.183.109.749.255.749-.145s-.696-.248-.696-.248c.205-.209.426-.995-.079-.957-.505.037-.352.879-.352.879-.179-.236-.759-.363-.823.011h-.011z" fill="#fff"/><path d="M121.246 57.278c-1.496-.749-7.644-3.596-9.021-4.117-.094-.033-.143 0-.045.068 4.374 2.346 7.543 3.45 9.033 4.116.037.007.071-.049.033-.067z" fill="#263238"/><path opacity=".1" d="M121.231 59.523l-2.514-1.16-6.788-3.125 7.772-13.602c1.747-1.032 2.892.375 3.282 3.611.535 4.378-1.752 14.276-1.752 14.276z" fill="#000"/><path d="M117.179 59.646l.718 7.189 23.2-.042s-8.232-21.677-14.949-25.703c-3.367-2.013-6.286-.928-7.622 1.568-.34.629-4.696 9.06-4.445 12.142.232 2.717 3.098 4.846 3.098 4.846z" fill="#76B7ED"/><path d="M123.548 41.217s.707.483.374.868c-.333.386-.748-.325-.748-.62 0 0-.397.605-.666.317-.27-.288.22-.58.43-.632 0 0-.573-.438-.232-.722.34-.285.599.172.595.464a.997.997 0 01.236-.277c.175-.135.422-.206.576 0 .236.322-.266.643-.565.602zm-6.197 8.932c-.157-.22-.404-.15-.58 0a1.005 1.005 0 00-.236.28c0-.295-.276-.748-.591-.467-.314.28.228.722.228.722-.205.056-.699.34-.426.633.273.291.662-.318.662-.318 0 .295.404 1.006.749.62.344-.385-.375-.867-.375-.867.285.026.786-.296.569-.603zm6.777 0c-.154-.22-.401-.15-.576 0a.973.973 0 00-.236.28c0-.295-.277-.748-.595-.467-.318.28.232.722.232.722-.21.056-.7.34-.43.633.269.291.666-.318.666-.318 0 .295.4 1.006.748.62.348-.385-.374-.867-.374-.867.284.026.786-.296.565-.603zm6.78 0c-.153-.22-.4-.15-.576 0a.916.916 0 00-.236.28c0-.295-.28-.748-.595-.467-.314.28.232.722.232.722-.209.056-.703.34-.43.633.273.291.666-.318.666-.318 0 .295.4 1.006.748.62.348-.385-.374-.867-.374-.867.285.026.767-.296.565-.603zm-11.918-4.213c-.045.262.18.374.401.415a.937.937 0 00.374-.03c-.21.202-.322.715.09.749.411.033.348-.674.348-.674.183.108.748.255.748-.146 0-.4-.692-.254-.692-.254.205-.21.426-.996-.079-.958-.505.037-.352.879-.352.879-.194-.228-.774-.355-.838.019zm6.807 0c-.045.262.179.374.4.415a.934.934 0 00.374-.03c-.213.202-.322.715.09.749.412.033.348-.674.348-.674.183.108.748.255.748-.146 0-.4-.692-.247-.692-.247.206-.21.427-.995-.082-.958-.509.038-.352.88-.352.88-.191-.236-.759-.363-.834.01zm-8.446 13.733a.305.305 0 00-.314-.135c.09.075.142.112.142.112l.045.468c.153-.112.243-.273.127-.445zm6.777 0c-.154-.221-.401-.15-.576 0a.973.973 0 00-.236.28c0-.292-.277-.748-.595-.468-.318.281.232.723.232.723-.21.056-.7.34-.43.632.269.292.666-.314.666-.314 0 .292.4 1.003.748.617.348-.385-.374-.868-.374-.868.284.026.786-.296.565-.602zm6.78 0c-.153-.221-.4-.15-.576 0a.916.916 0 00-.236.28c0-.292-.28-.748-.595-.468-.314.281.232.723.232.723-.209.056-.703.34-.43.632.273.292.666-.314.666-.314 0 .292.4 1.003.748.617.348-.385-.374-.868-.374-.868.285.026.767-.296.565-.602zm6.781 0c-.154-.221-.405-.15-.58 0a.973.973 0 00-.236.28c0-.292-.277-.748-.591-.468-.315.281.228.723.228.723-.206.056-.7.34-.427.632.273.292.663-.314.663-.314 0 .292.404 1.003.748.617.344-.385-.374-.868-.374-.868.284.026.786-.296.569-.602zm-18.71-4.214c-.045.262.18.374.4.416a.939.939 0 00.375-.03c-.21.202-.322.714.089.748.412.034.348-.673.348-.673.184.108.749.254.749-.146s-.696-.247-.696-.247c.205-.21.426-.996-.079-.958-.505.037-.352.879-.352.879-.179-.236-.759-.363-.823.011h-.011zm6.806 0c-.044.262.18.374.401.416a.934.934 0 00.374-.03c-.213.202-.322.714.09.748.411.034.348-.673.348-.673.183.108.748.254.748-.146s-.692-.247-.692-.247c.206-.21.427-.996-.082-.958-.509.037-.352.879-.352.879-.18-.236-.748-.363-.823.011h-.012zm6.807 0c-.045.262.18.374.397.416a.963.963 0 00.374-.03c-.213.202-.322.714.086.748.408.034.348-.673.348-.673.187.108.748.254.748-.146s-.692-.247-.692-.247c.202-.21.427-.996-.082-.958-.509.037-.352.879-.352.879-.172-.236-.752-.363-.812.011h-.015zm-13.613 9.52c-.045.262.18.374.4.415a.94.94 0 00.375-.03c-.21.206-.322.715.089.748.412.034.348-.673.348-.673.184.108.749.254.749-.146s-.696-.247-.696-.247c.205-.21.426-.995-.079-.958-.505.037-.352.88-.352.88-.179-.236-.759-.364-.823.01h-.011zm6.806 0c-.044.262.18.374.401.415a.936.936 0 00.374-.03c-.213.206-.322.715.09.748.411.034.348-.673.348-.673.183.108.748.254.748-.146s-.692-.247-.692-.247c.206-.21.427-.995-.082-.958-.509.037-.352.88-.352.88-.18-.236-.748-.364-.823.01h-.012zm6.807 0c-.045.262.18.374.397.415a.963.963 0 00.374-.03c-.213.206-.322.715.086.748.408.034.348-.673.348-.673.187.108.748.254.748-.146s-.692-.247-.692-.247c.202-.21.427-.995-.082-.958-.509.037-.352.88-.352.88-.172-.236-.752-.364-.812.01h-.015zm8.011.568l-.396-.976c-.018.134-.018.27 0 .404-.18-.24-.749-.374-.827 0-.045.262.183.374.4.415.126.014.252.006.374-.026-.205.206-.31.711.094.748.344.034.374-.366.367-.565h-.012z" fill="#fff"/><path d="M123.375 58.243a19.08 19.08 0 00-2.712.486c-.442.12-.872.262-1.306.412a13.53 13.53 0 01-.648.206 2.977 2.977 0 01-.699.142c-.023 0-.023.034 0 .034.224.007.449 0 .673-.023a4.74 4.74 0 00.644-.13c.449-.117.89-.255 1.339-.375.902-.247 1.804-.494 2.724-.673.042-.012.03-.087-.015-.079zm2.279.774a20.995 20.995 0 00-2.275-.075c-.374 0-.749.045-1.123.087-.179 0-.374.044-.539.07-.164.027-.393.083-.591.11-.019 0-.019.033 0 .03h.565l.565-.023c.374 0 .749-.026 1.123-.045a63.57 63.57 0 012.267-.079c.049 0 .045-.07.008-.075zM108.625 35.17a1.174 1.174 0 00-.464 1.228 1.185 1.185 0 001.332.901 1.227 1.227 0 000 .498 1.304 1.304 0 001.444 1 1.19 1.19 0 00.913 1.312 1.185 1.185 0 001.19-.426 1.178 1.178 0 001.845.576.914.914 0 000 .105 1.19 1.19 0 002.245.187 1.19 1.19 0 001.162.674 1.182 1.182 0 001.042-.846c.269.125.572.158.861.093a1.277 1.277 0 00.816-.594 1.3 1.3 0 001.785-.4 1.29 1.29 0 00.205-.637c.153.032.311.032.464 0a1.18 1.18 0 00.913-1.265 1.286 1.286 0 001.038-.208 1.301 1.301 0 00.515-1.356 1.28 1.28 0 00-.164-.374 1.176 1.176 0 00.943-.552 1.176 1.176 0 00.149-.892 1.125 1.125 0 00-.31-.565 1.297 1.297 0 00.86-1.527 1.258 1.258 0 00-.348-.625 1.31 1.31 0 00.554-1.388 1.295 1.295 0 00-.685-.932 1.172 1.172 0 00.179-.943 1.183 1.183 0 00-.583-.763 1.28 1.28 0 00.27-1.123 1.302 1.302 0 00-1.168-1.006c.043-.186.043-.38 0-.566a1.186 1.186 0 00-1.253-.905 1.237 1.237 0 000-.561 1.31 1.31 0 00-1.056-.99 1.3 1.3 0 00-.793.122 1.305 1.305 0 00-1.594-1.186 1.18 1.18 0 00-.303.115 1.122 1.122 0 00-.03-.374 1.29 1.29 0 00-.581-.814 1.299 1.299 0 00-.987-.163 1.284 1.284 0 00-.827.61 1.293 1.293 0 00-1.059-.397 1.303 1.303 0 00-.969.584 1.18 1.18 0 00-1.836-.316 1.196 1.196 0 00-.33.5 1.187 1.187 0 00-1.649.255 1.185 1.185 0 00-.222.568 1.29 1.29 0 00-1.037-.198 1.31 1.31 0 00-1.014 1.302 1.12 1.12 0 00-.434 0 1.185 1.185 0 00-.883 1.422c.032.134.09.26.168.374h-.075a1.312 1.312 0 00-.98 1.568c.028.123.075.242.138.352a1.183 1.183 0 00-.666 2.189 1.177 1.177 0 00-.222 1.485c.094.156.223.288.376.386a1.297 1.297 0 00.501 2.42 1.167 1.167 0 00-.322 1.123 1.185 1.185 0 00.936.943z" fill="#263238"/><path d="M122.672 41.397c.038.426-.999 3.637-2.844 4.157-.598.168-1.665-3.068-1.665-3.068l-.131-.225-1.871-3.095 3.091-3.831.457-.52s.452.879 1.006 1.983c.028.047.054.1.079.157l.093.176c.086.165.173.333.255.501l.183.375a23.803 23.803 0 011.347 3.39z" fill="#FFBE9D"/><path d="M120.723 36.798a7.238 7.238 0 01-2.691 5.463l-1.871-3.095 3.091-3.831.457-.52s.46.879 1.014 1.983z" fill="#263238"/><path d="M109.834 35.339c1.448 6.17 5.31 5.987 6.642 5.687 1.209-.288 5.283-1.41 4.49-7.7-.793-6.29-4.116-7.567-6.93-7.061-2.814.505-5.65 2.892-4.202 9.074z" fill="#FFBE9D"/><path d="M110.463 33.995c.128-.064.253-.136.374-.213a.706.706 0 00.348-.292.232.232 0 00.004-.145.23.23 0 00-.086-.117.56.56 0 00-.573.045.833.833 0 00-.374.423.237.237 0 00-.001.13.242.242 0 00.308.17zm4.078-1.096c-.149.026-.288.026-.438.041a.72.72 0 01-.452-.045.218.218 0 01-.085-.117.224.224 0 01.006-.145.554.554 0 01.487-.288.836.836 0 01.58.123.242.242 0 01.022.365.241.241 0 01-.12.066zm-.471 1.621s.041 0 .044.03c.105.415.296.879.711.909v.026c-.475.063-.722-.55-.755-.966z" fill="#263238"/><path d="M114.317 33.98c.655-.24 1.089 1.085.482 1.306-.606.221-1.029-1.104-.482-1.306z" fill="#263238"/><path d="M114.601 33.965c.138.066.289.1.442.101.164-.037.243-.217.303-.374h.03a.511.511 0 01-.187.674c-.236.116-.487-.053-.637-.285-.026-.06-.007-.13.049-.116zm-2.863 1.149s-.026.03 0 .045c.15.408.254.895-.071 1.156v.023c.423-.217.277-.864.071-1.224z" fill="#263238"/><path d="M111.229 34.807c-.673.172-.284 1.497.341 1.351.625-.146.224-1.493-.341-1.35z" fill="#263238"/><path d="M110.975 34.98c-.083.1-.15.261-.273.306-.124.045-.296-.06-.431-.172 0 0-.018 0 0 0 .068.258.229.502.49.48.262-.023.337-.289.322-.562-.015-.034-.075-.094-.108-.052zm2.032 1.747s.108.64.202.932c0 .026.082 0 .183 0a1.444 1.444 0 001.175-.936.028.028 0 00-.002-.02.024.024 0 00-.014-.014.028.028 0 00-.019-.003.028.028 0 00-.017.011 2.188 2.188 0 01-1.149.748c-.045-.075-.15-1.122-.195-1.096-.22.096-.427.222-.613.374-.262-1.332-.311-2.694-.595-4.015 0-.045-.083-.041-.083 0a21.87 21.87 0 00.461 4.352c.037.157.565-.247.666-.333z" fill="#263238"/><path d="M113.344 37.42c.228.201.503.342.801.407a.794.794 0 00.478-.064c.326-.157.277-.471.161-.748a1.845 1.845 0 00-.235-.374 2.246 2.246 0 01-1.205.778z" fill="#263238"/><path d="M114.144 37.827a.798.798 0 00.479-.064c.325-.157.277-.471.161-.748a.822.822 0 00-.64.812z" fill="#FF9ABB"/><path d="M110.208 27.705s3.783-4.16 7.63-2.563c3.846 1.598 2.993 6.806 2.993 6.806s-1.085-5.612-4.224-5.964c-3.14-.352-6.399 1.721-6.399 1.721z" fill="#76B7ED"/><path d="M120.924 33.397a2.582 2.582 0 01-2.121-1.422 6.776 6.776 0 01-3.368-1.04c.09.104.715.856 1.048 1.234-3.974.779-6.242-1.597-6.242-1.597a6.806 6.806 0 00-.681 2.993s-.928-2.245-.374-4.24c.688-2.428 5.31-4.864 8.505-3.307 3.443 1.642 3.233 7.379 3.233 7.379z" fill="#263238"/><path d="M113.419 32.674a7.294 7.294 0 002.174-.06 6.254 6.254 0 01-3.368-.56 6.109 6.109 0 01-1.242-.802 4.039 4.039 0 01-1.052-1.212c0-.037-.071 0-.052.026.212.492.507.944.872 1.336.376.377.819.681 1.306.898.434.188.893.314 1.362.374z" fill="#263238"/><path d="M119.885 33.531s.696-2.312 1.702-2.125c1.007.187.913 3.24.034 3.944a1.073 1.073 0 01-1.545-.101l-.191-1.718z" fill="#FFBE9D"/><path d="M121.523 32.282s.027 0 0 .026c-.609.512-.748 1.287-.8 2.047a.583.583 0 01.295-.398.59.59 0 01.494-.033c.023 0 0 .041 0 .045a.656.656 0 00-.617.445c-.072.217-.121.44-.146.666 0 .072-.139.075-.139 0-.303-.913-.018-2.394.913-2.798z" fill="#263238"/><path d="M74.701 114.963h31.455v-1.65H74.701v1.65z" fill="#37474F"/><path d="M78.487 115.348h1.115v-2.421h-1.115v2.421zm-3.783.943a2.155 2.155 0 100-4.31 2.155 2.155 0 000 4.31z" fill="#263238"/><path d="M120.992 168.072l-24.11-62.052V89.533l22.415 57.472 2.694 20.712-.999.355z" fill="#455A64"/><path d="M121.991 167.716l-.999.356 1.848 5.456-.849-5.812z" fill="#A6A6A6"/><path d="M102.369 114.993a1.215 1.215 0 01.183-1.866 1.214 1.214 0 011.863 1.245 1.216 1.216 0 01-1.189.976c-.322 0-.63-.128-.857-.355z" fill="#DBDBDB"/><path d="M103.918 115.127l-1.684-1.683c.041-.058.087-.112.138-.161a.938.938 0 01.161-.135l1.684 1.684c-.04.058-.085.112-.135.161a.782.782 0 01-.164.134z" fill="#C7C7C7"/><path d="M75.775 144.352l17.048-38.332V89.533l-22.706 52.372 5.657 2.447z" fill="#455A64"/><path d="M52.418 167.885l4.912 1.885 14.239-37.092-4.912-1.886-14.239 37.093z" fill="#76B7ED"/><path d="M66.658 130.789l4.912 1.886 1.21-3.151-4.912-1.886-1.21 3.151z" fill="#FF97B8"/><path d="M65.865 131.614l5.737 2.202.437-1.139-5.736-2.202-.438 1.139zm-.483 1.259l5.737 2.202.437-1.139-5.736-2.202-.438 1.139z" fill="#37474F"/><path d="M52.433 167.885l.49 4.243.157 1.4 1.063-.928 3.206-2.826-.224-.905-.748.527-.221-.905-.749.528-.21-.902-.796.524-.213-.902-.771.524-.214-.902-.77.524z" fill="#EBEBEB"/><path d="M52.922 172.128l.158 1.4 1.062-.928-1.22-.472z" fill="#37474F"/><path opacity=".1" d="M68.722 136.606a510.005 510.005 0 00-2.156 5.426l-2.11 5.444-2.073 5.456-4.24 11.2-1.025 2.728 1.085-2.71 4.303-11.184 2.11-5.441 2.074-5.456a515.216 515.216 0 002.032-5.463zm-1.247-.599a394.507 394.507 0 00-2.152 5.426l-2.114 5.445-2.073 5.455-4.258 11.2-1.007 2.739 1.085-2.709 4.304-11.181 2.121-5.445 2.073-5.455a934.287 934.287 0 002.021-5.475zm-1.245-.58c-.75 1.804-1.442 3.615-2.152 5.426l-2.11 5.426-2.078 5.456-4.254 11.199-1.01 2.739 1.085-2.709 4.303-11.181 2.11-5.444 2.073-5.456c.681-1.822 1.37-3.644 2.032-5.456z" fill="#000"/><path d="M67.846 146.242l.65-1.662-1.623-.696-.67 1.68 1.643.678z" fill="#263238"/><path d="M66.84 146.795l1.35-3.446-6.073-2.6-1.38 3.48 6.102 2.566zm11.42-6.293l-7.002-2.957-5.579 14.227 6.893 2.736 5.688-14.006z" fill="#37474F"/><path d="M69.174 149.931a1.215 1.215 0 00.748 1.12 1.209 1.209 0 001.322-.263 1.208 1.208 0 00.263-1.321 1.213 1.213 0 00-2.333.464z" fill="#DBDBDB"/><path d="M70.173 148.737v2.384c.07.012.142.018.213.019.07-.001.14-.007.21-.019v-2.384a1.336 1.336 0 00-.423 0z" fill="#C7C7C7"/><path d="M85.639 115.348a1.212 1.212 0 100-2.424 1.212 1.212 0 000 2.424z" fill="#DBDBDB"/><path d="M84.946 115.127l1.684-1.683a1.07 1.07 0 00-.135-.161 1.037 1.037 0 00-.16-.135l-1.688 1.684a1.07 1.07 0 00.3.295z" fill="#C7C7C7"/><path d="M102.369 114.993a1.215 1.215 0 01.183-1.866 1.214 1.214 0 011.863 1.245 1.216 1.216 0 01-1.189.976c-.322 0-.63-.128-.857-.355z" fill="#DBDBDB"/><path d="M103.918 115.127l-1.684-1.683c.041-.058.087-.112.138-.161a.938.938 0 01.161-.135l1.684 1.684c-.04.058-.085.112-.135.161a.782.782 0 01-.164.134z" fill="#C7C7C7"/><path d="M93.44 72.728h2.822v-6.795h-2.821v6.795z" fill="#37474F"/><path d="M92.64 69.682h4.423V54.98H92.64v14.702z" fill="#455A64"/><path d="M92.639 69.23v.175l.082.079.086.086.109.112h.172l-.195-.198-.086-.086-.168-.169zm0-1.363v.172l.082.083.086.086.591.595.09.086.595.595.086.09.109.108h.172l-.195-.195-.086-.09-.595-.594-.086-.086-.595-.595-.254-.255zm0-1.362v.172l1.444 1.445.086.086.595.595.086.09.681.68.109.109h.176l-.198-.198-.087-.086-.595-.595-.086-.086-2.211-2.212zm0-1.365v.175l.082.079.086.086.591.598.09.086 1.276 1.276.086.087.595.594.767.768.595.595.087.086.112.112h.056v-.116l-.082-.082-.087-.087-.594-.595-.087-.086-.594-.594-.087-.087-.595-.595-.086-.086-.595-.595-.086-.086-.595-.595-.086-.09-.595-.594-.086-.087-.168-.168zm0-1.359v.172l.082.079.677.68.09.087.595.595.086.09.595.595.086.086.595.595.086.086.595.595.086.086.595.595.087.086.168.168v-.172l-1.444-1.444-.087-.087-1.276-1.276-.086-.09-.595-.594-.935-.932zm0-1.366v.176l2.125 2.122.086.09 1.276 1.275.086.086.85.85v-.176l-.082-.079-.087-.086-.594-.595-.087-.09-.594-.594-.087-.087-.595-.594-.086-.087-.595-.595-1.616-1.616zm0-1.362v.176l.082.078.086.087.591.595.09.086 1.276 1.275.086.087.595.594.086.09.595.592.086.086.595.595.087.086.168.168v-.172l-.082-.082-.087-.087-.594-.594-.768-.767-.595-.596-.086-.086-.595-.595-.086-.086-.595-.594-.086-.087-.595-.595-.086-.086-.168-.168zm0-1.363v.173l1.444 1.444.086.087.595.595.086.086.595.594.086.087.595.594.086.087.85.849v-.172l-1.444-1.445-.087-.086-1.276-1.276-.086-.086-1.53-1.53zm0-1.361v.172l.082.079.086.09 1.957 1.956.086.087 1.276 1.276.086.086.85.849v-.176l-.082-.078-.087-.087-.594-.594-.087-.087-.594-.595-.087-.086-.595-.595-.086-.086-.595-.595-.767-.77-.595-.595-.086-.087-.168-.164zm0-1.366v.176l.082.079.086.086.591.595.09.086.595.595.086.09.595.594.086.086.595.595.086.087.595.595.086.085.595.595.087.087.168.164v-.172l-1.53-1.53-.596-.592-.086-.09-.595-.594-.086-.086-.595-.595-.086-.086-.85-.85zm0-1.362v.172l1.444 1.445.086.086.595.595.681.68.086.09.595.595.086.086.85.85v-.176l-.85-.85-.594-.594-.087-.086-1.276-1.276-.086-.087-1.53-1.53zm.573-.617l.187.19.09.087 1.276 1.275.086.087 1.276 1.276.086.086.595.595.086.09.168.164v-.172l-.082-.082-.086-.086-.595-.595-.086-.087-.681-.68-.595-.596-.086-.086-.595-.595-.086-.086-.595-.594-.086-.087-.105-.104h-.172zm1.362 0l.277.276.595.596.086.086.595.594.086.087.595.595.086.086.169.168V57.3l-2.126-2.125-.086-.087-.1-.104h-.177zm1.362 0l1.126 1.126v-.176l-.168-.165-.596-.594-.085-.087-.102-.104h-.175z" fill="#37474F"/><path d="M96.614 69.682h.172l.108-.112.087-.086.082-.079v-.176l-.45.453zm-1.366 0h.175l1.64-1.643v-.172l-.169.169-.086.086-.595.595-.086.086-.595.595-.086.09-.198.194zm-1.363 0h.176l.195-.195.595-.594.086-.09.595-.595.086-.086.595-.595.086-.086.595-.595.086-.086.082-.083v-.172l-.168.169-.086.086-.595.594-.767.768-.595.595-.086.086-.88.879zm-1.246-.116v.116h.056l2.155-2.156.087-.086.594-.594.087-.087.594-.595.087-.086.594-.598.087-.086.082-.079v-.176l-.85.85-.086.09-.595.594-.767.767-.595.595-.086.087-1.444 1.444zm0-1.362v.172l.168-.168.086-.086.595-.595.086-.086.595-.595.086-.086.595-.595.087-.087.594-.594.767-.771.596-.591.085-.09.083-.079v-.172l-.168.165-.087.086-.595.595-.086.086-.595.595-.086.09-.595.595-.086.086-.595.595-.086.086-.595.594-.09.087-.59.595-.087.086-.082.082zm0-1.366v.176l.168-.168.086-.087.595-.595.767-.767.595-.595.087-.09.594-.59.087-.09.594-.595.087-.087.594-.595.087-.086.082-.078v-.176l-.168.168-.087.087-.595.594-.767.767-.595.595-1.362 1.363-.09.09-.59.594-.087.086-.082.079zm0-1.362v.172l.935-.935.595-.592.086-.09.595-.594.087-.087.594-.595.087-.086.594-.594.087-.087.594-.594.087-.087.082-.078v-.176l-.168.168-.087.086-.595.595-.086.087-.595.594-.767.767-.595.596-.086.085-.595.595-.09.087-.677.68-.082.083zm0-1.362v.172l.168-.165.086-.09.595-.594.086-.087.595-.595.086-.086.595-.594.087-.087.594-.594.087-.087.594-.595.087-.086.594-.595.087-.086.082-.082v-.172l-.168.165-.087.09-.595.594-.767.767-.595.595-.086.087-.595.594-.086.087-.595.594-.09.086-.59.596-.087.085-.082.083zm0-1.366v.176l.168-.169.086-.086.595-.594.767-.768.595-.595.087-.086.594-.595.087-.086.594-.595.087-.086.594-.595.169-.168v-.172l-1.617 1.616-.595.595-.086.086-.595.595-.086.086-.595.595-.09.087-.59.594-.087.087-.082.078zm0-1.362v.172l.254-.25.595-.596.086-.086.595-.594.086-.087.595-.595.087-.086 1.362-1.365.594-.595.087-.086.082-.079v-.176l-.168.169-.087.086-.595.595-.086.086-.595.595-.086.086-.595.595-.086.09-.595.59-.086.09-.595.595-.09.087-.59.594-.087.087-.082.078zm0-1.362v.176l.168-.169.086-.086.595-.595.086-.086.595-.595.086-.09.595-.594.087-.086.594-.595.087-.086.594-.595.087-.086.594-.595.087-.087.082-.082v-.172l-.168.169-.087.085-.595.596-.767.767-.595.594-.086.087-1.276 1.276-.09.09-.59.59-.087.09-.082.079zm0-1.362v.172l1.616-1.616.595-.595.087-.087.594-.594.087-.087.594-.594.277-.277h-.172l-.105.104-.086.087-.595.594-.086.087-.595.594-.086.086-.595.596-.086.086-.595.594-.09.087-.677.68-.082.083zm0-1.362v.172l.168-.168.086-.086.595-.595.086-.087.595-.594.086-.087.595-.594.087-.087.19-.19h-.176l-.1.104-.087.087-.595.594-.086.087-.595.594-.09.086-.59.596-.087.086-.082.082zm0-1.366v.176l.168-.168.086-.087.595-.594.273-.277h-.172l-.782.785-.086.087-.082.078z" fill="#37474F"/><path d="M85.623 81.095a9.227 9.227 0 119.228 9.224 9.239 9.239 0 01-9.228-9.224zm1.73 0a7.484 7.484 0 107.483-7.484 7.502 7.502 0 00-7.484 7.484z" fill="#263238"/><path d="M89.564 85.32v10.814l3.255 9.886h4.064l3.259-9.886V85.319H89.564z" fill="#37474F"/><path d="M93.971 103.995a1.238 1.238 0 01-.268-1.353 1.239 1.239 0 011.148-.767 1.238 1.238 0 011.147.767 1.24 1.24 0 01-1.147 1.717c-.33 0-.646-.131-.88-.364z" fill="#DBDBDB"/><path d="M95.562 104.122l-1.729-1.728a1.98 1.98 0 01.139-.169c.052-.049.109-.094.168-.134l1.729 1.728a1.145 1.145 0 01-.307.303z" fill="#C7C7C7"/><path d="M95.73 90.334a1.243 1.243 0 11-1.756-1.76 1.243 1.243 0 011.756 1.76z" fill="#DBDBDB"/><path d="M95.869 88.743l-1.73 1.73a1.124 1.124 0 01-.306-.308l1.729-1.729c.121.082.225.186.307.307z" fill="#C7C7C7"/><path d="M127.742 43.893c1.845 4.883.067 22.69-2.619 26.421-4.023 5.546-10.953 8.98-14.081 10.556-1.362.685-6.833-9.328-5.392-10.103 3.162-1.661 9.523-5.837 10.279-6.81.756-.973 4.666-10.365 6.178-15.66 2.024-7.084 4.715-6.874 5.635-4.404z" fill="#FFBE9D"/><path d="M94.66 78.225a1.687 1.687 0 001.392 1.328 2.5 2.5 0 00-.075 1.695c.348.966 2.02.842 2.02.842a3.05 3.05 0 00.203 1.8c.43.894 2.133 1.007 2.133 1.007a2.704 2.704 0 001.179 1.47c1.519.83 3.828-.468 5.306-1.276 1.478-.808 4.902-4.49 5.613-5.126l-5.123-9.52s-7.63 1.744-9.235 2.953c-1.347 1.01-3.634 3.532-3.413 4.827z" fill="#FFBE9D"/><path d="M96.045 79.504c1.178-1.418 2.709-2.41 4.179-3.487.034-.026.072.026.038.052-1.478 1.055-2.724 2.388-4.154 3.499-.04.034-.093-.026-.063-.064zm1.923 2.552c.3-.29.635-.542.999-.748a48.622 48.622 0 013.435-2.054c.037 0 .075.03.037.052-.748.464-1.496.943-2.245 1.437l-1.1.748a5.707 5.707 0 01-1.063.67.063.063 0 01-.063-.105zm2.395 2.818c.274-.263.59-.478.936-.636l1.051-.621a65.279 65.279 0 002.073-1.276c.034-.022.071.03.038.052-.693.453-1.377.913-2.07 1.359-.34.22-.685.437-1.025.65a3.141 3.141 0 01-.98.51.023.023 0 01-.015 0 .019.019 0 01-.011-.01.018.018 0 01-.003-.015.02.02 0 01.006-.013z" fill="#263238"/><path d="M118.227 58.987c-.535 1.415-1.093 2.818-1.733 4.195a9.43 9.43 0 01-.265.505c-.09.177-.207.337-.348.476a9.72 9.72 0 01-.846.77c-.588.487-1.201.932-1.822 1.37-1.239.872-2.523 1.673-3.81 2.466a127.18 127.18 0 01-3.91 2.297h-.022l-3.806 1.123-1.893.591c-.311.105-.633.206-.92.326-.286.14-.553.314-.798.516a14.076 14.076 0 00-2.687 2.852 2.908 2.908 0 00-.587 1.792c.03.314.181.605.423.808.256.2.556.334.875.393h.049v.045c-.108.33-.17.674-.183 1.022-.034.35.059.7.261.987a1.497 1.497 0 01-.314-.987c0-.355.05-.708.15-1.048l.034.06a2.16 2.16 0 01-.936-.375 1.347 1.347 0 01-.509-.89 2.244 2.244 0 01.124-1.018c.107-.322.255-.629.441-.913a14.559 14.559 0 012.68-2.971 4.17 4.17 0 01.86-.573c.322-.134.632-.231.95-.34l1.894-.61 3.802-1.167h-.038c2.62-1.478 5.239-3.02 7.739-4.69a30.43 30.43 0 001.833-1.313c.296-.233.578-.483.846-.748.245-.273.447-.582.598-.917.663-1.26 1.254-2.653 1.868-4.034z" fill="#263238"/><path d="M122.343 46.202c2.975-6.46 6.294-5.273 6.638 1.073a109.16 109.16 0 01-.187 12.427l-11.102-3.038s2.75-6.328 4.651-10.462z" fill="#76B7ED"/><path d="M123.547 50.737s.707.482.374.868c-.333.385-.748-.326-.748-.621 0 0-.397.606-.666.318-.27-.288.221-.577.43-.633 0 0-.572-.438-.232-.722.341-.284.599.172.595.468a.98.98 0 01.236-.28c.176-.136.423-.207.576 0 .236.321-.265.643-.565.602zm2.245-4.801c-.045.262.18.374.401.415a.935.935 0 00.374-.03c-.213.202-.322.715.09.749.411.033.348-.674.348-.674.183.109.748.255.748-.146 0-.4-.692-.247-.692-.247.206-.21.426-.995-.083-.958-.508.038-.351.88-.351.88-.187-.236-.756-.363-.831.01h-.004zm-6.806 9.52c-.045.261.179.373.4.415a.934.934 0 00.374-.03c-.209.202-.321.714.09.748.412.034.348-.673.348-.673.183.108.749.254.749-.146s-.696-.247-.696-.247c.205-.21.426-.996-.079-.958-.505.037-.352.879-.352.879-.187-.236-.767-.363-.83.011h-.004zm6.806 0c-.045.261.18.373.401.415a.937.937 0 00.374-.03c-.213.202-.322.714.09.748.411.034.348-.673.348-.673.183.108.748.254.748-.146s-.692-.247-.692-.247c.206-.21.426-.996-.083-.958-.508.037-.351.879-.351.879-.187-.236-.756-.363-.831.011h-.004z" fill="#fff"/><path d="M122.063 46.901c-.405.846-.831 1.68-1.254 2.518a12.9 12.9 0 00.165-1.197h-.027c-.059.314-.131.629-.183.943-.026.15-.052.303-.082.453 0 .033 0 .067-.019.097a78.843 78.843 0 00-.965 1.968c-.375.79-.723 1.587-1.078 2.384-.355.797-.681 1.77-1.078 2.578-.033.071.984.277 1.082.307.097.03.146-.064.045-.075-.101-.011-.928-.333-.94-.34.352-.801.79-1.565 1.168-2.358.378-.793.748-1.572 1.122-2.369.726-1.616 1.363-3.27 2.085-4.894l-.041-.015zm7.67 3.731c-.102.33-.21.659-.292.995-.03.139-.064.277-.098.416.028-1.148.051-2.294.071-3.44h-.022c-.135 1.872-.273 3.743-.374 5.614a53.394 53.394 0 00-.184 5.41 6.353 6.353 0 00-1.017-.146c.367.154.754.26 1.148.315a55.62 55.62 0 00.318-5.654c.019-.517.03-1.033.042-1.55.06-.317.146-.632.228-.946.082-.314.142-.677.209-1.018.008-.007-.026-.015-.029.004z" fill="#263238"/><path d="M128.315 58.03c-1.564-.536-8.045-2.496-9.474-2.826-.097-.022-.139.034-.038.068 4.644 1.714 7.929 2.368 9.49 2.817.037.012.063-.048.022-.06z" fill="#263238"/></svg>