<svg viewBox="0 0 48 48" fill="none" xmlns="http://www.w3.org/2000/svg"><g clip-path="url(#clip0_68_8629)"><path d="M24.564 20.54H14.77L9.137 10.463A.983.983 0 019.995 9h7.258c.53 0 1.02.287 1.279.75l6.032 10.79z" fill="url(#paint0_linear_68_8629)"/><path d="M18.531 9.75A1.465 1.465 0 0017.252 9h-3.025c.53 0 1.02.287 1.279.75l6.032 10.79h3.025L18.531 9.75z" fill="#084D5B"/><path d="M18.532 9.75a1.465 1.465 0 00-1.28-.75H14.9c.53 0 1.02.287 1.279.75l6.032 10.79h2.354L18.532 9.75zM10.829 9h-.834a.983.983 0 00-.858 1.463L14.77 20.54h3.37L12.108 9.75A1.465 1.465 0 0010.829 9z" fill="#084D5B"/><path d="M23.428 20.54l9.793.007 5.641-10.072a.984.984 0 00-.857-1.464l-7.257-.006c-.531 0-1.02.287-1.28.75l-6.04 10.784z" fill="url(#paint1_linear_68_8629)"/><path d="M38.005 9.011h-2.354a.983.983 0 01.857 1.464l-5.64 10.07 2.353.002 5.641-10.072a.983.983 0 00-.857-1.464z" fill="url(#paint2_linear_68_8629)"/><path d="M33.773 9.009l-3.026-.003c-.53 0-1.02.287-1.279.75l-6.04 10.784 3.025.003 6.04-10.785c.26-.463.75-.75 1.28-.75z" fill="#084D5B"/><path d="M38.006 9.01h-.834c-.531 0-1.02.286-1.28.75l-6.04 10.784 3.37.003 5.64-10.072a.983.983 0 00-.856-1.464z" fill="url(#paint3_linear_68_8629)"/><path d="M24.01 39c6.473 0 11.72-5.247 11.72-11.72 0-6.473-5.247-11.72-11.72-11.72-6.473 0-11.72 5.247-11.72 11.72 0 6.473 5.248 11.72 11.72 11.72z" fill="url(#paint4_linear_68_8629)"/><path d="M24.01 35.558a8.278 8.278 0 100-16.556 8.278 8.278 0 000 16.556z" fill="url(#paint5_linear_68_8629)"/><path d="M24.24 20.541a.998.998 0 00-.533.13l-2.427 1.47c-.368.22-.533.588-.533.975 0 .57.367 1.14.9 1.14a.836.836 0 00.46-.148l.534-.33v9.358c0 .588.717.882 1.434.882s1.434-.294 1.434-.882V21.442c0-.551-.68-.9-1.27-.9z" fill="#084D5B"/></g><defs><linearGradient id="paint0_linear_68_8629" x1="13.338" y1="14.77" x2="18.514" y2="14.77" gradientUnits="userSpaceOnUse"><stop stop-color="#F9F3F1"/><stop offset=".573" stop-color="#EFE2DD"/><stop offset="1" stop-color="#CDBFBA"/></linearGradient><linearGradient id="paint1_linear_68_8629" x1="28.834" y1="14.776" x2="37.315" y2="14.776" gradientUnits="userSpaceOnUse"><stop stop-color="#F9F3F1"/><stop offset=".573" stop-color="#EFE2DD"/><stop offset="1" stop-color="#CDBFBA"/></linearGradient><linearGradient id="paint2_linear_68_8629" x1="28.472" y1="14.779" x2="35.028" y2="14.779" gradientUnits="userSpaceOnUse"><stop stop-color="#F9F3F1"/><stop offset=".573" stop-color="#EFE2DD"/><stop offset="1" stop-color="#CDBFBA"/></linearGradient><linearGradient id="paint3_linear_68_8629" x1="24.657" y1="14.778" x2="39.724" y2="14.778" gradientUnits="userSpaceOnUse"><stop stop-color="#084D5B"/></linearGradient><linearGradient id="paint4_linear_68_8629" x1="11.739" y1="27.28" x2="37.924" y2="27.28" gradientUnits="userSpaceOnUse"><stop stop-color="#084D5B"/></linearGradient><linearGradient id="paint5_linear_68_8629" x1="24.011" y1="19.002" x2="24.011" y2="35.558" gradientUnits="userSpaceOnUse"><stop stop-color="#FFD263"/><stop offset="1" stop-color="#FEB137"/></linearGradient><clipPath id="clip0_68_8629"><path fill="#fff" transform="translate(9 9)" d="M0 0h30v30H0z"/></clipPath></defs></svg>