<svg viewBox="0 0 48 48" fill="none" xmlns="http://www.w3.org/2000/svg"><g clip-path="url(#clip0_68_8614)"><path d="M28.402 39H8.442a.441.441 0 110-.882h19.96a.441.441 0 110 .882z" fill="#084D5B"/><path d="M37.068 9.931a3.18 3.18 0 00-4.272-.203L20.146 20.17a12.033 12.033 0 00-3.02 3.738l-2.025 3.903 4.088 4.087 3.902-2.024a12.032 12.032 0 003.738-3.02l10.443-12.65a3.18 3.18 0 00-.204-4.273z" fill="url(#paint0_linear_68_8614)"/><path d="M37.068 9.931a3.18 3.18 0 00-3.39-.719 3.18 3.18 0 011.31 4.992l-10.444 12.65a12.033 12.033 0 01-3.738 3.02l-2.398 1.244.78.78 3.903-2.024a12.031 12.031 0 003.738-3.02l10.443-12.65a3.18 3.18 0 00-.204-4.273z" fill="url(#paint1_linear_68_8614)"/><path d="M19.225 31.935l-.704.704a3.784 3.784 0 00-1.109 2.676 2.445 2.445 0 01-3.071 2.363 7.717 7.717 0 00-5.138.419.227.227 0 01-.3-.3 7.717 7.717 0 00.419-5.138 2.445 2.445 0 012.363-3.072 3.784 3.784 0 002.675-1.108l.705-.705 4.16 4.16z" fill="url(#paint2_linear_68_8614)"/><path d="M15.773 25.227l-.87 1.835a1.293 1.293 0 00.254 1.468l3.313 3.313c.387.386.974.488 1.468.254l1.835-.87a.728.728 0 00.203-1.173l-5.03-5.03a.728.728 0 00-1.173.203z" fill="url(#paint3_linear_68_8614)"/><path d="M21.976 30.054l-5.03-5.03a.728.728 0 00-1.173.203l-.293.617 4.211 4.21a.728.728 0 01-.203 1.173l-1.108.525.09.09c.387.387.974.489 1.468.255l1.835-.87a.728.728 0 00.203-1.173z" fill="url(#paint4_linear_68_8614)"/><path d="M14.777 32.093a1.43 1.43 0 00-2.308 1.51c.048.15.01.313-.101.423L9.53 36.863a2.97 2.97 0 00-.628.934c-.086.19.11.386.3.3.349-.147.666-.36.933-.628l2.837-2.837c.11-.11.27-.151.417-.104a1.43 1.43 0 001.387-2.435z" fill="#084D5B"/></g><defs><linearGradient id="paint0_linear_68_8614" x1="15.225" y1="20.449" x2="36.724" y2="20.449" gradientUnits="userSpaceOnUse"><stop stop-color="#084D5B"/></linearGradient><linearGradient id="paint1_linear_68_8614" x1="9.83" y1="20.449" x2="34.463" y2="20.449" gradientUnits="userSpaceOnUse"><stop stop-color="#003D48"/></linearGradient><linearGradient id="paint2_linear_68_8614" x1="8.045" y1="32.946" x2="18.445" y2="32.946" gradientUnits="userSpaceOnUse"><stop stop-color="#FFE177"/><stop offset=".573" stop-color="#FEB137"/></linearGradient><linearGradient id="paint3_linear_68_8614" x1="14.797" y1="28.516" x2="22.997" y2="28.516" gradientUnits="userSpaceOnUse"><stop stop-color="#F9F3F1"/><stop offset=".573" stop-color="#EFE2DD"/><stop offset="1" stop-color="#CDBFBA"/></linearGradient><linearGradient id="paint4_linear_68_8614" x1="10.214" y1="28.516" x2="21.145" y2="28.516" gradientUnits="userSpaceOnUse"><stop stop-color="#F9F3F1"/><stop offset=".573" stop-color="#EFE2DD"/><stop offset="1" stop-color="#CDBFBA"/></linearGradient><clipPath id="clip0_68_8614"><path fill="#fff" transform="translate(8 9)" d="M0 0h30v30H0z"/></clipPath></defs></svg>