<svg min-width="259" min-height="187" viewBox="0 0 259 175" fill="none" xmlns="http://www.w3.org/2000/svg">
<path d="M189 155.709H133.842V145.972H97.9885H62.1354H15V95.7092" stroke="#FF9F0E"/>
<rect x="79.5" y="25.2092" width="177" height="111" fill="white" stroke="#4797C8" stroke-width="5"/>
<rect x="56" y="119.709" width="43" height="55" fill="#B4D7F3"/>
<mask id="path-4-inside-1_2_2545" fill="white">
<path d="M63 147.209C63 145.305 63.3751 143.42 64.1037 141.66C64.8324 139.901 65.9005 138.303 67.247 136.956C68.5934 135.61 70.1919 134.542 71.9511 133.813C73.7103 133.084 75.5958 132.709 77.5 132.709C79.4042 132.709 81.2897 133.084 83.0489 133.813C84.8081 134.542 86.4066 135.61 87.753 136.956C89.0995 138.303 90.1676 139.901 90.8963 141.66C91.6249 143.42 92 145.305 92 147.209L77.5 147.209H63Z"/>
</mask>
<path d="M63 147.209C63 145.305 63.3751 143.42 64.1037 141.66C64.8324 139.901 65.9005 138.303 67.247 136.956C68.5934 135.61 70.1919 134.542 71.9511 133.813C73.7103 133.084 75.5958 132.709 77.5 132.709C79.4042 132.709 81.2897 133.084 83.0489 133.813C84.8081 134.542 86.4066 135.61 87.753 136.956C89.0995 138.303 90.1676 139.901 90.8963 141.66C91.6249 143.42 92 145.305 92 147.209L77.5 147.209H63Z" fill="white" stroke="#4797C8" stroke-width="1.68116" mask="url(#path-4-inside-1_2_2545)"/>
<circle cx="66" cy="161.709" r="3.5" fill="white" stroke="#4BBD23"/>
<circle cx="77" cy="161.709" r="3.5" fill="white" stroke="#D4B1F8"/>
<path d="M44 11.4999C44 16.4999 45 22.4999 41.5 23.9999C38.1911 25.418 37 21.9999 35 20.9999" stroke="#76B8EE"/>
<path d="M119.132 0.999863C119.132 5.99986 118.132 11.9999 121.632 13.4999C124.941 14.918 126.132 11.4999 128.132 10.4999" stroke="#76B8EE"/>
<circle cx="88" cy="161.709" r="3.5" fill="white" stroke="#FAFF01"/>
<rect x="77" y="10.7092" width="5" height="109" fill="#B4D7F3"/>
<rect x="179.086" y="70.218" width="5" height="109" transform="rotate(91.1273 179.086 70.218)" fill="#B4D7F3"/>
<path d="M99 127.709H122V119.709" stroke="#4797C8"/>
<path d="M120 102.709V106.709H123V102.709H120Z" fill="#4797C8"/>
<rect width="5" height="78" transform="matrix(-0.143408 -0.989664 -0.989664 0.143408 120 6.35422)" fill="#B4D7F3"/>
<circle cx="43.8657" cy="14.4671" r="3.5" transform="rotate(-7.95375 43.8657 14.4671)" fill="#4797C8"/>
<circle cx="119.134" cy="3.95064" r="3.5" transform="rotate(-7.95375 119.134 3.95064)" fill="#4797C8"/>
<circle cx="79.6505" cy="9.64989" r="5.00598" transform="rotate(-7.95375 79.6505 9.64989)" fill="#4797C8"/>
<circle cx="177.183" cy="72.627" r="3.73404" transform="rotate(-7.95375 177.183 72.627)" fill="#4797C8"/>
<circle cx="15" cy="91.7092" r="14.5" fill="white" stroke="#4797C8"/>
<circle cx="15" cy="91.7092" r="11" fill="#B4D7F3"/>
<path d="M14.5 92.7092L8 87.7092" stroke="#4797C8"/>
<circle cx="122" cy="112.709" r="6.76667" fill="white" stroke="#4797C8" stroke-width="0.466667"/>
<circle cx="122" cy="112.709" r="5.13333" fill="#B4D7F3"/>
<path d="M121.767 113.176L118.733 110.842" stroke="#4797C8" stroke-width="0.466667"/>
<path d="M13.5 71.2092V77.7092H17V71.2092H13.5Z" fill="#4797C8"/>
<path d="M86.269 42.4436L83.8692 50.0751L86.731 50.9751L89.1309 43.3435L86.269 42.4436Z" fill="#4797C8"/>
<path d="M91.8552 44.7531L87.7895 51.643L90.3732 53.1676L94.4389 46.2778L91.8552 44.7531Z" fill="#4797C8"/>
<path d="M96.5815 47.948L91.3705 54.0179L93.6467 55.9721L98.8578 49.9021L96.5815 47.948Z" fill="#4797C8"/>
<path d="M100.758 51.9538L94.7491 57.2351L96.7296 59.4885L102.739 54.2072L100.758 51.9538Z" fill="#4797C8"/>
<path d="M104.553 57.0554L97.8177 61.3724L99.4366 63.8981L106.172 59.5811L104.553 57.0554Z" fill="#4797C8"/>
<path d="M107.45 62.7092L100 65.6235L101.093 68.4174L108.543 65.5031L107.45 62.7092Z" fill="#4797C8"/>
<path d="M109.093 69.654L101.137 70.4886L101.45 73.4722L109.406 72.6377L109.093 69.654Z" fill="#4797C8"/>
<path d="M108.386 77.2004L100.657 75.1376L99.8832 78.0362L107.613 80.099L108.386 77.2004Z" fill="#4797C8"/>
<path d="M106.516 83.4436L99.2055 80.1947L97.9872 82.9362L105.298 86.185L106.516 83.4436Z" fill="#4797C8"/>
<path d="M103.472 88.4441L96.5808 84.3804L95.057 86.9646L101.948 91.0282L103.472 88.4441Z" fill="#4797C8"/>
<path d="M99.3894 93.8991L94.3214 87.7092L92.0002 89.6097L97.0682 95.7997L99.3894 93.8991Z" fill="#4797C8"/>
<path d="M93.9055 97.5725L90.1285 90.5203L87.4839 91.9367L91.2609 98.9889L93.9055 97.5725Z" fill="#4797C8"/>
<path d="M87.4136 100.05L84.8129 92.4841L81.9758 93.4593L84.5765 101.025L87.4136 100.05Z" fill="#4797C8"/>
<path d="M72.137 42.7091L74.5368 50.3407L71.675 51.2406L69.2751 43.6091L72.137 42.7091Z" fill="#4797C8"/>
<path d="M77.9888 41.7092L78.6764 49.6796L75.6875 49.9375L74.9999 41.9671L77.9888 41.7092Z" fill="#4797C8"/>
<path d="M83.6367 41.9479L83.0311 49.925L80.0397 49.6979L80.6453 41.7208L83.6367 41.9479Z" fill="#4797C8"/>
<path d="M66.5508 45.0187L70.6165 51.9085L68.0328 53.4332L63.9671 46.5433L66.5508 45.0187Z" fill="#4797C8"/>
<path d="M61.8245 48.2135L67.0355 54.2835L64.7593 56.2377L59.5482 50.1677L61.8245 48.2135Z" fill="#4797C8"/>
<path d="M57.6482 52.2194L63.6572 57.5007L61.6767 59.7541L55.6677 54.4727L57.6482 52.2194Z" fill="#4797C8"/>
<path d="M53.8533 57.3209L60.5885 61.6379L58.9697 64.1636L52.2344 59.8467L53.8533 57.3209Z" fill="#4797C8"/>
<path d="M50.9558 62.9747L58.4061 65.8891L57.3132 68.6829L49.8629 65.7686L50.9558 62.9747Z" fill="#4797C8"/>
<path d="M49.3127 69.9196L57.2691 70.7541L56.9561 73.7377L48.9998 72.9032L49.3127 69.9196Z" fill="#4797C8"/>
<path d="M50.02 77.466L57.7495 75.4032L58.523 78.3017L50.7936 80.3645L50.02 77.466Z" fill="#4797C8"/>
<path d="M51.8901 83.7091L59.2007 80.4603L60.4191 83.2017L53.1085 86.4506L51.8901 83.7091Z" fill="#4797C8"/>
<path d="M54.9341 88.7096L61.8252 84.646L63.349 87.2301L56.4579 91.2938L54.9341 88.7096Z" fill="#4797C8"/>
<path d="M59.0168 94.1647L64.0849 87.9748L66.4061 89.8753L61.3381 96.0652L59.0168 94.1647Z" fill="#4797C8"/>
<path d="M64.5007 97.838L68.2778 90.7858L70.9224 92.2022L67.1453 99.2544L64.5007 97.838Z" fill="#4797C8"/>
<path d="M70.9927 100.315L73.5934 92.7497L76.4304 93.7249L73.8297 101.29L70.9927 100.315Z" fill="#4797C8"/>
<path d="M78.0474 101.727L77.9998 93.7269L80.9997 93.7091L81.0473 101.709L78.0474 101.727Z" fill="#4797C8"/>
<circle cx="79" cy="71.7092" r="23" fill="#B4D7F3"/>
<rect x="177" y="74" width="1" height="33" fill="#4797C8"/>
<rect x="170" y="78" width="15" height="24" fill="#B4D7F3"/>
<circle cx="78.5" cy="72.2092" r="3.5" fill="white"/>
<path d="M153.197 67.7725C162.403 67.7725 169.865 60.3097 169.865 51.1039C169.865 41.898 162.403 34.4352 153.197 34.4352C143.991 34.4352 136.528 41.898 136.528 51.1039C136.528 60.3097 143.991 67.7725 153.197 67.7725Z" fill="#75B6EC" fill-opacity="0.2"/>
<path opacity="0.2" d="M163 60.7092C168.523 55.1864 168.523 46.232 163 40.7092C157.477 35.1864 148.523 35.1864 143 40.7092C137.477 46.232 137.477 55.1864 143 60.7092C148.523 66.232 157.477 66.232 163 60.7092Z" fill="#75B6EC"/>
<path opacity="0.2" d="M161.625 59.3343C166.389 54.5708 166.389 46.8476 161.625 42.0841C156.862 37.3206 149.138 37.3206 144.375 42.0841C139.611 46.8476 139.611 54.5708 144.375 59.3343C149.138 64.0978 156.862 64.0978 161.625 59.3343Z" fill="#75B6EC"/>
<path opacity="0.2" d="M160.548 58.2577C164.717 54.0888 164.717 47.3296 160.548 43.1607C156.38 38.9917 149.62 38.9917 145.451 43.1607C141.282 47.3296 141.282 54.0888 145.451 58.2577C149.62 62.4267 156.38 62.4267 160.548 58.2577Z" fill="#75B6EC"/>
<path d="M157.679 65.0762C156.902 64.9766 156.656 64.3913 157.131 63.7679C157.606 63.1445 158.616 62.7204 159.396 62.819C160.176 62.9176 160.418 63.5039 159.944 64.1273C159.47 64.7507 158.457 65.1748 157.679 65.0762Z" fill="#263238"/>
<path d="M160.179 63.6164L159.92 63.7225C159.785 63.613 159.621 63.5468 159.448 63.5327C158.812 63.4521 157.992 63.7977 157.606 64.3045C157.495 64.4378 157.427 64.6015 157.411 64.7742L157.151 64.8802L157.648 65.228C157.769 65.3048 157.907 65.3523 158.05 65.3668C158.687 65.4474 159.507 65.1018 159.893 64.595C159.983 64.4826 160.046 64.3509 160.076 64.2102L160.179 63.6164Z" fill="#75B6EC"/>
<path opacity="0.4" d="M160.179 63.6164L159.92 63.7225C159.785 63.613 159.621 63.5468 159.448 63.5327C158.812 63.4521 157.992 63.7977 157.606 64.3045C157.495 64.4378 157.427 64.6015 157.411 64.7742L157.151 64.8802L157.648 65.228C157.769 65.3048 157.907 65.3523 158.05 65.3668C158.687 65.4474 159.507 65.1018 159.893 64.595C159.983 64.4826 160.046 64.3509 160.076 64.2102L160.179 63.6164Z" fill="black"/>
<path d="M158.805 64.5856C160.114 64.041 160.921 62.9869 160.607 62.231C160.292 61.4752 158.976 61.3039 157.667 61.8485C156.357 62.393 155.55 63.4472 155.865 64.203C156.179 64.9588 157.495 65.1301 158.805 64.5856Z" fill="#75B6EC"/>
<path d="M158.68 64.2865C160.039 63.7217 160.875 62.6284 160.549 61.8444C160.223 61.0605 158.858 60.8828 157.5 61.4476C156.142 62.0123 155.305 63.1057 155.631 63.8896C155.957 64.6736 157.322 64.8513 158.68 64.2865Z" fill="#75B6EC"/>
<path opacity="0.2" d="M158.68 64.2865C160.039 63.7217 160.875 62.6284 160.549 61.8444C160.223 61.0605 158.858 60.8828 157.5 61.4476C156.142 62.0123 155.305 63.1057 155.631 63.8896C155.957 64.6736 157.322 64.8513 158.68 64.2865Z" fill="black"/>
<path d="M158.539 63.9471C159.932 63.3679 160.79 62.2467 160.455 61.4427C160.121 60.6388 158.721 60.4565 157.328 61.0357C155.936 61.6149 155.078 62.7361 155.412 63.54C155.746 64.344 157.146 64.5262 158.539 63.9471Z" fill="#75B6EC"/>
<path d="M158.398 63.6075C159.825 63.0141 160.704 61.8652 160.361 61.0413C160.019 60.2173 158.584 60.0303 157.158 60.6237C155.731 61.217 154.852 62.3659 155.195 63.1899C155.537 64.0138 156.972 64.2008 158.398 63.6075Z" fill="#75B6EC"/>
<path opacity="0.2" d="M158.398 63.6075C159.825 63.0141 160.704 61.8652 160.361 61.0413C160.019 60.2173 158.584 60.0303 157.158 60.6237C155.731 61.217 154.852 62.3659 155.195 63.1899C155.537 64.0138 156.972 64.2008 158.398 63.6075Z" fill="black"/>
<path d="M158.257 63.269C159.718 62.6612 160.619 61.4849 160.268 60.6415C159.917 59.798 158.448 59.607 156.987 60.2147C155.526 60.8224 154.625 61.9988 154.976 62.8422C155.327 63.6856 156.796 63.8767 158.257 63.269Z" fill="#75B6EC"/>
<path d="M158.116 62.9299C159.611 62.308 160.532 61.1039 160.173 60.2405C159.814 59.377 158.311 59.1812 156.815 59.8031C155.32 60.425 154.399 61.6291 154.758 62.4925C155.117 63.3559 156.62 63.5517 158.116 62.9299Z" fill="#37474F"/>
<path d="M149.449 42.085C148.329 42.55 147.312 43.231 146.456 44.0891C145.599 44.9473 144.921 45.9657 144.458 47.0864C143.995 48.207 143.758 49.4077 143.759 50.6201C143.76 51.8325 144.001 53.0327 144.466 54.1523C147.28 60.9175 153.329 59.7194 154.464 62.4463C154.644 62.881 155.112 63.1959 155.824 63.2945C157.248 63.48 159.111 62.705 159.982 61.5652C160.419 60.9949 160.525 60.4404 160.345 60.0067C159.21 57.2788 164.326 53.8342 161.511 47.0722C160.573 44.8114 158.775 43.016 156.513 42.0807C154.251 41.1455 151.71 41.147 149.449 42.085Z" fill="#75B6EC"/>
<g style="mix-blend-mode:screen" opacity="0.9">
<path d="M149.449 42.085C148.329 42.55 147.312 43.231 146.456 44.0891C145.599 44.9473 144.921 45.9657 144.458 47.0864C143.995 48.207 143.758 49.4077 143.759 50.6201C143.76 51.8325 144.001 53.0327 144.466 54.1523C147.28 60.9175 153.329 59.7194 154.464 62.4463C154.644 62.881 155.112 63.1958 155.824 63.2944C157.248 63.48 159.111 62.705 159.982 61.5652C160.419 60.9949 160.525 60.4404 160.345 60.0067C159.21 57.2788 164.326 53.8342 161.511 47.0722C160.573 44.8114 158.775 43.016 156.513 42.0807C154.251 41.1455 151.71 41.147 149.449 42.085Z" fill="white"/>
</g>
<path d="M155.217 43.7217C155.129 43.8122 155.053 43.9138 154.992 44.0239C154.763 44.4299 154.821 44.9579 155.061 45.3576C155.524 46.1316 156.531 46.3118 157.258 46.7656C158.054 47.2585 158.758 47.8888 159.335 48.6273C159.506 48.8478 159.766 49.2221 159.987 49.3928C160.127 49.5038 160.304 49.5584 160.483 49.5461C160.662 49.5337 160.829 49.4553 160.953 49.326C161.211 49.0079 161.21 48.5266 161.122 48.182C160.592 46.139 159.602 44.8604 158.012 43.7811C157.149 43.1926 156.036 42.882 155.217 43.7217Z" fill="white"/>
<path d="M160.317 50.8082C160.33 50.9511 160.373 51.0898 160.443 51.215C160.513 51.3401 160.609 51.449 160.725 51.5344C160.852 51.6235 161.009 51.6588 161.163 51.6326C161.316 51.6064 161.452 51.5208 161.543 51.3945C161.634 51.2636 161.69 51.1121 161.708 50.9538C161.725 50.7954 161.702 50.6353 161.642 50.488C161.507 50.1773 161.166 49.9282 160.805 50.0374C160.469 50.1402 160.296 50.5155 160.317 50.8082Z" fill="white"/>
<path opacity="0.15" d="M155.347 61.0709C154.711 60.0701 154.172 59.6131 152.559 59.4806C150.945 59.3481 148.212 59.2685 146.091 56.8947C149.147 60.6245 153.523 60.1655 154.467 62.4428C154.647 62.8775 155.115 63.1924 155.827 63.291C156.134 63.3273 156.445 63.3255 156.752 63.2857C156.35 62.6495 155.74 61.6932 155.347 61.0709Z" fill="#75B6EC"/>
<path opacity="0.15" d="M158.756 59.6513C158.496 58.4936 158.55 57.7907 159.596 56.5555C160.643 55.3204 162.513 53.3282 162.323 50.1465C162.814 54.944 159.401 57.7228 160.349 60.0065C160.529 60.4401 160.423 60.9946 159.987 61.565C159.796 61.8086 159.576 62.0276 159.331 62.217C159.164 61.4791 158.918 60.3754 158.756 59.6513Z" fill="#75B6EC"/>
<path d="M151.653 48.7219C151.927 47.9862 151.553 47.1674 150.817 46.8932C150.081 46.619 149.263 46.9931 148.988 47.7289C148.714 48.4647 149.088 49.2834 149.824 49.5576C150.56 49.8319 151.379 49.4577 151.653 48.7219Z" fill="#75B6EC"/>
<path opacity="0.2" d="M150.531 49.1448C149.807 49.3282 149.141 48.8712 148.9 48.1906C148.893 48.3997 148.932 48.6079 149.014 48.8002C149.097 48.9925 149.221 49.1641 149.378 49.3029C149.535 49.4416 149.72 49.544 149.921 49.6028C150.122 49.6615 150.333 49.6752 150.54 49.6427C150.747 49.6103 150.944 49.5326 151.117 49.4151C151.29 49.2976 151.435 49.1434 151.542 48.9633C151.649 48.7832 151.714 48.5818 151.734 48.3734C151.754 48.1651 151.727 47.9549 151.656 47.758C151.757 48.1365 151.302 48.9486 150.531 49.1448Z" fill="black"/>
<path d="M151.223 50.1446C151.415 50.3495 151.543 50.607 151.589 50.8844C151.636 51.1617 151.599 51.4466 151.483 51.703C151.367 51.9594 151.178 52.1757 150.94 52.3246C150.701 52.4735 150.424 52.5483 150.143 52.5395C149.862 52.5308 149.589 52.4389 149.361 52.2754C149.132 52.112 148.956 51.8843 148.857 51.6212C148.758 51.3582 148.738 51.0715 148.802 50.7976C148.865 50.5236 149.009 50.2746 149.214 50.0821C149.489 49.8243 149.854 49.6862 150.231 49.6979C150.608 49.7096 150.964 49.8703 151.223 50.1446Z" fill="#75B6EC"/>
<path opacity="0.45" d="M151.223 50.1446C151.415 50.3495 151.543 50.607 151.589 50.8844C151.636 51.1617 151.599 51.4466 151.483 51.703C151.367 51.9594 151.178 52.1757 150.94 52.3246C150.701 52.4735 150.424 52.5483 150.143 52.5395C149.862 52.5308 149.589 52.4389 149.361 52.2754C149.132 52.112 148.956 51.8843 148.857 51.6212C148.758 51.3582 148.738 51.0715 148.802 50.7976C148.865 50.5236 149.009 50.2746 149.214 50.0821C149.489 49.8243 149.854 49.6862 150.231 49.6979C150.608 49.7096 150.964 49.8703 151.223 50.1446Z" fill="white"/>
<path opacity="0.2" d="M150.398 52.0371C149.674 52.2216 149.008 51.7646 148.766 51.0829C148.759 51.2921 148.798 51.5004 148.88 51.6927C148.963 51.8851 149.087 52.0569 149.244 52.1957C149.4 52.3346 149.586 52.4371 149.787 52.4959C149.988 52.5548 150.199 52.5685 150.406 52.5361C150.613 52.5038 150.81 52.4261 150.983 52.3087C151.156 52.1912 151.301 52.037 151.408 51.8569C151.515 51.6768 151.581 51.4754 151.6 51.267C151.62 51.0586 151.594 50.8484 151.523 50.6514C151.624 51.0289 151.168 51.841 150.398 52.0371Z" fill="#75B6EC"/>
<path d="M153.385 51.5664C153.577 51.7715 153.703 52.0289 153.749 52.3061C153.795 52.5833 153.757 52.8678 153.642 53.1237C153.526 53.3796 153.337 53.5955 153.098 53.7441C152.86 53.8927 152.583 53.9674 152.302 53.9586C152.021 53.9499 151.75 53.8582 151.521 53.6951C151.292 53.532 151.117 53.3048 151.017 53.0422C150.917 52.7796 150.898 52.4933 150.961 52.2195C151.023 51.9457 151.166 51.6967 151.37 51.5038C151.506 51.3753 151.667 51.2749 151.842 51.2084C152.017 51.1419 152.203 51.1107 152.39 51.1165C152.578 51.1223 152.762 51.1651 152.932 51.2423C153.103 51.3195 153.257 51.4296 153.385 51.5664Z" fill="#75B6EC"/>
<path opacity="0.15" d="M153.385 51.5664C153.577 51.7715 153.703 52.0289 153.749 52.3061C153.795 52.5833 153.757 52.8678 153.642 53.1237C153.526 53.3796 153.337 53.5955 153.098 53.7441C152.86 53.8927 152.583 53.9674 152.302 53.9586C152.021 53.9499 151.75 53.8582 151.521 53.6951C151.292 53.532 151.117 53.3048 151.017 53.0422C150.917 52.7796 150.898 52.4933 150.961 52.2195C151.023 51.9457 151.166 51.6967 151.37 51.5038C151.506 51.3753 151.667 51.2749 151.842 51.2084C152.017 51.1419 152.203 51.1107 152.39 51.1165C152.578 51.1223 152.762 51.1651 152.932 51.2423C153.103 51.3195 153.257 51.4296 153.385 51.5664Z" fill="white"/>
<path opacity="0.4" d="M152.56 53.4588C151.835 53.6432 151.17 53.1852 150.928 52.5046C150.921 52.7138 150.96 52.922 151.042 53.1144C151.125 53.3068 151.249 53.4785 151.406 53.6174C151.562 53.7562 151.748 53.8587 151.949 53.9176C152.149 53.9764 152.361 53.9902 152.568 53.9578C152.774 53.9254 152.972 53.8477 153.145 53.7303C153.318 53.6129 153.463 53.4586 153.57 53.2785C153.677 53.0985 153.742 52.897 153.762 52.6886C153.782 52.4802 153.756 52.27 153.685 52.0731C153.785 52.4505 153.333 53.2626 152.56 53.4588Z" fill="#75B6EC"/>
<path d="M155.782 50.415C155.974 50.6199 156.102 50.8773 156.148 51.1547C156.195 51.4321 156.158 51.717 156.042 51.9734C155.926 52.2297 155.737 52.446 155.499 52.5949C155.26 52.7438 154.983 52.8187 154.702 52.8099C154.421 52.8012 154.148 52.7092 153.92 52.5458C153.691 52.3823 153.516 52.1547 153.416 51.8916C153.317 51.6285 153.297 51.3419 153.361 51.0679C153.424 50.794 153.568 50.545 153.773 50.3525C153.909 50.2246 154.069 50.1247 154.243 50.0586C154.418 49.9926 154.604 49.9616 154.79 49.9674C154.977 49.9732 155.16 50.0157 155.331 50.0925C155.501 50.1693 155.654 50.2789 155.782 50.415Z" fill="#75B6EC"/>
<path opacity="0.2" d="M154.957 52.3075C154.233 52.492 153.567 52.034 153.325 51.348C153.318 51.5572 153.357 51.7653 153.44 51.9576C153.523 52.1499 153.647 52.3216 153.803 52.4603C153.96 52.5991 154.145 52.7015 154.346 52.7602C154.547 52.819 154.759 52.8326 154.965 52.8002C155.172 52.7677 155.369 52.69 155.542 52.5725C155.716 52.4551 155.861 52.3008 155.967 52.1207C156.074 51.9406 156.14 51.7392 156.159 51.5309C156.179 51.3225 156.153 51.1124 156.082 50.9154C156.184 51.2992 155.728 52.1114 154.957 52.3075Z" fill="black"/>
<path d="M155.839 47.8906C156.032 48.0955 156.159 48.3529 156.205 48.6303C156.252 48.9077 156.215 49.1926 156.099 49.449C155.984 49.7053 155.794 49.9216 155.556 50.0705C155.317 50.2195 155.04 50.2943 154.759 50.2855C154.478 50.2768 154.206 50.1848 153.977 50.0214C153.748 49.8579 153.573 49.6303 153.473 49.3672C153.374 49.1041 153.355 48.8175 153.418 48.5435C153.482 48.2696 153.625 48.0206 153.83 47.8281C154.105 47.57 154.471 47.4317 154.847 47.4434C155.224 47.4551 155.581 47.616 155.839 47.8906Z" fill="#75B6EC"/>
<path opacity="0.45" d="M155.839 47.8906C156.032 48.0955 156.159 48.3529 156.205 48.6303C156.252 48.9077 156.215 49.1926 156.099 49.449C155.984 49.7053 155.794 49.9216 155.556 50.0705C155.317 50.2195 155.04 50.2943 154.759 50.2855C154.478 50.2768 154.206 50.1848 153.977 50.0214C153.748 49.8579 153.573 49.6303 153.473 49.3672C153.374 49.1041 153.355 48.8175 153.418 48.5435C153.482 48.2696 153.625 48.0206 153.83 47.8281C154.105 47.57 154.471 47.4317 154.847 47.4434C155.224 47.4551 155.581 47.616 155.839 47.8906Z" fill="white"/>
<path opacity="0.2" d="M155.014 49.7831C154.29 49.9675 153.624 49.5095 153.382 48.8236C153.375 49.0328 153.414 49.241 153.497 49.4334C153.579 49.6257 153.703 49.7975 153.86 49.9364C154.017 50.0752 154.202 50.1777 154.403 50.2366C154.604 50.2954 154.815 50.3091 155.022 50.2768C155.229 50.2444 155.426 50.1667 155.599 50.0493C155.772 49.9319 155.918 49.7776 156.024 49.5975C156.131 49.4174 156.197 49.216 156.217 49.0076C156.236 48.7992 156.21 48.589 156.139 48.3921C156.24 48.7748 155.784 49.5869 155.014 49.7831Z" fill="#75B6EC"/>
<path d="M155.317 49.1247C155.47 49.2874 155.571 49.4916 155.607 49.7117C155.644 49.9317 155.614 50.1576 155.523 50.3609C155.431 50.5642 155.281 50.7357 155.091 50.8537C154.902 50.9717 154.682 51.031 154.459 51.0241C154.236 51.0171 154.021 50.9442 153.839 50.8146C153.657 50.685 153.518 50.5045 153.439 50.2959C153.361 50.0872 153.345 49.8599 153.395 49.6426C153.446 49.4253 153.559 49.2277 153.722 49.0749C153.94 48.87 154.231 48.7601 154.53 48.7695C154.829 48.7788 155.112 48.9066 155.317 49.1247Z" fill="#75B6EC"/>
<path opacity="0.3" d="M155.317 49.1247C155.47 49.2874 155.571 49.4916 155.607 49.7117C155.644 49.9317 155.614 50.1576 155.523 50.3609C155.431 50.5642 155.281 50.7357 155.091 50.8537C154.902 50.9717 154.682 51.031 154.459 51.0241C154.236 51.0171 154.021 50.9442 153.839 50.8146C153.657 50.685 153.518 50.5045 153.439 50.2959C153.361 50.0872 153.345 49.8599 153.395 49.6426C153.446 49.4253 153.559 49.2277 153.722 49.0749C153.94 48.87 154.231 48.7601 154.53 48.7695C154.829 48.7788 155.112 48.9066 155.317 49.1247Z" fill="white"/>
<path opacity="0.5" d="M154.663 50.6269C154.087 50.7732 153.559 50.4096 153.367 49.8646C153.361 50.0306 153.393 50.1956 153.459 50.348C153.524 50.5004 153.623 50.6364 153.747 50.7463C153.872 50.8563 154.019 50.9374 154.178 50.984C154.338 51.0306 154.505 51.0414 154.669 51.0158C154.833 50.9902 154.99 50.9287 155.127 50.8358C155.265 50.7428 155.38 50.6207 155.465 50.4781C155.55 50.3354 155.603 50.1758 155.619 50.0106C155.635 49.8454 155.615 49.6786 155.559 49.5222C155.636 49.8265 155.275 50.4711 154.663 50.6269Z" fill="#75B6EC"/>
<path d="M154.532 47.6776C154.534 46.7349 153.772 45.9685 152.83 45.9659C151.887 45.9632 151.12 46.7253 151.118 47.668C151.115 48.6107 151.877 49.3771 152.82 49.3797C153.763 49.3824 154.529 48.6203 154.532 47.6776Z" fill="#75B6EC"/>
<path opacity="0.15" d="M154.532 47.6776C154.534 46.7349 153.772 45.9685 152.83 45.9659C151.887 45.9632 151.12 46.7253 151.118 47.668C151.115 48.6107 151.877 49.3771 152.82 49.3797C153.763 49.3824 154.529 48.6203 154.532 47.6776Z" fill="white"/>
<path opacity="0.4" d="M153.079 48.7769C152.21 48.9984 151.41 48.4493 151.12 47.6255C151.113 47.8757 151.161 48.1245 151.261 48.3541C151.361 48.5837 151.51 48.7885 151.698 48.954C151.886 49.1194 152.108 49.2415 152.348 49.3115C152.588 49.3815 152.841 49.3977 153.089 49.359C153.336 49.3203 153.572 49.2277 153.779 49.0876C153.987 48.9475 154.161 48.7635 154.289 48.5485C154.418 48.3336 154.497 48.093 154.522 47.8439C154.547 47.5948 154.517 47.3432 154.434 47.107C154.551 47.5661 154.004 48.5415 153.079 48.7769Z" fill="#75B6EC"/>
<path d="M152.489 51.9268C153.431 51.9268 154.196 51.1625 154.196 50.2198C154.196 49.2771 153.431 48.5129 152.489 48.5129C151.546 48.5129 150.782 49.2771 150.782 50.2198C150.782 51.1625 151.546 51.9268 152.489 51.9268Z" fill="#75B6EC"/>
<path opacity="0.2" d="M152.743 51.3225C151.873 51.544 151.074 50.9949 150.783 50.1711C150.775 50.4217 150.823 50.671 150.923 50.9011C151.023 51.1311 151.172 51.3364 151.36 51.5023C151.548 51.6682 151.77 51.7906 152.011 51.8608C152.252 51.9311 152.505 51.9474 152.753 51.9087C153 51.8699 153.237 51.777 153.444 51.6367C153.652 51.4963 153.827 51.3119 153.955 51.0965C154.083 50.8811 154.163 50.6401 154.188 50.3905C154.212 50.141 154.182 49.889 154.098 49.6526C154.215 50.1117 153.668 51.0871 152.743 51.3225Z" fill="black"/>
<path d="M151.833 49.7784C151.853 49.1551 151.363 48.6341 150.74 48.6147C150.116 48.5954 149.595 49.0849 149.576 49.7082C149.557 50.3315 150.046 50.8525 150.67 50.8719C151.293 50.8913 151.814 50.4017 151.833 49.7784Z" fill="#75B6EC"/>
<path opacity="0.3" d="M151.833 49.7784C151.853 49.1551 151.363 48.6341 150.74 48.6147C150.116 48.5954 149.595 49.0849 149.576 49.7082C149.557 50.3315 150.046 50.8525 150.67 50.8719C151.293 50.8913 151.814 50.4017 151.833 49.7784Z" fill="white"/>
<path opacity="0.5" d="M150.873 50.4733C150.297 50.6196 149.769 50.2612 149.577 49.712C149.573 49.8775 149.605 50.0421 149.671 50.1939C149.737 50.3457 149.835 50.4811 149.96 50.5905C150.084 50.6999 150.231 50.7806 150.39 50.8269C150.549 50.8731 150.716 50.8838 150.88 50.8582C151.043 50.8325 151.199 50.7712 151.336 50.6785C151.474 50.5858 151.589 50.4641 151.674 50.3219C151.758 50.1797 151.811 50.0206 151.827 49.8558C151.844 49.691 151.824 49.5247 151.769 49.3685C151.848 49.6728 151.485 50.3174 150.873 50.4733Z" fill="#75B6EC"/>
<path d="M163.864 59.274C163.779 59.274 163.693 59.274 163.606 59.2687C163.594 59.2683 163.582 59.2655 163.57 59.2603C163.559 59.2552 163.549 59.2479 163.54 59.2389C163.532 59.2298 163.525 59.2192 163.521 59.2076C163.517 59.1959 163.515 59.1836 163.515 59.1712C163.515 59.1588 163.518 59.1466 163.523 59.1353C163.528 59.1241 163.536 59.1139 163.545 59.1054C163.554 59.0969 163.565 59.0903 163.576 59.086C163.588 59.0816 163.6 59.0796 163.612 59.08C163.924 59.0921 164.235 59.0807 164.544 59.0461C164.557 59.0446 164.569 59.0455 164.581 59.0488C164.593 59.0521 164.604 59.0577 164.614 59.0653C164.624 59.073 164.632 59.0824 164.638 59.0932C164.644 59.104 164.648 59.1159 164.65 59.1283C164.651 59.1406 164.651 59.1531 164.647 59.1651C164.644 59.177 164.638 59.1882 164.631 59.198C164.623 59.2078 164.614 59.216 164.603 59.2222C164.592 59.2283 164.58 59.2322 164.568 59.2338C164.334 59.2613 164.099 59.2748 163.864 59.274ZM162.663 59.1903H162.65C162.352 59.1511 162.035 59.0991 161.708 59.0355C161.685 59.0289 161.666 59.0139 161.653 58.9936C161.641 58.9733 161.637 58.9491 161.641 58.9257C161.646 58.9024 161.659 58.8815 161.678 58.8673C161.697 58.8531 161.721 58.8465 161.744 58.8489C162.062 58.9125 162.381 58.9645 162.674 59.0016C162.698 59.0051 162.719 59.0173 162.734 59.0359C162.749 59.0544 162.757 59.078 162.755 59.1018C162.754 59.1257 162.744 59.1481 162.726 59.1647C162.709 59.1812 162.686 59.1908 162.663 59.1913V59.1903ZM165.469 58.9995C165.451 58.9995 165.433 58.9942 165.418 58.9842C165.402 58.9742 165.39 58.96 165.383 58.9433C165.378 58.9319 165.375 58.9197 165.375 58.9072C165.374 58.8948 165.376 58.8824 165.381 58.8708C165.385 58.8592 165.392 58.8485 165.401 58.8395C165.409 58.8305 165.419 58.8232 165.431 58.8182C165.52 58.7793 165.605 58.7332 165.686 58.6803C165.762 58.6335 165.834 58.5788 165.898 58.5171C165.98 58.4407 166.052 58.3537 166.11 58.2584C166.116 58.2454 166.124 58.2339 166.134 58.2245C166.145 58.215 166.157 58.208 166.17 58.2039C166.184 58.1998 166.198 58.1987 166.212 58.2007C166.226 58.2027 166.239 58.2077 166.251 58.2154C166.262 58.223 166.272 58.2332 166.28 58.2451C166.287 58.2571 166.292 58.2705 166.293 58.2844C166.295 58.2983 166.293 58.3124 166.289 58.3257C166.284 58.339 166.277 58.3511 166.267 58.3612C166.199 58.4704 166.117 58.5702 166.023 58.6581C165.951 58.7282 165.871 58.7904 165.786 58.8436C165.697 58.9013 165.604 58.952 165.507 58.9952C165.495 58.9981 165.483 58.9988 165.471 58.9973L165.469 58.9995ZM160.804 58.8288C160.796 58.8298 160.788 58.8298 160.781 58.8288C160.483 58.7545 160.173 58.6708 159.861 58.5796C159.838 58.5722 159.817 58.5558 159.805 58.5339C159.793 58.5119 159.79 58.4861 159.797 58.4619C159.8 58.4499 159.806 58.4387 159.814 58.4289C159.822 58.4191 159.831 58.411 159.842 58.405C159.853 58.399 159.865 58.3952 159.878 58.3939C159.89 58.3925 159.902 58.3937 159.914 58.3973C160.224 58.4874 160.53 58.5711 160.826 58.6453C160.838 58.6482 160.85 58.6534 160.86 58.6608C160.87 58.6681 160.879 58.6773 160.885 58.688C160.892 58.6986 160.896 58.7105 160.898 58.7228C160.9 58.7351 160.899 58.7477 160.896 58.7598C160.89 58.78 160.878 58.7976 160.861 58.8101C160.844 58.8226 160.824 58.8291 160.803 58.8288H160.804ZM158.983 58.2987C158.973 58.3002 158.963 58.3002 158.953 58.2987C158.659 58.2022 158.357 58.0972 158.054 57.987C158.03 57.9783 158.011 57.9608 158 57.9382C157.99 57.9156 157.988 57.8897 157.997 57.8661C158.001 57.8542 158.007 57.8434 158.016 57.8341C158.024 57.8247 158.034 57.8172 158.045 57.8119C158.057 57.8065 158.069 57.8035 158.082 57.803C158.094 57.8025 158.107 57.8045 158.118 57.8088C158.42 57.9149 158.721 58.0209 159.012 58.1184C159.036 58.1264 159.056 58.1435 159.067 58.1659C159.078 58.1883 159.08 58.2143 159.073 58.2382C159.066 58.2564 159.053 58.2719 159.037 58.2826C159.02 58.2932 159.001 58.2985 158.981 58.2976L158.983 58.2987ZM157.198 57.654C157.186 57.6541 157.175 57.6516 157.164 57.6466C156.875 57.5342 156.578 57.4134 156.283 57.2893C156.272 57.2845 156.261 57.2775 156.253 57.2687C156.244 57.2598 156.237 57.2494 156.232 57.2379C156.227 57.2263 156.225 57.214 156.225 57.2015C156.225 57.1891 156.228 57.1768 156.232 57.1653C156.237 57.1538 156.244 57.1434 156.253 57.1346C156.262 57.1258 156.272 57.1189 156.284 57.1142C156.295 57.1094 156.308 57.107 156.32 57.1071C156.333 57.1071 156.345 57.1096 156.356 57.1144C156.65 57.2384 156.946 57.3572 157.233 57.4706C157.257 57.4799 157.275 57.498 157.286 57.521C157.296 57.544 157.296 57.5701 157.287 57.5936C157.28 57.6114 157.267 57.6265 157.251 57.6371C157.235 57.6477 157.216 57.6532 157.197 57.653L157.198 57.654ZM166.389 57.5247C166.365 57.5247 166.341 57.5154 166.324 57.4987C166.306 57.4819 166.295 57.459 166.294 57.4346C166.27 57.1292 166.197 56.8298 166.076 56.5482C166.072 56.5367 166.069 56.5243 166.07 56.5119C166.07 56.4994 166.072 56.4872 166.077 56.4757C166.082 56.4643 166.089 56.4539 166.098 56.4453C166.107 56.4366 166.118 56.4298 166.129 56.4253C166.141 56.4204 166.153 56.418 166.166 56.418C166.178 56.418 166.19 56.4205 166.202 56.4253C166.213 56.4302 166.224 56.4373 166.232 56.4462C166.241 56.4551 166.248 56.4656 166.252 56.4772C166.381 56.7782 166.459 57.0985 166.484 57.425C166.484 57.4375 166.482 57.45 166.478 57.4618C166.474 57.4736 166.468 57.4844 166.459 57.4937C166.451 57.503 166.441 57.5105 166.429 57.5158C166.418 57.5211 166.406 57.5242 166.393 57.5247H166.389ZM155.453 56.9193C155.44 56.9194 155.426 56.9168 155.414 56.9119C155.13 56.7847 154.839 56.6521 154.55 56.5164C154.527 56.5058 154.509 56.4865 154.501 56.4628C154.492 56.4391 154.494 56.4131 154.504 56.3903C154.515 56.3675 154.534 56.3499 154.558 56.3414C154.582 56.3328 154.608 56.334 154.63 56.3447C154.919 56.4793 155.208 56.6119 155.491 56.738C155.511 56.7465 155.528 56.7618 155.538 56.7812C155.548 56.8006 155.551 56.823 155.547 56.8444C155.542 56.8659 155.531 56.8851 155.513 56.8987C155.496 56.9124 155.475 56.9197 155.453 56.9193ZM153.736 56.1136C153.721 56.1136 153.706 56.1103 153.693 56.104C153.519 56.0178 153.342 55.9301 153.163 55.8411C153.057 55.787 152.951 55.7351 152.845 55.6746C152.823 55.6628 152.806 55.6427 152.799 55.6186C152.791 55.5946 152.794 55.5686 152.806 55.5463C152.818 55.5241 152.838 55.5075 152.862 55.5002C152.886 55.4928 152.912 55.4953 152.934 55.5071C153.04 55.5633 153.146 55.6131 153.252 55.6715C153.428 55.7605 153.603 55.8482 153.777 55.9344C153.788 55.9397 153.798 55.9472 153.807 55.9565C153.815 55.9657 153.821 55.9766 153.825 55.9883C153.829 56.0001 153.831 56.0125 153.83 56.0249C153.829 56.0373 153.826 56.0494 153.82 56.0605C153.812 56.0773 153.799 56.0912 153.783 56.1007C153.767 56.1101 153.749 56.1146 153.73 56.1136H153.736ZM165.735 55.7648C165.719 55.7645 165.703 55.7602 165.689 55.7523C165.675 55.7443 165.663 55.7329 165.654 55.7192C165.503 55.4721 165.324 55.2124 165.124 54.9463C165.117 54.9364 165.111 54.9251 165.108 54.9131C165.105 54.9011 165.104 54.8886 165.106 54.8763C165.107 54.8639 165.112 54.8521 165.118 54.8414C165.124 54.8306 165.132 54.8212 165.142 54.8137C165.162 54.7984 165.188 54.7918 165.213 54.7951C165.238 54.7985 165.261 54.8117 165.276 54.8318C165.482 55.1021 165.665 55.3619 165.82 55.6195C165.833 55.641 165.837 55.6668 165.831 55.6912C165.825 55.7157 165.809 55.7367 165.788 55.7499C165.771 55.7611 165.75 55.7663 165.73 55.7648H165.735ZM152.052 55.2399C152.036 55.2402 152.02 55.2362 152.006 55.2283C151.724 55.0749 151.446 54.9233 151.173 54.7735C151.162 54.7674 151.153 54.7593 151.145 54.7495C151.137 54.7398 151.131 54.7286 151.128 54.7166C151.125 54.7047 151.124 54.6921 151.125 54.6798C151.127 54.6674 151.13 54.6555 151.136 54.6446C151.143 54.6338 151.151 54.6242 151.16 54.6165C151.17 54.6088 151.181 54.6031 151.193 54.5997C151.205 54.5963 151.218 54.5953 151.23 54.5967C151.242 54.5981 151.254 54.602 151.265 54.6081C151.534 54.7565 151.811 54.9077 152.096 55.0618C152.108 55.0676 152.117 55.0756 152.125 55.0852C152.133 55.0948 152.139 55.1059 152.143 55.1178C152.147 55.1297 152.148 55.1423 152.147 55.1547C152.145 55.1671 152.142 55.1791 152.136 55.1901C152.127 55.206 152.114 55.2191 152.098 55.2279C152.083 55.2368 152.065 55.2409 152.047 55.2399H152.052ZM150.395 54.3165C150.378 54.3164 150.362 54.312 150.347 54.3038C150.075 54.1437 149.8 53.9794 149.532 53.815C149.51 53.802 149.495 53.7809 149.489 53.7566C149.483 53.7322 149.487 53.7065 149.501 53.6852C149.514 53.6638 149.535 53.6485 149.559 53.6426C149.583 53.6367 149.609 53.6408 149.63 53.6539C149.898 53.8171 150.171 53.9804 150.443 54.1394C150.464 54.1523 150.48 54.1732 150.486 54.1976C150.493 54.2221 150.489 54.2481 150.476 54.2699C150.468 54.2849 150.455 54.2972 150.44 54.3054C150.424 54.3137 150.407 54.3175 150.39 54.3165H150.395ZM164.595 54.2508C164.582 54.2505 164.569 54.2474 164.556 54.2418C164.544 54.2361 164.533 54.228 164.524 54.2179C164.394 54.0695 164.255 53.9157 164.11 53.762C164.037 53.6836 163.961 53.604 163.884 53.5245C163.866 53.5065 163.857 53.4823 163.857 53.4573C163.858 53.4322 163.868 53.4084 163.886 53.3909C163.904 53.3735 163.928 53.3639 163.953 53.3643C163.978 53.3647 164.002 53.3751 164.02 53.3931C164.098 53.4726 164.173 53.5521 164.249 53.6316C164.394 53.7875 164.535 53.9423 164.667 54.0928C164.679 54.1068 164.686 54.1237 164.689 54.1417C164.691 54.1596 164.688 54.1779 164.681 54.1944C164.673 54.2109 164.661 54.2249 164.646 54.2349C164.631 54.2448 164.613 54.2504 164.595 54.2508ZM148.774 53.3273C148.756 53.3272 148.738 53.322 148.723 53.3125C148.457 53.1439 148.193 52.969 147.926 52.7951C147.915 52.7881 147.906 52.7792 147.899 52.7688C147.893 52.7584 147.888 52.7467 147.885 52.7345C147.883 52.7222 147.883 52.7096 147.885 52.6974C147.888 52.6851 147.893 52.6735 147.9 52.6631C147.907 52.6527 147.916 52.6438 147.926 52.6369C147.936 52.63 147.948 52.6252 147.96 52.6228C147.973 52.6204 147.985 52.6204 147.997 52.6229C148.01 52.6253 148.021 52.6302 148.032 52.6371C148.295 52.811 148.562 52.9838 148.827 53.1524C148.844 53.1636 148.857 53.18 148.864 53.1991C148.871 53.2182 148.871 53.239 148.866 53.2586C148.86 53.2781 148.848 53.2953 148.832 53.3077C148.816 53.3201 148.796 53.3269 148.776 53.3273H148.774ZM163.274 52.8873C163.262 52.8875 163.25 52.8852 163.239 52.8806C163.228 52.8761 163.218 52.8693 163.21 52.8608C162.988 52.6488 162.754 52.4368 162.512 52.2247C162.496 52.2073 162.487 52.1845 162.486 52.1608C162.486 52.137 162.495 52.114 162.51 52.0962C162.526 52.0785 162.548 52.0672 162.572 52.0647C162.595 52.0622 162.619 52.0686 162.638 52.0826C162.881 52.2947 163.117 52.5141 163.34 52.7262C163.349 52.735 163.356 52.7454 163.361 52.7568C163.365 52.7683 163.368 52.7806 163.368 52.793C163.368 52.8054 163.365 52.8177 163.361 52.8291C163.356 52.8406 163.349 52.851 163.34 52.8598C163.331 52.8689 163.32 52.8761 163.308 52.8809C163.297 52.8856 163.284 52.8878 163.271 52.8873H163.274ZM147.192 52.2788C147.173 52.279 147.154 52.2731 147.138 52.2618C146.876 52.0816 146.615 51.8971 146.361 51.7137C146.349 51.707 146.339 51.698 146.331 51.6872C146.323 51.6764 146.318 51.664 146.315 51.651C146.312 51.6379 146.312 51.6244 146.315 51.6113C146.318 51.5982 146.323 51.5859 146.331 51.575C146.339 51.5642 146.349 51.5552 146.361 51.5485C146.372 51.5418 146.385 51.5376 146.398 51.5361C146.412 51.5347 146.425 51.5361 146.438 51.5402C146.45 51.5443 146.462 51.551 146.472 51.56C146.724 51.7423 146.985 51.9257 147.245 52.106C147.266 52.1203 147.28 52.1423 147.285 52.1672C147.289 52.192 147.284 52.2177 147.269 52.2385C147.26 52.2515 147.248 52.262 147.234 52.269C147.22 52.2761 147.205 52.2794 147.189 52.2788H147.192ZM145.653 51.1687C145.631 51.1698 145.611 51.1639 145.593 51.1518C145.338 50.9588 145.085 50.7627 144.84 50.5697C144.829 50.5624 144.82 50.5529 144.813 50.5417C144.806 50.5306 144.801 50.518 144.799 50.505C144.797 50.4919 144.798 50.4785 144.801 50.4657C144.804 50.4529 144.81 50.4409 144.819 50.4306C144.827 50.4203 144.837 50.4118 144.849 50.4056C144.861 50.3995 144.874 50.3959 144.887 50.395C144.9 50.3941 144.913 50.396 144.926 50.4005C144.938 50.4051 144.95 50.4121 144.959 50.4213C145.202 50.6132 145.453 50.8083 145.708 51.0002C145.724 51.012 145.736 51.0286 145.742 51.0478C145.748 51.0669 145.748 51.0875 145.742 51.1065C145.735 51.1256 145.723 51.1421 145.707 51.1536C145.69 51.1652 145.67 51.1712 145.65 51.1709L145.653 51.1687ZM144.163 49.9855C144.14 49.9856 144.119 49.9777 144.101 49.9633C143.854 49.7512 143.612 49.5477 143.38 49.3431C143.362 49.3263 143.35 49.3027 143.348 49.2775C143.347 49.2522 143.355 49.2274 143.372 49.2084C143.38 49.1991 143.39 49.1916 143.402 49.1862C143.413 49.1808 143.425 49.1776 143.437 49.1769C143.45 49.1762 143.462 49.178 143.474 49.1821C143.486 49.1863 143.496 49.1927 143.506 49.201C143.736 49.4046 143.977 49.6124 144.223 49.818C144.239 49.8304 144.249 49.8471 144.255 49.866C144.26 49.8848 144.259 49.9048 144.253 49.9232C144.246 49.9416 144.234 49.9575 144.218 49.9687C144.202 49.9798 144.182 49.9857 144.163 49.9855ZM142.743 48.7303C142.719 48.7298 142.696 48.7203 142.678 48.7038C142.441 48.479 142.213 48.2542 142 48.0348C141.982 48.0169 141.972 47.9927 141.972 47.9674C141.972 47.9422 141.982 47.918 142 47.9001C142.018 47.8826 142.042 47.8727 142.067 47.8727C142.093 47.8727 142.117 47.8826 142.135 47.9001C142.347 48.1175 142.573 48.3412 142.808 48.5638C142.826 48.5818 142.835 48.606 142.835 48.6311C142.835 48.6563 142.826 48.6804 142.808 48.6985C142.791 48.7169 142.768 48.7283 142.743 48.7303ZM141.423 47.3668C141.41 47.367 141.397 47.3643 141.384 47.3588C141.372 47.3533 141.361 47.3452 141.352 47.335C141.132 47.0838 140.928 46.8357 140.745 46.5929C140.738 46.5732 140.737 46.5517 140.744 46.5317C140.75 46.5118 140.762 46.4944 140.78 46.4823C140.797 46.4703 140.817 46.4642 140.838 46.465C140.859 46.4658 140.879 46.4735 140.895 46.4869C141.076 46.7222 141.277 46.9671 141.494 47.2152C141.506 47.2289 141.514 47.2457 141.517 47.2637C141.52 47.2817 141.517 47.3001 141.51 47.3167C141.502 47.3333 141.49 47.3473 141.475 47.3572C141.459 47.367 141.442 47.3722 141.423 47.3721V47.3668ZM140.28 45.8507C140.264 45.8509 140.248 45.8469 140.234 45.8391C140.22 45.8313 140.208 45.82 140.2 45.8062C140.029 45.534 139.88 45.2482 139.756 44.9517C139.746 44.9285 139.746 44.9024 139.756 44.8793C139.765 44.8561 139.784 44.8377 139.807 44.8282C139.83 44.8186 139.856 44.8186 139.879 44.8283C139.903 44.8379 139.921 44.8564 139.931 44.8796C140.052 45.1664 140.195 45.443 140.361 45.7065C140.368 45.7171 140.372 45.7289 140.374 45.7412C140.376 45.7535 140.376 45.766 140.373 45.7781C140.37 45.7903 140.365 45.8017 140.357 45.8118C140.35 45.8219 140.341 45.8304 140.33 45.8369C140.315 45.846 140.298 45.8508 140.28 45.8507ZM139.613 44.0961C139.588 44.0961 139.565 44.0868 139.547 44.07C139.53 44.0532 139.519 44.0302 139.518 44.006V43.9943C139.518 43.9551 139.518 43.9158 139.518 43.8787C139.512 43.5839 139.59 43.2934 139.743 43.0412C139.757 43.0198 139.779 43.0049 139.804 42.9997C139.829 42.9946 139.855 42.9995 139.877 43.0136C139.898 43.0277 139.913 43.0496 139.918 43.0747C139.923 43.0997 139.918 43.1258 139.904 43.1472C139.77 43.3686 139.701 43.624 139.708 43.883C139.708 43.9169 139.708 43.9519 139.708 43.989V44.0038C139.709 44.0163 139.707 44.0288 139.702 44.0405C139.698 44.0523 139.691 44.063 139.683 44.0722C139.674 44.0814 139.664 44.0888 139.653 44.094C139.642 44.0992 139.629 44.102 139.617 44.1024L139.613 44.0961ZM147.034 43.3115C147.024 43.3131 147.014 43.3131 147.004 43.3115C146.698 43.2055 146.395 43.1154 146.102 43.0295C146.09 43.026 146.079 43.0202 146.069 43.0125C146.06 43.0047 146.052 42.9951 146.046 42.9842C146.04 42.9733 146.036 42.9614 146.035 42.9491C146.033 42.9367 146.034 42.9243 146.038 42.9124C146.041 42.9005 146.047 42.8894 146.055 42.8797C146.063 42.87 146.072 42.862 146.083 42.856C146.094 42.8501 146.106 42.8463 146.118 42.845C146.131 42.8436 146.143 42.8447 146.155 42.8482C146.45 42.9341 146.756 43.0295 147.064 43.1313C147.076 43.1351 147.087 43.1413 147.096 43.1494C147.105 43.1575 147.113 43.1674 147.119 43.1786C147.125 43.1897 147.128 43.2019 147.129 43.2143C147.13 43.2268 147.128 43.2393 147.124 43.2511C147.118 43.2698 147.106 43.286 147.091 43.2977C147.075 43.3093 147.056 43.3156 147.036 43.3158L147.034 43.3115ZM145.214 42.7814H145.19C144.872 42.7019 144.565 42.6319 144.269 42.5694C144.245 42.5645 144.225 42.5508 144.211 42.5311C144.197 42.5114 144.191 42.4872 144.195 42.4634C144.2 42.4399 144.214 42.4193 144.233 42.4055C144.253 42.3918 144.277 42.3859 144.301 42.3891C144.599 42.4475 144.911 42.5185 145.231 42.6012C145.254 42.6061 145.274 42.6194 145.288 42.6386C145.301 42.6577 145.307 42.6813 145.305 42.7046C145.302 42.728 145.29 42.7495 145.273 42.7649C145.255 42.7802 145.232 42.7884 145.208 42.7878L145.214 42.7814ZM140.549 42.6001C140.53 42.6 140.512 42.5946 140.497 42.5847C140.482 42.5747 140.469 42.5606 140.462 42.5439C140.452 42.5209 140.451 42.4948 140.46 42.4714C140.47 42.4479 140.488 42.4291 140.511 42.4188C140.812 42.2941 141.13 42.2141 141.454 42.1813C141.467 42.1796 141.479 42.1804 141.492 42.1836C141.504 42.1869 141.515 42.1927 141.525 42.2005C141.535 42.2083 141.543 42.2181 141.549 42.2292C141.555 42.2403 141.559 42.2525 141.56 42.2651C141.562 42.2775 141.561 42.2901 141.558 42.3022C141.554 42.3143 141.549 42.3256 141.541 42.3354C141.533 42.3453 141.524 42.3535 141.513 42.3597C141.502 42.3658 141.49 42.3697 141.477 42.3711C141.172 42.4016 140.872 42.4766 140.588 42.5938C140.575 42.6001 140.56 42.6034 140.545 42.6033L140.549 42.6001ZM143.357 42.4188H143.344C143.015 42.3754 142.7 42.3489 142.409 42.3383C142.396 42.3391 142.383 42.3372 142.37 42.3326C142.358 42.3281 142.346 42.3209 142.337 42.3116C142.327 42.3024 142.32 42.2912 142.315 42.2788C142.31 42.2664 142.307 42.2532 142.308 42.2399C142.308 42.2265 142.311 42.2134 142.317 42.2014C142.323 42.1894 142.331 42.1788 142.341 42.1702C142.352 42.1616 142.363 42.1552 142.376 42.1515C142.389 42.1477 142.402 42.1467 142.416 42.1485C142.713 42.1591 143.033 42.1866 143.37 42.2301C143.395 42.2333 143.418 42.2462 143.433 42.2661C143.449 42.2859 143.456 42.3111 143.453 42.3361C143.45 42.3604 143.439 42.3829 143.421 42.3989C143.402 42.4149 143.378 42.4232 143.354 42.422L143.357 42.4188Z" fill="white"/>
<path d="M148.992 65.4339C148.825 65.4344 148.66 65.4057 148.503 65.3491C148.48 65.3405 148.46 65.3229 148.45 65.3001C148.439 65.2774 148.438 65.2513 148.447 65.2277C148.455 65.2041 148.473 65.1848 148.495 65.1742C148.518 65.1635 148.544 65.1624 148.568 65.171C148.704 65.22 148.847 65.2448 148.992 65.2441C149.143 65.2429 149.293 65.2204 149.438 65.1773L149.467 65.2674L149.487 65.3607C149.326 65.4078 149.16 65.4324 148.992 65.4339ZM150.31 64.9356C150.295 64.9357 150.28 64.9321 150.266 64.925C150.253 64.918 150.241 64.9078 150.232 64.8953C150.218 64.8747 150.212 64.8493 150.216 64.8245C150.22 64.7996 150.234 64.7775 150.255 64.7628C150.461 64.6157 150.657 64.4541 150.84 64.2793C150.881 64.2411 150.923 64.2009 150.965 64.1595C150.983 64.1419 151.007 64.1322 151.032 64.1325C151.058 64.1328 151.082 64.1431 151.099 64.1611C151.117 64.1791 151.126 64.2033 151.126 64.2285C151.126 64.2536 151.116 64.2776 151.098 64.2952L150.97 64.4182C150.78 64.5989 150.577 64.7662 150.364 64.9186C150.348 64.9295 150.329 64.9351 150.31 64.9345V64.9356ZM147.803 64.7755C147.789 64.7758 147.774 64.7724 147.761 64.7658C147.747 64.7591 147.736 64.7494 147.727 64.7373C147.541 64.4721 147.393 64.1814 147.289 63.8743C147.281 63.8506 147.282 63.8244 147.293 63.8015C147.303 63.7787 147.323 63.761 147.347 63.7524C147.358 63.7482 147.371 63.7464 147.383 63.7471C147.396 63.7478 147.408 63.7509 147.419 63.7563C147.43 63.7617 147.44 63.7693 147.449 63.7787C147.457 63.788 147.463 63.7989 147.467 63.8107C147.566 64.1018 147.705 64.3774 147.881 64.6292C147.888 64.6392 147.894 64.6506 147.897 64.6627C147.9 64.6748 147.9 64.6873 147.898 64.6996C147.897 64.712 147.892 64.7238 147.886 64.7345C147.879 64.7451 147.871 64.7544 147.861 64.7617C147.844 64.7724 147.824 64.7772 147.803 64.7755ZM151.669 63.622C151.651 63.6217 151.634 63.6163 151.619 63.6065C151.604 63.5967 151.592 63.5829 151.584 63.5666C151.577 63.5504 151.574 63.5323 151.576 63.5146C151.578 63.4968 151.586 63.48 151.597 63.4661C151.786 63.2393 151.979 62.988 152.172 62.724C152.187 62.7074 152.208 62.6969 152.23 62.6944C152.253 62.6919 152.276 62.6977 152.294 62.7105C152.313 62.7234 152.326 62.7426 152.332 62.7645C152.338 62.7864 152.335 62.8097 152.325 62.83C152.13 63.1014 151.934 63.3601 151.742 63.587C151.733 63.5979 151.722 63.6067 151.71 63.6128C151.697 63.6188 151.683 63.622 151.669 63.622ZM147.136 63.0177C147.113 63.0176 147.092 63.0098 147.075 62.9957C147.058 62.9816 147.046 62.962 147.042 62.9403C146.986 62.6487 146.936 62.3307 146.909 61.9924C146.907 61.9801 146.909 61.9676 146.912 61.9557C146.916 61.9438 146.922 61.9327 146.93 61.9231C146.938 61.9135 146.948 61.9055 146.959 61.8997C146.97 61.8939 146.982 61.8903 146.994 61.8891C147.006 61.8879 147.019 61.8892 147.031 61.8928C147.043 61.8965 147.054 61.9024 147.063 61.9103C147.073 61.9183 147.081 61.928 147.087 61.939C147.093 61.95 147.096 61.962 147.097 61.9744C147.129 62.3063 147.174 62.619 147.229 62.9042C147.232 62.9281 147.226 62.9524 147.212 62.972C147.198 62.9917 147.177 63.0054 147.154 63.0102L147.136 63.0177ZM152.782 62.0868C152.764 62.0872 152.746 62.082 152.73 62.072C152.709 62.0581 152.695 62.0365 152.689 62.0119C152.684 61.9873 152.689 61.9616 152.703 61.9405C152.867 61.686 153.034 61.4157 153.198 61.1369C153.204 61.1261 153.212 61.1167 153.222 61.1092C153.232 61.1017 153.243 61.0962 153.255 61.093C153.267 61.0899 153.28 61.0891 153.292 61.0908C153.305 61.0925 153.316 61.0966 153.327 61.1029C153.349 61.1157 153.365 61.1367 153.371 61.1611C153.377 61.1856 153.374 61.2115 153.361 61.2333C153.196 61.5143 153.027 61.7868 152.862 62.0433C152.853 62.0567 152.842 62.0678 152.828 62.0754C152.814 62.083 152.798 62.0869 152.782 62.0868ZM146.944 61.1326C146.919 61.1326 146.895 61.123 146.878 61.1057C146.86 61.0885 146.85 61.065 146.849 61.0404C146.849 60.857 146.841 60.6661 146.841 60.471C146.841 60.3449 146.841 60.2177 146.841 60.0883C146.842 60.0633 146.852 60.0395 146.87 60.0221C146.888 60.0047 146.912 59.995 146.937 59.995C146.95 59.9951 146.962 59.9978 146.974 60.0027C146.985 60.0076 146.995 60.0148 147.004 60.0238C147.013 60.0327 147.02 60.0434 147.024 60.055C147.029 60.0666 147.031 60.079 147.031 60.0915C147.031 60.2198 147.031 60.3459 147.031 60.471C147.031 60.664 147.031 60.8538 147.039 61.0351C147.04 61.0476 147.037 61.06 147.033 61.0717C147.029 61.0834 147.022 61.094 147.013 61.1031C147.005 61.1122 146.994 61.1195 146.983 61.1245C146.972 61.1296 146.959 61.1323 146.947 61.1326H146.944ZM153.746 60.4541C153.73 60.4544 153.715 60.4503 153.701 60.4424C153.69 60.4366 153.681 60.4287 153.673 60.4191C153.665 60.4094 153.659 60.3983 153.655 60.3863C153.652 60.3744 153.651 60.3618 153.652 60.3494C153.653 60.337 153.657 60.325 153.663 60.3141C153.81 60.0438 153.958 59.7628 154.102 59.4766C154.115 59.4563 154.135 59.4414 154.158 59.435C154.181 59.4285 154.205 59.4309 154.226 59.4417C154.248 59.4525 154.264 59.4709 154.273 59.4932C154.281 59.5156 154.281 59.5403 154.272 59.5624C154.126 59.8498 153.977 60.1328 153.83 60.4043C153.822 60.4194 153.81 60.432 153.795 60.4408C153.78 60.4496 153.763 60.4542 153.746 60.4541ZM146.977 59.237H146.971C146.946 59.2353 146.923 59.2238 146.906 59.205C146.889 59.1861 146.881 59.1614 146.882 59.1362C146.9 58.8298 146.925 58.5107 146.954 58.1884C146.957 58.163 146.97 58.1396 146.989 58.1235C147.009 58.1074 147.035 58.0999 147.06 58.1025C147.073 58.1037 147.085 58.1074 147.096 58.1134C147.108 58.1194 147.118 58.1276 147.126 58.1375C147.134 58.1474 147.139 58.1587 147.143 58.1709C147.147 58.1831 147.148 58.1959 147.146 58.2086C147.116 58.5266 147.092 58.8447 147.074 59.1511C147.072 59.1752 147.061 59.1975 147.042 59.2135C147.024 59.2295 147.001 59.2379 146.977 59.237ZM154.61 58.763C154.596 58.7629 154.582 58.7597 154.569 58.7535C154.546 58.7425 154.529 58.7231 154.521 58.6995C154.512 58.6759 154.514 58.65 154.524 58.6273C154.657 58.3474 154.79 58.058 154.92 57.7675C154.925 57.7562 154.932 57.7459 154.941 57.7374C154.95 57.7289 154.961 57.7222 154.972 57.7177C154.984 57.7133 154.996 57.7112 155.009 57.7116C155.021 57.7119 155.033 57.7147 155.045 57.7198C155.056 57.7249 155.066 57.7321 155.075 57.7412C155.083 57.7502 155.09 57.7609 155.094 57.7725C155.099 57.7841 155.101 57.7965 155.101 57.8089C155.1 57.8213 155.098 57.8336 155.092 57.8449C154.963 58.1365 154.828 58.427 154.696 58.709C154.688 58.7259 154.675 58.74 154.658 58.7497C154.642 58.7593 154.624 58.7639 154.605 58.763H154.61ZM155.383 57.0307C155.37 57.0308 155.358 57.0283 155.346 57.0232C155.323 57.0134 155.304 56.9949 155.295 56.9717C155.285 56.9485 155.285 56.9224 155.295 56.8992C155.416 56.6119 155.537 56.3171 155.653 56.0235C155.663 56.0001 155.681 55.9812 155.704 55.9711C155.727 55.961 155.753 55.9604 155.776 55.9694C155.8 55.979 155.818 55.9974 155.828 56.0206C155.838 56.0438 155.838 56.0699 155.829 56.0934C155.713 56.3882 155.592 56.684 155.47 56.9724C155.463 56.9906 155.45 57.0061 155.433 57.0166C155.417 57.0271 155.397 57.032 155.378 57.0307H155.383ZM156.082 55.2675C156.071 55.2691 156.06 55.2691 156.049 55.2675C156.025 55.2585 156.006 55.2405 155.995 55.2175C155.985 55.1945 155.984 55.1683 155.993 55.1446C156.099 54.8509 156.212 54.5519 156.316 54.255C156.326 54.2333 156.344 54.2161 156.365 54.2067C156.387 54.1974 156.412 54.1967 156.435 54.2046C156.457 54.2126 156.476 54.2288 156.487 54.2499C156.498 54.271 156.501 54.2955 156.495 54.3186C156.389 54.6155 156.283 54.9166 156.171 55.2113C156.163 55.2294 156.149 55.2445 156.133 55.2546C156.116 55.2647 156.096 55.2692 156.076 55.2675H156.082ZM156.718 53.479C156.703 53.4793 156.688 53.476 156.674 53.4693C156.661 53.4626 156.649 53.4527 156.64 53.4405C156.631 53.4283 156.626 53.4142 156.623 53.3993C156.621 53.3844 156.623 53.3691 156.628 53.3549C156.726 53.0581 156.825 52.7548 156.918 52.4537C156.922 52.4418 156.928 52.4306 156.936 52.421C156.944 52.4114 156.954 52.4034 156.965 52.3976C156.976 52.3918 156.988 52.3882 157.001 52.3871C157.013 52.386 157.026 52.3874 157.038 52.3912C157.05 52.3949 157.061 52.401 157.07 52.409C157.08 52.417 157.088 52.4268 157.093 52.4378C157.099 52.4488 157.103 52.4609 157.104 52.4733C157.105 52.4856 157.103 52.4981 157.099 52.5099C157.005 52.8132 156.906 53.1174 156.808 53.4143C156.802 53.436 156.789 53.455 156.77 53.4679C156.752 53.4807 156.73 53.4865 156.707 53.4843L156.718 53.479ZM157.284 51.6692C157.275 51.6707 157.266 51.6707 157.257 51.6692C157.233 51.662 157.213 51.6457 157.201 51.6236C157.189 51.6016 157.186 51.5757 157.193 51.5515C157.282 51.2483 157.369 50.9419 157.451 50.6418C157.455 50.6298 157.46 50.6184 157.468 50.6085C157.475 50.5986 157.485 50.5903 157.496 50.584C157.507 50.5778 157.519 50.5738 157.531 50.5723C157.543 50.5707 157.556 50.5717 157.568 50.575C157.592 50.582 157.612 50.5981 157.625 50.6199C157.637 50.6417 157.64 50.6675 157.634 50.6917C157.551 50.9938 157.464 51.3002 157.375 51.6045C157.368 51.6254 157.354 51.6432 157.336 51.655C157.317 51.6667 157.295 51.6718 157.273 51.6692H157.284ZM157.784 49.8414H157.761C157.749 49.8384 157.738 49.8331 157.728 49.8257C157.718 49.8183 157.709 49.809 157.703 49.7984C157.697 49.7877 157.693 49.7759 157.691 49.7636C157.689 49.7513 157.69 49.7389 157.693 49.7269C157.725 49.6018 157.756 49.4777 157.786 49.3526C157.832 49.1703 157.875 48.9879 157.919 48.8077C157.922 48.7956 157.927 48.7841 157.934 48.774C157.942 48.7639 157.951 48.7554 157.961 48.7488C157.972 48.7423 157.984 48.7379 157.996 48.7359C158.008 48.7339 158.021 48.7343 158.033 48.7372C158.045 48.74 158.056 48.7452 158.067 48.7525C158.077 48.7598 158.085 48.769 158.092 48.7796C158.098 48.7901 158.103 48.8019 158.105 48.8142C158.107 48.8265 158.106 48.839 158.103 48.8511C158.06 49.0324 158.016 49.2148 157.971 49.3982C157.94 49.5233 157.908 49.6484 157.877 49.7735C157.87 49.7952 157.856 49.8139 157.838 49.8263C157.819 49.8387 157.796 49.8441 157.774 49.8414H157.784ZM158.22 47.9966H158.2C158.175 47.991 158.154 47.976 158.14 47.9547C158.127 47.9335 158.122 47.9078 158.128 47.8832C158.195 47.5715 158.259 47.2598 158.319 46.9566C158.321 46.9444 158.326 46.9328 158.333 46.9224C158.339 46.9121 158.348 46.9032 158.359 46.8962C158.369 46.8893 158.38 46.8844 158.393 46.882C158.405 46.8795 158.417 46.8794 158.429 46.8818C158.442 46.8842 158.453 46.8889 158.464 46.8958C158.474 46.9026 158.483 46.9114 158.49 46.9217C158.497 46.932 158.502 46.9436 158.504 46.9557C158.506 46.9679 158.507 46.9804 158.504 46.9926C158.445 47.2979 158.38 47.6107 158.313 47.9235C158.308 47.9463 158.295 47.9664 158.275 47.9799C158.256 47.9933 158.233 47.9993 158.209 47.9966H158.22ZM158.583 46.1349H158.567C158.543 46.1305 158.521 46.117 158.507 46.0973C158.493 46.0776 158.486 46.0531 158.489 46.0289C158.543 45.7172 158.595 45.4023 158.64 45.0959C158.644 45.0713 158.657 45.0491 158.677 45.034C158.696 45.019 158.721 45.0123 158.746 45.0153C158.77 45.0195 158.792 45.0328 158.807 45.0525C158.822 45.0722 158.828 45.0968 158.825 45.1213C158.78 45.4298 158.729 45.7458 158.675 46.0596C158.67 46.0826 158.657 46.103 158.638 46.1169C158.619 46.1308 158.595 46.1372 158.572 46.1349H158.583ZM158.851 44.2604H158.839C158.814 44.2573 158.792 44.2443 158.776 44.2245C158.761 44.2046 158.754 44.1794 158.757 44.1544C158.796 43.8364 158.83 43.5183 158.863 43.214C158.866 43.1897 158.879 43.1677 158.898 43.1525C158.917 43.1373 158.942 43.1301 158.966 43.1324C158.99 43.1348 159.013 43.1464 159.029 43.165C159.045 43.1835 159.053 43.2075 159.052 43.232C159.024 43.5395 158.989 43.8576 158.946 44.1777C158.943 44.2009 158.932 44.2221 158.914 44.2374C158.897 44.2527 158.874 44.2609 158.851 44.2604ZM159.025 42.3722H159.018C159.006 42.3715 158.994 42.3684 158.983 42.363C158.971 42.3577 158.961 42.3501 158.953 42.3409C158.945 42.3316 158.939 42.3208 158.934 42.3091C158.93 42.2974 158.929 42.2849 158.929 42.2725C158.948 41.9481 158.961 41.6364 158.966 41.329C158.966 41.3164 158.969 41.304 158.974 41.2925C158.979 41.281 158.986 41.2705 158.995 41.2618C159.004 41.2531 159.015 41.2463 159.026 41.2418C159.038 41.2373 159.05 41.2352 159.063 41.2357C159.075 41.2358 159.088 41.2384 159.099 41.2433C159.111 41.2483 159.121 41.2554 159.13 41.2644C159.138 41.2734 159.145 41.284 159.15 41.2956C159.154 41.3072 159.156 41.3197 159.156 41.3321C159.151 41.6375 159.138 41.9577 159.119 42.2863C159.117 42.3097 159.106 42.3313 159.088 42.347C159.071 42.3626 159.048 42.3713 159.025 42.3711V42.3722ZM152.255 41.154C152.239 41.1536 152.224 41.1496 152.21 41.1424C152.188 41.1303 152.172 41.11 152.164 41.086C152.157 41.062 152.16 41.0362 152.172 41.0141C152.327 40.7278 152.49 40.45 152.641 40.1861C152.647 40.1753 152.656 40.166 152.666 40.1584C152.676 40.1509 152.687 40.1455 152.699 40.1423C152.711 40.1392 152.723 40.1384 152.736 40.1401C152.748 40.1418 152.76 40.1459 152.771 40.1521C152.781 40.1584 152.791 40.1667 152.798 40.1766C152.806 40.1865 152.811 40.1978 152.814 40.2098C152.817 40.2218 152.818 40.2343 152.817 40.2466C152.815 40.2589 152.811 40.2708 152.805 40.2815C152.65 40.5444 152.493 40.8211 152.338 41.1042C152.33 41.1191 152.318 41.1314 152.303 41.14C152.289 41.1486 152.272 41.1531 152.255 41.153V41.154ZM159.058 40.4766C159.033 40.4766 159.009 40.4669 158.992 40.4497C158.974 40.4324 158.964 40.409 158.963 40.3843C158.953 40.0556 158.934 39.7386 158.905 39.445C158.904 39.4326 158.905 39.4201 158.908 39.4081C158.912 39.3962 158.918 39.3851 158.926 39.3755C158.934 39.3658 158.943 39.3578 158.954 39.3519C158.965 39.346 158.977 39.3423 158.99 39.3411C159.002 39.3398 159.015 39.341 159.027 39.3446C159.039 39.3482 159.05 39.3541 159.059 39.362C159.069 39.3698 159.077 39.3795 159.083 39.3905C159.089 39.4015 159.092 39.4135 159.094 39.4259C159.122 39.7249 159.142 40.045 159.153 40.3801C159.153 40.4051 159.144 40.4293 159.127 40.4475C159.109 40.4657 159.086 40.4765 159.061 40.4776L159.058 40.4766ZM153.221 39.5224C153.203 39.5222 153.186 39.5171 153.17 39.5075C153.16 39.5008 153.151 39.4921 153.143 39.4819C153.136 39.4716 153.131 39.46 153.128 39.4478C153.126 39.4355 153.126 39.4229 153.128 39.4106C153.13 39.3983 153.135 39.3865 153.142 39.3761C153.321 39.0993 153.501 38.8343 153.678 38.5883C153.693 38.5681 153.715 38.5545 153.74 38.5503C153.765 38.5462 153.79 38.5518 153.811 38.5661C153.831 38.5809 153.845 38.6031 153.848 38.628C153.852 38.6528 153.846 38.6781 153.832 38.6986C153.657 38.9424 153.478 39.2043 153.302 39.4789C153.293 39.492 153.28 39.5026 153.266 39.5099C153.252 39.5171 153.236 39.5206 153.22 39.5202L153.221 39.5224ZM158.867 38.5936C158.845 38.5936 158.824 38.586 158.807 38.5721C158.79 38.5581 158.778 38.5388 158.773 38.5173C158.717 38.2111 158.637 37.9095 158.536 37.615C158.532 37.6034 158.53 37.5909 158.531 37.5785C158.531 37.5661 158.534 37.5539 158.54 37.5427C158.545 37.5315 158.552 37.5214 158.562 37.5131C158.571 37.5048 158.582 37.4983 158.593 37.4942C158.617 37.4857 158.643 37.4869 158.666 37.4976C158.689 37.5084 158.707 37.5277 158.715 37.5514C158.819 37.8549 158.901 38.1657 158.96 38.4812C158.963 38.5052 158.957 38.5294 158.943 38.5491C158.929 38.5687 158.908 38.5824 158.885 38.5873L158.867 38.5936ZM154.334 37.9872C154.312 37.9875 154.291 37.98 154.274 37.966C154.255 37.9499 154.243 37.9268 154.24 37.9018C154.238 37.8768 154.245 37.8518 154.261 37.8324C154.479 37.5705 154.696 37.332 154.907 37.1242C154.925 37.1067 154.95 37.0973 154.975 37.098C155.001 37.0987 155.025 37.1095 155.042 37.1279C155.06 37.1463 155.069 37.1709 155.068 37.1962C155.068 37.2216 155.057 37.2456 155.038 37.2631C154.833 37.4656 154.614 37.6999 154.402 37.9564C154.393 37.9656 154.383 37.9728 154.371 37.9778C154.359 37.9827 154.346 37.9852 154.333 37.9851L154.334 37.9872ZM158.199 36.8326C158.184 36.8326 158.169 36.829 158.156 36.8222C158.143 36.8154 158.131 36.8055 158.123 36.7934C158.059 36.7063 157.988 36.6247 157.91 36.5495C157.774 36.4166 157.612 36.3133 157.433 36.2463C157.422 36.2421 157.411 36.2356 157.402 36.2272C157.393 36.2188 157.385 36.2086 157.38 36.1974C157.375 36.1861 157.372 36.1739 157.371 36.1615C157.371 36.149 157.372 36.1366 157.377 36.1249C157.381 36.1132 157.387 36.1025 157.396 36.0933C157.404 36.0841 157.414 36.0767 157.426 36.0714C157.437 36.0662 157.449 36.0632 157.462 36.0626C157.474 36.0621 157.486 36.064 157.498 36.0682C157.702 36.1443 157.888 36.2624 158.043 36.4149C158.128 36.4974 158.206 36.5875 158.275 36.6842C158.283 36.6941 158.288 36.7055 158.291 36.7176C158.294 36.7297 158.295 36.7423 158.293 36.7547C158.291 36.7671 158.287 36.7789 158.28 36.7896C158.274 36.8002 158.265 36.8095 158.255 36.8167C158.238 36.8276 158.219 36.8331 158.199 36.8326ZM155.695 36.6725C155.674 36.6728 155.655 36.6665 155.638 36.6547C155.622 36.643 155.61 36.6262 155.604 36.607C155.597 36.5878 155.598 36.5671 155.604 36.548C155.611 36.5289 155.623 36.5123 155.639 36.5008C155.904 36.3072 156.2 36.1589 156.513 36.0618C156.537 36.0545 156.563 36.0571 156.585 36.0689C156.607 36.0807 156.624 36.1009 156.631 36.1249C156.639 36.149 156.636 36.1749 156.624 36.1971C156.612 36.2193 156.592 36.2358 156.568 36.2431C156.276 36.3347 156.002 36.4736 155.755 36.6545C155.738 36.6672 155.716 36.6735 155.695 36.6725Z" fill="white"/>
<path d="M143.984 56.4369C143.653 56.4369 143.335 56.4305 143.029 56.4178C143.006 56.4145 142.985 56.4025 142.969 56.3843C142.954 56.366 142.946 56.3427 142.947 56.319C142.949 56.2953 142.958 56.2729 142.975 56.256C142.992 56.2392 143.014 56.2292 143.038 56.228C143.339 56.2407 143.655 56.2481 143.978 56.2481C144.004 56.2481 144.028 56.258 144.046 56.2757C144.064 56.2933 144.074 56.3173 144.075 56.3425C144.075 56.3671 144.066 56.3908 144.049 56.4084C144.032 56.4261 144.008 56.4363 143.984 56.4369ZM144.932 56.4199C144.908 56.4174 144.886 56.4064 144.871 56.3888C144.855 56.3713 144.846 56.3486 144.846 56.325C144.846 56.3014 144.855 56.2787 144.871 56.2612C144.886 56.2437 144.908 56.2326 144.932 56.2301C145.238 56.2195 145.555 56.2026 145.876 56.1814C145.889 56.1799 145.902 56.1811 145.914 56.1848C145.927 56.1885 145.938 56.1948 145.948 56.2031C145.958 56.2114 145.966 56.2217 145.972 56.2333C145.978 56.2448 145.981 56.2575 145.982 56.2704C145.983 56.2828 145.981 56.2953 145.977 56.307C145.974 56.3188 145.967 56.3297 145.959 56.3391C145.951 56.3484 145.941 56.3561 145.93 56.3616C145.919 56.3671 145.907 56.3703 145.894 56.3711C145.571 56.3923 145.252 56.4093 144.94 56.4199H144.932ZM142.094 56.3531H142.085C141.752 56.3213 141.433 56.2789 141.138 56.228C141.113 56.2238 141.091 56.2099 141.077 56.1894C141.062 56.169 141.056 56.1435 141.061 56.1188C141.065 56.0941 141.079 56.072 141.099 56.0575C141.12 56.043 141.145 56.0372 141.17 56.0414C141.46 56.0912 141.775 56.1326 142.103 56.1644C142.116 56.1656 142.128 56.1693 142.139 56.1753C142.15 56.1813 142.16 56.1895 142.168 56.1993C142.176 56.2092 142.182 56.2206 142.186 56.2328C142.189 56.245 142.19 56.2578 142.189 56.2704C142.185 56.2932 142.174 56.314 142.157 56.3292C142.14 56.3444 142.117 56.3528 142.094 56.3531ZM146.83 56.2959C146.807 56.2948 146.784 56.285 146.767 56.2683C146.75 56.2515 146.74 56.2291 146.739 56.2053C146.738 56.1816 146.746 56.1582 146.761 56.1399C146.776 56.1215 146.797 56.1095 146.821 56.1061C147.131 56.0775 147.447 56.0435 147.762 56.0064C147.775 56.0049 147.787 56.0059 147.799 56.0093C147.812 56.0128 147.823 56.0185 147.833 56.0263C147.842 56.0341 147.851 56.0437 147.857 56.0547C147.863 56.0657 147.867 56.0777 147.868 56.0902C147.87 56.1026 147.869 56.1152 147.866 56.1273C147.862 56.1393 147.857 56.1506 147.849 56.1605C147.841 56.1704 147.832 56.1786 147.821 56.1847C147.81 56.1909 147.798 56.1948 147.786 56.1962C147.468 56.2333 147.149 56.2672 146.84 56.2959H146.83ZM148.714 56.0743C148.702 56.0752 148.689 56.0736 148.678 56.0697C148.666 56.0658 148.655 56.0596 148.646 56.0515C148.636 56.0434 148.628 56.0335 148.623 56.0224C148.617 56.0113 148.614 55.9992 148.613 55.9868C148.612 55.9744 148.614 55.962 148.618 55.9502C148.622 55.9384 148.628 55.9275 148.636 55.9181C148.644 55.9087 148.654 55.901 148.665 55.8954C148.676 55.8898 148.688 55.8865 148.701 55.8856C149.007 55.8421 149.322 55.7954 149.637 55.7445C149.661 55.7405 149.687 55.7464 149.707 55.761C149.728 55.7756 149.741 55.7977 149.745 55.8225C149.749 55.8472 149.744 55.8726 149.729 55.8929C149.714 55.9133 149.692 55.9271 149.667 55.9311C149.349 55.982 149.031 56.0297 148.727 56.0732L148.714 56.0743ZM140.233 56.0213H140.207C139.897 55.9351 139.595 55.8212 139.305 55.6809C139.294 55.6754 139.284 55.6678 139.276 55.6585C139.268 55.6491 139.261 55.6382 139.257 55.6265C139.253 55.6147 139.252 55.6023 139.252 55.5899C139.253 55.5775 139.257 55.5654 139.262 55.5542C139.268 55.5431 139.275 55.5332 139.285 55.525C139.294 55.5168 139.305 55.5105 139.316 55.5065C139.328 55.5025 139.341 55.5009 139.353 55.5017C139.365 55.5026 139.378 55.5058 139.389 55.5113C139.669 55.646 139.96 55.7556 140.259 55.8389C140.281 55.8448 140.301 55.8587 140.314 55.878C140.326 55.8973 140.332 55.9206 140.328 55.9435C140.325 55.9663 140.314 55.9872 140.296 56.0022C140.278 56.0171 140.256 56.025 140.233 56.0244V56.0213ZM150.591 55.7721C150.567 55.7729 150.543 55.7645 150.525 55.7486C150.507 55.7326 150.496 55.7103 150.494 55.6863C150.492 55.6623 150.499 55.6384 150.514 55.6194C150.528 55.6005 150.55 55.588 150.574 55.5845C150.856 55.5325 151.145 55.4784 151.434 55.4201L151.504 55.4063C151.528 55.4013 151.554 55.4062 151.575 55.42C151.596 55.4338 151.611 55.4554 151.616 55.48C151.621 55.5046 151.616 55.5302 151.602 55.5512C151.588 55.5722 151.567 55.5868 151.542 55.5919L151.472 55.6067C151.181 55.664 150.891 55.7191 150.608 55.7711L150.591 55.7721ZM152.453 55.4063C152.428 55.4081 152.404 55.4002 152.385 55.3844C152.367 55.3686 152.355 55.3462 152.352 55.3218C152.35 55.2974 152.357 55.273 152.372 55.2537C152.387 55.2345 152.409 55.2219 152.434 55.2187C152.752 55.154 153.06 55.0862 153.357 55.0151C153.382 55.0094 153.407 55.0137 153.429 55.027C153.45 55.0403 153.466 55.0616 153.471 55.0862C153.474 55.0983 153.475 55.1108 153.473 55.1231C153.471 55.1354 153.466 55.1471 153.46 55.1577C153.453 55.1682 153.444 55.1773 153.434 55.1845C153.424 55.1917 153.413 55.1969 153.4 55.1996C153.103 55.2706 152.79 55.3395 152.472 55.4042L152.453 55.4063ZM138.574 55.1349C138.561 55.1349 138.548 55.1322 138.536 55.1269C138.524 55.1216 138.513 55.1139 138.503 55.1042L138.492 55.0904C138.266 54.8434 138.13 54.5273 138.107 54.1935C138.108 54.1696 138.117 54.1468 138.134 54.1296C138.15 54.1124 138.173 54.102 138.196 54.1006C138.22 54.0991 138.244 54.1066 138.262 54.1217C138.281 54.1367 138.293 54.1582 138.297 54.1818C138.317 54.4749 138.436 54.7523 138.635 54.9685L138.644 54.9791C138.661 54.9977 138.67 55.0222 138.669 55.0472C138.667 55.0722 138.656 55.0957 138.638 55.1127C138.62 55.1278 138.598 55.1357 138.574 55.1349ZM154.287 54.9685C154.264 54.9679 154.243 54.9592 154.226 54.9441C154.209 54.929 154.198 54.9084 154.195 54.886C154.192 54.8636 154.197 54.8408 154.209 54.8217C154.221 54.8026 154.24 54.7885 154.261 54.7819C154.367 54.7543 154.467 54.7246 154.568 54.6949C154.773 54.6409 154.975 54.5889 155.176 54.5317C155.2 54.5251 155.226 54.5283 155.248 54.5408C155.27 54.5532 155.286 54.5738 155.292 54.5979C155.299 54.6221 155.296 54.6479 155.283 54.6697C155.271 54.6915 155.25 54.7074 155.226 54.714C155.025 54.7702 154.822 54.82 154.619 54.8784L154.311 54.9653C154.303 54.9675 154.295 54.9685 154.287 54.9685ZM156.114 54.4575C156.091 54.4571 156.069 54.4486 156.052 54.4336C156.035 54.4186 156.024 54.398 156.021 54.3755C156.017 54.353 156.022 54.3301 156.035 54.3109C156.047 54.2917 156.065 54.2775 156.087 54.2709C156.39 54.1818 156.695 54.0885 156.992 53.9941C157.016 53.989 157.04 53.9927 157.061 54.0046C157.082 54.0165 157.097 54.0358 157.104 54.0585C157.111 54.0813 157.11 54.106 157.1 54.1276C157.09 54.1492 157.072 54.1663 157.05 54.1754C156.751 54.2698 156.445 54.3631 156.14 54.4532C156.132 54.4556 156.124 54.4566 156.116 54.4564L156.114 54.4575ZM157.922 53.886C157.903 53.8859 157.883 53.8796 157.867 53.868C157.851 53.8564 157.839 53.8401 157.833 53.8213C157.828 53.8093 157.826 53.7965 157.827 53.7836C157.827 53.7707 157.83 53.758 157.836 53.7463C157.841 53.7346 157.849 53.7241 157.858 53.7155C157.868 53.7069 157.879 53.7004 157.892 53.6962C158.19 53.5955 158.492 53.4916 158.785 53.3856C158.797 53.3812 158.81 53.3792 158.822 53.3798C158.835 53.3803 158.847 53.3833 158.858 53.3886C158.87 53.394 158.88 53.4015 158.888 53.4108C158.897 53.4201 158.903 53.431 158.907 53.4428C158.915 53.4665 158.914 53.4924 158.903 53.515C158.893 53.5376 158.873 53.5551 158.85 53.5637C158.554 53.6697 158.252 53.7757 157.952 53.8765C157.943 53.8806 157.934 53.8835 157.924 53.8849L157.922 53.886ZM138.414 53.3718C138.4 53.3718 138.385 53.3682 138.372 53.3612C138.361 53.3557 138.351 53.348 138.343 53.3386C138.334 53.3291 138.328 53.3182 138.324 53.3063C138.321 53.2945 138.319 53.2819 138.32 53.2695C138.321 53.2571 138.325 53.245 138.331 53.234C138.482 52.9472 138.669 52.6811 138.888 52.442C138.897 52.4326 138.906 52.425 138.918 52.4195C138.929 52.414 138.941 52.4108 138.953 52.41C138.966 52.4092 138.978 52.4109 138.99 52.4149C139.002 52.4189 139.013 52.4253 139.022 52.4335C139.041 52.4504 139.052 52.4741 139.053 52.4993C139.055 52.5245 139.046 52.5493 139.029 52.5682C138.821 52.7952 138.643 53.0478 138.499 53.3198C138.491 53.3348 138.48 53.3474 138.465 53.3563C138.451 53.3653 138.434 53.3702 138.418 53.3707L138.414 53.3718ZM159.707 53.2435C159.685 53.2429 159.664 53.2348 159.647 53.2206C159.631 53.2064 159.62 53.1869 159.616 53.1655C159.612 53.1441 159.615 53.1219 159.626 53.1027C159.636 53.0835 159.653 53.0685 159.673 53.0601C159.97 52.9456 160.266 52.829 160.553 52.7113C160.564 52.7066 160.576 52.7041 160.589 52.7042C160.601 52.7042 160.614 52.7066 160.625 52.7114C160.637 52.7162 160.647 52.7232 160.656 52.732C160.664 52.7408 160.671 52.7512 160.676 52.7627C160.681 52.7742 160.683 52.7865 160.683 52.7989C160.683 52.8113 160.681 52.8236 160.676 52.8351C160.671 52.8466 160.664 52.857 160.655 52.8658C160.647 52.8745 160.636 52.8815 160.625 52.8862C160.336 53.005 160.039 53.1227 159.741 53.2372C159.731 53.2407 159.72 53.2424 159.71 53.2425L159.707 53.2435ZM161.462 52.5226C161.444 52.5224 161.426 52.5171 161.411 52.5071C161.395 52.4972 161.383 52.483 161.375 52.4664C161.37 52.455 161.367 52.4427 161.367 52.4302C161.367 52.4177 161.369 52.4053 161.374 52.3936C161.378 52.382 161.385 52.3714 161.394 52.3624C161.402 52.3534 161.413 52.3462 161.424 52.3413C161.717 52.2119 162.007 52.0794 162.285 51.9479C162.296 51.9426 162.309 51.9396 162.321 51.9391C162.333 51.9385 162.346 51.9404 162.358 51.9446C162.369 51.9488 162.38 51.9553 162.389 51.9637C162.398 51.9721 162.406 51.9823 162.411 51.9935C162.416 52.0048 162.419 52.017 162.42 52.0295C162.421 52.0419 162.419 52.0543 162.415 52.0661C162.41 52.0778 162.404 52.0885 162.395 52.0977C162.387 52.1069 162.377 52.1144 162.366 52.1197C162.087 52.2522 161.795 52.3847 161.5 52.5141C161.489 52.5187 161.477 52.5212 161.465 52.5215L161.462 52.5226ZM139.643 51.9395C139.624 51.9393 139.605 51.9332 139.589 51.922C139.573 51.9108 139.561 51.8951 139.555 51.8769C139.548 51.8587 139.547 51.839 139.552 51.8202C139.557 51.8015 139.567 51.7846 139.582 51.7719C139.806 51.579 140.061 51.3818 140.337 51.1846C140.346 51.1754 140.358 51.1684 140.371 51.1641C140.384 51.1599 140.398 51.1585 140.411 51.1599C140.425 51.1614 140.438 51.1658 140.449 51.1727C140.461 51.1796 140.471 51.189 140.478 51.2002C140.486 51.2113 140.491 51.224 140.494 51.2373C140.496 51.2506 140.496 51.2643 140.492 51.2774C140.489 51.2905 140.483 51.3028 140.474 51.3133C140.465 51.3238 140.455 51.3323 140.443 51.3383C140.171 51.5323 139.922 51.7264 139.7 51.9161C139.684 51.9298 139.664 51.938 139.643 51.9395ZM163.18 51.7073C163.163 51.7074 163.146 51.7027 163.131 51.6937C163.116 51.6847 163.104 51.6718 163.096 51.6564C163.084 51.634 163.082 51.608 163.09 51.5839C163.097 51.5599 163.114 51.5398 163.136 51.5281C163.425 51.3807 163.705 51.2302 163.97 51.0807C163.992 51.0685 164.018 51.0654 164.042 51.0723C164.066 51.0792 164.086 51.0953 164.099 51.1173C164.111 51.1392 164.114 51.1651 164.107 51.1892C164.1 51.2134 164.084 51.2338 164.062 51.2461C163.796 51.3966 163.514 51.5482 163.223 51.6977C163.209 51.7041 163.194 51.7074 163.179 51.7073H163.18ZM141.18 50.8337C141.16 50.8338 141.14 50.8272 141.123 50.8148C141.107 50.8025 141.095 50.785 141.089 50.7652C141.083 50.7453 141.084 50.7241 141.092 50.7049C141.099 50.6857 141.113 50.6695 141.131 50.6587C141.388 50.4976 141.661 50.3332 141.95 50.1731C141.961 50.1669 141.973 50.163 141.985 50.1614C141.998 50.1599 142.01 50.1608 142.022 50.1641C142.034 50.1675 142.046 50.1732 142.055 50.1809C142.065 50.1887 142.073 50.1983 142.08 50.2092C142.092 50.2312 142.095 50.2571 142.088 50.2813C142.081 50.3055 142.065 50.3261 142.043 50.3385C141.759 50.4976 141.487 50.6566 141.231 50.8199C141.216 50.829 141.198 50.8337 141.18 50.8337ZM164.831 50.7785C164.81 50.7789 164.79 50.7725 164.773 50.7602C164.756 50.7479 164.744 50.7305 164.738 50.7105C164.732 50.6906 164.733 50.6694 164.741 50.65C164.748 50.6307 164.762 50.6144 164.78 50.6036C165.057 50.4287 165.321 50.2527 165.563 50.0788C165.573 50.0715 165.585 50.0662 165.597 50.0634C165.609 50.0605 165.622 50.0601 165.634 50.0622C165.646 50.0643 165.658 50.0688 165.669 50.0754C165.679 50.0821 165.689 50.0908 165.696 50.1011C165.703 50.1111 165.708 50.1225 165.711 50.1346C165.714 50.1467 165.714 50.1592 165.712 50.1715C165.71 50.1837 165.706 50.1954 165.699 50.2059C165.692 50.2164 165.684 50.2254 165.673 50.2325C165.429 50.4085 165.162 50.5877 164.88 50.7626C164.865 50.771 164.848 50.7751 164.831 50.7743V50.7785ZM142.837 49.8975C142.815 49.898 142.794 49.8911 142.777 49.878C142.76 49.8649 142.748 49.8463 142.743 49.8254C142.738 49.8045 142.74 49.7825 142.749 49.763C142.758 49.7435 142.774 49.7277 142.793 49.7183C143.067 49.5773 143.354 49.4363 143.641 49.2942C143.664 49.2836 143.69 49.2823 143.714 49.2906C143.738 49.2989 143.757 49.3162 143.768 49.3388C143.774 49.35 143.777 49.3622 143.777 49.3747C143.778 49.3872 143.776 49.3996 143.772 49.4114C143.768 49.4231 143.761 49.4339 143.753 49.4431C143.744 49.4523 143.734 49.4597 143.723 49.4649C143.431 49.6038 143.146 49.7438 142.875 49.8837C142.863 49.8907 142.85 49.8954 142.837 49.8975ZM166.373 49.6632C166.36 49.6632 166.346 49.6602 166.334 49.6543C166.322 49.6484 166.311 49.6399 166.302 49.6293C166.294 49.6199 166.288 49.609 166.284 49.5972C166.28 49.5854 166.278 49.5729 166.279 49.5605C166.28 49.5481 166.283 49.5359 166.289 49.5248C166.295 49.5137 166.302 49.5038 166.312 49.4957C166.407 49.4151 166.497 49.3335 166.582 49.2539C166.728 49.1161 166.863 48.9783 166.982 48.8436C166.99 48.8329 167 48.824 167.011 48.8174C167.023 48.8107 167.035 48.8066 167.049 48.8052C167.062 48.8038 167.075 48.8051 167.088 48.8092C167.1 48.8132 167.112 48.8199 167.122 48.8287C167.132 48.8375 167.14 48.8483 167.145 48.8604C167.151 48.8725 167.154 48.8856 167.154 48.8989C167.154 48.9122 167.152 48.9253 167.146 48.9375C167.141 48.9498 167.134 48.9607 167.124 48.9698C167.001 49.1076 166.863 49.2497 166.712 49.3939C166.626 49.4755 166.532 49.5593 166.436 49.642C166.417 49.6592 166.391 49.6683 166.366 49.6674L166.373 49.6632ZM167.593 48.2255C167.579 48.2256 167.564 48.2223 167.551 48.216C167.529 48.2046 167.512 48.1849 167.504 48.1611C167.496 48.1373 167.498 48.1113 167.509 48.0888C167.552 48.0011 167.589 47.9108 167.621 47.8184C167.68 47.6541 167.711 47.481 167.713 47.3063C167.713 47.2788 167.713 47.2512 167.713 47.2236C167.714 47.1997 167.723 47.1767 167.739 47.1594C167.756 47.142 167.778 47.1314 167.802 47.1298C167.826 47.1282 167.85 47.1357 167.869 47.1507C167.887 47.1657 167.9 47.1872 167.903 47.2109C167.903 47.2427 167.903 47.2745 167.903 47.3063C167.9 47.5021 167.864 47.6959 167.797 47.8799C167.763 47.9801 167.722 48.0779 167.675 48.1725C167.667 48.1891 167.654 48.2029 167.639 48.2124C167.623 48.2218 167.604 48.2264 167.586 48.2255H167.593ZM167.44 46.4868C167.426 46.4867 167.413 46.4839 167.401 46.4784C167.389 46.4729 167.378 46.4649 167.369 46.455C167.162 46.2315 166.914 46.0497 166.638 45.9196C166.616 45.9083 166.599 45.8886 166.591 45.8648C166.583 45.8409 166.585 45.8149 166.596 45.7924C166.607 45.7699 166.627 45.7528 166.651 45.7448C166.675 45.7369 166.701 45.7387 166.723 45.75C167.021 45.8912 167.288 46.0881 167.512 46.3299C167.528 46.3489 167.536 46.3736 167.534 46.3986C167.533 46.4236 167.521 46.4469 167.502 46.4635C167.485 46.4787 167.463 46.487 167.44 46.4868ZM165.795 45.593C165.787 45.5941 165.778 45.5941 165.769 45.593C165.468 45.5076 165.162 45.439 164.854 45.3874C164.83 45.3818 164.81 45.3673 164.796 45.347C164.783 45.3267 164.778 45.302 164.782 45.278C164.786 45.2541 164.799 45.2326 164.819 45.218C164.838 45.2035 164.863 45.1969 164.887 45.1997C165.202 45.2536 165.514 45.3244 165.822 45.4117C165.844 45.4184 165.862 45.4326 165.874 45.4518C165.887 45.471 165.891 45.4939 165.888 45.5164C165.885 45.5388 165.874 45.5594 165.857 45.5745C165.84 45.5895 165.818 45.598 165.795 45.5983V45.593ZM163.935 45.2559H163.925C163.627 45.2262 163.31 45.2039 162.985 45.1902C162.972 45.1898 162.96 45.1869 162.949 45.1817C162.937 45.1765 162.927 45.1691 162.919 45.1599C162.91 45.1507 162.903 45.14 162.899 45.1282C162.895 45.1165 162.893 45.104 162.894 45.0916C162.895 45.0666 162.906 45.0433 162.925 45.0263C162.943 45.0093 162.967 45.0001 162.992 45.0004C163.322 45.0152 163.642 45.0375 163.946 45.0672C163.971 45.0684 163.995 45.0796 164.012 45.0982C164.028 45.1168 164.037 45.1413 164.036 45.1663C164.035 45.1913 164.024 45.2148 164.005 45.2316C163.986 45.2484 163.962 45.2572 163.937 45.2559H163.935ZM161.092 45.187C161.069 45.1845 161.047 45.1734 161.031 45.1559C161.016 45.1384 161.007 45.1157 161.007 45.0921C161.007 45.0685 161.016 45.0458 161.031 45.0283C161.047 45.0108 161.069 44.9997 161.092 44.9972C161.41 44.9855 161.728 44.9802 162.03 44.9802H162.044C162.068 44.9827 162.089 44.9938 162.105 45.0113C162.121 45.0288 162.13 45.0516 162.13 45.0751C162.13 45.0987 162.121 45.1214 162.105 45.139C162.089 45.1565 162.068 45.1675 162.044 45.17H162.026C161.726 45.17 161.414 45.17 161.097 45.187H161.092Z" fill="white"/>
<path d="M139.242 51.0362C139.453 50.9918 139.672 51.0109 139.872 51.091C140.072 51.1711 140.244 51.3087 140.365 51.4863C140.487 51.664 140.553 51.8738 140.556 52.0891C140.558 52.3044 140.497 52.5156 140.379 52.6961C140.262 52.8765 140.093 53.018 139.895 53.1027C139.697 53.1874 139.479 53.2115 139.267 53.1719C139.055 53.1324 138.86 53.031 138.706 52.8805C138.552 52.73 138.446 52.5372 138.402 52.3265C138.342 52.0439 138.398 51.7494 138.555 51.5074C138.713 51.2655 138.96 51.0961 139.242 51.0362Z" fill="#75B6EC"/>
<path opacity="0.2" d="M139.242 51.0362C139.453 50.9918 139.672 51.0109 139.872 51.091C140.072 51.1711 140.244 51.3087 140.365 51.4863C140.487 51.664 140.553 51.8738 140.556 52.0891C140.558 52.3044 140.497 52.5156 140.379 52.6961C140.262 52.8765 140.093 53.018 139.895 53.1027C139.697 53.1874 139.479 53.2115 139.267 53.1719C139.055 53.1324 138.86 53.031 138.706 52.8805C138.552 52.73 138.446 52.5372 138.402 52.3265C138.342 52.0439 138.398 51.7494 138.555 51.5074C138.713 51.2655 138.96 51.0961 139.242 51.0362Z" fill="white"/>
<path opacity="0.15" d="M140.152 52.3286C139.985 52.8767 139.421 53.1301 138.88 53.0156C139.014 53.1024 139.166 53.1587 139.324 53.1804C139.482 53.202 139.643 53.1886 139.796 53.141C139.949 53.0934 140.089 53.0128 140.207 52.9049C140.325 52.797 140.417 52.6645 140.478 52.5167C140.539 52.369 140.567 52.2097 140.559 52.05C140.552 51.8904 140.509 51.7344 140.434 51.5931C140.36 51.4518 140.255 51.3286 140.127 51.2324C140 51.1361 139.853 51.0691 139.696 51.0362C139.98 51.1252 140.33 51.7465 140.152 52.3286Z" fill="white"/>
<path d="M160.071 41.0576C160.301 40.502 160.037 39.865 159.482 39.6349C158.926 39.4048 158.289 39.6686 158.059 40.2242C157.829 40.7798 158.093 41.4167 158.649 41.6468C159.204 41.877 159.841 41.6131 160.071 41.0576Z" fill="#75B6EC"/>
<path opacity="0.5" d="M160.071 41.0576C160.301 40.502 160.037 39.865 159.482 39.6349C158.926 39.4048 158.289 39.6686 158.059 40.2242C157.829 40.7798 158.093 41.4167 158.649 41.6468C159.204 41.877 159.841 41.6131 160.071 41.0576Z" fill="white"/>
<path opacity="0.35" d="M158.702 41.2643C158.2 40.9875 158.065 40.3832 158.293 39.8733C158.181 39.9866 158.094 40.1234 158.04 40.2739C157.986 40.4244 157.966 40.5849 157.981 40.7441C157.996 40.9033 158.046 41.0572 158.128 41.1949C158.209 41.3326 158.319 41.4507 158.452 41.5408C158.584 41.6309 158.734 41.6908 158.892 41.7163C159.05 41.7417 159.211 41.7321 159.365 41.6881C159.519 41.6441 159.661 41.5668 159.781 41.4617C159.902 41.3565 159.997 41.2261 160.062 41.0798C159.914 41.3448 159.234 41.559 158.702 41.2643Z" fill="white"/>
<path d="M165.821 55.9227C165.662 56.0681 165.464 56.1631 165.251 56.1958C165.038 56.2285 164.82 56.1973 164.625 56.1062C164.43 56.0151 164.266 55.8681 164.155 55.684C164.043 55.4998 163.988 55.2867 163.998 55.0716C164.007 54.8564 164.08 54.6489 164.208 54.4753C164.335 54.3017 164.511 54.1698 164.714 54.0962C164.916 54.0227 165.136 54.0108 165.345 54.062C165.554 54.1133 165.743 54.2255 165.889 54.3843C165.985 54.4898 166.06 54.6132 166.109 54.7476C166.158 54.882 166.18 55.0247 166.173 55.1675C166.167 55.3104 166.133 55.4506 166.072 55.5802C166.012 55.7097 165.926 55.8261 165.821 55.9227Z" fill="#75B6EC"/>
<path opacity="0.5" d="M165.821 55.9227C165.662 56.0681 165.464 56.1631 165.251 56.1958C165.038 56.2285 164.82 56.1973 164.625 56.1062C164.43 56.0151 164.266 55.8681 164.155 55.684C164.043 55.4998 163.988 55.2867 163.998 55.0716C164.007 54.8564 164.08 54.6489 164.208 54.4753C164.335 54.3017 164.511 54.1698 164.714 54.0962C164.916 54.0227 165.136 54.0108 165.345 54.062C165.554 54.1133 165.743 54.2255 165.889 54.3843C165.985 54.4898 166.06 54.6132 166.109 54.7476C166.158 54.882 166.18 55.0247 166.173 55.1675C166.167 55.3104 166.133 55.4506 166.072 55.5802C166.012 55.7097 165.926 55.8261 165.821 55.9227Z" fill="white"/>
<path opacity="0.35" d="M164.38 55.2707C164.245 54.714 164.603 54.2104 165.131 54.0302C164.971 54.024 164.812 54.0528 164.665 54.1148C164.518 54.1768 164.386 54.2703 164.279 54.3889C164.172 54.5074 164.093 54.6479 164.046 54.8006C164 54.9533 163.987 55.1143 164.01 55.2723C164.033 55.4304 164.09 55.5815 164.177 55.715C164.265 55.8485 164.38 55.9611 164.516 56.0449C164.652 56.1287 164.805 56.1816 164.963 56.1999C165.122 56.2182 165.282 56.2013 165.434 56.1506C165.14 56.2195 164.522 55.8623 164.38 55.2707Z" fill="white"/>
<path d="M178 77.7092L173.5 80.2092H182.5L173 81.7092L181.5 82.7092L175 84.2092L181.5 85.7092L175 87.2092L180.5 87.7092L176.5 89.7092L181 91.7092L172 96.2092H184.5L175 98.7092H179V100.209L178 101.709" stroke="#4797C8" stroke-width="0.5"/>
<rect x="157.5" y="105.209" width="65" height="48" fill="white" stroke="#4797C8"/>
<path d="M163 132.209L164.5 116.709L165.5 127.709V114.709L169 132.209V114.709L173.5 130.209V118.209L176.5 130.209L177 124.459M177.5 118.709L177 124.459M177 124.459L180 116.709V124.459L182.5 118.709L183.5 127.209V118.209L189 127.209L190 117.709L196 127.209L198 117.709V124.459L200.5 114.709L202 130.209V122.709L205.5 130.209L206.75 125.459M208 120.709L206.75 125.459M206.75 125.459L209.5 130.209V118.209L211.5 127.709L214.5 118.209L217.5 127.709" stroke="#D4B1F8" stroke-width="0.5"/>
<rect x="154" y="152.709" width="73" height="5" fill="#4797C8"/>
<path d="M77.5 144L71 139" stroke="#4797C8"/>
<path d="M229.324 81.2887C229.226 81.3857 229.225 81.544 229.322 81.6422L230.904 83.2427C231.001 83.341 231.159 83.3419 231.257 83.2449C231.355 83.1478 231.356 82.9895 231.259 82.8913L229.854 81.4686L231.276 80.0629C231.374 79.9659 231.375 79.8076 231.278 79.7094C231.181 79.6112 231.023 79.6102 230.925 79.7073L229.324 81.2887ZM229.498 81.7165L240.498 81.7825L240.501 81.2826L229.502 81.2165L229.498 81.7165Z" fill="#4BBD23"/>
<path d="M196 83.5L217.5 72" stroke="#4BBD23" stroke-width="0.5"/>
<path d="M190.177 72.3232C190.079 72.2256 189.921 72.2256 189.823 72.3232L188.232 73.9142C188.135 74.0118 188.135 74.1701 188.232 74.2678C188.33 74.3654 188.488 74.3654 188.586 74.2678L190 72.8536L191.414 74.2678C191.512 74.3654 191.67 74.3654 191.768 74.2678C191.865 74.1701 191.865 74.0118 191.768 73.9142L190.177 72.3232ZM189.75 72.5V83.5H190.25V72.5H189.75Z" fill="#4BBD23"/>
<path d="M243.175 49.8222C243.274 49.9192 243.275 50.0775 243.178 50.1757L241.596 51.7762C241.499 51.8744 241.341 51.8754 241.243 51.7783C241.144 51.6813 241.143 51.523 241.241 51.4248L242.646 50.0021L241.224 48.5964C241.125 48.4994 241.124 48.3411 241.221 48.2429C241.318 48.1447 241.477 48.1437 241.575 48.2408L243.175 49.8222ZM243.001 50.25L232.001 50.316L231.998 49.816L242.998 49.75L243.001 50.25Z" fill="#FFD600"/>
<path d="M196 66.5V84H246.5" stroke="#4BBD23" stroke-width="0.5"/>
<path d="M196 39V56.5H246.5" stroke="#FFD600" stroke-width="0.5"/>
<path d="M218 44L196.5 56.5" stroke="#FFD600" stroke-width="0.5"/>
</svg>
