<svg viewBox="0 0 245 166" fill="none" xmlns="http://www.w3.org/2000/svg"><path d="M38.021 0H0v40.21h38.021V0z" fill="#455A64"/><path d="M34.572 3.616H3.453v14.106h31.119V3.616z" fill="#37474F"/><path d="M7.79 3.616H3.453v14.106H7.79V3.616z" fill="#263238"/><path d="M34.572 21.877H3.453v14.106h31.119V21.877z" fill="#37474F"/><path d="M7.79 21.877H3.453v14.106H7.79V21.877z" fill="#263238"/><g opacity=".7"><path opacity=".7" d="M17.273 34.27a5.59 5.59 0 01-.281 1.76H6.132a5.55 5.55 0 01-.28-1.784 5.713 5.713 0 014.226-5.507v-3.172h-.445v-.908h3.918v.908h-.452v3.172a5.713 5.713 0 014.174 5.53z" fill="#fff"/><path opacity=".7" d="M17.274 34.27c.001.6-.092 1.195-.278 1.765l-5.431.02-5.428.04H6.09v-.044a5.72 5.72 0 01.396-4.56 5.791 5.791 0 013.592-2.854l-.075.099.027-3.172.092.091H9.53v-1.09h.087l3.917.036h.064v1.027h-.5l.056-.052-.044 3.172v-.028a5.78 5.78 0 013.037 2.074 5.709 5.709 0 011.126 3.476zm0 0a5.706 5.706 0 00-2.53-4.733 5.62 5.62 0 00-1.685-.761h-.023v-3.26h.515l-.055.056v-.908l.063.064H9.642l.091-.088v.908l-.091-.091h.555v3.347h-.075A5.851 5.851 0 008.1 29.817a5.784 5.784 0 00-1.463 1.729 5.875 5.875 0 00-.674 2.204c-.073.762.009 1.53.242 2.26l-.064-.044 5.428.04H17a5.76 5.76 0 00.274-1.736z" fill="#263238"/></g><path d="M16.632 33.676s-.064 1.316-.373 1.887H6.863c-.31-.571-.163-1.887-.163-1.887h9.932z" fill="#76B7ED"/><path d="M6.875 34.239a4.52 4.52 0 013.171-4.33" fill="#fff"/><path d="M33.715 17.563H29.24v-5.4a2.24 2.24 0 012.244-2.24 2.24 2.24 0 012.232 2.24v5.4z" fill="#DBDBDB"/><path d="M32.637 9.012h-2.311v1.344h2.311V9.012z" fill="#DBDBDB"/><path d="M33.045 8.385h-3.128V9.58h3.128V8.385z" fill="#A6A6A6"/><path d="M32.922 12.758h-3.306v3.025h3.306v-3.025z" fill="#fff"/><path d="M28.605 17.563H24.12v-5.4a2.24 2.24 0 013.826-1.585 2.24 2.24 0 01.658 1.586v5.4z" fill="#DBDBDB"/><path d="M27.519 9.012h-2.312v1.344h2.312V9.012z" fill="#DBDBDB"/><path d="M27.927 8.385h-3.128V9.58h3.128V8.385z" fill="#76B7ED"/><path d="M27.8 12.758h-3.306v3.025H27.8v-3.025z" fill="#fff"/><path d="M23.483 17.563h-4.485v-5.4a2.24 2.24 0 013.828-1.583c.42.42.657.99.657 1.584v5.4z" fill="#DBDBDB"/><path d="M22.396 9.012h-2.311v1.344h2.311V9.012z" fill="#DBDBDB"/><path d="M22.809 8.385H19.68V9.58h3.128V8.385z" fill="#A6A6A6"/><path d="M22.682 12.758h-3.307v3.025h3.307v-3.025z" fill="#fff"/><path d="M5.241 17.746h4.552v-7.577H5.24v7.577z" fill="#76B7ED"/><path d="M4.615 10.165h5.8V8.877h-5.8v1.288z" fill="#DBDBDB"/><path d="M5.82 16.509h3.386v-4.675H5.82v4.675z" fill="#fff"/><path d="M11.525 17.746h4.552v-7.577h-4.552v7.577z" fill="#FBDF4A"/><path d="M10.899 10.165h5.8V8.877h-5.8v1.288z" fill="#DBDBDB"/><path d="M12.104 16.509h3.386v-4.675h-3.386v4.675z" fill="#fff"/><g opacity=".7"><path opacity=".7" d="M30.42 35.912H18.65s4.389-8.017 4.389-8.136v-2.922h3.013v2.922c0 .12 4.369 8.136 4.369 8.136z" fill="#fff"/><path opacity=".7" d="M30.42 35.91l-11.77.072h-.123l.06-.103 2.898-5.348c.48-.892.967-1.788 1.427-2.684l.035-.084v-3.009h3.172v2.982l.036.083c.452.9.935 1.796 1.407 2.692l2.859 5.4zm0 0c-.982-1.767-1.982-3.536-2.945-5.316-.484-.892-.975-1.776-1.44-2.68l-.043-.091v-2.954l.084.084h-3.014l.088-.092v2.926a.24.24 0 010 .04.976.976 0 01-.044.091c-.464.908-.952 1.792-1.435 2.684a573.509 573.509 0 01-2.93 5.337l-.091-.115 11.77.087z" fill="#263238"/><path opacity=".7" d="M23.07 25.168a.305.305 0 11.442-.42.305.305 0 01-.442.42zm0 .349a.307.307 0 01.444 0 .287.287 0 01-.222.09.301.301 0 01-.222-.09zm0 .348a.307.307 0 01.444 0 .302.302 0 01-.222.092.317.317 0 01-.222-.092zm0 .318a.991.991 0 01.444-.092.95.95 0 01.444.092 1.01 1.01 0 01-.444.095.999.999 0 01-.444-.095z" fill="#263238"/><path opacity=".7" d="M23.07 26.639a.305.305 0 11.443-.42.305.305 0 01-.443.42zm0 .348a.307.307 0 01.444 0 .287.287 0 01-.222.092.301.301 0 01-.222-.092zm0 .349a.307.307 0 01.444 0 .3.3 0 01-.222.091.317.317 0 01-.222-.09z" fill="#263238"/></g><path d="M29.263 35.317h-9.46l1.527-2.775h6.41c.794 1.443 1.523 2.775 1.523 2.775z" fill="#FFBC10"/><path d="M42.358 0h-4.337v40.21h4.337V0z" fill="#37474F"/><path d="M65.266 164.068l21.469-.095 21.469-.036 42.937-.063 42.937.063 21.469.036 21.468.095-21.468.099-21.469.036-42.937.063-42.937-.063-21.469-.036-21.469-.099z" fill="#263238"/><path d="M192.325 165.057c.964.309 28.415-.048 29.45-.726.396-.25.579-4.254.658-9.095v-.135c.02-.999.032-2.026.036-3.068v-.429l-1.332-14.241-18.361.183 1.812 14.106.02.559.111 2.922v.297s-10.447 4.837-11.497 5.702c-1.051.864-1.86 3.615-.897 3.925z" fill="#F7A9A0"/><path d="M192.325 165.056c.964.31 28.415-.047 29.45-.725.396-.25.579-4.254.658-9.095v-.135c.02-.999.032-2.026.036-3.068v-.429l-17.881.048.02.559.111 2.922v.297s-10.447 4.837-11.497 5.701c-1.051.865-1.86 3.616-.897 3.925z" fill="#EBEBEB"/><path d="M192.326 165.053c.495.158 7.953.142 15.24 0a635.58 635.58 0 004.313-.1c5.198-.142 9.492-.356 9.892-.618.4-.262.575-4.139.654-8.893v-.357h-.02l-17.682.016v.302s-10.447 4.836-11.497 5.701c-1.051.864-1.864 3.643-.9 3.949z" fill="#A6A6A6"/><path d="M192.623 163.986c4.626-.174 23.3-.436 27.883-.258.04 0 .04.028 0 .032-4.579.27-23.253.397-27.883.301-.095 0-.099-.071 0-.075zm10.13-8.794c1.815-.364 4.047-.115 5.455 1.166.055.052 0 .127-.075.107a25.764 25.764 0 00-5.369-1.043.116.116 0 01-.083-.029.121.121 0 01-.038-.08.117.117 0 01.11-.121zm-1.305.809c1.816-.365 4.048-.111 5.456 1.166.055.051 0 .127-.076.111a25.447 25.447 0 00-5.356-1.047.118.118 0 01-.085-.025.113.113 0 01-.042-.078.119.119 0 01.025-.085.121.121 0 01.078-.042zm-1.304.809c1.816-.365 4.048-.111 5.455 1.166.056.051 0 .127-.075.111a25.43 25.43 0 00-5.368-1.047.115.115 0 01-.121-.109.114.114 0 01.109-.121z" fill="#263238"/><path d="M207.566 165.049a635.58 635.58 0 004.313-.1c5.198-.142 9.492-.356 9.892-.618.4-.262.575-4.139.654-8.893v-.357h-.02c-2.414 1.701-10.954 7.387-14.839 9.968z" fill="#263238"/><path d="M203.518 155.177h19.76s-3.965-46.173-3.822-46.978c.194-1.034 1.363-5.709 2.918-11.81a6748.843 6748.843 0 016.069-23.57c2.126-8.183 3.783-14.543 3.783-14.543h-16.743s-1.955 6.19-4.417 14.245c-4.008 13.084-9.364 31.099-9.911 35.48-.841 7.057 2.363 47.176 2.363 47.176z" fill="#263238"/><path d="M204.394 151.803c3.021-.064 2.153-.088 5.154-.115 1.479 0 11.188-.099 12.572.131.028 0 .028.055 0 .059-1.384.23-11.101.147-12.572.131-3.017-.028-2.149-.056-5.154-.115a.049.049 0 01-.025-.017.052.052 0 01-.009-.029c0-.01.003-.02.009-.028a.049.049 0 01.025-.017zm11.351-46.426c.65-2.859 1.617-5.658 2.462-8.465a8210.85 8210.85 0 015.154-17.088c.864-2.846 1.734-5.693 2.608-8.54.442-1.435.886-2.87 1.333-4.305.44-1.404.939-2.775 1.34-4.21.158-.575.249-.258.039.471-.416 1.475-.828 2.954-1.257 4.425-.853 2.907-1.71 5.815-2.569 8.722a4798.159 4798.159 0 01-5.189 17.361 2927.1 2927.1 0 01-2.617 8.699 36.024 36.024 0 00-1.067 4.206 19.29 19.29 0 00-.174 4.504c.19 3.025.539 6.046.821 9.063.281 3.017.559 6.046.836 9.071.558 6.019 1.11 12.037 1.657 18.055.068.762.135 1.527.195 2.288 0 .258-.163.285-.187.04-.654-5.947-1.355-11.97-1.915-17.929-.559-5.958-1.114-11.862-1.669-17.793-.138-1.487-.297-2.977-.297-4.476.013-1.381.179-2.756.496-4.099z" fill="#37474F"/><path d="M217.382 58.276c1.166 9 3.382 25.87 5 38.113 3.778-14.832 9.852-38.113 9.852-38.113h-14.852z" fill="#37474F"/><path d="M213.267 165.318c.963.317 28.414.06 29.453-.614.397-.25.595-4.25.69-9.095v-.151c0-.999.04-2.026.044-3.065v-.432c.063-6.989-.44-14.241-.44-14.241l-17.944.119.511 14.091.02.559.099 2.921v.302s-10.463 4.797-11.529 5.657c-1.067.861-1.864 3.644-.904 3.949z" fill="#F7A9A0"/><path d="M213.267 165.318c.963.317 28.414.06 29.453-.614.397-.25.595-4.25.69-9.095v-.151c0-.999.04-2.026.044-3.065v-.432h-17.885l.02.559.099 2.922v.302s-10.463 4.797-11.529 5.657c-1.067.86-1.852 3.612-.892 3.917z" fill="#EBEBEB"/><path d="M213.267 165.318c.963.317 28.414.06 29.453-.614.397-.25.595-4.25.69-9.095v-.151l-17.714-.032v.302s-10.463 4.797-11.529 5.657c-1.067.861-1.86 3.628-.9 3.933z" fill="#A6A6A6"/><path d="M213.568 164.252c4.627-.155 23.3-.353 27.887-.155.036 0 .036.028 0 .028-4.583.258-23.256.301-27.887.202-.095 0-.095-.071 0-.075zm10.162-8.754c1.819-.357 4.047-.099 5.451 1.189.055.052 0 .127-.075.111a25.475 25.475 0 00-5.365-1.066.122.122 0 01-.084-.03.115.115 0 01-.038-.081.116.116 0 01.111-.123zm-1.305.793c1.816-.357 4.044-.099 5.448 1.189.055.052 0 .127-.076.111a25.403 25.403 0 00-5.364-1.066.12.12 0 01-.084-.032.114.114 0 01-.037-.081.114.114 0 01.032-.084.114.114 0 01.081-.037zm-1.308.812c1.816-.356 4.048-.099 5.451 1.19.056.051-.02.127-.075.107a25.778 25.778 0 00-5.368-1.063.117.117 0 11-.008-.234z" fill="#263238"/><path d="M216.022 58.276s.397 8.017 2.22 14.364c.151.528.31 1.043.48 1.539a29.864 29.864 0 014.829 2.481s.194 6.451.397 13.643c.214 8.04.436 17.008.396 18.911-.166 7.117.892 46.252.892 46.252l19.764.079s-3.568-43.702-3.548-46.311c.035-4.19-.96-22.71-1.725-36.217-.274-4.95-.891-9.876-1.848-14.74h-21.857z" fill="#263238"/><path d="M225.894 151.949c3.021-.047 2.153-.075 5.154-.091 1.479 0 11.188-.051 12.568.183a.033.033 0 01.015.011.03.03 0 010 .036.029.029 0 01-.015.012c-1.384.222-11.101.099-12.568.079-3.021-.043-2.153-.063-5.154-.138a.043.043 0 01-.024-.018.042.042 0 01-.01-.028c0-.01.003-.02.01-.028a.043.043 0 01.024-.018zm11.3-90.81c.36 11.03.749 22.055 1.24 33.077.492 11.022 3.093 50.649 3.759 56.802 0 .039-.06.055-.067 0-1.44-10.939-2.24-27.13-2.946-38.136-.706-11.006-1.19-22.032-1.566-33.054-.21-6.236-.373-12.472-.559-18.705-.004-.08.135-.071.139.016zm-19.293 12.56a36.996 36.996 0 015.65 2.962.065.065 0 01-.01.119.064.064 0 01-.049-.005c-1.907-.923-3.854-1.815-5.706-2.846a.129.129 0 01.115-.23z" fill="#37474F"/><path d="M217.79 66.9c.131.701.302 1.4.452 2.097.151.698.246 1.324.421 1.982a3.38 3.38 0 00.919 1.653c.258.238.54.448.813.666.147.12.31.234.46.353a4.86 4.86 0 01-.051-.281c-.048-.27-.092-.535-.135-.793-.099-.59-.194-1.19-.286-1.776-.178-1.166-.345-2.343-.586-3.501 0-.01.003-.019.01-.025a.037.037 0 01.025-.01c.01 0 .019.003.026.01.006.006.01.015.01.025.293 1.142.614 2.276.864 3.43.127.562.567 3.358.587 3.568.02.21.04.396.044.614.025.208.025.418 0 .626a.055.055 0 01-.019.024.055.055 0 01-.029.008.055.055 0 01-.029-.008.055.055 0 01-.019-.023 2.464 2.464 0 01-.178-.607 7.753 7.753 0 01-.131-.603c0-.075-.024-.15-.035-.226-.274-.166-.532-.396-.793-.575a11.112 11.112 0 01-.825-.614 3.171 3.171 0 01-1.003-1.566 11.49 11.49 0 01-.329-2.01c-.087-.793-.151-1.586-.262-2.379.016-.087.072-.107.079-.06z" fill="#37474F"/><path d="M223.278 37.99c-4.484 2.826-12.557 6.779-15.621 7.029-3.406.273-8.235-8.822-11.498-14.444-.634-1.114 7.731-6.664 8.358-5.44 1.641 3.212 4.789 10.337 5.574 10.539.646.166 7.315-.817 11.073-1.415 5.983-.948 5.285 1.74 2.114 3.73z" fill="#F7A9A0"/><path d="M205.853 27.217l-8.619 6.871s6.117 10.443 9.297 11.129c3.179.686 13.309-4.639 16.687-7.022 3.378-2.382 3.473-4.622-1.023-4.13-4.496.49-11.497 1.375-12.041 1.121-.543-.254-4.301-7.969-4.301-7.969z" fill="#EBEBEB"/><path d="M199.271 36.44c3.093-3.228 6.835-6.154 7.45-6.71a.036.036 0 01.011-.008.03.03 0 01.027 0 .025.025 0 01.011.008.023.023 0 01.007.012.034.034 0 010 .015.031.031 0 01-.006.012.025.025 0 01-.01.01c-.635.51-4.548 4.321-7.45 6.716-.032.027-.071-.024-.04-.056z" fill="#263238"/><path d="M203.986 43.488c.904.908 1.792 1.586 2.545 1.729 3.172.682 13.309-4.635 16.687-7.018 1.447-1.023 2.292-2.014 2.43-2.775-5.185 1.927-17.285 6.439-21.662 8.064z" fill="#C7C7C7"/><path d="M197.967 33.72l7.708-6.221c-.044-.234-.437-.84-.726-1.63-.257-1.7-.245-3.43.036-5.126.396-2.046 1.245-5.035.15-5.293-1.586-.396-3.104 3.267-3.845 5.42-.821-.928-1.614-1.645-2.229-1.895-2.045-.829-6.902 7.83-5.808 9.788 1.059 1.888 3.549 4.572 4.714 4.956z" fill="#455A64"/><path d="M197.916 19.494h2.938v-7.481h-2.938v7.481z" fill="#4BBD23"/><path d="M199.077 34.39h.615l.769-14.896h-2.149l.765 14.895z" fill="#DBDBDB"/><path d="M199.386 34.39s.504 1.236 0 1.236c-.503 0 0-1.237 0-1.237z" fill="#76B7ED"/><path d="M201.956 20.882c-.04 1.146-1.368.444-1.368.444s1.669 1.47 1.189 2.636c-.48 1.166-2.053.222-2.168.159.087.075 1.585 1.467.967 2.589-.619 1.122-2.07 0-2.161-.091.06.099.825 1.435.163 2.18-1.142 1.28-3.192-2.081-4.552-2.355 0 0-.721 2.256-.757 2.316-.036.059-2.018-3.172-1.55-4.976a1.189 1.189 0 011.189-.916s-.765-.947-.305-1.843c.238-.46 1.189-.492 1.189-.492a1.51 1.51 0 01-.123-1.558c.365-.619 1.261-.551 1.261-.551s-.21-1.011.369-1.523c1.142-1.03 6.732 1.527 6.657 3.98z" fill="#455A64"/><path d="M195.053 18.412c-.02 0 0-.036 0-.032a10.672 10.672 0 015.626 2.978c.048.047 0 .146-.075.103a21.806 21.806 0 00-5.551-3.05zm-1.304 2.098c-.024 0 0-.049 0-.04a9.976 9.976 0 015.911 3.627c.052.064.028.175-.036.103-1.042-1.229-4.004-3.02-5.875-3.69zm4.706 6.28c-1.459-1.82-3.354-2.99-5.476-3.91-.027 0 0-.048.02-.048 1.158.17 2.446.896 3.402 1.55a6.148 6.148 0 012.117 2.356c.02.04-.032.09-.063.051z" fill="#263238"/><path d="M200.627 21.322c.056.06-.095.075-.039.139.23.261 1.475 1.946 1.031 2.549-.357.48-1.249.337-1.586.147l-.813-.476.595.73c.269.32.482.683.63 1.074a1.383 1.383 0 010 1.126.789.789 0 01-.884.436 2.347 2.347 0 01-1.051-.563l-.84-.73.555.96c.154.268.274.554.357.852.085.28.085.577 0 .857a.706.706 0 01-.571.48 1.587 1.587 0 01-.841-.25 12.538 12.538 0 01-1.55-1.15c-.254-.206-.507-.397-.773-.607a2.319 2.319 0 00-.864-.452c.295.123.564.3.793.524.245.21.483.436.721.658.467.466.977.887 1.523 1.256.291.207.637.323.995.333a1.005 1.005 0 00.872-.674 1.812 1.812 0 000-1.066 3.959 3.959 0 00-.397-.952l-.285.23c.357.342.802.58 1.285.686.258.056.529.021.765-.099a1.33 1.33 0 00.527-.55 1.728 1.728 0 000-1.424 4.199 4.199 0 00-.71-1.19l-.214.254c.417.226 1.4.496 2.046-.182.722-.995-.951-2.645-1.277-2.926z" fill="#263238"/><path d="M200.588 21.326c.226.068.461.101.698.099a.54.54 0 00.468-.27c.076-.195.095-.408.055-.614a8.25 8.25 0 00-.143-.71c.178.187.313.41.397.654a1.052 1.052 0 010 .821.723.723 0 01-.761.365 1.221 1.221 0 01-.714-.345z" fill="#263238"/><path d="M213.096 65.104l26.528 1.538s-3.172-23.352-11.581-32.356c-1.043-1.11-3.628-1.122-5.376-.452-.627.242-2.882 3.22-3.759 5.999-.876 2.78-5.871 25.183-5.812 25.27z" fill="#76B7ED"/><path d="M223.587 40.02l-.642-1.932-1.757 1.344.183 1.404 1.383.36.833-1.177zm-.833 1.177l-1.34 15.89-2.517 4.746-1.364-5.515 3.837-15.482 1.384.36z" fill="#263238"/><path d="M227.032 33.72a120.915 120.915 0 00-1.772 14.84c-.793 18.97.662 52.638 1.189 55.108.306 1.407 16.628-1.122 16.628-1.122s-1.487-38.854-6.922-54.122c-5.015-14.161-9.123-14.705-9.123-14.705z" fill="#EBEBEB"/><path d="M239.315 76.161c-1.852.255-3.718.4-5.587.436-2.612 0-5.209-.254-5.947-.265-.067 0-.099.222-.055.225a59.15 59.15 0 005.955.44 31.248 31.248 0 005.439-.515v1.538c-1.843.357-5.4.976-11.144.234 0-.234 0-1.463-.036-1.8 0-.051-.218-.063-.23 0-.044.333-.178 3.295-.182 3.898 0 1.482.087 5.673.456 6.486.836 1.84 4.416 1.843 5.407 1.851.991.008 4.183.107 5.38-1.062.639-.627.793-4.024.682-7.026-.051-1.435-.055-4.396-.138-4.44zm-5.646 12.152c-3.172 0-4.544-.663-5.031-1.32-.567-.77-.615-2.114-.658-3.593-.036-1.161 0-4.805 0-4.88 1.843.377 6.712.88 11.132-.147v4.833c0 1.253-.075 3.35-.709 4.076-.52.61-2.439 1.027-4.734 1.03z" fill="#DBDBDB"/><path d="M221.212 34.576s-3.172 13.967-3.604 16.227c-.432 2.26-3.965 49.237-4.757 50.914-.278.571-10.071-2.894-10.071-2.894s14.947-56.572 15.91-59.35c1.638-4.798 2.522-4.897 2.522-4.897z" fill="#EBEBEB"/><path d="M197.59 37.149l.06 13.52a1.596 1.596 0 103.191 0l-.063-13.52h-3.188z" fill="#DBDBDB"/><path d="M197.793 41.058l.043 9.598a1.418 1.418 0 00.386 1.046 1.412 1.412 0 002.433-1.046l-.043-9.598h-2.819z" fill="#76B7ED"/><path d="M197.091 38.062l4.19-.019-.009-2.101-4.191.019.01 2.101z" fill="#455A64"/><path d="M227.353 38.485c-1.649 1.633-10.887 14.146-10.978 15.644-.135 2.351.365 8.513 5.677 6.978 3.68-1.062 7.533-13.813 8.778-19.59.773-3.58-.531-5.946-3.477-3.032z" fill="#F7A9A0"/><path d="M210.65 48.694c-1.304-.091-7.462 7.568-5.796 8.536 7.834 4.555 14.764 4.46 16.504 4.04 2.284-.551 3.133-3.358 2.566-4.79-.821-2.081-11.982-7.695-13.274-7.786z" fill="#F7A9A0"/><path d="M211.237 48.849s-2.918-2.867-4.893-4.758c-1.098-1.067-3.147-2.72-4.313-3.132-1.741-.615-9.428-2.078-9.821-.222-.356 1.68 6.403 2.097 6.403 2.097s-6.783-1.027-6.843 1.074c-.059 2.102 7.644 1.559 7.644 1.559s-6.997-.896-6.712 1.28c.214 1.645 7.216 1.546 7.216 1.546s-6.019-.73-5.872.972c.163 1.879 6.633 2.196 6.633 2.196 1.102 4.258 3.624 6.574 5.947 6.74.492.032 4.611-9.352 4.611-9.352z" fill="#455A64"/><path d="M200.984 43.028c-.793-.146-1.586-.305-2.379-.396a22.226 22.226 0 00-2.414-.135 13.479 13.479 0 00-3.144.29c1.863-.25 4.757 0 5.55.063.793.063 1.606.119 2.407.194-.004.02 0-.012-.02-.016zm-.23 2.906c-1.023-.146-2.03-.329-3.057-.432-1.026-.103-2.002-.107-3.025-.135-.079 0-.055.04.024.044 1.023.072 1.983.218 2.99.301 1.007.084 2.049.127 3.064.25l.004-.028zm.25 2.518a23.216 23.216 0 00-4.722-.301c-.079 0-.039.051.04.055 1.586.072 2.807.115 4.674.301.028.016.04-.035.008-.055z" fill="#263238"/><path d="M211.237 48.694l-5.222 10.784s13.195 4.186 16.735 1.586c3.541-2.601 7.188-13.084 8.298-19.03 1.11-5.948-2.061-6.273-4.793-2.506-2.732 3.766-8.992 11.77-8.992 11.77l-6.026-2.604z" fill="#EBEBEB"/><path d="M209.588 59.799c1.459-4.227 3.635-8.449 3.964-9.214 0-.036.072 0 .056.028-.361.733-2.324 5.828-3.965 9.218-.012.04-.067.008-.055-.032zm3.845 1.534a34.51 34.51 0 005.88.63 6.918 6.918 0 002.422-.447 3.88 3.88 0 001.051-.615c.343-.302.648-.646.908-1.023a34.122 34.122 0 002.827-4.666 59.818 59.818 0 002.244-5.012c.678-1.7 1.355-3.41 1.982-5.13.075-.214.155-.424.23-.638 0-.032.063 0 .051 0-.396 1.221-.793 2.446-1.225 3.667a51.71 51.71 0 001.087-1.95c0-.028.055 0 .039.027a20.46 20.46 0 01-1.26 2.308 55.906 55.906 0 01-2.665 6.387 35.038 35.038 0 01-2.834 4.757 5.591 5.591 0 01-1.864 1.852 6.125 6.125 0 01-2.379.63 13.78 13.78 0 01-2.775-.071c-.979-.111-3.524-.619-3.762-.706.012.024.023-.004.043 0zm2.502-10.657c.222.08.432.194.646.29.214.095.424.194.634.3.437.219.865.441 1.297.667.86.448 1.673.98 2.486 1.51.067.044 0 .147-.06.108-.824-.496-1.673-.948-2.501-1.436a29.38 29.38 0 00-1.241-.705l-.615-.341c-.218-.123-.448-.23-.658-.361-.016-.012-.008-.04.012-.032z" fill="#263238"/><path d="M223.226 38.263c1.451.31 3.881-1.95 4.821-3.763.063-.127-.155-1.415-.341-2.993-.111-.955-.214-2.026-.234-3.01 0-.201-6.129 1.634-6.129 1.634.378 1.22.606 2.483.678 3.759 0 .133-.012.266-.036.396a.38.38 0 010 .068c-.115.777-.163 3.608 1.241 3.909z" fill="#F7A9A0"/><path d="M227.551 29.993c-2.144 3.358-4.936 3.171-5.582 3.076a17.752 17.752 0 00-.626-2.938s6.125-1.835 6.129-1.633c.012.484.04.995.079 1.495z" fill="#263238"/><path d="M228.939 20.906c.504 2.228-1.114 8.44-2.775 9.729-2.399 1.871-6.094 1.792-7.624-1.039-1.479-2.743.773-10.8 2.597-11.95 2.7-1.704 7.061-.031 7.802 3.26z" fill="#F7A9A0"/><path d="M222.485 24.632s.027.032.023.048c-.122.396-.19.912.155 1.146v.023c-.448-.182-.353-.84-.178-1.217z" fill="#263238"/><path d="M222.976 24.291c.69.123.397 1.487-.242 1.376-.638-.11-.333-1.475.242-1.376zm-2.946-.277s-.035 0-.039.032c-.076.424-.238.9-.65.959v.024c.479.032.685-.599.689-1.015z" fill="#263238"/><path d="M219.749 23.494c-.67-.198-1.015 1.154-.396 1.337.618.182.955-1.174.396-1.337zm3.865.548a5.37 5.37 0 01-.566-.072.897.897 0 01-.567-.182.283.283 0 01-.032-.357.735.735 0 01.706-.234 1.1 1.1 0 01.705.321.319.319 0 01-.246.523zm-4.246-1.36c.195 0 .377 0 .571-.024.203.02.407-.03.579-.139a.291.291 0 00.06-.353.724.724 0 00-.682-.29 1.073 1.073 0 00-.73.266.315.315 0 00.202.54z" fill="#263238"/><path d="M221.989 27.13a1.468 1.468 0 01-1.098.432 1.707 1.707 0 01-.524-.087.334.334 0 01-.095-.032l-.091-.031a.117.117 0 01-.051-.047.114.114 0 01-.012-.068.131.131 0 010-.04v-.036c.059-.329.198-.816.198-.816-.135.031-.793.178-.753 0a22.722 22.722 0 011.49-4.239c.024-.043.091 0 .076.028-.318 1.352-.869 2.637-1.21 3.989.237-.054.48-.074.722-.06.044.024-.282.94-.297 1.086a2.043 2.043 0 001.585-.142c.064 0 .092.035.06.063z" fill="#263238"/><path d="M220.594 27.352c.129.271.325.505.57.678.136.09.297.135.46.127.357 0 .432-.321.428-.603a1.79 1.79 0 00-.067-.436 2.244 2.244 0 01-1.391.234z" fill="#263238"/><path d="M221.164 28.03c.136.09.297.135.46.127.357 0 .432-.321.428-.603a.811.811 0 00-.888.476z" fill="#FF9ABB"/><path d="M227.991 25.826c-1.106-.179-.721-2.887-.721-2.887s-1.665-.475-2.26-2.886c0 0-2.323 1.15-4.119.63-2.815-.792-2.379-4.527-1.209-5.181 1.629-.92 4.182.92 4.182.92s4.215-.726 5.154 2.172a2.117 2.117 0 011.745 2.3c-.08 2.03-1.935 5.067-2.772 4.932z" fill="#263238"/><path d="M227.639 23.3a3.793 3.793 0 01-2.026-1.387 2.842 2.842 0 01-.397-2.577c0-.044-.059-.068-.075-.024a3.27 3.27 0 00.182 2.775 2.651 2.651 0 002.3 1.304c.039-.011.059-.075.016-.09zm3.389-3.576c-.491-.793-1.344-.975-2.2-1.03-.047 0-.051.075 0 .075a2.382 2.382 0 012.002 1.367c.361.714.179 1.555-.071 2.28a5.982 5.982 0 01-2.736 3.307c-.024 0 0 .047 0 .035a6 6 0 003.065-3.616c.238-.769.392-1.704-.06-2.418z" fill="#263238"/><path d="M218.599 26.028c-.69-.19-1.015-1.19-.729-2.232.285-1.043 1.082-1.737 1.772-1.546.69.19 1.015 1.189.729 2.236-.285 1.046-1.086 1.732-1.772 1.542zm.971-3.525c-.547-.15-1.189.46-1.447 1.36-.257.9 0 1.76.543 1.915.544.155 1.19-.46 1.452-1.364.261-.904-.012-1.756-.548-1.91zm3.263 4.698a1.984 1.984 0 01-1.428-2.755 1.978 1.978 0 011.907-1.17 1.984 1.984 0 011.809 2.522 1.896 1.896 0 01-2.288 1.404zm.976-3.524a1.701 1.701 0 101.058 2.054 1.618 1.618 0 00-.104-1.247 1.625 1.625 0 00-.954-.807z" fill="#37474F"/><path d="M221.723 24.664c-.856-.59-1.367-.396-1.371-.396l-.103-.242c.027 0 .638-.258 1.625.428l-.151.21zm3.315.936l.024-.262c.17 0 2.866.139 3.29.23.425.091 1.321.96 1.42 1.059l-.187.182a5.046 5.046 0 00-1.268-.98c-.349-.075-1.824-.102-3.279-.23z" fill="#37474F"/><path d="M226.703 26.583s1.614-1.9 2.49-1.304c.876.594-.476 3.437-1.586 3.738a1.11 1.11 0 01-1.423-.73l.519-1.704z" fill="#F7A9A0"/><path d="M228.784 26.083v.028c-.792.238-1.256.904-1.585 1.586a.604.604 0 01.445-.252.613.613 0 01.482.173s0 .047-.023.04a.683.683 0 00-.77.166 3.188 3.188 0 00-.396.567c-.044.067-.163 0-.131-.06.04-.963.932-2.248 1.978-2.248z" fill="#263238"/><path d="M222.017 34.005l1.015 3.508 4.979-3.647.75 1.709s-5.024 5.804-5.004 5.51l-.955-2.941-2.272 1.586.892-4.758.595-.967z" fill="#76B7ED"/><path d="M220.831 37.351c.175-.793.329-1.586.539-2.355 0-.028.056-.032.06 0 .047.793-.638 3.786-.745 4.516.095-.072 2.093-1.408 2.105-1.38.23.484.931 2.64.975 2.83.793-.919 4.123-4.527 5.027-5.375a.03.03 0 01.019-.01.026.026 0 01.021.006.028.028 0 01.01.019.026.026 0 01-.006.02c-.73.992-5.043 5.761-5.091 5.741a30.826 30.826 0 01-.995-3.128c-.349.305-2.379 1.844-2.379 1.725.108-.877.261-1.748.46-2.609z" fill="#263238"/><path d="M88.567 116.249l1.126 6.744 7.62 41.157h1.23L93 122.993l-.821-6.744h-3.612z" fill="#C7C7C7"/><path d="M92.179 116.249h-3.612l1.126 6.744H93l-.821-6.744z" fill="#A6A6A6"/><path d="M64.632 164.15h1.23l7.62-41.157 1.125-6.744h-3.611l-.821 6.744-5.543 41.157z" fill="#C7C7C7"/><path d="M70.996 116.249l-.821 6.744h3.307l1.126-6.744h-3.612z" fill="#A6A6A6"/><path d="M41.772 164.15h1.23l7.623-41.157 1.122-6.744h-3.611l-.821 6.744-5.543 41.157z" fill="#C7C7C7"/><path d="M47.315 122.993h3.31l1.122-6.744h-3.612l-.82 6.744z" fill="#A6A6A6"/><path d="M43.723 119.417h55.846v-4.528l-20.906-1.356-7.025-40.526H45.852l-2.13 46.41z" fill="#C7C7C7"/><path d="M43.723 119.417h3.045l1.982-46.41h-2.898l-2.13 46.41z" fill="#A6A6A6"/><path d="M76.562 57.366c2.835 3.346 1.26 7.31 2.276 9.761.618 1.499 3.124 3.378 3.417 5.035.48 2.728-1.86 3.303-1.586 4.785.373 2.098 3.061 2.38 3.017 5.702-.043 3.322-4.174 6.212-12.821 5.788-8.647-.424-12.81-4.286-12.687-7.093.123-2.807 3.112-3.274 3.636-5.304.333-1.297-1.265-2.494-.964-4.933.301-2.438 2.775-2.846 3.457-4.848.682-2.002.397-7.18 3.818-9.25 3.422-2.07 7.037-1.296 8.437.357z" fill="#263238"/><path d="M76.17 57.378a7.092 7.092 0 011.776 2.87 15.46 15.46 0 01.678 3.533 9.45 9.45 0 00.34 2.105c.208.579.517 1.116.913 1.586.793.98 1.784 1.784 2.458 2.85.674 1.067 1.058 2.292.55 3.446-.273.63-.792 1.094-1.157 1.661s-.567 1.245-.147 1.804c.361.48.944.77 1.372 1.19.422.408.775.882 1.047 1.403a4.198 4.198 0 01.258 3.39c-.924 2.56-3.644 3.667-6.082 4.246l-1.027.234c-.052 0-.083-.068-.028-.08 2.462-.662 5.32-1.439 6.617-3.865a3.934 3.934 0 00.15-3.473 4.943 4.943 0 00-1.01-1.471c-.397-.397-.904-.71-1.324-1.11a1.586 1.586 0 01-.496-1.51 3.842 3.842 0 01.9-1.587c.441-.467.73-1.057.829-1.692a3.426 3.426 0 00-.397-1.808c-.55-1.126-1.502-1.963-2.327-2.879a5.82 5.82 0 01-1.61-3.191c-.079-.635-.087-1.277-.142-1.911a15.525 15.525 0 00-.238-1.76 8.045 8.045 0 00-1.32-3.248 4.789 4.789 0 00-.607-.69.027.027 0 01-.023-.014.028.028 0 01.022-.04c.005-.001.01 0 .014.002a.028.028 0 01.01.009zM58.134 79.259a3.2 3.2 0 01.793-1.142c.357-.325.765-.587 1.146-.88a2.38 2.38 0 00.88-1.035 2.324 2.324 0 00-.13-1.586 11.793 11.793 0 01-.52-1.586 5.385 5.385 0 01-.072-1.633 5.511 5.511 0 011.36-3.021c.37-.428.766-.829 1.134-1.253.407-.462.75-.977 1.02-1.53.586-1.218.887-2.554 1.407-3.799a20.615 20.615 0 011.982-3.631c0-.028.06 0 .04.036a17.84 17.84 0 00-1.765 3.286c-.452 1.095-.741 2.236-1.126 3.35a8.837 8.837 0 01-.697 1.586 9.12 9.12 0 01-.968 1.305c-.721.84-1.463 1.669-1.8 2.755a5.257 5.257 0 00.04 3.267c.31.916.793 1.947.238 2.87-.468.793-1.344 1.158-1.982 1.769a3.405 3.405 0 00-1.008 2.593c.076 2.45 2.272 4.012 4.484 4.487a.055.055 0 010 .107c-1.938-.332-3.909-1.522-4.527-3.484a4.15 4.15 0 01.071-2.831z" fill="#263238"/><path d="M117.929 152.07c-.856.499-27.217 6.01-28.355 5.586-.432-.163-1.459-3.965-2.57-8.572-.237-.995-.479-2.03-.72-3.076a762.532 762.532 0 01-3.061-14.063l17.623-3.739 2.577 14.166.567 3.112s11.057 2.403 12.246 3.002c1.19.598 2.554 3.08 1.693 3.584z" fill="#AD6359"/><path d="M87.433 150.849c.94 3.786 1.764 6.664 2.141 6.807 1.138.424 27.503-5.091 28.359-5.59.857-.5-.515-2.978-1.705-3.568-.741-.369-5.225-1.424-8.551-2.181 2.906.694 8.325 2.664-2.887 3.477-9.273.662-15.39.967-17.357 1.055z" fill="#263238"/><path d="M94.137 165.55c-.955.265-27.847-1.122-28.843-1.824-.396-.266.258-6.165.54-7.204.955-3.517 5.899-19.01 5.899-19.01l17.996.876-7.39 17.242s10.058 5.154 11.065 6.022c1.007.869 1.693 3.632.733 3.898z" fill="#AD6359"/><path d="M65.295 163.726c.995.702 27.887 2.089 28.846 1.828.96-.262.266-3.014-.737-3.902-.472-.396-2.902-1.744-5.364-3.048 3.092 1.74 7.985 5.621-22.464-1.297-.277 3.077-.484 6.276-.281 6.419z" fill="#263238"/><path d="M52.406 112.356c5.36 5.971 23.39 1.257 24.45 3.631.947 2.098-11.343 35.754-11.343 35.754l19.668 2.121s16.977-37.173 10.907-47.913c-3.275-5.8-17.722-3.485-26.436-4.548-2.633-.321-3.866-5.744-3.866-5.744H50.217s-3.929 9.876 2.189 16.699z" fill="#37474F"/><path d="M90.629 102.623l-16.513 12.639c-5.487-.115-17.492 1.784-21.699-2.906-6.13-6.827-2.2-16.695-2.2-16.695h15.577s1.233 5.419 3.862 5.74c6.14.742 15.053-.17 20.973 1.222zm-4.69 46.85c-.544-.171-5.642-.738-6.768-.86-2.248-.242-9.337-.904-10.622-.9a.03.03 0 00-.015.011.034.034 0 00-.005.018.03.03 0 00.005.018c.004.006.01.01.015.012 1.118.234 5.642.761 6.764.876 2.256.23 10 .983 10.626.92a.048.048 0 00.047-.048.047.047 0 00-.047-.047z" fill="#263238"/><path d="M79.25 114.017c-1.264-.63-10.851-.317-17.73-.963-2.244-.211-4.492-.686-6.2-2.157a10.23 10.23 0 01-3.061-5.043c-.646-2.347-.595-4.817-.48-7.196.028-.59.067-1.19.103-1.776 0-.032-.06-.04-.063 0-.52 4.313-.92 9.118 1.883 12.869a8.99 8.99 0 005.015 3.287c4.147 1.094 19.744.82 20.295 1.245.654.499-9.428 31.197-9.63 31.784-.035.107.159.183.202.076.995-2.379 10.764-31.579 9.666-32.126zm17.56-7.033c-.928-2.351-3.041-3.818-6.154-4.361-.051 0-.047.067 0 .079 2.712.793 4.655 1.887 5.721 4.179.5 1.07.758 2.573.889 4.587.646 10.054-8.128 32.871-8.306 33.267a.031.031 0 00.001.021.035.035 0 00.015.016.03.03 0 00.021.002.027.027 0 00.018-.011c1.233-2.097 11.616-28.058 7.794-37.779z" fill="#263238"/><path d="M103.914 141.476l-14.891 3.172s11.747-35.067 6.228-39.591c-1.53-1.257-4.864-1.693-8.825.02-5.92 2.553-12.77 7.766-19.225 9.669-6.05 1.785-13.226.143-15.696-2.573-5.19-5.713-1.288-16.512-1.288-16.512l21.409-.793s-.317.257.702 1.165c0 0 12.591-2.854 18.063.488 9.872 6.01 13.523 44.955 13.523 44.955z" fill="#37474F"/><path d="M59.47 96.906a.04.04 0 00-.037-.028.04.04 0 00-.038.028c.022.805-.04 1.61-.186 2.402a4.11 4.11 0 01-1.075 1.982c-1.189 1.19-2.858 1.586-4.4 2.078-.08.028-.064.17.027.155 1.705-.262 3.505-.694 4.758-1.983a4.16 4.16 0 001.106-2.149c.153-.828.1-1.682-.154-2.486zm35.413 7.473c-2.292-1.439-5.868-.345-7.585.309a.034.034 0 00-.014.016.031.031 0 00-.001.022.031.031 0 00.014.018.04.04 0 00.021.004c1.586-.567 5.5-1.424 7.597.059 4.844 3.433-1.642 26.912-5.892 39.833-.067.202.091.147.183-.048.701-1.53 6.18-17.841 7.612-28.66.218-1.661 1.367-9.484-1.935-11.553z" fill="#263238"/><path d="M102.217 137.512c-.452 0-4.31.84-5.154 1.03-1.7.397-5.641 1.404-6.561 1.757-.024 0 0 .059 0 .055.884-.083 2.942-.535 3.786-.729 1.7-.397 7.533-1.792 7.949-2.022.044-.02.024-.091-.02-.091zm-8.064-33.744c-1.538-.84-3.374-.979-5.082-.769a17.84 17.84 0 00-5.198 1.626c-3.485 1.586-6.803 3.54-10.308 5.122-3.505 1.582-7.168 2.811-10.99 2.926-3.271.103-7.406-.472-9.515-3.414-3.236-4.527-1.348-12.334-1.313-12.841 0-.036-.047-.036-.06 0-2.509 9.594.722 13.321 2.903 14.891 1.729 1.245 4.218 1.558 5.86 1.697 3.806.321 7.616-.611 11.14-2.014 3.612-1.439 6.998-3.378 10.46-5.154 3.318-1.697 7.017-3.449 10.807-2.474.43.112.851.255 1.26.428 0 0 .056-.012.036-.024z" fill="#263238"/><path d="M80.69 78.835c.871-.758 9.578.174 8.916 1.74-3.105 7.382-8.687 11.498-10.142 12.136-1.903.825-3.782-.856-4.143-2.165-.523-1.883 4.504-10.942 5.368-11.711z" fill="#AD6359"/><path d="M79.706 79.663l9.618 3.346s-6.232 8.945-10.399 9.948c-1.49.36-3.766-1.015-3.92-2.898-.155-1.884 4.701-10.396 4.701-10.396z" fill="#EBEBEB"/><path d="M87.41 84.75a82.11 82.11 0 01-8.22-2.99c-.031 0 0-.063.02-.051.655.278 5.19 1.733 8.223 2.99.036.011.012.083-.024.05z" fill="#263238"/><path d="M70.163 71.718c1.416 1.483 11.498 12.6 12.14 12.972 0 0-.139 9.516-4.877 8.326-3.08-.793-9.681-14.4-10.811-19.823-.52-2.526.575-4.587 3.548-1.475z" fill="#EBEBEB"/><path d="M79.968 92.433a2.64 2.64 0 01-2.542.571c-3.08-.793-9.681-14.403-10.811-19.823-.5-2.403.491-4.4 3.215-1.78l10.138 21.032z" fill="#C7C7C7"/><path d="M72.498 95.748l-.59-9.119s2.442-2.724 1.883-5.154c-.282-1.24-4.567-10.653-4.984-11.037-1.677-1.547-4.488-.908-5.638-.032-6.379 4.86-10.835 15.252-12.944 25.477l22.273-.135z" fill="#76B7ED"/><path d="M69.608 72.535c-.114.357-.246.707-.396 1.05a6.041 6.041 0 01-.52.992 1.8 1.8 0 01-.773.721.963.963 0 01-.94-.297 6.794 6.794 0 01-1.347-1.76 11.958 11.958 0 01-.516-1 7.978 7.978 0 01-.396-1.046 9.08 9.08 0 001.395 3.088c.217.318.471.608.758.864.15.13.322.235.507.31a.971.971 0 00.305.06.794.794 0 00.31-.056 1.34 1.34 0 00.487-.341c.133-.141.25-.297.35-.464a7.21 7.21 0 00.776-2.121z" fill="#263238"/><path d="M46.213 133.547l18.634-4.5s.487-25.326.642-30.028c.345-10.562-.218-29.442-.218-29.442s-1.015 0-2.728 1.19c-1.713 1.189-4.226 3.568-6.914 8.547-9.825 18.11-9.416 54.233-9.416 54.233z" fill="#EBEBEB"/><path d="M51.47 113.125c-.087 2.839.043 6.05.646 6.641 1.134 1.102 4.143 1.011 5.087 1.003.943-.008 4.321 0 5.11-1.749.349-.769.44-4.729.432-6.133 0-.567-.13-3.37-.174-3.683 0-.075-.21-.064-.218 0-.048.321 0 1.483-.032 1.705-5.432.697-8.794.115-10.534-.222v-1.455c1.7.312 3.425.475 5.154.487a56.31 56.31 0 005.642-.396c.04 0 0-.214-.056-.214-.706 0-3.172.25-5.63.25a44.86 44.86 0 01-5.28-.397c-.104.004-.104 2.803-.147 4.163zm.975 6.316c-.599-.69-.67-2.673-.67-3.854v-4.571c4.179.975 8.782.495 10.522.142 0 .068.032 3.513 0 4.611-.04 1.4-.083 2.669-.622 3.394-.46.627-1.76 1.253-4.758 1.249-2.133-.004-3.968-.396-4.472-.971z" fill="#DBDBDB"/><path d="M69.144 70.767l2.68 24.977 1.404-.091s-.908-8.77-.892-8.94c.016-.171 2.493-2.256 1.903-5.353-.591-3.096-4.699-10.312-5.095-10.593z" fill="#EBEBEB"/><path d="M72.336 86.72a5.8 5.8 0 001.72-2.156 4.684 4.684 0 00.397-2.776 12.292 12.292 0 00-.793-2.66 19.17 19.17 0 00-1.213-2.482c.36.845.697 1.701 1.003 2.561.147.433.297.86.416 1.3.128.435.227.877.297 1.325a4.777 4.777 0 01-.305 2.629 6.815 6.815 0 01-1.522 2.26z" fill="#263238"/><path d="M65.27 69.561c-.263.635-.528 1.269-.792 1.903l-.793 1.903a167.248 167.248 0 00-1.534 3.822l-.048.115.103.08a338.8 338.8 0 002.07 1.585l-.036-.261-1.903 2.537-.064.087.04.096c.56 1.4 1.134 2.793 1.72 4.178.292.695.588 1.388.889 2.078.301.69.599 1.383.912 2.07-.246-.714-.508-1.42-.761-2.13-.254-.71-.52-1.415-.793-2.12a317.883 317.883 0 00-1.63-4.215l-.024.182 1.907-2.537.111-.15-.15-.112a346.32 346.32 0 00-2.094-1.586l.056.195c.484-1.285.96-2.574 1.427-3.866l.698-1.939c.238-.614.468-1.264.69-1.915zm3.858 2.03c.215.528.436 1.05.659 1.586.222.535.444 1.047.673 1.586.453 1.041.912 2.08 1.38 3.116l.044-.198c-.492.396-.98.817-1.463 1.229l-.115.095.071.135 1.261 2.323-.02-.115a191.754 191.754 0 00-.487 3.989c-.076.662-.147 1.328-.215 1.982-.067.654-.13 1.332-.186 2.002.127-.658.234-1.32.349-1.982.115-.662.218-1.324.325-1.983.202-1.324.397-2.648.583-3.964v-.06l-.028-.055-1.26-2.323-.04.234c.48-.417.96-.833 1.435-1.257l.095-.087-.051-.111a218.232 218.232 0 00-1.487-3.073 77.715 77.715 0 00-.761-1.526c-.258-.508-.5-1.04-.762-1.543z" fill="#DBDBDB"/><path d="M65.275 69.997c-.076.397.685 3.628 2.446 4.278.575.21 1.867-2.866 1.867-2.866l.147-.206 2.061-2.875-2.715-3.964-.397-.544s-.515.825-1.142 1.856c-.027.047-.06.095-.087.147a1.98 1.98 0 00-.107.166l-.285.468a7.971 7.971 0 00-.21.365c-.068.127-.147.254-.218.396a21.808 21.808 0 00-1.36 2.78z" fill="#AD6359"/><path d="M67.534 65.66a7.091 7.091 0 002.2 5.55l2.063-2.874-2.716-3.964-.397-.544s-.523.801-1.15 1.832z" fill="#263238"/><path d="M78.453 65.803c-1.863 5.919-5.622 5.475-6.902 5.07-1.158-.364-5.06-1.76-3.818-7.842 1.24-6.081 4.583-7.084 7.271-6.398 2.688.685 5.313 3.247 3.45 9.17z" fill="#AD6359"/><path d="M77.644 64.562c-.13-.072-.238-.155-.36-.238-.123-.083-.254-.15-.318-.31a.217.217 0 01.1-.249.538.538 0 01.547.075.828.828 0 01.368.452.238.238 0 01-.337.27zm-3.889-1.423c.14.031.282.055.424.07a.71.71 0 00.445 0 .222.222 0 00.099-.253.559.559 0 00-.456-.317.793.793 0 00-.575.083.234.234 0 00.063.417zm.198 1.76s-.04 0-.043.024c-.135.396-.353.84-.762.84v.024c.456.095.742-.488.805-.888z" fill="#263238"/><path d="M73.751 64.356c-.622-.282-1.142.979-.567 1.24.575.262 1.086-1.006.567-1.24z" fill="#263238"/><path d="M73.474 64.32c-.14.024-.298.107-.437.067-.138-.04-.222-.23-.27-.396 0-.02-.023 0-.027 0a.495.495 0 00.131.67c.222.13.48 0 .642-.234.028-.036.016-.119-.04-.107zm1.482 2.858s-.15.619-.261.897c0 .027-.083 0-.179-.02a1.42 1.42 0 01-1.082-1c0-.006 0-.013.004-.019a.032.032 0 01.052-.004c.258.382.631.67 1.066.825.048-.072.226-1.071.27-1.055.208.104.4.238.57.396.357-1.28.504-2.608.877-3.877a.04.04 0 01.079 0 21.506 21.506 0 01-.765 4.214c-.052.17-.54-.265-.63-.356zm2.661-1.03a1.254 1.254 0 00-.294-.194 1.227 1.227 0 00-.737-.111.844.844 0 00-.349.182l-.178.15.23.064a2.6 2.6 0 01.475.182c.16.076.296.192.397.337a.793.793 0 00-.294-.491 1.458 1.458 0 00-.515-.27l.048.218a.837.837 0 01.547-.174c.227.008.452.044.67.107z" fill="#263238"/><path d="M76.641 66.794a2.15 2.15 0 01-.396-.369c-.028-.035-.127-.186-.107-.21a.952.952 0 01.178-.206.736.736 0 00-.226.178.345.345 0 00.091.29c.122.145.281.255.46.317zm-8.861-2.926a2.53 2.53 0 002.05-1.431 6.57 6.57 0 003.279-1.079c-.084.104-.682.857-1 1.23 3.898.69 6.079-1.674 6.079-1.674.454.903.7 1.896.717 2.907 0 0 .868-2.225.282-4.155a3.85 3.85 0 00-2.776-2.736 5.503 5.503 0 00-5.61-.345c-3.33 1.685-3.02 7.283-3.02 7.283z" fill="#263238"/><path d="M75.107 63.024a7.1 7.1 0 01-2.129 0 6.106 6.106 0 003.283-.611c.428-.213.828-.48 1.19-.793.411-.325.753-.73 1.006-1.19 0-.035.072 0 .056.028a4.759 4.759 0 01-.829 1.325 4.266 4.266 0 01-1.265.904c-.42.194-.866.328-1.324.396" fill="#263238"/><path d="M68.53 63.769s-.512-2.307-1.51-2.197c-1 .111-1.127 3.097-.318 3.846a1.05 1.05 0 001.514 0l.314-1.65z" fill="#AD6359"/><path d="M67.003 62.445v.023c.56.548.654 1.313.635 2.058a.58.58 0 00-.742-.48.024.024 0 00-.01.01.024.024 0 00.01.035.654.654 0 01.575.47c.055.217.087.44.095.663 0 .071.131.083.135 0v-.02c.353-.828.167-2.295-.698-2.76z" fill="#263238"/><path d="M58.666 73.252c-9.067 6.82-18.238 22.627-14.792 24.835 3.14 2.014 14.094 2.486 18.685 2.173 1.348-.092.428-10.57-1.015-10.475-1.744.119-6.13 0-6.3-.028-.365-.087 5.741-11.192 7.723-15.291 2.764-5.71-.896-3.775-4.301-1.214z" fill="#AD6359"/><path d="M75.281 89.726a1.605 1.605 0 01-.436 1.784c.459.319.79.789.936 1.328.218.96-1.19 1.717-1.19 1.717.406.43.673.973.766 1.558.115.935-1.19 1.907-1.19 1.907.155.6.089 1.236-.186 1.792-.793 1.451-3.326 1.585-4.932 1.704-1.606.119-6.264-1.09-7.176-1.229l-.793-10.308s7.065-2.533 8.972-2.379c1.602.112 4.734.972 5.23 2.126z" fill="#AD6359"/><path d="M74.762 91.351c-1.677-.54-3.421-.547-5.154-.658-.04 0-.044.06 0 .06 1.733.09 3.426.523 5.154.677.032.008.044-.067 0-.079zm-.218 3.073c-.39-.086-.79-.12-1.19-.1h-1.272c-.852 0-1.705.052-2.553.115-.04 0-.044.06 0 .06a67.915 67.915 0 012.545 0c.424 0 .849.024 1.273.04.395.042.794.042 1.19 0a.06.06 0 00.048-.055.059.059 0 00-.04-.06zm-.428 3.596a3.092 3.092 0 00-1.082-.032l-1.162.04a65.85 65.85 0 01-2.327.04.032.032 0 00-.023.053c.006.006.014.01.023.01.793 0 1.585.023 2.379.027h1.161c.353.03.71-.004 1.05-.099 0 0-.003-.035-.02-.04z" fill="#263238"/><path d="M55.696 89.5c-.452-.54 5.753-10.915 7.711-15.534 1.959-4.619.571-4.674-4.083-1.395-4.655 3.278-12.93 12.104-15.95 21.33-.944 2.878-1.9 4.888 4.956 5.919 3.982.623 8.006.944 12.036.959l.33-11.061s-4.87-.064-5-.219z" fill="#EBEBEB"/><path d="M57.956 100.283c-.159-4.424.353-9.094.396-9.911a.032.032 0 01.03-.02.032.032 0 01.03.02c-.072.793-.072 6.204-.397 9.911.02.052-.06.044-.06 0zm-7.6-10.815c.443-.05.89-.066 1.336-.048h1.776-.048c-.23-.067-.455-.142-.681-.214-.226-.071-.452-.166-.682-.222-.036 0-.024-.071 0-.06.226.068.46.108.694.16l.717.174c.21.051.416.115.622.174h1.19c.297-.741.698-1.455 1.054-2.165.357-.71.766-1.478 1.162-2.208.397-.73.793-1.431 1.217-2.133.21-.349.547-.88.758-1.233.21-.353.142-.11-.052.27-.194.38-.365.73-.547 1.094-.365.733-.734 1.459-1.106 2.189-.373.729-.746 1.45-1.114 2.18-.337.666-.65 1.36-1.015 2.014.793.024 1.63.067 2.442.103l1.249.064c.444.02.9.099 1.344.095.04 0 .044.063 0 .06-.436-.025-.892.035-1.336.039H55.47c-.876 0-1.724-.06-2.589-.103l-1.268-.087a8.802 8.802 0 01-1.253-.1.023.023 0 01-.017-.02c0-.005 0-.01.003-.013a.024.024 0 01.01-.01zM46.72 99.554c3.703.492 10.443 1.086 13.563 1.209a.03.03 0 010 .06 53.709 53.709 0 01-13.587-1.126.072.072 0 01-.059-.084.072.072 0 01.083-.06z" fill="#263238"/><path d="M82.1 72.63c1.511.281 3.886-.052 4.881.507a1.309 1.309 0 01.694 1.404s1.122-.587 1.947.067c.424.337.257 1.309.257 1.309a1.586 1.586 0 011.618.198c.551.5.305 1.4.305 1.4s1.075 0 1.475.69c.793 1.399-2.95 6.585-5.44 5.998-1.161-.274-.174-1.49-.174-1.49s-1.843 1.407-2.93.657c-1.086-.75.29-2.248.29-2.248s-1.8 1.344-2.85.456c-1.052-.888.542-2.192.542-2.192s-1.617.583-2.264-.282c-1.07-1.427 2.248-2.35 2.803-3.687l-1.419-1.982.266-.805z" fill="#AD6359"/><path d="M84.488 72.773c-1.408-.397-1.78-2.776-3.073-3.327-1.749-.769-1.503 2.007.42 3.965l1.757 1.269.896-1.907z" fill="#AD6359"/><path d="M91.782 77.645h.032A11.149 11.149 0 0187.62 82.8c-.064.036-.151-.043-.092-.099a22.67 22.67 0 004.254-5.055zM89.907 75.9c0-.023.052 0 .04.025a10.42 10.42 0 01-4.92 5.288c-.08.036-.187 0-.1-.059 1.471-.825 3.914-3.481 4.98-5.253zm-7.37 3.51c2.16-1.115 3.742-2.811 5.122-4.786 0-.024.052 0 .04.028-.397 1.15-1.42 2.32-2.28 3.172a6.41 6.41 0 01-2.843 1.673c-.04 0-.099-.064-.04-.088zm17.012 16.922h1.585s.397-5.816 3.902-6.106c1.859-.154 3.568 1.19 4.912 2.664-1.32-1.502-3.667-3.445-5.903-3.445-3.378.012-4.496 6.887-4.496 6.887zm10.439-18.008l-2.419-4.944-.82 1.11 2.073 3.834h1.166z" fill="#263238"/><path d="M105.325 74.373l2.762 5.244 1.26-.663-2.763-5.244-1.259.663z" fill="#455A64"/><path d="M108.08 79.613l-.753-.202-2.272-4.219.266-.82 2.759 5.24zm7.567 2.707l.116-.052a.448.448 0 00.228-.591l-1.159-2.613a.448.448 0 00-.591-.228l-.116.051a.448.448 0 00-.228.591l1.159 2.613c.1.227.365.329.591.228zm-2.879 1.717l.116-.052a.448.448 0 00.229-.59l-1.158-2.614a.448.448 0 00-.591-.229l-.116.052a.448.448 0 00-.228.591l1.157 2.614c.1.226.365.328.591.228zm1.995.387l.163-.072a.623.623 0 00.318-.82l-1.454-3.281a.622.622 0 00-.821-.318l-.163.073a.623.623 0 00-.317.82l1.453 3.282a.622.622 0 00.821.316zm-5.493-14.381l.163-.072a.623.623 0 00.317-.822l-1.454-3.28a.622.622 0 00-.821-.317l-.163.072a.621.621 0 00-.317.822l1.453 3.28c.14.314.507.456.822.317zm-2.13.946l.163-.072a.622.622 0 00.317-.821l-1.453-3.281a.622.622 0 00-.821-.317l-.163.072a.623.623 0 00-.317.821l1.453 3.281a.622.622 0 00.821.317z" fill="#37474F"/><path d="M114.824 78.947l-5.082-10.598s-1.455.048-3.965 1.792l5.396 10.594a10.173 10.173 0 003.651-1.788z" fill="#37474F"/><path d="M110.158 81.6s4.797-1.412 6.113-2.709l-.416-.931a12.92 12.92 0 00-6.113 2.707l.416.932zm-4.571-11.173a10.729 10.729 0 014.476-2.102l-.44-.935c-2.72-.048-4.472 2.101-4.472 2.101l.436.936zm3.528 6.391s2.098-1.388 3.906-1.836a.193.193 0 00.113-.114.195.195 0 00-.014-.16l-.492-1.05a.223.223 0 00-.274-.1 10.825 10.825 0 00-3.909 1.836.209.209 0 00-.106.117.209.209 0 00.007.157l.496 1.05a.206.206 0 00.273.1zm-3.374-1.293l-.396-.17a9.116 9.116 0 00-5.023 8.655c.178 4.178 3.227 7.069 3.227 7.069s-3.707-4.786-2.316-9.214c1.392-4.429 4.508-6.34 4.508-6.34z" fill="#455A64"/><path d="M100.766 84.446a12.39 12.39 0 002.799 6.633h3.794c1.756-2.284 4.532-3.604 4.532-3.604l-3.033.527-.27-.139-.535-.273s-.769 1.189-1.923 1.15a1.757 1.757 0 01-.686-.155c-1.352-.583-2.03-4.171-1.399-6.312.63-2.14 3.401-3.461 3.401-3.461l-1.685-3.27c-3.041 1.335-5.297 5.05-4.995 8.904z" fill="#37474F"/><path d="M106.106 88.724s.995.34 2.462-.877l-.535-.273s-.769 1.19-1.923 1.15h-.004zm-4.975 7.612h11.315c-.282-.44-.769-1.237-1.42-2.114l-.039-.055-.052-.067-.035-.044-.096-.127-.027-.035-.107-.14a6.153 6.153 0 00-.191-.233l-.146-.179a8.248 8.248 0 00-.246-.293c-.087-.1-.091-.107-.143-.159-1.336-1.49-3.053-2.819-4.912-2.664-3.521.293-3.901 6.11-3.901 6.11z" fill="#455A64"/><path d="M109.329 88.04l11.126-.922-.117-1.41-11.126.922.117 1.41z" fill="#263238"/><path d="M106.866 88.244l2.465-.204-.117-1.41-2.465.204.117 1.41z" fill="#37474F"/><path d="M110.214 95.404a.4.4 0 00.066.22.401.401 0 00.407.169.394.394 0 00.312-.312.399.399 0 00-.389-.474.395.395 0 00-.396.397zm-7.954 0a.401.401 0 00.245.366.397.397 0 10-.245-.366zm3.156-3.941a.401.401 0 00.245.366.396.396 0 10-.245-.366zm2.954-20.549a.393.393 0 00.245.367.397.397 0 10-.245-.367zm3.31 7.046a.401.401 0 00.245.366.397.397 0 10-.245-.366zm-7.009.115a.393.393 0 00.245.366.396.396 0 10-.245-.367zm2.859 11.069a.4.4 0 00.066.22.401.401 0 00.407.169.394.394 0 00.312-.312.399.399 0 00-.389-.474.395.395 0 00-.396.397zm23.137-16.81h-.539V54.049a.848.848 0 01.848-.845h6.879a.85.85 0 01.848.845v.357h-.527v-.357a.322.322 0 00-.321-.322h-6.867a.32.32 0 00-.321.322v18.285zm13.995-13.404h-4.654v-.524h4.654a.32.32 0 00.321-.321V53.2a.846.846 0 01.845-.848h6.125a.848.848 0 01.849.848v.179h-.528v-.183a.32.32 0 00-.321-.321h-6.125a.32.32 0 00-.321.321v4.88a.844.844 0 01-.845.853zm25.961-1.091h-.527v-.456a.322.322 0 00-.321-.321h-15.958v-.512h15.958a.85.85 0 01.848.849v.44zm2.664 4.658h-2.002v-.527h2.002a.32.32 0 00.321-.317V39.796a.846.846 0 01.845-.849h2.815a.848.848 0 01.848.849v.424h-.527v-.424a.322.322 0 00-.321-.321h-2.815a.32.32 0 00-.321.32v21.85a.844.844 0 01-.845.852zm8.921 5.035h-.539v-.915a.393.393 0 01.23-.37l1.348-.657-2.752-.86a.395.395 0 01-.28-.677.396.396 0 01.28-.116l2.522-.726-2.506-.757a.399.399 0 01-.29-.397.4.4 0 01.302-.396l2.565-.698-2.609-.963a.398.398 0 01-.265-.397.395.395 0 01.309-.373l2.513-.602-2.557-.888a.392.392 0 01-.269-.397.393.393 0 01.269-.396l2.565-.734-2.414-.769a.398.398 0 01-.282-.396.392.392 0 01.072-.246.393.393 0 01.206-.15l2.751-.905-1.708-1.205v-7.886a.322.322 0 00-.322-.32h-2.818v-.528h2.818a.848.848 0 01.849.848v7.624l1.677 1.19a.395.395 0 01.166.397.395.395 0 01-.277.324l-2.625.865 2.439.793a.396.396 0 01.281.396.398.398 0 01-.293.397l-2.573.701 2.596.908a.396.396 0 11-.039.793l-2.526.607 2.613.975a.398.398 0 01.266.397.401.401 0 01-.302.376l-2.525.702 2.494.753a.398.398 0 01.293.396.416.416 0 01-.297.397l-2.526.726 2.657.828a.395.395 0 01.311.357.39.39 0 01-.06.242.392.392 0 01-.192.159l-1.546.757v.816zm-56.568 6.57h-1.031V95.67h1.031V74.102zm.916.714v1.03h7.985v-1.03h-7.985z" fill="#263238"/><path d="M126.56 74.308h-.92v2.042h.92v-2.042z" fill="#37474F"/><path d="M126.75 95.666h-3.255v.705h3.255v-.705zm63.561 0h1.031V74.098h-1.031v21.568zm-8.904-20.85v1.03h7.985v-1.03h-7.985z" fill="#263238"/><path d="M189.396 76.346h.919v-2.042h-.919v2.042z" fill="#37474F"/><path d="M192.456 95.666h-3.255v.705h3.255v-.705zM173.604 44.93v-.527h-1.478v.527h1.478z" fill="#263238"/><path d="M172.76 44.656a1.427 1.427 0 11-2.855 0 1.427 1.427 0 012.855 0z" fill="#fff"/><path d="M172.76 44.656a1.469 1.469 0 01-.892 1.358 1.47 1.47 0 01-1.598-.291 1.474 1.474 0 112.247-1.878c.158.24.243.523.243.811zm0 0a1.425 1.425 0 00-.428-.999 1.357 1.357 0 00-.995-.376 1.376 1.376 0 10.995 2.378 1.405 1.405 0 00.428-1.003z" fill="#263238"/><path d="M171.337 44.656l-1.059-.547a1.195 1.195 0 011.059-.647 1.188 1.188 0 011.058.647l-1.058.547z" fill="#76B7ED"/><path d="M171.626 44.656a.289.289 0 01-.05.164.29.29 0 01-.302.124.293.293 0 11.174-.559.286.286 0 01.178.271z" fill="#263238"/><path d="M171.428 44.533l-.107.1-.619-.793.726.693zm-32.974 11.3a.889.889 0 11-.008-1.778.889.889 0 01.008 1.778zm0-1.32a.438.438 0 00-.406.266.428.428 0 00-.026.252.432.432 0 00.341.345.437.437 0 10.091-.863z" fill="#263238"/><path d="M138.565 54.286h-.226v1.32h.226v-1.32z" fill="#263238"/><path d="M139.112 54.834h-1.32v.226h1.32v-.226zm13.428.174a.882.882 0 01-.867-1.056.881.881 0 01.695-.695.88.88 0 01.907.376.885.885 0 01-.735 1.375zm0-1.32a.436.436 0 10-.008.87.436.436 0 00.008-.87z" fill="#263238"/><path d="M152.651 53.462h-.226v1.32h.226v-1.32z" fill="#263238"/><path d="M153.198 54.009h-1.32v.226h1.32v-.226zm17.132 5.376a.888.888 0 01-.817-.546.881.881 0 01.644-1.206.885.885 0 011.057.868.89.89 0 01-.884.884zm0-1.32a.439.439 0 00-.406.266.436.436 0 10.406-.266z" fill="#263238"/><path d="M170.441 57.839h-.226v1.32h.226v-1.32z" fill="#263238"/><path d="M170.988 58.386h-1.321v.226h1.321v-.226zm6.839-16.656a.883.883 0 01-.625-1.509.881.881 0 011.36.134.886.886 0 01-.735 1.376zm0-1.316a.43.43 0 00-.424.517.437.437 0 00.339.34.433.433 0 10.085-.857z" fill="#263238"/><path d="M177.938 40.188h-.226v1.32h.226v-1.32z" fill="#263238"/><path d="M178.485 40.735h-1.32v.226h1.32v-.226z" fill="#263238"/><g opacity=".7"><path opacity=".7" d="M136.115 83.47a5.76 5.76 0 01-3.217 5.15 5.753 5.753 0 11-4.03-10.72v-4.654h-.464v-.916h3.941v.916h-.464l-.02 4.654a5.756 5.756 0 014.254 5.57z" fill="#fff"/><path opacity=".7" d="M136.115 83.47a5.763 5.763 0 01-3.212 5.154 5.774 5.774 0 01-6.07-.582 5.798 5.798 0 01-2.267-4.126 5.814 5.814 0 011.538-4.45 5.911 5.911 0 012.739-1.653l-.059.08v-4.64l.079.08h-.543v-1.07h.075l3.941.027h.056v1.019h-.512l.044-.044-.052 4.659a5.766 5.766 0 014.243 5.546zm0 0a5.74 5.74 0 00-4.243-5.55v-4.718h.512l-.048.047v-.915l.052.055h-3.941l.075-.075v.916l-.079-.08h.543v4.809l-.063.02a5.69 5.69 0 00-3.108 8.876 5.713 5.713 0 004.012 2.297 5.742 5.742 0 006.288-5.682z" fill="#263238"/></g><path d="M125.64 83.45a4.549 4.549 0 013.203-4.36" fill="#fff"/><path d="M135.104 83.934a4.76 4.76 0 01-7.966 3.11 4.758 4.758 0 01-1.518-3.11h9.484zm-1.075-1.459a.428.428 0 01-.267.4.431.431 0 11.267-.4zm-2.501 1.253a.277.277 0 100-.554.277.277 0 000 .554zm-3.16-1.804a.28.28 0 11-.559 0 .28.28 0 01.082-.197.278.278 0 01.199-.08.278.278 0 01.278.277zm4.091-.499a.212.212 0 01-.133.198.214.214 0 11.133-.198zm-5.534 2.025a.211.211 0 01-.037.12.212.212 0 01-.219.09.213.213 0 01-.156-.291.212.212 0 01.349-.07c.04.04.063.095.063.151zm.717-.178a.092.092 0 01-.014.049.092.092 0 01-.04.032.086.086 0 01-.095-.02.094.094 0 01-.024-.044.096.096 0 01.005-.05.088.088 0 01.033-.04.085.085 0 01.048-.014.09.09 0 01.062.025.088.088 0 01.025.062z" fill="#4BBD23"/><g opacity=".7"><path opacity=".7" d="M188.892 85.734a6.947 6.947 0 01-7.646 6.887 6.951 6.951 0 01-1.108-13.626l.024-5.626h-.563v-1.106h4.758v1.102h-.563l-.024 5.626a6.949 6.949 0 015.122 6.743z" fill="#fff"/><path opacity=".7" d="M188.892 85.734a6.965 6.965 0 01-3.877 6.233 6.995 6.995 0 01-9.952-7.617 7.023 7.023 0 015.055-5.42l-.059.08v-5.625l.083.079h-.642v-1.261h.075l4.758.031h.055v1.21h-.61l.043-.048-.051 5.626a6.942 6.942 0 015.114 6.74l.008-.028zm0 0a6.91 6.91 0 00-1.427-4.218 6.927 6.927 0 00-3.695-2.482v-5.669h.606l-.047.047V72.29l.051.055h-4.757l.079-.079v1.106l-.079-.079h.642v5.769h-.06a6.896 6.896 0 00-4.933 5.334 6.884 6.884 0 002.589 6.79 6.894 6.894 0 0010.03-1.847 6.899 6.899 0 001.037-3.633l-.036.028z" fill="#263238"/></g><path d="M176.241 85.71a5.494 5.494 0 013.869-5.265" fill="#fff"/><path d="M187.671 86.285a5.758 5.758 0 01-9.585 3.688 5.758 5.758 0 01-1.869-3.688h11.454zm-1.296-1.752a.52.52 0 01-.324.483.522.522 0 01-.683-.683.518.518 0 01.683-.284.513.513 0 01.284.284.53.53 0 01.04.2zm-2.684 1.177a.337.337 0 11-.675 0 .337.337 0 01.675 0zm-4.152-1.851a.336.336 0 11-.648-.13.34.34 0 01.55-.11.337.337 0 01.098.24zm4.941-.595a.26.26 0 01-.16.238.255.255 0 01-.28-.056.259.259 0 01-.056-.28.256.256 0 01.42-.084.26.26 0 01.076.182z" fill="#FFBC10"/><path d="M177.795 85.71a.255.255 0 01-.076.183.256.256 0 01-.364 0 .259.259 0 01.182-.44c.069 0 .134.027.182.075a.255.255 0 01.076.182zm.868-.218a.105.105 0 01-.018.06.106.106 0 01-.164.016.107.107 0 01-.024-.117.105.105 0 01.04-.048.107.107 0 01.166.089z" fill="#76B7ED"/><g opacity=".7"><path opacity=".7" d="M173.87 66.407a3.51 3.51 0 01-3.859 3.49 3.515 3.515 0 01-3.099-4.18 3.514 3.514 0 012.534-2.708v-2.55h-.286v-.558h2.407v.559h-.286v2.55a3.511 3.511 0 012.589 3.397z" fill="#fff"/><path opacity=".7" d="M173.87 66.406a3.515 3.515 0 01-1.958 3.172 3.57 3.57 0 01-1.904.357 3.567 3.567 0 01-2.985-2.264 3.6 3.6 0 01-.174-1.954 3.529 3.529 0 01.888-1.753 3.604 3.604 0 011.689-1.019l-.064.08V60.47l.083.084h-.364v-.718h.075c.793 0 1.586.02 2.407.032h.055v.647h-.333l.044-.044-.04 2.55c.747.204 1.405.65 1.871 1.268a3.47 3.47 0 01.71 2.117zm0 0a3.503 3.503 0 00-2.589-3.381v-2.593h.329l-.047.047v-.559l.051.056h-2.406l.079-.075v.558l-.079-.083h.364v2.696h-.059a3.443 3.443 0 00-1.618.964 3.471 3.471 0 001.704 5.743 3.513 3.513 0 004.331-3.388l-.06.015z" fill="#263238"/></g><path d="M167.475 66.395a2.774 2.774 0 011.955-2.66" fill="#fff"/><path d="M173.252 66.692a2.913 2.913 0 01-2.895 2.607 2.909 2.909 0 01-2.894-2.607h5.789zm-.655-.892a.266.266 0 11-.517-.111.263.263 0 01.145-.164.264.264 0 01.362.164.247.247 0 01.01.11zm-1.356.595c0 .033-.01.066-.028.094a.174.174 0 01-.077.063.173.173 0 01-.186-.037.164.164 0 01-.046-.087.166.166 0 01.009-.099.172.172 0 01.158-.105.17.17 0 01.17.17zm-2.097-.936a.17.17 0 11-.341 0 .17.17 0 01.341 0zm2.367-.171a.131.131 0 100-.262.131.131 0 000 .262zm-3.382 1.237a.131.131 0 100-.262.131.131 0 000 .262zm.57-.238a.048.048 0 01-.004.02.056.056 0 01-.012.018.047.047 0 01-.018.01.054.054 0 01-.021.003.052.052 0 01-.036-.015.054.054 0 01-.015-.036c0-.007.001-.014.003-.02a.045.045 0 01.011-.019.04.04 0 01.017-.012.054.054 0 01.059.012c.01.01.016.024.016.039z" fill="#455A64"/><g opacity=".7"><path opacity=".7" d="M180.617 47.673a2.823 2.823 0 01-1.579 2.529 2.828 2.828 0 11-1.989-5.265v-2.054h-.23v-.448h1.939v.448h-.23v2.054a2.813 2.813 0 012.089 2.736z" fill="#fff"/><path opacity=".7" d="M180.618 47.673a2.776 2.776 0 01-.424 1.491 2.78 2.78 0 01-1.15 1.047 2.856 2.856 0 01-2.993-.274 2.918 2.918 0 01-.952-1.256 2.89 2.89 0 01-.139-1.586 2.867 2.867 0 01.714-1.42 2.906 2.906 0 011.364-.824l-.06.079v-2.054l.084.084h-.31v-.603h.076c.646 0 1.292.02 1.938.028h.052v.547h-.274l.044-.044-.04 2.054a2.828 2.828 0 012.078 2.747l-.008-.016zm0 0a2.814 2.814 0 00-2.082-2.72l-.019-2.053v-.044h.273l-.047.048v-.448l.055.051c-.646 0-1.292.02-1.939.02l.08-.075v.448l-.08-.08h.31v2.197h-.06a2.776 2.776 0 00-1.296.793 2.772 2.772 0 00.309 4.087 2.778 2.778 0 002.942.313 2.82 2.82 0 001.149-1.03c.277-.453.417-.976.405-1.507z" fill="#263238"/></g><path d="M175.476 47.662a2.232 2.232 0 011.585-2.14" fill="#fff"/><path d="M175.464 47.9a2.344 2.344 0 004.658 0h-4.658zm.527-.718a.213.213 0 00.13.2.214.214 0 10-.13-.2zm1.229.618a.139.139 0 100-.277.139.139 0 000 .277zm1.689-.753a.139.139 0 100-.277.139.139 0 000 .277zm-2.149-.381a.108.108 0 00.107.108.102.102 0 00.062-.038.106.106 0 00.025-.068.106.106 0 00-.025-.068.102.102 0 00-.062-.037.108.108 0 00-.107.103zm2.72.996a.107.107 0 00.107.107.097.097 0 00.04-.009.096.096 0 00.034-.023.099.099 0 00.022-.035.095.095 0 00.007-.04.092.092 0 00-.007-.04.1.1 0 00-.096-.063.098.098 0 00-.075.029.113.113 0 00-.024.033.111.111 0 00-.008.04zm-.353-.088a.05.05 0 00.007.024.046.046 0 00.02.016.043.043 0 00.059-.032.043.043 0 00-.003-.025.037.037 0 00-.016-.019.043.043 0 00-.054.005.044.044 0 00-.013.031z" fill="#455A64"/><g opacity=".7"><path opacity=".7" d="M157.345 63.246a4.698 4.698 0 01-.238 1.483h-9.139a4.82 4.82 0 01.343-3.783 4.814 4.814 0 012.98-2.354v-2.669h-.397v-.765h3.299v.761h-.397v2.673a4.805 4.805 0 013.549 4.654z" fill="#fff"/><path opacity=".7" d="M157.345 63.247a4.696 4.696 0 01-.234 1.482l-4.567.02-4.571.032h-.04v-.036a4.871 4.871 0 01-.238-1.95c.059-.66.251-1.303.563-1.888a4.875 4.875 0 013.025-2.402l-.063.083.02-2.672.079.08h-.464v-.913h.072l3.298.028h.052v.864h-.436l.043-.047-.035 2.672v-.024a4.881 4.881 0 012.557 1.74c.624.849.954 1.878.939 2.93zm0 0a4.791 4.791 0 00-2.129-3.965 4.677 4.677 0 00-1.419-.638v-2.732h.432l-.047.048v-.762l.055.052h-3.299l.076-.075v.765l-.08-.08h.468v2.812l-.063.02a4.973 4.973 0 00-1.701.853 4.73 4.73 0 00-1.788 3.282 4.7 4.7 0 00.202 1.903l-.055-.04 4.571.033 4.567.02a4.7 4.7 0 00.21-1.495z" fill="#263238"/></g><path d="M156.806 62.747a5.03 5.03 0 01-.313 1.586h-7.91c-.261-.48-.138-1.586-.138-1.586h8.361zm-1.201-1.261a.358.358 0 01-.223.334.36.36 0 01-.492-.263.354.354 0 01.021-.209.36.36 0 01.588-.117.36.36 0 01.106.255zm-1.856.817a.236.236 0 01-.069.163.235.235 0 01-.164.067.237.237 0 01-.185-.056.238.238 0 01-.08-.176.23.23 0 01.08-.176.231.231 0 01.185-.056.233.233 0 01.233.234zm-2.874-1.28a.233.233 0 01-.234.23.235.235 0 01-.243-.135.23.23 0 010-.194.235.235 0 01.243-.135.234.234 0 01.234.234zm3.437-.413a.18.18 0 01-.03.1.177.177 0 01-.274.027.18.18 0 01-.039-.195.178.178 0 01.343.068zm-4.825 1.871a.179.179 0 100-.357.179.179 0 000 .357zm.781-.329a.075.075 0 01-.103.07.074.074 0 01-.024-.017.061.061 0 01-.015-.024.069.069 0 01-.004-.029.07.07 0 01.021-.05.07.07 0 01.05-.021c.019 0 .038.007.052.02a.075.075 0 01.023.051z" fill="#D4B1F8"/><path d="M148.591 63.23a3.803 3.803 0 012.676-3.643m-20.695-3.322h-.337c-.688 0-1.245.557-1.245 1.245v5.364c0 .688.557 1.245 1.245 1.245h.337c.687 0 1.245-.557 1.245-1.245V57.51c0-.688-.558-1.245-1.245-1.245z" fill="#fff"/><path d="M130.401 64.206a1.5 1.5 0 01-1.498-1.503v-5.027a1.5 1.5 0 012.535-1.012 1.5 1.5 0 01.466 1.012v5.027a1.502 1.502 0 01-1.503 1.503zm0-7.854a1.33 1.33 0 00-1.324 1.324v5.027a1.33 1.33 0 002.653 0v-5.027a1.329 1.329 0 00-1.329-1.324z" fill="#263238"/><path d="M130.402 63.484a.729.729 0 100-1.457.729.729 0 000 1.457z" fill="#FBDF4A"/><path d="M130.429 57.22h-.051a.187.187 0 00-.187.187v5.063c0 .102.084.186.187.186h.051a.187.187 0 00.187-.186v-5.063a.187.187 0 00-.187-.187z" fill="#DBDBDB"/><path d="M130.429 59.215h-.051a.187.187 0 00-.187.186v3.069c0 .102.084.186.187.186h.051a.187.187 0 00.187-.186V59.4a.187.187 0 00-.187-.185z" fill="#FBDF4A"/><g opacity=".7"><path opacity=".7" d="M144.492 67.818h-12.08s4.507-8.21 4.507-8.326v-2.997h3.089v2.997c0 .123 4.484 8.326 4.484 8.326z" fill="#fff"/><path opacity=".7" d="M144.492 67.818l-12.08.067h-.111l.055-.099 2.974-5.483c.491-.916.995-1.832 1.462-2.751l.04-.084v-3.076h3.251v3.072l.04.088c.464.923.959 1.84 1.443 2.775l2.926 5.49zm0 0c-1.011-1.816-2.022-3.628-3.017-5.456-.496-.911-.999-1.82-1.475-2.747l-.044-.095v-3.025l.076.075h-3.089l.083-.083v3.001a.072.072 0 010 .036c0 .035-.031.063-.043.095-.48.928-.979 1.836-1.475 2.752-.995 1.827-1.982 3.655-3.001 5.47l-.06-.094 12.045.07z" fill="#263238"/><path opacity=".7" d="M136.951 56.8a.338.338 0 01.23-.091c.084 0 .165.033.226.091a.34.34 0 01-.456 0zm0 .357a.316.316 0 01.23-.087.305.305 0 01.226.087.34.34 0 01-.456 0zm0 .357a.318.318 0 01.23-.087.305.305 0 01.226.087.34.34 0 01-.456 0zm0 .325c.293-.116.619-.116.912 0a1.185 1.185 0 01-.912 0zm0 .468a.34.34 0 01.456 0 .307.307 0 01-.226.087.33.33 0 01-.23-.087zm0 .356a.34.34 0 01.456 0 .307.307 0 01-.226.088.314.314 0 01-.23-.087zm0 .357a.34.34 0 01.456 0 .307.307 0 01-.226.088.318.318 0 01-.23-.088z" fill="#263238"/></g><path d="M143.303 67.207h-9.702s.749-1.363 1.586-2.862h6.557a963.175 963.175 0 001.559 2.862zm-4.243-4.547a.425.425 0 01-.269.396.434.434 0 01-.587-.317.434.434 0 01.424-.515.43.43 0 01.432.436zm-2.874 1.253a.278.278 0 11-.555 0 .278.278 0 01.555 0zm4.036 0a.28.28 0 01-.021.107.28.28 0 01-.538-.107.277.277 0 01.278-.278.275.275 0 01.198.08.28.28 0 01.062.09.28.28 0 01.021.108zm-2.728-2.303a.212.212 0 01-.256.21.214.214 0 01-.168-.169.218.218 0 01.012-.124.217.217 0 01.35-.07c.04.041.062.096.062.152zm3.422 1.744a.212.212 0 01-.037.119.21.21 0 01-.221.09.216.216 0 01-.153-.294.215.215 0 01.411.085zm.373.765a.1.1 0 01-.007.034.105.105 0 01-.02.029.088.088 0 01-.065.024.085.085 0 01-.061-.025.085.085 0 01-.026-.062c0-.023.009-.045.026-.062a.085.085 0 01.061-.025.09.09 0 01.065.024.105.105 0 01.02.029c.004.01.007.022.007.034z" fill="#455A64"/><g opacity=".7"><path opacity=".7" d="M172.597 96.233h-12.151s4.531-8.263 4.531-8.398v-3.013h3.112v3.013c0 .14 4.508 8.398 4.508 8.398z" fill="#fff"/><path opacity=".7" d="M172.597 96.233l-12.151.07h-.123l.059-.11 2.994-5.519c.491-.92.995-1.843 1.466-2.775l.04-.083v.02-3.105h3.307v3.1c.011.03.024.06.039.088.464.931.964 1.851 1.451 2.775l2.918 5.539zm0 0c-1.015-1.828-2.038-3.652-3.041-5.487-.499-.92-1.007-1.832-1.486-2.776 0-.031-.028-.06-.04-.095-.012-.036 0 0 0 0a.084.084 0 010-.032V84.83l.087.084h-3.112l.091-.092v3.017a.16.16 0 010 .044.815.815 0 01-.043.095c-.48.94-.984 1.852-1.483 2.775-1.003 1.84-2.002 3.676-3.021 5.507l-.064-.11 12.112.083z" fill="#263238"/><path opacity=".7" d="M165.017 85.143a.322.322 0 01.353-.071c.039.016.074.04.103.071a.307.307 0 01-.351.073.318.318 0 01-.105-.073zm0 .349a.311.311 0 01.456 0 .302.302 0 01-.226.096.322.322 0 01-.23-.096zm0 .369a.323.323 0 01.351-.07c.039.016.075.04.105.07a.323.323 0 01-.228.099.311.311 0 01-.228-.099zm0 .333a.997.997 0 01.456-.099.993.993 0 01.46.1 1.07 1.07 0 01-.46.094 1.048 1.048 0 01-.456-.095z" fill="#263238"/><path opacity=".7" d="M165.017 86.682a.321.321 0 11.458-.451.321.321 0 01-.458.45zm0 .341a.311.311 0 01.456 0 .326.326 0 01-.352.07.322.322 0 01-.104-.07zm0 .357a.322.322 0 01.456 0 .323.323 0 01-.228.098.311.311 0 01-.228-.099z" fill="#263238"/></g><path d="M171.4 95.618h-9.757l1.586-2.882h6.617l1.554 2.882zm-4.266-4.575a.435.435 0 01-.744.308.438.438 0 01-.095-.475.436.436 0 01.839.167zm.603-6.637a.437.437 0 11-.874-.001.437.437 0 01.874.001zm-3.493 7.894a.28.28 0 01-.479.204.278.278 0 01-.078-.144.276.276 0 01.119-.29.28.28 0 01.354.033.28.28 0 01.084.197zm4.056 0a.28.28 0 01-.479.204.278.278 0 01-.078-.144.281.281 0 11.557-.06zm-1.301-4.92a.28.28 0 01-.557.054.28.28 0 01.475-.254.28.28 0 01.082.2zm.135 1.01a.214.214 0 100-.428.214.214 0 000 .428zm1.867 3.35a.212.212 0 01-.255.21.213.213 0 01-.156-.291.213.213 0 01.411.082zm.377.766a.088.088 0 01-.014.052.09.09 0 01-.141.016.097.097 0 01-.026-.047.09.09 0 01.007-.054.09.09 0 01.087-.054.09.09 0 01.062.025.088.088 0 01.025.062zm-3.362-9.718a.077.077 0 01-.007.034.07.07 0 01-.019.028.085.085 0 01-.061.026.087.087 0 01-.062-.026.088.088 0 010-.123.087.087 0 01.095-.02.08.08 0 01.028.02.07.07 0 01.019.028c.005.01.007.022.007.033zm15.926-11.465c-1.3 0 0-2.621 0-2.621s1.312 2.62 0 2.62z" fill="#76B7ED"/><path d="M142.228 84.386h-.611v11.922h.611V84.386zm13.024 11.085h-13.024v.837h13.024v-.837z" fill="#263238"/><path d="M146.681 83.593l-.044 9.98a1.193 1.193 0 01-1.178 1.357 1.188 1.188 0 01-1.177-1.358l.044-9.979h2.355z" fill="#EBEBEB"/><path d="M146.53 86.48l-.032 7.084a1.045 1.045 0 01-1.455 1.022 1.04 1.04 0 01-.626-1.022l.031-7.084h2.082z" fill="#C7C7C7"/><path d="M147.052 82.72l-3.093-.015-.007 1.55 3.093.014.007-1.55z" fill="#76B7ED"/><path d="M153.975 83.593l-.059 9.98a1.18 1.18 0 01-.684 1.25 1.189 1.189 0 01-1.671-1.25l.044-9.98h2.37z" fill="#EBEBEB"/><path d="M153.825 86.48l-.032 7.084a1.045 1.045 0 01-1.455 1.022 1.055 1.055 0 01-.567-.603 1.063 1.063 0 01-.06-.419l.032-7.084h2.082z" fill="#C7C7C7"/><path d="M154.347 82.72l-3.093-.013-.007 1.55 3.093.014.007-1.55z" fill="#76B7ED"/><path d="M150.308 83.593l-.044 9.98a1.192 1.192 0 01-.279.947 1.182 1.182 0 01-.898.41 1.189 1.189 0 01-1.178-1.358l.044-9.979h2.355z" fill="#EBEBEB"/><path d="M150.157 86.48l-.031 7.084c.008.142-.012.285-.06.419a1.055 1.055 0 01-.981.689 1.046 1.046 0 01-.981-.69 1.045 1.045 0 01-.06-.418l.032-7.084h2.081z" fill="#37474F"/><path d="M150.68 82.72l-3.093-.014-.007 1.55 3.093.014.007-1.55zm4.572 6.118v1.115h-13.024v-1.115h2.117v.373c0 .183.52.333 1.158.333.638 0 1.161-.15 1.161-.333v-.373h1.305v.373c0 .183.519.333 1.158.333.638 0 1.161-.15 1.161-.333v-.373h1.309v.373c0 .183.519.333 1.157.333s1.162-.15 1.162-.333v-.373h1.336z" fill="#455A64"/><path d="M155.252 89.953h-13.024v.448h13.024v-.448zm.611-5.567h-.611v11.922h.611V84.386z" fill="#263238"/><path d="M132.491 94.052h-4.175v2.252h4.175v-2.252z" fill="#DBDBDB"/><path d="M130.497 93.148h-.187v.904h.187v-.904z" fill="#263238"/><path d="M130.402 93.362c-1.19 0 0-2.426 0-2.426s1.209 2.426 0 2.426z" fill="#76B7ED"/><path opacity=".2" d="M130.402 93.362c-1.19 0 0-2.426 0-2.426s1.209 2.426 0 2.426z" fill="#000"/><path d="M130.402 93.362c-.742 0 0-1.494 0-1.494s.745 1.494 0 1.494z" fill="#76B7ED"/><path d="M189.649 101.502h-38.021v62.566h38.021v-62.566z" fill="#455A64"/><path d="M189.649 101.502h-38.021v4.079h38.021v-4.079z" fill="#263238"/><path d="M186.2 109.201h-31.118v14.106H186.2v-14.106z" fill="#37474F"/><path d="M159.419 109.201h-4.337v14.106h4.337v-14.106z" fill="#263238"/><path d="M186.2 127.462h-31.118v14.106H186.2v-14.106z" fill="#37474F"/><path d="M159.419 127.462h-4.337v14.106h4.337v-14.106z" fill="#263238"/><path d="M186.2 145.719h-31.118v14.107H186.2v-14.107z" fill="#37474F"/><path d="M159.419 145.719h-4.337v14.107h4.337v-14.107z" fill="#263238"/><g opacity=".7"><path opacity=".7" d="M165.774 137.282a4.293 4.293 0 01-2.395 3.845 4.288 4.288 0 11-3.005-7.992v-3.473h-.345v-.682h2.938v.682h-.329v3.469a4.29 4.29 0 013.136 4.151z" fill="#fff"/><path opacity=".7" d="M165.774 137.283a4.298 4.298 0 01-2.379 3.849 4.362 4.362 0 01-2.323.425 4.322 4.322 0 01-3.624-2.776 4.366 4.366 0 01-.202-2.379 4.286 4.286 0 011.083-2.121 4.366 4.366 0 012.041-1.233l-.047.06v-3.473l.059.059h-.396v-.793h.059l2.938.024h.04v.757h-.397l.032-.031-.036 3.469a4.28 4.28 0 013.172 4.151l-.02.012zm0 0a4.278 4.278 0 00-3.171-4.132v-3.504h.396l-.036.035V129l.04.04h-2.938l.056-.059v.682l-.06-.06h.397v3.58h-.044a4.254 4.254 0 00-3.061 3.255 4.282 4.282 0 00.183 2.319 4.238 4.238 0 001.379 1.884 4.283 4.283 0 004.489.453 4.278 4.278 0 002.394-3.823l-.024.012z" fill="#263238"/></g><path d="M157.968 137.267a3.4 3.4 0 012.379-3.247" fill="#fff"/><path d="M165.017 137.632a3.567 3.567 0 01-7.069 0h7.069zm-.793-1.091a.325.325 0 01-.198.297.32.32 0 01-.35-.07.318.318 0 01-.07-.35.319.319 0 01.524-.104c.06.06.094.142.094.227zm-1.657.726a.207.207 0 01-.062.148.207.207 0 01-.355-.148.206.206 0 01.207-.206.202.202 0 01.194.126c.01.025.016.052.016.08zm-2.565-1.142a.218.218 0 01-.015.08.2.2 0 01-.112.114.211.211 0 01-.29-.194c0-.027.006-.055.017-.08a.203.203 0 01.194-.126.206.206 0 01.206.206zm3.052-.365a.168.168 0 01-.025.092.17.17 0 01-.072.061.16.16 0 01-.094.011.168.168 0 01-.085-.043.161.161 0 01-.045-.084.16.16 0 01.068-.168.162.162 0 01.091-.027.148.148 0 01.062.011.146.146 0 01.052.034.158.158 0 01.048.113zm-4.285 1.665a.158.158 0 100-.317.158.158 0 000 .317zm.698-.289a.058.058 0 01-.006.026.074.074 0 01-.014.022.064.064 0 01-.022.014.058.058 0 01-.026.005.066.066 0 01-.045-.021.065.065 0 01-.018-.046c0-.017.006-.033.018-.045a.063.063 0 01.045-.018.058.058 0 01.026.003.074.074 0 01.022.014.06.06 0 01.014.021.054.054 0 01.006.025z" fill="#D4B1F8"/><g opacity=".7"><path opacity=".7" d="M170.004 121.479a5.603 5.603 0 01-.286 1.76h-10.855a5.71 5.71 0 013.941-7.291l.02-3.172h-.46v-.908h3.913v.908h-.468l-.02 3.172a5.715 5.715 0 014.215 5.531z" fill="#fff"/><path opacity=".7" d="M170.004 121.479c.002.6-.092 1.195-.277 1.765h-5.428l-5.427.039h-.052v-.043a5.76 5.76 0 01-.281-2.32 5.864 5.864 0 01.666-2.24 6.1 6.1 0 011.502-1.8 5.96 5.96 0 012.094-1.054l-.076.099.024-3.172.095.091h-.555v-1.066h.091l3.914.036h.063v1.034h-.547l.051-.051-.039 3.172-.024-.028a5.82 5.82 0 013.041 2.069 5.72 5.72 0 011.165 3.469zm0 0a5.698 5.698 0 00-1.189-3.465 5.61 5.61 0 00-3.037-2.03h-.02v-3.247h.512l-.056.056v-.908l.064.063h-3.917l.091-.087v.908l-.091-.091h.551v3.342l-.076.024a5.634 5.634 0 00-4.163 4.916 5.546 5.546 0 00.242 2.26l-.063-.044 5.428.036 5.427.024a5.643 5.643 0 00.297-1.757z" fill="#263238"/></g><path d="M169.378 120.885s-.059 1.316-.369 1.887h-9.42c-.309-.571-.162-1.887-.162-1.887h9.951zm-1.875-1.071a.428.428 0 100-.856.428.428 0 000 .856zm-1.776.544a.279.279 0 01-.474.196.278.278 0 11.474-.196zm-3.691-1.245a.278.278 0 10-.002-.556.278.278 0 00.002.556zm4.341-.77a.21.21 0 01-.035.12.214.214 0 11-.299-.293.213.213 0 01.27.025c.04.039.063.092.064.148zm-5.499 2.015a.219.219 0 01-.036.119.211.211 0 01-.221.09.207.207 0 01-.11-.06.21.21 0 01-.044-.234.219.219 0 01.282-.113.214.214 0 01.069.046.215.215 0 01.06.152zm.713-.179a.096.096 0 01-.014.049.094.094 0 01-.039.032.098.098 0 01-.051.005.09.09 0 01-.044-.024.08.08 0 01-.024-.045.078.078 0 01.005-.05.077.077 0 01.032-.039.083.083 0 01.048-.015c.023 0 .046.009.062.025a.09.09 0 01.025.062z" fill="#4BBD23"/><path d="M159.601 121.46a4.526 4.526 0 013.172-4.33" fill="#fff"/><path d="M173.759 113.324h-.511v9.983h.511v-9.983zm10.907 9.285h-10.907v.698h10.907v-.698z" fill="#263238"/><path d="M177.49 112.662l-.04 8.358a.988.988 0 01-.991.991.992.992 0 01-.991-.991l.035-8.358h1.987z" fill="#EBEBEB"/><path d="M177.363 115.081l-.028 5.947a.872.872 0 01-1.744 0l.027-5.947h1.745z" fill="#C7C7C7"/><path d="M177.796 111.927l-2.589-.012-.006 1.301 2.589.012.006-1.301z" fill="#76B7ED"/><path d="M183.595 112.662l-.036 8.358a.988.988 0 01-.991.991.992.992 0 01-.991-.991l.04-8.358h1.978z" fill="#EBEBEB"/><path d="M183.472 115.081l-.027 5.947a.869.869 0 01-.256.616.87.87 0 01-1.233 0 .869.869 0 01-.256-.616l.028-5.947h1.744z" fill="#C7C7C7"/><path d="M183.905 111.927l-2.589-.012-.005 1.301 2.588.012.006-1.301z" fill="#76B7ED"/><path d="M180.527 112.662l-.04 8.358a.988.988 0 01-.991.991.992.992 0 01-.991-.991l.035-8.358h1.987z" fill="#EBEBEB"/><path d="M180.4 115.081l-.024 5.947a.872.872 0 01-1.744 0l.027-5.947h1.741z" fill="#37474F"/><path d="M180.836 111.929l-2.588-.012-.006 1.301 2.589.011.005-1.3zm3.83 5.126v.948h-10.903v-.932h1.772v.309c0 .155.436.282.971.282.536 0 .972-.127.972-.282v-.309h1.094v.309c0 .155.436.282.971.282.536 0 .972-.127.972-.282v-.309h1.098v.309c0 .155.432.282.971.282.539 0 .972-.127.972-.282v-.309l1.11-.016z" fill="#455A64"/><path d="M184.666 117.987h-10.907v.376h10.907v-.376zm.511-4.663h-.511v9.983h.511v-9.983z" fill="#263238"/><path d="M184.198 141.497h-4.484v-5.396a2.245 2.245 0 012.24-2.244c.595 0 1.166.237 1.587.657.42.421.657.992.657 1.587v5.396z" fill="#DBDBDB"/><path d="M183.112 132.945H180.8v1.344h2.312v-1.344z" fill="#DBDBDB"/><path d="M183.52 132.319h-3.128v1.193h3.128v-1.193z" fill="#A6A6A6"/><path d="M183.393 136.692h-3.306v3.025h3.306v-3.025z" fill="#fff"/><path d="M179.08 141.497h-4.488v-5.396a2.248 2.248 0 012.244-2.244 2.248 2.248 0 012.244 2.244v5.396z" fill="#DBDBDB"/><path d="M177.993 132.945h-2.311v1.344h2.311v-1.344z" fill="#DBDBDB"/><path d="M178.402 132.319h-3.129v1.193h3.129v-1.193z" fill="#76B7ED"/><path d="M178.275 136.692h-3.307v3.025h3.307v-3.025z" fill="#fff"/><path d="M171.717 133.861a2.24 2.24 0 012.073 1.385c.113.273.171.564.171.859v5.396h-4.488v-5.4a2.243 2.243 0 012.244-2.24z" fill="#DBDBDB"/><path d="M172.871 132.945h-2.311v1.344h2.311v-1.344z" fill="#DBDBDB"/><path d="M173.279 132.319h-3.128v1.193h3.128v-1.193z" fill="#A6A6A6"/><path d="M173.156 136.692h-3.306v3.025h3.306v-3.025z" fill="#fff"/><path d="M156.866 159.83h4.551v-7.577h-4.551v7.577z" fill="#76B7ED"/><path d="M156.243 152.249h5.8v-1.288h-5.8v1.288z" fill="#DBDBDB"/><path d="M157.448 158.593h3.386v-4.675h-3.386v4.675z" fill="#fff"/><path d="M163.154 159.83h4.551v-7.577h-4.551v7.577z" fill="#76B7ED"/><path d="M162.531 152.249h5.8v-1.288h-5.8v1.288z" fill="#DBDBDB"/><path d="M163.736 158.593h3.386v-4.675h-3.386v4.675z" fill="#fff"/><path d="M169.438 159.83h4.551v-7.577h-4.551v7.577z" fill="#76B7ED"/><path d="M168.815 152.249h5.8v-1.288h-5.8v1.288z" fill="#DBDBDB"/><path d="M170.02 158.593h3.386v-4.675h-3.386v4.675z" fill="#fff"/><path d="M205.373 96.34H65.274v5.166h140.099V96.34z" fill="#455A64"/><path d="M73.6 101.502l-.107 4.079-1.435 58.487h-2.601v-62.566H73.6z" fill="#455A64"/><path d="M69.457 101.502H73.6l-.107 4.079h-4.036v-4.079z" fill="#263238"/><path d="M201.191 101.502h-11.542v62.566h11.542v-62.566z" fill="#37474F"/><path d="M201.191 101.502h-11.542v4.079h11.542v-4.079z" fill="#263238"/></svg>