<svg viewBox="0 0 259 175" fill="none" xmlns="http://www.w3.org/2000/svg"><path d="M189 155.709h-55.158v-9.737H15V95.709" stroke="#FF9F0E"/><path fill="#fff" stroke="#4797C8" stroke-width="5" d="M79.5 25.209h177v111h-177z"/><path fill="#B4D7F3" d="M56 119.709h43v55H56z"/><mask id="a" fill="#fff"><path d="M63 147.209a14.506 14.506 0 014.247-10.253 14.511 14.511 0 0110.253-4.247 14.494 14.494 0 0110.253 4.247A14.507 14.507 0 0192 147.209H63z"/></mask><path d="M63 147.209a14.506 14.506 0 014.247-10.253 14.511 14.511 0 0110.253-4.247 14.494 14.494 0 0110.253 4.247A14.507 14.507 0 0192 147.209H63z" fill="#fff" stroke="#4797C8" stroke-width="1.681" mask="url(#a)"/><circle cx="66" cy="161.709" r="3.5" fill="#fff" stroke="#4BBD23"/><circle cx="77" cy="161.709" r="3.5" fill="#fff" stroke="#D4B1F8"/><path d="M44 11.5c0 5 1 11-2.5 12.5-3.309 1.418-4.5-2-6.5-3m84.132-20c0 5-1 11 2.5 12.5 3.309 1.418 4.5-2 6.5-3" stroke="#76B8EE"/><circle cx="88" cy="161.709" r="3.5" fill="#fff" stroke="#FAFF01"/><path fill="#B4D7F3" d="M77 10.709h5v109h-5z"/><path fill="#B4D7F3" d="M179.086 70.218l-.098 4.999-108.98-2.144.1-5z"/><path d="M99 127.709h23v-8" stroke="#4797C8"/><path d="M120 102.709v4h3v-4h-3z" fill="#4797C8"/><path fill="#B4D7F3" d="M120 6.354l-.717-4.948-77.194 11.186.717 4.948z"/><circle cx="43.866" cy="14.467" r="3.5" transform="rotate(-7.954 43.866 14.467)" fill="#4797C8"/><circle cx="119.134" cy="3.951" r="3.5" transform="rotate(-7.954 119.134 3.95)" fill="#4797C8"/><circle cx="79.65" cy="9.65" r="5.006" transform="rotate(-7.954 79.65 9.65)" fill="#4797C8"/><circle cx="177.183" cy="72.627" r="3.734" transform="rotate(-7.954 177.183 72.627)" fill="#4797C8"/><circle cx="15" cy="91.709" r="14.5" fill="#fff" stroke="#4797C8"/><circle cx="15" cy="91.709" r="11" fill="#B4D7F3"/><path d="M14.5 92.71l-6.5-5" stroke="#4797C8"/><circle cx="122" cy="112.709" r="6.767" fill="#fff" stroke="#4797C8" stroke-width=".467"/><circle cx="122" cy="112.709" r="5.133" fill="#B4D7F3"/><path d="M121.767 113.176l-3.034-2.334" stroke="#4797C8" stroke-width=".467"/><path d="M13.5 71.21v6.5H17v-6.5h-3.5zm72.769-28.766l-2.4 7.631 2.862.9 2.4-7.632-2.862-.9zm5.586 2.309l-4.066 6.89 2.584 1.525 4.066-6.89-2.584-1.525zm4.727 3.195l-5.211 6.07 2.276 1.954 5.21-6.07-2.275-1.954zm4.176 4.006l-6.009 5.281 1.98 2.254 6.01-5.282-1.981-2.253zm3.795 5.101l-6.735 4.317 1.619 2.526 6.735-4.317-1.619-2.526zm2.897 5.655L100 65.623l1.093 2.793 7.45-2.914-1.093-2.794zm1.643 6.944l-7.956.835.313 2.983 7.956-.834-.313-2.984zm-.707 7.546l-7.729-2.062-.774 2.898 7.73 2.063.773-2.899zm-1.87 6.244l-7.31-3.25-1.219 2.742 7.311 3.249 1.218-2.741zm-3.044 5l-6.891-4.064-1.524 2.585 6.891 4.063 1.524-2.584zM99.39 93.9l-5.069-6.19-2.32 1.9 5.067 6.19 2.321-1.9zm-5.484 3.673l-3.778-7.053-2.644 1.417 3.777 7.052 2.645-1.416zm-6.492 2.477l-2.601-7.566-2.837.975 2.6 7.566 2.838-.975zM72.137 42.71l2.4 7.63-2.862.9-2.4-7.63 2.862-.9zm5.852-1l.687 7.97-2.989.258-.687-7.97 2.989-.259zm5.648.238l-.606 7.977-2.991-.227.605-7.977 2.992.227zM66.55 45.019l4.067 6.89-2.584 1.524-4.066-6.89 2.584-1.524zm-4.725 3.195l5.21 6.07-2.276 1.954-5.21-6.07 2.276-1.954zm-4.177 4.006l6.01 5.28-1.981 2.254-6.01-5.281 1.981-2.254zm-3.795 5.1l6.736 4.318-1.62 2.526-6.735-4.317 1.62-2.526zm-2.897 5.655l7.45 2.914-1.093 2.794-7.45-2.914 1.093-2.794zm-1.643 6.945l7.956.834-.313 2.984L49 72.903l.313-2.983zm.707 7.546l7.73-2.063.773 2.899-7.73 2.063-.773-2.899zm1.87 6.244l7.31-3.25 1.22 2.742-7.312 3.249-1.218-2.742zm3.044 5l6.891-4.064 1.524 2.584-6.891 4.064-1.524-2.584zm4.083 5.455l5.068-6.19 2.321 1.9-5.068 6.19-2.321-1.9zm5.483 3.673l3.778-7.052 2.644 1.416-3.777 7.052-2.644-1.416zm6.493 2.477l2.6-7.565 2.837.975-2.6 7.565-2.837-.975zm7.054 1.412l-.047-8 3-.018.047 8-3 .018z" fill="#4797C8"/><circle cx="79" cy="71.709" r="23" fill="#B4D7F3"/><path fill="#4797C8" d="M177 74h1v33h-1z"/><path fill="#B4D7F3" d="M170 78h15v24h-15z"/><circle cx="78.5" cy="72.209" r="3.5" fill="#fff"/><path d="M153.197 67.772c9.206 0 16.668-7.462 16.668-16.668s-7.462-16.669-16.668-16.669-16.669 7.463-16.669 16.669 7.463 16.668 16.669 16.668z" fill="#75B6EC" fill-opacity=".2"/><path opacity=".2" d="M163 60.71c5.523-5.524 5.523-14.478 0-20-5.523-5.524-14.477-5.524-20 0-5.523 5.522-5.523 14.476 0 20 5.523 5.522 14.477 5.522 20 0z" fill="#75B6EC"/><path opacity=".2" d="M161.625 59.334c4.764-4.763 4.764-12.486 0-17.25-4.763-4.763-12.487-4.763-17.25 0-4.764 4.764-4.764 12.487 0 17.25 4.763 4.764 12.487 4.764 17.25 0z" fill="#75B6EC"/><path opacity=".2" d="M160.548 58.258c4.169-4.17 4.169-10.928 0-15.097-4.168-4.17-10.928-4.17-15.097 0-4.169 4.169-4.169 10.928 0 15.097 4.169 4.169 10.929 4.169 15.097 0z" fill="#75B6EC"/><path d="M157.679 65.076c-.777-.1-1.023-.685-.548-1.308.475-.623 1.485-1.048 2.265-.949.78.099 1.022.685.548 1.308-.474.624-1.487 1.048-2.265.95z" fill="#263238"/><path d="M160.179 63.616l-.259.106a.86.86 0 00-.472-.19c-.636-.08-1.456.266-1.842.773a.858.858 0 00-.195.47l-.26.105.497.348a.925.925 0 00.402.139c.637.08 1.457-.265 1.843-.772a.925.925 0 00.183-.385l.103-.594z" fill="#75B6EC"/><path opacity=".4" d="M160.179 63.616l-.259.106a.86.86 0 00-.472-.19c-.636-.08-1.456.266-1.842.773a.858.858 0 00-.195.47l-.26.105.497.348a.925.925 0 00.402.139c.637.08 1.457-.265 1.843-.772a.925.925 0 00.183-.385l.103-.594z" fill="#000"/><path d="M158.805 64.586c1.309-.545 2.116-1.6 1.802-2.355-.315-.756-1.631-.927-2.94-.383-1.31.545-2.117 1.6-1.802 2.355.314.756 1.63.927 2.94.383z" fill="#75B6EC"/><path d="M158.68 64.287c1.359-.565 2.195-1.659 1.869-2.443-.326-.784-1.691-.961-3.049-.396-1.358.564-2.195 1.658-1.869 2.442.326.784 1.691.961 3.049.397z" fill="#75B6EC"/><path opacity=".2" d="M158.68 64.287c1.359-.565 2.195-1.659 1.869-2.443-.326-.784-1.691-.961-3.049-.396-1.358.564-2.195 1.658-1.869 2.442.326.784 1.691.961 3.049.397z" fill="#000"/><path d="M158.539 63.947c1.393-.58 2.251-1.7 1.916-2.504-.334-.804-1.734-.986-3.127-.407-1.392.579-2.25 1.7-1.916 2.504.334.804 1.734.986 3.127.407z" fill="#75B6EC"/><path d="M158.398 63.608c1.427-.594 2.306-1.743 1.963-2.567-.342-.824-1.777-1.01-3.203-.417-1.427.593-2.306 1.742-1.963 2.566.342.824 1.777 1.01 3.203.418z" fill="#75B6EC"/><path opacity=".2" d="M158.398 63.608c1.427-.594 2.306-1.743 1.963-2.567-.342-.824-1.777-1.01-3.203-.417-1.427.593-2.306 1.742-1.963 2.566.342.824 1.777 1.01 3.203.418z" fill="#000"/><path d="M158.257 63.269c1.461-.608 2.362-1.784 2.011-2.627-.351-.844-1.82-1.035-3.281-.427-1.461.607-2.362 1.784-2.011 2.627.351.844 1.82 1.035 3.281.427z" fill="#75B6EC"/><path d="M158.116 62.93c1.495-.622 2.416-1.826 2.057-2.69-.359-.863-1.862-1.059-3.358-.437-1.495.622-2.416 1.826-2.057 2.69.359.863 1.862 1.059 3.358.437z" fill="#37474F"/><path d="M149.449 42.085a9.222 9.222 0 00-4.991 5.001 9.233 9.233 0 00.008 7.066c2.814 6.765 8.863 5.567 9.998 8.294.18.435.648.75 1.36.849 1.424.185 3.287-.59 4.158-1.73.437-.57.543-1.125.363-1.558-1.135-2.728 3.981-6.173 1.166-12.935a9.229 9.229 0 00-12.062-4.987z" fill="#75B6EC"/><path d="M149.449 42.085a9.222 9.222 0 00-4.991 5.001 9.233 9.233 0 00.008 7.066c2.814 6.765 8.863 5.567 9.998 8.294.18.435.648.75 1.36.848 1.424.186 3.287-.589 4.158-1.729.437-.57.543-1.125.363-1.558-1.135-2.728 3.981-6.173 1.166-12.935a9.229 9.229 0 00-12.062-4.987z" fill="#fff" opacity=".9"/><path d="M155.217 43.722c-.088.09-.164.192-.225.302-.229.406-.171.934.069 1.334.463.774 1.47.954 2.197 1.408a7.943 7.943 0 012.077 1.861c.171.22.431.595.652.766a.719.719 0 00.966-.067c.258-.318.257-.8.169-1.144-.53-2.043-1.52-3.322-3.11-4.4-.863-.59-1.976-.9-2.795-.06zm5.1 7.086a1.024 1.024 0 00.408.726.59.59 0 00.818-.14.961.961 0 00.099-.906c-.135-.31-.476-.56-.837-.45-.336.102-.509.478-.488.77z" fill="#fff"/><path opacity=".15" d="M155.347 61.07c-.636-1-1.175-1.457-2.788-1.59-1.614-.132-4.347-.211-6.468-2.585 3.056 3.73 7.432 3.27 8.376 5.548.18.434.648.75 1.36.848.307.036.618.035.925-.005-.402-.636-1.012-1.593-1.405-2.215zm3.409-1.419c-.26-1.157-.206-1.86.84-3.096 1.047-1.235 2.917-3.227 2.727-6.408.491 4.797-2.922 7.576-1.974 9.86.18.433.074.988-.362 1.558a3.741 3.741 0 01-.656.652c-.167-.738-.413-1.842-.575-2.566z" fill="#75B6EC"/><path d="M151.653 48.722a1.422 1.422 0 10-2.665-.993 1.422 1.422 0 002.665.993z" fill="#75B6EC"/><path opacity=".2" d="M150.531 49.145c-.724.183-1.39-.274-1.631-.954a1.423 1.423 0 002.217 1.224 1.427 1.427 0 00.617-1.042 1.416 1.416 0 00-.078-.615c.101.378-.354 1.19-1.125 1.387z" fill="#000"/><path d="M151.223 50.145a1.424 1.424 0 01-1.08 2.394 1.419 1.419 0 01-1.286-.918 1.42 1.42 0 012.366-1.476z" fill="#75B6EC"/><path opacity=".45" d="M151.223 50.145a1.424 1.424 0 01-1.08 2.394 1.419 1.419 0 01-1.286-.918 1.42 1.42 0 012.366-1.476z" fill="#fff"/><path opacity=".2" d="M150.398 52.037c-.724.185-1.39-.272-1.632-.954a1.423 1.423 0 002.217 1.226 1.427 1.427 0 00.617-1.042 1.416 1.416 0 00-.077-.616c.101.378-.355 1.19-1.125 1.386z" fill="#75B6EC"/><path d="M153.385 51.566a1.422 1.422 0 11-2.078 1.942 1.422 1.422 0 012.078-1.942z" fill="#75B6EC"/><path opacity=".15" d="M153.385 51.566a1.422 1.422 0 11-2.078 1.942 1.422 1.422 0 012.078-1.942z" fill="#fff"/><path opacity=".4" d="M152.56 53.459c-.725.184-1.39-.274-1.632-.954a1.424 1.424 0 002.217 1.226 1.426 1.426 0 00.54-1.658c.1.377-.352 1.19-1.125 1.386z" fill="#75B6EC"/><path d="M155.782 50.415a1.423 1.423 0 01-1.08 2.395 1.42 1.42 0 01-1.341-1.742 1.419 1.419 0 011.429-1.1 1.426 1.426 0 01.992.447z" fill="#75B6EC"/><path opacity=".2" d="M154.957 52.307c-.724.185-1.39-.273-1.632-.959a1.418 1.418 0 001.021 1.412 1.421 1.421 0 001.736-1.845c.102.384-.354 1.196-1.125 1.392z" fill="#000"/><path d="M155.839 47.89c.193.206.32.463.366.74a1.421 1.421 0 11-.366-.74z" fill="#75B6EC"/><path opacity=".45" d="M155.839 47.89c.193.206.32.463.366.74a1.421 1.421 0 11-.366-.74z" fill="#fff"/><path opacity=".2" d="M155.014 49.783c-.724.184-1.39-.273-1.632-.96a1.42 1.42 0 001.021 1.414 1.422 1.422 0 001.736-1.845c.101.383-.355 1.195-1.125 1.391z" fill="#75B6EC"/><path d="M155.317 49.125a1.13 1.13 0 01-.226 1.729 1.128 1.128 0 11.226-1.73z" fill="#75B6EC"/><path opacity=".3" d="M155.317 49.125a1.13 1.13 0 01-.226 1.729 1.128 1.128 0 11.226-1.73z" fill="#fff"/><path opacity=".5" d="M154.663 50.627c-.576.146-1.104-.217-1.296-.762a1.121 1.121 0 00.811 1.12 1.13 1.13 0 001.381-1.463c.077.305-.284.95-.896 1.105z" fill="#75B6EC"/><path d="M154.532 47.678a1.708 1.708 0 10-3.415-.009 1.708 1.708 0 003.415.009z" fill="#75B6EC"/><path opacity=".15" d="M154.532 47.678a1.708 1.708 0 10-3.415-.009 1.708 1.708 0 003.415.009z" fill="#fff"/><path opacity=".4" d="M153.079 48.777c-.869.221-1.669-.328-1.959-1.151a1.705 1.705 0 103.314-.519c.117.46-.43 1.434-1.355 1.67z" fill="#75B6EC"/><path d="M152.489 51.927a1.708 1.708 0 10-.001-3.415 1.708 1.708 0 00.001 3.415z" fill="#75B6EC"/><path opacity=".2" d="M152.743 51.322c-.87.222-1.669-.327-1.96-1.15a1.696 1.696 0 00.577 1.33 1.703 1.703 0 002.084.135 1.701 1.701 0 00.744-1.246 1.714 1.714 0 00-.09-.738c.117.459-.43 1.434-1.355 1.67z" fill="#000"/><path d="M151.833 49.778a1.129 1.129 0 10-2.256-.071 1.129 1.129 0 002.256.071z" fill="#75B6EC"/><path opacity=".3" d="M151.833 49.778a1.129 1.129 0 10-2.256-.071 1.129 1.129 0 002.256.071z" fill="#fff"/><path opacity=".5" d="M150.873 50.473c-.576.147-1.104-.212-1.296-.761a1.14 1.14 0 00.383.878 1.126 1.126 0 001.867-.734 1.12 1.12 0 00-.058-.488c.079.305-.284.95-.896 1.105z" fill="#75B6EC"/><path d="M163.864 59.274c-.085 0-.171 0-.258-.005a.098.098 0 01-.066-.03.096.096 0 01-.025-.068.089.089 0 01.03-.066.095.095 0 01.067-.025 6.3 6.3 0 00.932-.034.095.095 0 01.106.082.1.1 0 01-.019.07.098.098 0 01-.028.024.1.1 0 01-.035.012 5.86 5.86 0 01-.704.04zm-1.201-.084h-.013c-.298-.039-.615-.09-.942-.154a.097.097 0 01-.055-.042.1.1 0 01-.012-.068.099.099 0 01.037-.059.095.095 0 01.066-.018c.318.064.637.116.93.153a.094.094 0 01.06.034.093.093 0 01.021.066.09.09 0 01-.029.063.094.094 0 01-.063.026zm2.806-.19a.092.092 0 01-.051-.016.088.088 0 01-.035-.04.09.09 0 01-.008-.037.076.076 0 01.006-.036.083.083 0 01.02-.032.082.082 0 01.03-.02 1.74 1.74 0 00.467-.302c.082-.076.154-.163.212-.259a.109.109 0 01.024-.034.102.102 0 01.036-.02.098.098 0 01.081.011.092.092 0 01.042.069.096.096 0 01-.004.042 1.471 1.471 0 01-.266.332 1.42 1.42 0 01-.237.186 2.033 2.033 0 01-.279.151.1.1 0 01-.036.002l-.002.002zm-4.665-.171a.088.088 0 01-.023 0 23.933 23.933 0 01-.92-.25.095.095 0 01.017-.186.088.088 0 01.036.004c.31.09.616.174.912.248a.095.095 0 01.072.078.092.092 0 01-.002.037.096.096 0 01-.093.069h.001zm-1.821-.53a.1.1 0 01-.03 0 30.19 30.19 0 01-.899-.312.096.096 0 01-.054-.049.095.095 0 01-.003-.072.083.083 0 01.019-.032.088.088 0 01.066-.031c.012 0 .025.002.036.006.302.106.603.212.894.31a.094.094 0 01.055.047.1.1 0 01.006.072.095.095 0 01-.036.045.096.096 0 01-.056.015h.002zm-1.785-.645a.079.079 0 01-.034-.007 35.083 35.083 0 01-.881-.358.098.098 0 01-.051-.051.091.091 0 01-.007-.036c0-.013.003-.025.007-.037a.096.096 0 01.088-.058.09.09 0 01.036.007c.294.124.59.243.877.357a.096.096 0 01.053.05.094.094 0 01-.035.116.096.096 0 01-.054.016l.001.001zm9.191-.13a.094.094 0 01-.065-.025.093.093 0 01-.03-.064 2.8 2.8 0 00-.218-.887.09.09 0 01-.006-.036.09.09 0 01.028-.067.1.1 0 01.068-.027.09.09 0 01.066.028c.009.01.016.02.02.031.129.301.207.622.232.948a.115.115 0 01-.006.037.083.083 0 01-.019.032.084.084 0 01-.03.022.09.09 0 01-.036.009h-.004zm-10.936-.605a.104.104 0 01-.039-.007 53.29 53.29 0 01-.864-.396.096.096 0 01-.046-.126.095.095 0 01.126-.045c.289.134.578.267.861.393a.095.095 0 01.056.106.093.093 0 01-.034.055.092.092 0 01-.06.02zm-1.717-.805a.1.1 0 01-.043-.01 407.21 407.21 0 01-.53-.263c-.106-.054-.212-.106-.318-.166a.094.094 0 01-.046-.056.095.095 0 01.135-.111c.106.055.212.105.318.163.176.09.351.177.525.263a.106.106 0 01.03.023.095.095 0 01-.077.157h.006zm11.999-.35a.098.098 0 01-.081-.045 9.862 9.862 0 00-.53-.773.091.091 0 01-.018-.07.087.087 0 01.012-.035.087.087 0 01.024-.027.097.097 0 01.071-.019.095.095 0 01.063.037c.206.27.389.53.544.788a.095.095 0 01-.032.13.094.094 0 01-.058.015h.005zm-13.683-.524a.09.09 0 01-.046-.012l-.833-.455a.096.096 0 01-.037-.128.13.13 0 01.024-.029.097.097 0 01.07-.02.095.095 0 01.035.012c.269.149.546.3.831.454a.086.086 0 01.029.023c.008.01.014.02.018.033a.092.092 0 01-.045.11.09.09 0 01-.051.012h.005zm-1.657-.924a.1.1 0 01-.048-.012 54.87 54.87 0 01-.815-.489.093.093 0 01-.031-.13.093.093 0 01.129-.031c.268.163.541.326.813.485a.096.096 0 01.033.13.09.09 0 01-.036.036.096.096 0 01-.05.011h.005zm14.2-.065a.104.104 0 01-.039-.01.1.1 0 01-.032-.023 16.759 16.759 0 00-.64-.694.094.094 0 01.069-.16c.025 0 .049.011.067.03.078.079.153.158.229.238.145.156.286.31.418.46a.1.1 0 01.022.05.106.106 0 01-.008.052.097.097 0 01-.086.056zm-15.821-.924a.097.097 0 01-.051-.014c-.266-.17-.53-.344-.797-.518a.092.092 0 01-.027-.026.133.133 0 01-.014-.035.115.115 0 010-.037.1.1 0 01.041-.06.093.093 0 01.071-.014.098.098 0 01.035.014c.263.174.53.347.795.515a.095.095 0 01-.051.175h-.002zm14.5-.44a.087.087 0 01-.064-.026 22.188 22.188 0 00-.698-.636.1.1 0 01-.026-.064c0-.024.009-.047.024-.065a.097.097 0 01.062-.031.095.095 0 01.066.018c.243.212.479.431.702.643.009.009.016.02.021.03a.111.111 0 01.007.037.11.11 0 01-.007.036.096.096 0 01-.09.058h.003zm-16.082-.608a.092.092 0 01-.054-.017 42.67 42.67 0 01-.777-.548.094.094 0 010-.166.092.092 0 01.077-.008.1.1 0 01.034.02c.252.182.513.366.773.546a.096.096 0 01.04.061.095.095 0 01-.096.112h.003zm-1.539-1.11a.097.097 0 01-.06-.017 49.37 49.37 0 01-.753-.582.097.097 0 01-.039-.104.081.081 0 01.018-.035.09.09 0 01.03-.025.1.1 0 01.077-.005.093.093 0 01.033.02c.243.192.494.387.749.58a.094.094 0 01.034.047.096.096 0 010 .058.1.1 0 01-.035.048.099.099 0 01-.057.017l.003-.002zm-1.49-1.183a.097.097 0 01-.062-.023c-.247-.212-.489-.415-.721-.62a.102.102 0 01-.032-.066.097.097 0 01.024-.069.085.085 0 01.03-.022.092.092 0 01.072-.004c.012.004.022.01.032.019.23.204.471.411.717.617.016.012.026.03.032.048a.101.101 0 01-.002.057.097.097 0 01-.035.046.097.097 0 01-.055.017zm-1.42-1.256a.1.1 0 01-.065-.026c-.237-.225-.465-.45-.678-.67a.095.095 0 01.067-.161c.026 0 .05.01.068.027.212.218.438.441.673.664a.094.094 0 01.027.067c0 .025-.009.05-.027.068a.1.1 0 01-.065.031zm-1.32-1.363a.096.096 0 01-.039-.008.096.096 0 01-.032-.024c-.22-.251-.424-.5-.607-.742a.092.092 0 01-.001-.061.09.09 0 01.036-.05.094.094 0 01.115.005c.181.235.382.48.599.728a.096.096 0 01.016.101.1.1 0 01-.035.041.096.096 0 01-.052.015v-.005zm-1.143-1.516a.093.093 0 01-.08-.045 5.852 5.852 0 01-.444-.854.091.091 0 010-.073.092.092 0 01.051-.05.093.093 0 01.072 0 .091.091 0 01.052.05c.121.287.264.564.43.828.007.01.011.022.013.034a.092.092 0 01-.044.096.095.095 0 01-.05.014zm-.667-1.755a.096.096 0 01-.066-.026.097.097 0 01-.029-.064v-.127a1.554 1.554 0 01.225-.838.096.096 0 11.161.106 1.352 1.352 0 00-.196.736v.121a.077.077 0 01-.006.037.096.096 0 01-.019.031.094.094 0 01-.066.03l-.004-.006zm7.421-.784a.094.094 0 01-.03 0 19.45 19.45 0 00-.902-.282.1.1 0 01-.033-.017.104.104 0 01-.023-.029.088.088 0 01-.011-.035.076.076 0 01.003-.037.095.095 0 01.08-.067.093.093 0 01.037.003c.295.086.601.181.909.283.012.004.023.01.032.018a.109.109 0 01.023.03.09.09 0 01.005.072.098.098 0 01-.033.047.095.095 0 01-.055.018l-.002-.005zm-1.82-.53h-.024c-.318-.08-.625-.15-.921-.213a.094.094 0 01-.058-.038.09.09 0 01-.016-.068.097.097 0 01.038-.057.097.097 0 01.068-.017c.298.058.61.13.93.212a.095.095 0 01.057.038.101.101 0 01.017.066.1.1 0 01-.032.06.096.096 0 01-.065.023l.006-.007zm-4.665-.182a.095.095 0 01-.089-.129.1.1 0 01.051-.052c.301-.125.619-.205.943-.238a.094.094 0 01.106.084.093.093 0 01-.002.037.097.097 0 01-.045.057.094.094 0 01-.036.012c-.305.03-.605.106-.889.223a.098.098 0 01-.043.01l.004-.004zm2.808-.181h-.013a9.974 9.974 0 00-.935-.08.098.098 0 01-.039-.006.091.091 0 01-.033-.021.089.089 0 01-.022-.033.087.087 0 01-.007-.04c0-.012.003-.026.009-.038a.1.1 0 01.024-.03.096.096 0 01.075-.022c.297.01.617.038.954.081a.094.094 0 01.063.036c.016.02.023.045.02.07a.1.1 0 01-.032.063.097.097 0 01-.067.023l.003-.003z" fill="#fff"/><path d="M148.992 65.434a1.43 1.43 0 01-.489-.085.094.094 0 01-.053-.049.091.091 0 01-.003-.072.094.094 0 01.121-.057c.136.049.279.074.424.073a1.61 1.61 0 00.446-.067l.029.09.02.094a1.818 1.818 0 01-.495.073zm1.318-.498a.096.096 0 01-.078-.04.098.098 0 01-.016-.072.093.093 0 01.039-.061 5.34 5.34 0 00.71-.604.094.094 0 01.134.002.094.094 0 01.027.067c0 .026-.01.05-.028.067l-.128.123c-.19.18-.393.348-.606.5a.091.091 0 01-.054.016v.002zm-2.507-.16a.09.09 0 01-.042-.01.09.09 0 01-.034-.029 3.408 3.408 0 01-.438-.863.097.097 0 01.058-.122.092.092 0 01.072.004.107.107 0 01.03.023c.008.009.014.02.018.032.099.29.238.566.414.818a.092.092 0 01.017.07.087.087 0 01-.012.035.103.103 0 01-.025.028.094.094 0 01-.058.013zm3.866-1.154a.094.094 0 01-.05-.016.1.1 0 01-.035-.04.103.103 0 01-.008-.051.097.097 0 01.021-.049c.189-.227.382-.478.575-.742a.093.093 0 01.122-.013.093.093 0 01.031.12c-.195.27-.391.53-.583.756a.101.101 0 01-.032.026.098.098 0 01-.041.009zm-4.533-.604a.095.095 0 01-.094-.078 8.671 8.671 0 01-.133-.948.091.091 0 01.003-.036.097.097 0 01.119-.063.094.094 0 01.056.046.088.088 0 01.01.035c.032.332.077.645.132.93a.096.096 0 01-.075.106l-.018.008zm5.646-.931a.094.094 0 01-.052-.015.1.1 0 01-.041-.06.095.095 0 01.014-.072c.164-.254.331-.524.495-.803a.087.087 0 01.024-.028.096.096 0 01.07-.018.094.094 0 01.079.07.096.096 0 01-.01.072c-.165.281-.334.554-.499.81a.097.097 0 01-.034.032.096.096 0 01-.046.012zm-5.838-.954a.095.095 0 01-.095-.092c0-.184-.008-.375-.008-.57v-.383a.096.096 0 01.133-.086.1.1 0 01.03.022c.009.009.016.02.02.031a.092.092 0 01.007.037v.379c0 .193 0 .383.008.564a.092.092 0 01-.026.068.093.093 0 01-.066.03h-.003zm6.802-.679a.087.087 0 01-.045-.012.102.102 0 01-.046-.056.114.114 0 01-.003-.037.088.088 0 01.011-.035c.147-.27.295-.551.439-.837a.098.098 0 01.056-.042.097.097 0 01.115.058.097.097 0 01-.001.07c-.146.287-.295.57-.442.841a.096.096 0 01-.084.05zm-6.769-1.217h-.006a.096.096 0 01-.089-.1c.018-.307.043-.626.072-.949a.101.101 0 01.035-.065.098.098 0 01.137.015c.008.01.013.02.017.033a.08.08 0 01.003.038c-.03.318-.054.636-.072.942a.09.09 0 01-.032.063.092.092 0 01-.065.023zm7.633-.474a.097.097 0 01-.041-.01.093.093 0 01-.048-.053.095.095 0 01.003-.073c.133-.28.266-.569.396-.86a.093.093 0 01.089-.055c.012 0 .024.003.036.008a.103.103 0 01.03.021c.008.01.015.02.019.032a.091.091 0 01.007.036.09.09 0 01-.009.036 44.77 44.77 0 01-.396.864.092.092 0 01-.038.04.093.093 0 01-.053.014h.005zm.773-1.732a.094.094 0 01-.088-.059.091.091 0 010-.073c.121-.287.242-.582.358-.876a.1.1 0 01.051-.052.094.094 0 01.072-.002.097.097 0 01.053.124c-.116.295-.237.591-.359.88a.09.09 0 01-.037.044.09.09 0 01-.055.014h.005zm.699-1.764a.114.114 0 01-.033 0 .098.098 0 01-.054-.05.097.097 0 01-.002-.072c.106-.294.219-.593.323-.89a.099.099 0 01.049-.048.096.096 0 01.13.112c-.106.297-.212.598-.324.892a.1.1 0 01-.038.044.096.096 0 01-.057.012h.006zm.636-1.788a.097.097 0 01-.044-.01.099.099 0 01-.034-.029.102.102 0 01-.017-.04.096.096 0 01.005-.045c.098-.297.197-.6.29-.901a.097.097 0 01.083-.067.096.096 0 01.069.022.08.08 0 01.023.029.09.09 0 01.011.035.092.092 0 01-.005.037c-.094.303-.193.607-.291.904a.095.095 0 01-.101.07l.011-.005zm.566-1.81a.082.082 0 01-.027 0 .095.095 0 01-.064-.118c.089-.303.176-.61.258-.91a.104.104 0 01.017-.032.096.096 0 01.1-.033.099.099 0 01.057.044.1.1 0 01.009.072c-.083.302-.17.608-.259.913a.098.098 0 01-.039.05.098.098 0 01-.063.014h.011zm.5-1.828h-.023a.093.093 0 01-.058-.043.106.106 0 01-.012-.034.09.09 0 01.002-.037l.093-.374c.046-.183.089-.365.133-.545a.102.102 0 01.015-.034.117.117 0 01.027-.025.094.094 0 01.131.03.092.092 0 01.011.072 72.73 72.73 0 01-.132.547l-.094.375a.103.103 0 01-.039.053.097.097 0 01-.064.015h.01zm.436-1.844h-.02a.094.094 0 01-.072-.113c.067-.313.131-.624.191-.927a.087.087 0 01.014-.035.078.078 0 01.026-.026.086.086 0 01.034-.014.097.097 0 01.071.014.092.092 0 01.04.06.092.092 0 010 .037 46.74 46.74 0 01-.191.93.095.095 0 01-.104.073h.011zm.363-1.862h-.016a.095.095 0 01-.06-.038.098.098 0 01-.018-.068c.054-.312.106-.627.151-.933a.097.097 0 01.106-.08.098.098 0 01.061.037c.015.02.021.044.018.068-.045.309-.096.625-.15.939a.096.096 0 01-.103.075h.011zm.268-1.875h-.012a.096.096 0 01-.063-.035.097.097 0 01-.019-.07c.039-.319.073-.637.106-.941a.094.094 0 01.103-.082.096.096 0 01.063.033.096.096 0 01.023.067c-.028.307-.063.626-.106.946a.093.093 0 01-.032.06.092.092 0 01-.063.022zm.174-1.888h-.007a.092.092 0 01-.035-.009.085.085 0 01-.03-.022.12.12 0 01-.019-.032.113.113 0 01-.005-.036c.019-.325.032-.637.037-.944a.095.095 0 01.06-.087.093.093 0 01.037-.006.095.095 0 01.067.029.105.105 0 01.02.03.113.113 0 01.006.037c-.005.306-.018.626-.037.954a.09.09 0 01-.031.061.093.093 0 01-.063.024v.001zm-6.77-1.218a.103.103 0 01-.045-.012.1.1 0 01-.046-.056.095.095 0 01.008-.072c.155-.286.318-.564.469-.828a.096.096 0 01.13-.034.096.096 0 01.043.058.114.114 0 01.003.037.106.106 0 01-.012.035c-.155.262-.312.54-.467.822a.09.09 0 01-.035.036.091.091 0 01-.048.013v.001zm6.803-.677a.095.095 0 01-.095-.092c-.01-.33-.029-.646-.058-.94a.114.114 0 01.003-.037.101.101 0 01.046-.056.095.095 0 01.073-.007.09.09 0 01.032.017.091.091 0 01.035.064c.028.299.048.619.059.954 0 .025-.009.05-.026.067a.098.098 0 01-.066.03h-.003zm-5.837-.955a.1.1 0 01-.051-.014.119.119 0 01-.027-.026.105.105 0 01-.015-.034.116.116 0 010-.037.087.087 0 01.014-.035c.179-.277.359-.542.536-.788a.097.097 0 01.133-.022.098.098 0 01.021.133c-.175.243-.354.505-.53.78a.096.096 0 01-.082.041l.001.002zm5.646-.928a.094.094 0 01-.06-.022.1.1 0 01-.034-.055 6.248 6.248 0 00-.237-.902.09.09 0 01-.005-.037c0-.012.003-.024.009-.035a.096.096 0 01.053-.049.096.096 0 01.073.004c.023.01.041.03.049.053.104.304.186.615.245.93a.096.096 0 01-.075.106l-.018.007zm-4.533-.607a.092.092 0 01-.06-.021.1.1 0 01-.034-.064.097.097 0 01.021-.07c.218-.261.435-.5.646-.708a.094.094 0 01.068-.026.09.09 0 01.067.03.092.092 0 01.026.068.09.09 0 01-.03.067 9.407 9.407 0 00-.636.693.093.093 0 01-.069.03l.001.001zm3.865-1.154a.093.093 0 01-.076-.04 1.906 1.906 0 00-.213-.243 1.368 1.368 0 00-.477-.304.096.096 0 01-.062-.085.09.09 0 01.006-.036.082.082 0 01.019-.032.094.094 0 01.102-.025c.204.076.39.194.545.347.085.082.163.172.232.27a.093.093 0 01-.02.133.098.098 0 01-.056.015zm-2.504-.16a.094.094 0 01-.091-.066.092.092 0 010-.059.1.1 0 01.035-.047c.265-.194.561-.342.874-.44a.094.094 0 01.118.064.095.095 0 01-.063.118c-.292.092-.566.23-.813.411a.094.094 0 01-.06.018z" fill="#fff"/><path d="M143.984 56.437c-.331 0-.649-.006-.955-.02a.099.099 0 01-.06-.033.097.097 0 01-.022-.065.096.096 0 01.091-.091c.301.013.617.02.94.02a.096.096 0 01.097.095.094.094 0 01-.026.065.094.094 0 01-.065.029zm.948-.017a.092.092 0 01-.061-.031.095.095 0 01.061-.159c.306-.01.623-.027.944-.049a.093.093 0 01.072.022.097.097 0 01.034.067.091.091 0 01-.005.037.094.094 0 01-.083.064 32.28 32.28 0 01-.954.049h-.008zm-2.838-.067h-.009a12.714 12.714 0 01-.947-.125.092.092 0 01-.061-.039.09.09 0 01-.016-.07.095.095 0 01.038-.062.096.096 0 01.071-.016c.29.05.605.092.933.123a.098.098 0 01.083.068.125.125 0 01.003.038.102.102 0 01-.032.06.097.097 0 01-.063.023zm4.736-.057a.098.098 0 01-.063-.028.094.094 0 01-.028-.063.097.097 0 01.022-.065.094.094 0 01.06-.034c.31-.029.626-.063.941-.1a.093.093 0 01.037.003.094.094 0 01.069.081.093.093 0 01-.002.037.095.095 0 01-.08.069 40.7 40.7 0 01-.946.1h-.01zm1.884-.222a.09.09 0 01-.036-.004.089.089 0 01-.032-.019.08.08 0 01-.023-.029.09.09 0 01-.005-.072.094.094 0 01.083-.065c.306-.043.621-.09.936-.14a.094.094 0 01.108.078.093.093 0 01-.016.07.096.096 0 01-.062.038c-.318.051-.636.099-.94.142l-.013.001zm-8.481-.053h-.026a5.39 5.39 0 01-.902-.34.1.1 0 01-.048-.054.113.113 0 01-.005-.037.094.094 0 01.033-.065.095.095 0 01.031-.018.098.098 0 01.073.004c.28.135.571.245.87.328.022.006.042.02.055.039.012.02.018.043.014.066a.091.091 0 01-.032.058.094.094 0 01-.063.022v-.003zm10.358-.249a.094.094 0 01-.097-.086.095.095 0 01.08-.102c.282-.052.571-.106.86-.164l.07-.014a.095.095 0 01.112.074c.005.025 0 .05-.014.071a.094.094 0 01-.06.04l-.07.016c-.291.057-.581.112-.864.164l-.017.001zm1.862-.366a.095.095 0 01-.068-.022.1.1 0 01-.033-.062.098.098 0 01.02-.068.093.093 0 01.062-.035c.318-.065.626-.133.923-.204a.096.096 0 01.072.012.093.093 0 01.042.06.092.092 0 01.002.036.106.106 0 01-.013.035.105.105 0 01-.026.026.088.088 0 01-.034.016c-.297.07-.61.14-.928.204l-.019.002zm-13.879-.271a.094.094 0 01-.038-.008.113.113 0 01-.033-.023l-.011-.014a1.48 1.48 0 01-.385-.897.096.096 0 01.19-.011c.02.293.139.57.338.786l.009.011a.095.095 0 01.025.068.101.101 0 01-.031.066.093.093 0 01-.064.022zm15.713-.166a.095.095 0 01-.061-.025.095.095 0 01-.017-.122.096.096 0 01.052-.04c.106-.028.206-.057.307-.087.205-.054.407-.106.608-.163a.095.095 0 01.072.009.091.091 0 01.044.057.09.09 0 01-.009.072.093.093 0 01-.057.044c-.201.056-.404.106-.607.164l-.308.087a.09.09 0 01-.024.003zm1.827-.511a.094.094 0 01-.093-.082.087.087 0 01.014-.065.092.092 0 01.052-.04c.303-.09.608-.182.905-.277a.097.097 0 01.069.01.097.097 0 01.039.123.095.095 0 01-.05.048c-.299.095-.605.188-.91.278a.076.076 0 01-.024.003l-.002.002zm1.808-.572a.096.096 0 01-.055-.018.093.093 0 01-.034-.047.081.081 0 01-.006-.037c0-.013.003-.026.009-.038a.095.095 0 01.022-.03.097.097 0 01.034-.02c.298-.1.6-.204.893-.31a.096.096 0 01.103.025.095.095 0 01-.038.153 48.41 48.41 0 01-.926.32l-.002.002zm-19.508-.514a.09.09 0 01-.042-.01.093.093 0 01-.029-.023.086.086 0 01-.019-.033.09.09 0 01.007-.072 3.77 3.77 0 01.557-.792.096.096 0 01.134-.008.09.09 0 01.031.065.092.092 0 01-.024.07 3.608 3.608 0 00-.53.75.094.094 0 01-.081.05l-.004.003zm21.293-.129a.098.098 0 01-.06-.022.098.098 0 01-.031-.055.092.092 0 01.01-.063.094.094 0 01.047-.043c.297-.114.593-.231.88-.349a.093.093 0 01.072 0 .093.093 0 01.031.021c.008.009.015.02.02.03a.09.09 0 01.007.037.09.09 0 01-.028.067.089.089 0 01-.03.02c-.289.119-.586.237-.884.351a.099.099 0 01-.031.005l-.003.002zm1.755-.72a.094.094 0 01-.051-.016.09.09 0 01-.037-.114.083.083 0 01.02-.03.09.09 0 01.03-.022c.293-.13.583-.262.861-.393a.094.094 0 01.104.016.095.095 0 01.031.066.091.091 0 01-.005.036.1.1 0 01-.02.032.09.09 0 01-.029.022 31.93 31.93 0 01-.866.394.097.097 0 01-.035.008h-.003zm-21.819-.584a.096.096 0 01-.054-.017.09.09 0 01-.034-.045.095.095 0 01.027-.105c.224-.193.479-.39.755-.587a.085.085 0 01.034-.02.098.098 0 01.04-.005.09.09 0 01.038.013.1.1 0 01.045.065.09.09 0 01-.002.04.084.084 0 01-.018.035.1.1 0 01-.031.025 10.81 10.81 0 00-.743.578.098.098 0 01-.057.024zm23.537-.232a.094.094 0 01-.09-.123.094.094 0 01.046-.056c.289-.147.569-.298.834-.447a.095.095 0 11.092.165c-.266.15-.548.302-.839.452a.104.104 0 01-.044.01h.001zm-22-.873a.096.096 0 01-.057-.02.099.099 0 01-.034-.049.09.09 0 01.003-.06.09.09 0 01.039-.046c.257-.161.53-.326.819-.486a.095.095 0 01.13.036.095.095 0 01-.037.13 16.6 16.6 0 00-.812.48.099.099 0 01-.051.015zm23.651-.056a.095.095 0 01-.093-.067.09.09 0 01.003-.061.09.09 0 01.039-.046c.277-.175.541-.351.783-.525a.095.095 0 01.148.056.092.092 0 01.001.037.089.089 0 01-.039.061c-.244.175-.511.355-.793.53a.092.092 0 01-.049.011v.005zm-21.994-.88a.094.094 0 01-.044-.18c.274-.14.561-.282.848-.424a.098.098 0 01.073-.003.094.094 0 01.009.174 29.24 29.24 0 00-.848.419.111.111 0 01-.038.014zm23.536-.235a.09.09 0 01-.071-.034.098.098 0 01-.023-.069.093.093 0 01.033-.065 6.373 6.373 0 00.67-.652.095.095 0 01.14-.015.1.1 0 01.023.032.086.086 0 01.009.039.086.086 0 01-.008.038.087.087 0 01-.022.033 7.455 7.455 0 01-.688.672.1.1 0 01-.07.025l.007-.004zm1.22-1.438a.097.097 0 01-.042-.009.096.096 0 01-.042-.127 2.39 2.39 0 00.112-.27c.059-.165.09-.338.092-.513v-.082a.1.1 0 01.026-.065.097.097 0 01.13-.008.095.095 0 01.034.06v.095c-.003.196-.039.39-.106.574a2.37 2.37 0 01-.122.292.099.099 0 01-.036.04.097.097 0 01-.053.013h.007zm-.153-1.738a.094.094 0 01-.071-.032 2.379 2.379 0 00-.731-.535.096.096 0 01-.042-.128.094.094 0 01.127-.042c.298.141.565.338.789.58a.095.095 0 01.022.069.092.092 0 01-.032.065.092.092 0 01-.062.023zm-1.645-.894a.103.103 0 01-.026 0 8.501 8.501 0 00-.915-.206.097.097 0 01-.058-.04.098.098 0 01-.014-.069.095.095 0 01.105-.078c.315.054.627.124.935.212.022.006.04.02.052.04a.091.091 0 01.014.064.095.095 0 01-.093.082v-.005zm-1.86-.337h-.01c-.298-.03-.615-.052-.94-.066a.09.09 0 01-.036-.008.083.083 0 01-.03-.022.084.084 0 01-.02-.032.091.091 0 01-.005-.036.092.092 0 01.031-.066.096.096 0 01.067-.026c.33.015.65.038.954.067a.096.096 0 01.066.031.1.1 0 01.024.068.095.095 0 01-.099.09h-.002zm-2.843-.069a.098.098 0 01-.061-.031.099.099 0 01-.024-.064c0-.023.009-.046.024-.064a.098.098 0 01.061-.03c.318-.012.636-.018.938-.018h.014a.095.095 0 01.061.031.095.095 0 01-.061.159h-.018c-.3 0-.612 0-.929.017h-.005z" fill="#fff"/><path d="M139.242 51.036a1.09 1.09 0 11.45 2.133 1.09 1.09 0 01-.45-2.133z" fill="#75B6EC"/><path opacity=".2" d="M139.242 51.036a1.09 1.09 0 11.45 2.133 1.09 1.09 0 01-.45-2.133z" fill="#fff"/><path opacity=".15" d="M140.152 52.329c-.167.548-.731.801-1.272.687a1.09 1.09 0 001.598-.5 1.081 1.081 0 00-.044-.923 1.076 1.076 0 00-.738-.557c.284.09.634.71.456 1.293z" fill="#fff"/><path d="M160.071 41.058a1.09 1.09 0 10-2.013-.834 1.09 1.09 0 002.013.834z" fill="#75B6EC"/><path opacity=".5" d="M160.071 41.058a1.09 1.09 0 10-2.013-.834 1.09 1.09 0 002.013.834z" fill="#fff"/><path opacity=".35" d="M158.702 41.264c-.502-.277-.637-.88-.409-1.39a1.099 1.099 0 00-.312.87c.015.16.065.313.147.45a1.087 1.087 0 001.934-.115c-.148.266-.828.48-1.36.185z" fill="#fff"/><path d="M165.821 55.923a1.089 1.089 0 11-1.47-1.607 1.089 1.089 0 011.47 1.607z" fill="#75B6EC"/><path opacity=".5" d="M165.821 55.923a1.089 1.089 0 11-1.47-1.607 1.089 1.089 0 011.47 1.607z" fill="#fff"/><path opacity=".35" d="M164.38 55.27c-.135-.556.223-1.06.751-1.24a1.09 1.09 0 10.303 2.12c-.294.07-.912-.288-1.054-.88z" fill="#fff"/><path d="M178 77.71l-4.5 2.5h9l-9.5 1.5 8.5 1-6.5 1.5 6.5 1.5-6.5 1.5 5.5.5-4 2 4.5 2-9 4.5h12.5l-9.5 2.5h4v1.499l-1 1.5" stroke="#4797C8" stroke-width=".5"/><path fill="#fff" stroke="#4797C8" d="M157.5 105.209h65v48h-65z"/><path d="M163 132.209l1.5-15.5 1 11v-13l3.5 17.5v-17.5l4.5 15.5v-12l3 12 .5-5.75m.5-5.75l-.5 5.75m0 0l3-7.75v7.75l2.5-5.75 1 8.5v-9l5.5 9 1-9.5 6 9.5 2-9.5v6.75l2.5-9.75 1.5 15.5v-7.5l3.5 7.5 1.25-4.75m1.25-4.75l-1.25 4.75m0 0l2.75 4.75v-12l2 9.5 3-9.5 3 9.5" stroke="#D4B1F8" stroke-width=".5"/><path fill="#4797C8" d="M154 152.709h73v5h-73z"/><path d="M77.5 144l-6.5-5" stroke="#4797C8"/><path d="M229.324 81.289a.25.25 0 00-.002.353l1.582 1.6a.25.25 0 10.355-.35l-1.405-1.423 1.422-1.406a.25.25 0 00-.351-.356l-1.601 1.582zm.174.427l11 .067.003-.5-10.999-.067-.004.5z" fill="#4BBD23"/><path d="M196 83.5L217.5 72" stroke="#4BBD23" stroke-width=".5"/><path d="M190.177 72.323a.25.25 0 00-.354 0l-1.591 1.591a.25.25 0 00.354.354L190 72.854l1.414 1.414a.25.25 0 00.354-.354l-1.591-1.59zm-.427.177v11h.5v-11h-.5z" fill="#4BBD23"/><path d="M243.175 49.822a.25.25 0 01.003.354l-1.582 1.6a.25.25 0 11-.355-.351l1.405-1.423-1.422-1.406a.25.25 0 11.351-.355l1.6 1.581zm-.174.428l-11 .066-.003-.5 11-.066.003.5z" fill="#FFD600"/><path d="M196 66.5V84h50.5" stroke="#4BBD23" stroke-width=".5"/><path d="M196 39v17.5h50.5M218 44l-21.5 12.5" stroke="#FFD600" stroke-width=".5"/></svg>