<svg viewBox="0 0 48 48" fill="none" xmlns="http://www.w3.org/2000/svg"><g clip-path="url(#clip0_68_8584)"><path d="M32.668 39H15.332c-.88 0-1.493-.879-1.184-1.703a8.932 8.932 0 011.616-2.729c1.38-1.585 3.288-2.566 5.397-2.566h5.679c3.142 0 5.84 2.179 7.01 5.29.311.826-.3 1.708-1.182 1.708z" fill="#084D5B"/><path d="M33.852 37.297c-.926-2.463-2.807-4.341-5.108-5.02a6.71 6.71 0 00-1.904-.275h-5.68a6.7 6.7 0 00-1.905.276A7.56 7.56 0 0024 33.943a7.58 7.58 0 002.602-.457 2.73 2.73 0 012.85.624 8.813 8.813 0 012.044 3.183c.311.825-.3 1.707-1.182 1.707h2.354c.88 0 1.493-.879 1.184-1.703z" fill="#003D48"/><path d="M25.762 35.753l-1.19 1.415a.748.748 0 01-1.144 0l-1.19-1.415a3.326 3.326 0 01-.782-2.141v-2.031h5.087v2.031c0 .783-.277 1.542-.781 2.141z" fill="url(#paint0_linear_68_8584)"/><path d="M21.456 33.506a7.58 7.58 0 002.544.437 7.58 7.58 0 002.543-.437v-1.925h-5.087v1.925z" fill="url(#paint1_linear_68_8584)"/><path d="M24 32.473a7.593 7.593 0 01-7.593-7.593v-2.196a7.593 7.593 0 1115.185 0v2.196A7.593 7.593 0 0124 32.473z" fill="url(#paint2_linear_68_8584)"/><path d="M31.09 19.964a7.637 7.637 0 00-1.721-2.648 7.567 7.567 0 00-5.37-2.225 7.586 7.586 0 00-7.09 4.873h9.607c1.492 0 2.718 1.2 2.723 2.69v2.226a7.594 7.594 0 01-6.416 7.502 7.593 7.593 0 008.77-7.502v-2.196c0-.959-.178-1.876-.502-2.72z" fill="url(#paint3_linear_68_8584)"/><path d="M24.21 17.243l-.438 1.257a4.14 4.14 0 01-3.91 2.78c-1.082 0-2.12.43-2.886 1.196l-.567.567a4.63 4.63 0 01-.013-4.894l.56-.906h7.253z" fill="url(#paint4_linear_68_8584)"/><path d="M20.731 17.243l.437 1.257a4.14 4.14 0 003.91 2.78h3.06c1.082 0 2.12.43 2.886 1.196l.567.567a4.63 4.63 0 00.013-4.894l-.56-.906H20.73z" fill="url(#paint5_linear_68_8584)"/><path d="M32.297 20.585c0 .852-.235 1.704-.705 2.455l-.001.003-.567-.567a4.08 4.08 0 00-2.128-1.124 2.731 2.731 0 00-2.38-1.388h-4.465a4.134 4.134 0 01-.883-1.464l-.437-1.257h10.313l.56.906c.462.747.693 1.591.693 2.436z" fill="url(#paint6_linear_68_8584)"/><path d="M20.686 25.795a1.574 1.574 0 01-1.573-1.572.441.441 0 11.883 0 .69.69 0 001.38 0 .441.441 0 11.881 0c0 .867-.705 1.572-1.572 1.572z" fill="#003D48"/><path d="M27.315 25.795a1.574 1.574 0 01-1.572-1.572.441.441 0 01.882 0 .69.69 0 001.38 0 .441.441 0 11.882 0c0 .867-.705 1.572-1.572 1.572z" fill="url(#paint7_linear_68_8584)"/><path d="M24 30.511c-.973 0-1.915-.455-2.653-1.282a.44.44 0 11.658-.587c.577.646 1.267.987 1.995.987.729 0 1.419-.341 1.996-.987a.44.44 0 11.658.587c-.738.827-1.68 1.282-2.654 1.282z" fill="url(#paint8_linear_68_8584)"/><path d="M29.444 11H15.741a.741.741 0 00-.741.741v5.732c0 .41.332.741.741.741h13.703a.74.74 0 00.741-.741v-5.731a.741.741 0 00-.741-.742z" fill="url(#paint9_linear_68_8584)"/><path d="M32 11.72v5.56c0 .398-.372.72-.83.72h-2.635c.459 0 .83-.322.83-.72v-2.459c0-.9-.84-1.628-1.878-1.628H15V11.72c0-.398.372-.72.83-.72h15.34c.458 0 .83.322.83.72z" fill="url(#paint10_linear_68_8584)"/><path d="M15.32 10.739v3.866a.735.735 0 11-1.47 0v-3.867a.735.735 0 111.47 0z" fill="#094F5E"/><path d="M13.551 14.73a1.456 1.456 0 011.924-.126c.709.55.756 1.579.143 2.192l-.552.551a.682.682 0 01-.964 0l-.55-.55a1.462 1.462 0 010-2.067z" fill="url(#paint11_linear_68_8584)"/><path d="M15.475 14.604a1.436 1.436 0 00-.262-.16 1.655 1.655 0 01-1.774 2.224c.034.044.071.087.112.128l.551.551a.682.682 0 00.964 0l.551-.55a1.463 1.463 0 00-.142-2.193z" fill="url(#paint12_linear_68_8584)"/><path d="M33.653 12.069H14.347a1.534 1.534 0 110-3.069h19.306a1.534 1.534 0 010 3.069z" fill="url(#paint13_linear_68_8584)"/><path d="M33.653 9H31.3a1.534 1.534 0 010 3.069h2.353a1.534 1.534 0 100-3.069z" fill="url(#paint14_linear_68_8584)"/></g><defs><linearGradient id="paint0_linear_68_8584" x1="21.456" y1="34.508" x2="26.543" y2="34.508" gradientUnits="userSpaceOnUse"><stop stop-color="#FFDCBD"/><stop offset=".003" stop-color="#FFDCBD"/><stop offset="1" stop-color="#FFA9B1"/></linearGradient><linearGradient id="paint1_linear_68_8584" x1="21.456" y1="32.762" x2="26.543" y2="32.762" gradientUnits="userSpaceOnUse"><stop stop-color="#FFC2B5"/><stop offset="1" stop-color="#FF89A8"/></linearGradient><linearGradient id="paint2_linear_68_8584" x1="16.407" y1="23.782" x2="31.592" y2="23.782" gradientUnits="userSpaceOnUse"><stop stop-color="#FFDCBD"/><stop offset=".003" stop-color="#FFDCBD"/><stop offset="1" stop-color="#FFA9B1"/></linearGradient><linearGradient id="paint3_linear_68_8584" x1="22.569" y1="23.782" x2="35.032" y2="23.782" gradientUnits="userSpaceOnUse"><stop stop-color="#FFC2B5"/><stop offset="1" stop-color="#FF89A8"/></linearGradient><linearGradient id="paint4_linear_68_8584" x1="14.69" y1="20.143" x2="24.308" y2="20.143" gradientUnits="userSpaceOnUse"><stop stop-color="#FFE177"/><stop offset=".573" stop-color="#FEB137"/><stop offset="1" stop-color="#FE646F"/></linearGradient><linearGradient id="paint5_linear_68_8584" x1="19.462" y1="20.143" x2="33.446" y2="20.143" gradientUnits="userSpaceOnUse"><stop stop-color="#FFE177"/><stop offset=".573" stop-color="#FEB137"/><stop offset="1" stop-color="#FE646F"/></linearGradient><linearGradient id="paint6_linear_68_8584" x1="14.973" y1="20.143" x2="31.944" y2="20.143" gradientUnits="userSpaceOnUse"><stop stop-color="#FFE177"/><stop offset=".573" stop-color="#FEB137"/></linearGradient><linearGradient id="paint7_linear_68_8584" x1="24.216" y1="24.788" x2="29.062" y2="24.788" gradientUnits="userSpaceOnUse"><stop stop-color="#003D48"/></linearGradient><linearGradient id="paint8_linear_68_8584" x1="20.531" y1="29.503" x2="24.852" y2="29.503" gradientUnits="userSpaceOnUse"><stop stop-color="#FFC2B5"/><stop offset=".244" stop-color="#FFBBB3"/><stop offset=".61" stop-color="#FFA6AF"/><stop offset="1" stop-color="#FF89A8"/></linearGradient><linearGradient id="paint9_linear_68_8584" x1="15.543" y1="14.607" x2="29.904" y2="14.607" gradientUnits="userSpaceOnUse"><stop stop-color="#54A1D3"/></linearGradient><linearGradient id="paint10_linear_68_8584" x1="11.782" y1="14.5" x2="36.361" y2="14.5" gradientUnits="userSpaceOnUse"><stop stop-color="#54A1D3"/></linearGradient><linearGradient id="paint11_linear_68_8584" x1="12.887" y1="15.925" x2="16.404" y2="15.925" gradientUnits="userSpaceOnUse"><stop stop-color="#003D48"/></linearGradient><linearGradient id="paint12_linear_68_8584" x1="11.134" y1="15.995" x2="16.616" y2="15.995" gradientUnits="userSpaceOnUse"><stop stop-color="#094F5E"/></linearGradient><linearGradient id="paint13_linear_68_8584" x1="14.253" y1="10.534" x2="33.872" y2="10.534" gradientUnits="userSpaceOnUse"><stop stop-color="#54A1D3"/></linearGradient><linearGradient id="paint14_linear_68_8584" x1="23.043" y1="10.534" x2="35.115" y2="10.534" gradientUnits="userSpaceOnUse"><stop stop-color="#54A1D3"/></linearGradient><clipPath id="clip0_68_8584"><path fill="#fff" transform="translate(9 9)" d="M0 0h30v30H0z"/></clipPath></defs></svg>