<svg viewBox="0 0 117 120" fill="none" xmlns="http://www.w3.org/2000/svg"><path d="M108.984 77.913l-3.608.077-1.831.03c-.613.014-1.229 0-1.842.016h-.121v-.123l-.016-3.085v-.138h.137l3.64.017c1.216 0 2.428.03 3.641.044h.077v.077c0 .522-.025 1.042-.036 1.556l-.041 1.529zm0 0l-.039-1.554c0-.511-.03-1.017-.036-1.523l.075.077c-1.213.014-2.425.044-3.641.044l-3.64.017.138-.138-.014 3.077-.124-.121c.6 0 1.199 0 1.801.013l1.809.033 3.671.075zm-4.061 3.879l-3.607.077-1.832.03c-.613 0-1.228 0-1.841.016h-.11v-.123l-.017-3.077v-.137h.137l3.641.019c1.215 0 2.427.03 3.64.044h.077v.074c0 .522-.022 1.042-.036 1.556l-.052 1.52zm0 0l-.039-1.554c-.013-.511-.03-1.017-.035-1.523l.074.077c-1.213.014-2.425.044-3.64.044l-3.64.017.137-.138v3.077l-.124-.121c.6 0 1.199 0 1.801.013l1.809.033 3.657.075zm8.125 0l-3.61.077-1.831.03c-.613 0-1.226 0-1.84.016h-.123v-.123l-.014-3.077v-.137h.151l3.64.019c1.213 0 2.425.03 3.641.044h.074v.074c0 .522-.025 1.042-.036 1.556l-.052 1.52zm0 0l-.041-1.554c0-.511-.031-1.017-.036-1.523l.077.077c-1.215.014-2.428.044-3.64.044l-3.641.017.135-.138-.014 3.077-.121-.121c.6 0 1.196 0 1.799.013l1.809.033 3.673.075zM15.28 77.913l-3.61.077-1.83.03c-.61.014-1.227 0-1.84.016h-.123v-.123l-.014-3.085v-.138h.14l3.64.017c1.213 0 2.425.03 3.64.044h.075v.077c0 .522-.025 1.042-.036 1.556l-.041 1.529zm0 0l-.038-1.554c0-.511-.033-1.017-.038-1.523l.077.077c-1.216.014-2.428.044-3.64.044L8 74.974l.137-.138-.017 3.077-.12-.121c.599 0 1.195 0 1.797.013l1.81.033 3.673.075zm-4.06 3.879l-3.61.077-1.831.03c-.614 0-1.227 0-1.843.016h-.12v-.123l-.014-3.077v-.137h.137l3.64.019c1.216 0 2.428.03 3.643.044h.075v.074c0 .522-.025 1.042-.036 1.556l-.041 1.52zm0 0l-.042-1.554c0-.511-.03-1.017-.036-1.523l.078.077c-1.216.014-2.428.044-3.643.044l-3.64.017.137-.138v3.077l-.124-.121c.602 0 1.199 0 1.801.013l1.81.033 3.659.075zm65.233-47.726l-3.61.071-1.83.03c-.611 0-1.227 0-1.84.014h-.124v-3.338h.14l3.64.017c1.213 0 2.425.03 3.64.044h.075v.074c0 .522-.025 1.04-.036 1.553l-.055 1.535zm0 0l-.041-1.557c0-.511-.03-1.017-.036-1.52l.077.074c-1.215.014-2.428.044-3.64.044l-3.64.02.137-.138-.016 3.076-.121-.123c.6 0 1.196 0 1.798.016l1.809.03 3.673.078zm-4.063 3.879l-3.607.077-1.83.03h-1.964v-.123l-.017-3.077v-.14h.138l3.64.016c1.215 0 2.428.03 3.64.044h.077v.075c0 .522-.025 1.039-.035 1.553l-.042 1.545zm0 0l-.038-1.556c0-.511-.03-1.017-.036-1.52l.074.074c-1.212 0-2.425.044-3.64.044l-3.64.02.138-.138-.014 3.076-.124-.124c.602 0 1.199 0 1.8.017l1.81.03 3.67.077zm8.125 0l-3.61.077-1.831.03H73.11v-.123l-.014-3.077v-.14h.137l3.64.016c1.213 0 2.425.03 3.64.044h.075v.075c0 .522-.022 1.039-.036 1.553l-.038 1.545zm0 0l-.039-1.556c0-.511-.033-1.017-.036-1.52l.075.074c-1.216 0-2.428.044-3.64.044l-3.64.02.137-.138-.017 3.076-.12-.124c.599 0 1.198 0 1.797.017l1.81.03 3.673.077zm28.048-26.523l-3.607.077-1.831.03c-.613 0-1.229 0-1.842.017h-.121v-.124l-.017-3.077v-.137h.138l3.64.017c1.215 0 2.427.033 3.64.046h.077v.074c0 .523-.025 1.042-.039 1.554l-.038 1.523zm0 0l-.033-1.553c0-.515-.03-1.02-.036-1.524l.074.075c-1.212 0-2.424.044-3.64.046l-3.64.017.138-.138-.014 3.077-.124-.124c.6 0 1.199 0 1.801.017l1.809.03 3.665.077zm4.062 3.879l-3.607.077-1.831.03c-.613.014-1.226 0-1.842.014h-.113V15.3l-.016-3.077v-.137h.137l3.64.016c1.215 0 2.428.033 3.64.047h.077v.074c0 .522-.024 1.042-.035 1.553l-.05 1.526zm0 0l-.038-1.553c0-.514-.031-1.02-.036-1.523l.074.074c-1.212.014-2.425.044-3.64.047l-3.64.016.137-.137-.013 3.076-.124-.123c.602 0 1.199 0 1.801.016l1.809.03 3.67.077zM11.22 11.425l-3.61.077-1.83.03c-.614 0-1.227 0-1.843.017h-.12v-.124l-.014-3.077v-.137h.137l3.64.02c1.215 0 2.428.03 3.643.043h.074v.074c0 .523-.024 1.042-.035 1.557l-.042 1.52zm0 0l-.04-1.553c0-.515-.031-1.02-.037-1.524l.077.075c-1.215.016-2.427.044-3.643.046l-3.64.017.138-.138v3.077l-.138-.107h1.801l1.81.03 3.672.077zm9.483 8.055H5.936v17.91h14.767V19.48z" fill="#EBEBEB"/><path d="M19.014 21.116H7.624v14.64h11.39v-14.64z" fill="#fff"/><path d="M8.069 21.116h-.446v14.64h.446v-14.64zm13.079-1.636h-.446v17.91h.446V19.48zm-6.486 4.955h-2.687v8.003h2.687v-8.003z" fill="#DBDBDB"/><path d="M17.038 30.535H9.614V26.34h7.424v4.195zm-7.149-.275h6.874v-3.645H9.889v3.645zm22.437 11.446H17.56v17.91h14.766v-17.91z" fill="#EBEBEB"/><path d="M30.638 43.342h-11.39v14.64h11.39v-14.64z" fill="#fff"/><path d="M19.693 43.342h-.446v14.64h.446v-14.64zm13.076-1.636h-.446v17.91h.446v-17.91z" fill="#DBDBDB"/><path d="M26.141 47.125H23.84v5.818h2.301v-5.818z" fill="#EBEBEB"/><path d="M28.169 54.81h-6.456v-4.287h6.456v4.287zm-6.18-.275h5.905v-3.737h-5.906v3.737z" fill="#DBDBDB"/><path d="M58.494 119.977c30.098 0 54.498-2.39 54.498-5.339 0-2.949-24.4-5.339-54.498-5.339-30.099 0-54.498 2.39-54.498 5.339 0 2.949 24.4 5.339 54.498 5.339z" fill="#EBEBEB"/><path d="M104.22 68.499h-.209V90.52h.209V68.499zm6.332-8.644l-5.974 30.666h-.212l5.983-30.708.203.042z" fill="#263238"/><path d="M104.042 90.52h-.206l-1.81-38.43.207-.01 1.779 37.847.03.594z" fill="#263238"/><path d="M108.133 44.766a10.385 10.385 0 01-2.549 4.108c-1.57 1.613-3.184 2.49-3.17 2.664.049.49.525 1.234.489 1.396-.035.163-.437.325-.772.325-.336 0-.737-.162-.776-.325-.038-.162.44-.907.487-1.396.036-.347-6.513-3.536-6.062-9.843.233-3.236 2.279-4.545 4.011-5.073a8.326 8.326 0 012.34-.352c.921 0 5.971.226 6.345 5.425a8.268 8.268 0 01-.343 3.071z" fill="#76B8EE"/><path opacity=".1" d="M102.414 51.538c.049.49.525 1.234.489 1.397-.035.162-.437.324-.772.324-.336 0-.737-.162-.776-.325-.038-.162.44-.907.487-1.396.036-.347-6.513-3.536-6.062-9.843.233-3.236 2.279-4.545 4.011-5.072-1.537 1.317-3.431 3.904-2.062 8.116 1.267 3.89 4.99 5.042 7.855 4.124-1.57 1.625-3.184 2.502-3.17 2.675z" fill="#000"/><path d="M106.51 39.817a1.425 1.425 0 01-1.705 1.4 1.43 1.43 0 01-1.04-1.946 1.426 1.426 0 012.745.546z" fill="#fff"/><path d="M116.453 52.085a10.305 10.305 0 01-2.549 4.11c-1.567 1.614-3.184 2.491-3.167 2.662.049.49.525 1.234.487 1.396-.039.163-.435.325-.773.325s-.737-.162-.773-.325c-.035-.162.438-.907.487-1.396.033-.344-6.516-3.533-6.062-9.84.233-3.239 2.276-4.548 4.011-5.073a8.106 8.106 0 012.337-.352c.924 0 5.974.223 6.348 5.425a8.296 8.296 0 01-.346 3.068z" fill="#C7C7C7"/><path d="M110.732 58.856c.049.49.525 1.235.486 1.397-.038.162-.434.325-.772.325s-.737-.163-.773-.325c-.035-.162.437-.907.487-1.397.033-.343-6.516-3.533-6.062-9.84.233-3.238 2.276-4.547 4.011-5.072-1.54 1.314-3.434 3.901-2.062 8.116 1.265 3.887 4.987 5.042 7.852 4.124-1.562 1.625-3.167 2.502-3.167 2.672z" fill="#A6A6A6"/><path d="M115.034 47.155a1.426 1.426 0 01-2.436 1.01 1.424 1.424 0 01.216-2.196 1.429 1.429 0 012.22 1.186z" fill="#fff"/><path d="M110.115 60.737a10.406 10.406 0 01-2.587 4.138c-1.556 1.586-3.14 2.447-3.126 2.617.049.49.525 1.235.489 1.397-.035.162-.437.324-.772.324-.336 0-.737-.162-.776-.324-.038-.162.44-.907.487-1.397.033-.343-6.516-3.533-6.049-9.84.237-3.263 2.31-4.566 4.05-5.086a8.24 8.24 0 012.293-.341c.921 0 5.972.225 6.346 5.427a8.281 8.281 0 01-.355 3.085z" fill="#37474F"/><path d="M97.768 57.652c.236-3.263 2.309-4.566 4.05-5.086-1.548 1.298-3.511 3.898-2.123 8.168 1.262 3.88 4.971 5.037 7.833 4.14-1.556 1.587-3.14 2.448-3.126 2.618.05.49.525 1.235.489 1.397-.035.162-.437.324-.772.324-.336 0-.737-.162-.775-.324-.039-.162.439-.907.486-1.397.028-.344-6.516-3.533-6.062-9.84z" fill="#263238"/><path d="M108.531 55.744a1.428 1.428 0 01-2.826.278 1.428 1.428 0 112.826-.278z" fill="#fff"/><path d="M106.197 85.41h-3.926v5.13h3.926v-5.13z" fill="#76B8EE"/><path d="M8.628 68.499H8.42V90.52h.21V68.499zm6.33-8.644L8.984 90.52h-.212l5.985-30.708.201.042z" fill="#263238"/><path d="M8.447 90.52H8.24L6.431 52.09l.21-.01 1.778 37.847.028.594z" fill="#263238"/><path d="M12.539 44.766a10.313 10.313 0 01-2.55 4.108c-1.566 1.613-3.183 2.49-3.166 2.664.05.489.525 1.234.486 1.396-.038.163-.434.325-.772.325s-.734-.163-.773-.325c-.038-.162.437-.907.487-1.396.033-.347-6.516-3.536-6.049-9.843.22-3.236 2.263-4.534 3.998-5.084a8.312 8.312 0 011.476-.275c.286-.033.573-.05.86-.052.925 0 5.975.226 6.349 5.425a8.325 8.325 0 01-.346 3.057z" fill="#C7C7C7"/><path d="M6.822 51.538c.05.489.525 1.234.487 1.396-.039.163-.435.325-.773.325s-.734-.163-.772-.325c-.039-.162.437-.907.486-1.396.033-.347-6.516-3.536-6.048-9.843.22-3.236 2.262-4.534 3.997-5.084-1.54 1.317-3.434 3.904-2.062 8.116 1.265 3.89 4.987 5.043 7.852 4.125-1.567 1.635-3.183 2.512-3.167 2.686z" fill="#A6A6A6"/><path d="M10.93 39.817a1.427 1.427 0 11-2.854 0 1.427 1.427 0 012.854 0z" fill="#fff"/><path d="M20.86 52.085a10.334 10.334 0 01-2.549 4.11c-1.57 1.614-3.183 2.491-3.167 2.662.047.49.525 1.234.487 1.396-.039.163-.437.325-.773.325-.335 0-.737-.162-.775-.325-.039-.162.44-.907.487-1.396.035-.344-6.514-3.533-6.049-9.84.23-3.239 2.276-4.548 4.008-5.073a8.15 8.15 0 012.34-.352c.921 0 5.975.223 6.349 5.425a8.302 8.302 0 01-.358 3.068z" fill="#37474F"/><path d="M15.144 58.856c.047.49.525 1.235.487 1.397-.039.162-.437.325-.773.325-.335 0-.737-.163-.775-.325-.039-.162.44-.907.487-1.397.035-.343-6.514-3.533-6.049-9.84.23-3.238 2.276-4.547 4.008-5.072-1.536 1.314-3.43 3.901-2.062 8.116 1.268 3.887 4.99 5.042 7.855 4.124-1.58 1.625-3.194 2.502-3.178 2.672z" fill="#263238"/><path d="M19.452 47.155a1.43 1.43 0 11-2.86.006 1.43 1.43 0 012.86-.006z" fill="#fff"/><path d="M14.52 60.737a10.345 10.345 0 01-2.587 4.138c-1.556 1.587-3.14 2.447-3.123 2.618.047.489.525 1.234.487 1.396-.039.162-.435.325-.773.325s-.737-.163-.773-.325c-.035-.162.438-.907.487-1.396.033-.344-6.516-3.533-6.049-9.84.234-3.264 2.31-4.567 4.05-5.087a8.518 8.518 0 012.28-.33c.923 0 5.974.226 6.348 5.428a8.22 8.22 0 01-.347 3.073z" fill="#76B8EE"/><path opacity=".1" d="M2.175 57.652c.233-3.263 2.31-4.566 4.05-5.086-1.548 1.298-3.511 3.898-2.123 8.168 1.262 3.88 4.968 5.037 7.83 4.14-1.556 1.587-3.14 2.448-3.123 2.618.047.49.525 1.235.487 1.397-.039.162-.435.324-.773.324s-.737-.162-.773-.324c-.035-.162.438-.907.487-1.397.033-.344-6.516-3.533-6.062-9.84z" fill="#000"/><path d="M12.93 55.744a1.427 1.427 0 11-2.854 0 1.427 1.427 0 012.855 0z" fill="#fff"/><path d="M10.605 85.41H6.68v5.13h3.926v-5.13z" fill="#76B8EE"/><path d="M1.84 90.518l14.162-.066 14.165-.025 28.327-.047 28.326.047 14.165.025 14.162.066-14.162.069-14.165.022-28.326.046-28.327-.046-14.165-.025-14.162-.066z" fill="#263238"/><path d="M104.445 17.195a148.738 148.738 0 01-91.905 0A57126.5 57126.5 0 0118.118.023a130.66 130.66 0 0080.749 0 57126.5 57126.5 0 015.578 17.172z" fill="#76B8EE"/><path d="M32.3 9.132l1.408.274c.145.877.294 1.755.448 2.634.451-.77.896-1.542 1.334-2.317.473.082.947.162 1.424.239a261.993 261.993 0 01-1.925 3.178c.208.856.42 1.711.638 2.565a186.41 186.41 0 003.192-5.474c.55.083 1.11.16 1.677.234a189.225 189.225 0 01-4.412 7.022c-.457-.072-.91-.146-1.375-.223a161.586 161.586 0 01-.885-3.384c-.657.962-1.325 1.919-2.005 2.87a39.633 39.633 0 01-1.358-.275 194.985 194.985 0 01-1.688-8.108c.55.123 1.095.242 1.636.358.34 2.08.711 4.161 1.116 6.243.495-.733.983-1.466 1.463-2.2a230.707 230.707 0 01-.687-3.636zm13.989 8.295c-.038.428-.074.857-.113 1.289-1.946-.167-3.89-.375-5.828-.624l.96-7.525c1.806.23 3.615.424 5.424.58-.039.429-.075.86-.113 1.29-1.305-.116-2.61-.249-3.915-.4-.072.606-.14 1.21-.212 1.815 1.144.134 2.287.252 3.429.355l-.108 1.193a136.55 136.55 0 01-3.458-.357c-.074.654-.151 1.309-.226 1.963 1.379.16 2.765.3 4.16.42zm1.168 1.393l.583-7.566c.517.041 1.034.077 1.55.113l-.412 6.274c1.419.093 2.838.165 4.259.214-.017.432-.03.86-.047 1.292-1.98-.064-3.957-.173-5.933-.327zm6.024-3.514a3.787 3.787 0 011.144-2.562 4.053 4.053 0 011.267-.825 4.14 4.14 0 011.672-.31 3.896 3.896 0 011.908.459c.509.269.932.676 1.22 1.174-.398.275-.797.53-1.2.794a1.926 1.926 0 00-.391-.55 1.992 1.992 0 00-.49-.346 2.443 2.443 0 00-.55-.19 3.015 3.015 0 00-.55-.06 2.26 2.26 0 00-1.03.214 2.2 2.2 0 00-.737.594 2.445 2.445 0 00-.46.803 2.893 2.893 0 00-.173.899c-.008.33.044.659.154.97a2.423 2.423 0 001.243 1.408c.31.148.65.224.992.223.198 0 .395-.021.589-.06.202-.043.398-.112.583-.204.182-.099.349-.224.495-.371.159-.15.286-.33.373-.53.44.227.886.453 1.331.678-.128.29-.316.549-.55.762-.248.22-.525.405-.825.55a4.59 4.59 0 01-1 .346 4.786 4.786 0 01-1.048.113 3.848 3.848 0 01-1.65-.363 4.14 4.14 0 01-1.261-.924 3.968 3.968 0 01-.795-1.273 3.591 3.591 0 01-.261-1.419zm12.039 3.82a4.076 4.076 0 01-1.69-.253 3.949 3.949 0 01-1.318-.825 3.807 3.807 0 01-.86-1.215 3.634 3.634 0 01-.047-2.873 4.05 4.05 0 013.574-2.524 3.782 3.782 0 011.6.25 4.074 4.074 0 012.161 1.98 3.575 3.575 0 01.206 2.84 3.83 3.83 0 01-.755 1.286 4.01 4.01 0 01-1.243.93c-.51.242-1.064.38-1.628.404zm-2.57-3.745a2.8 2.8 0 00.195.943c.114.295.284.566.5.797a2.29 2.29 0 001.823.701 2.26 2.26 0 001.757-.899c.191-.253.332-.54.415-.846a2.82 2.82 0 00.096-.933 2.748 2.748 0 00-.23-.937 2.635 2.635 0 00-.52-.78c-.22-.224-.483-.4-.773-.518a2.337 2.337 0 00-.992-.156 2.28 2.28 0 00-1.001.274 2.2 2.2 0 00-.718.605c-.19.247-.335.527-.426.825-.092.3-.135.611-.127.924zm14.788 2.568l-.673-4.982a142.668 142.668 0 01-1.65 3.981l-.877.102a156.95 156.95 0 01-2.513-3.495l.492 4.999c-.55.052-1.1.104-1.65.151-.216-2.518-.434-5.038-.654-7.558.55-.05 1.1-.099 1.65-.154a173.1 173.1 0 002.85 4.033 144.047 144.047 0 001.873-4.586c.55-.075 1.1-.152 1.65-.23l1.1 7.505c-.498.083-1.048.16-1.598.234zm8.901-2.809l.256 1.267a147.69 147.69 0 01-5.788 1.044c-.396-2.496-.793-4.994-1.193-7.492a131.83 131.83 0 005.38-.97l.256 1.267c-1.292.26-2.586.502-3.882.723.105.6.206 1.202.308 1.801 1.135-.194 2.268-.403 3.401-.627l.23 1.174a135.9 135.9 0 01-3.427.633c.11.648.222 1.297.332 1.949 1.38-.237 2.756-.493 4.127-.77zm1.078-1.818l-.998-4.704c.492-.105.987-.212 1.479-.322.352 1.562.703 3.125 1.053 4.69a157.5 157.5 0 01-1.534.336zm.594 2.79c-.113-.525-.226-1.053-.336-1.578.517-.11 1.032-.223 1.546-.338l.354 1.575c-.522.116-1.042.22-1.564.341z" fill="#fff"/><path opacity=".1" d="M19.106 2.245c.03.349-.001.7-.09 1.039-.081.337-.182.67-.303.995a9.351 9.351 0 01-.91 1.859c.182-.671.42-1.314.655-1.958l.352-.96c.121-.317.22-.644.296-.975zm.274.225a3.3 3.3 0 01.339.825c.079.29.135.584.167.883a5.19 5.19 0 01-.112 1.784c-.039-.3-.055-.591-.08-.885a31.837 31.837 0 00-.313-2.606zm.652-.225c.211.223.437.432.677.624a5.808 5.808 0 001.567.902c.275.118.575.2.874.302a3.024 3.024 0 01-.94-.099 3.448 3.448 0 01-1.658-.951 2.504 2.504 0 01-.52-.778zm78.075 0c.076.332.175.66.297.978l.355.946c.233.644.47 1.287.651 1.958A9.643 9.643 0 0198.2 3.27a3.026 3.026 0 01-.093-1.025zm-.272.225a29.989 29.989 0 00-.313 2.612c-.022.292-.044.586-.083.885a5.193 5.193 0 01-.113-1.784c.033-.298.089-.593.168-.882.075-.291.19-.57.341-.83zm-.652-.225a2.56 2.56 0 01-.533.78 3.447 3.447 0 01-1.633.949 3.002 3.002 0 01-.938.099c.3-.102.591-.184.872-.302a6.117 6.117 0 001.556-.902c.24-.192.466-.4.676-.624z" fill="#000"/><path d="M20.032 2.244a.652.652 0 11-1.303 0 .652.652 0 011.303 0zm78.225 0a.652.652 0 11-1.304 0 .652.652 0 011.304 0zM41.995 35.03a.685.685 0 01-.572.776.674.674 0 01-.75-.594.69.69 0 01.574-.775.676.676 0 01.748.594zm52.545 2.857a.687.687 0 01-.574.775.672.672 0 01-.748-.593.687.687 0 01.572-.776.676.676 0 01.75.594z" fill="#263238"/><path d="M79.441 32.506a.344.344 0 01-.288.385.334.334 0 01-.374-.294.343.343 0 01.275-.388.336.336 0 01.387.297zm-41.845 0a.341.341 0 01-.275.385.33.33 0 01-.334-.168.334.334 0 01-.04-.126.343.343 0 01.275-.388.336.336 0 01.374.297z" fill="#76B8EE"/><path d="M87.516 10.748a.344.344 0 01-.275.385.33.33 0 01-.374-.294.341.341 0 01.275-.388.335.335 0 01.374.297zM69.901 54.279a.34.34 0 01-.275.387.336.336 0 01-.374-.296.344.344 0 01.275-.385.33.33 0 01.374.294zM64.353 5.747a.344.344 0 01-.275.388.335.335 0 01-.373-.297.344.344 0 01.275-.388.335.335 0 01.373.297z" fill="#263238"/><path d="M27.113 40.991a.344.344 0 01-.275.388.335.335 0 01-.374-.297.344.344 0 01.275-.388.336.336 0 01.374.297z" fill="#76B8EE"/><path d="M83.97 68.229a.34.34 0 01-.275.388.336.336 0 01-.374-.297.344.344 0 01.288-.388.333.333 0 01.36.297z" fill="#455A64"/><path d="M38.746 62.282a.344.344 0 01-.275.388.334.334 0 01-.374-.297.341.341 0 01.275-.388.335.335 0 01.374.297zm4.739-13.241a.684.684 0 01-.572.776.67.67 0 01-.75-.594.684.684 0 01.574-.773.669.669 0 01.748.591z" fill="#76B8EE"/><path d="M49.145 13.355a.69.69 0 01-.55.775.674.674 0 01-.748-.594.684.684 0 01.572-.775.674.674 0 01.726.594zm-9.074 42.439a.687.687 0 01-.574.775.668.668 0 01-.748-.591.685.685 0 01.572-.776.671.671 0 01.75.592z" fill="#455A64"/><path d="M73.951 8.205a.682.682 0 01-.572.773.668.668 0 01-.748-.592.684.684 0 01.572-.775.668.668 0 01.748.594zm-.543 22.407l.945-.327s-.646-.344-.643-1.413c.003-1.07.883-1.49.5-2.456l-1.05.297a2.082 2.082 0 01.047 1.65c-.278.6-.528 1.328.2 2.249z" fill="#263238"/><path d="M50.27 34.785l-.931-.373s.291.687-.36 1.514c-.652.828-1.593.58-1.887 1.581l.996.46a2.014 2.014 0 01.96-1.3c.59-.287 1.23-.688 1.223-1.882z" fill="#455A64"/><path d="M28.722 53.077l-.93-.363s.276.688-.362 1.515c-.638.828-1.592.58-1.883 1.581l.992.46a2.015 2.015 0 01.96-1.301c.59-.3 1.231-.701 1.223-1.892z" fill="#263238"/><path d="M100.189 51.183l-.93-.36s.29.684-.362 1.515c-.652.83-1.592.58-1.884 1.578l.993.462a2.028 2.028 0 01.96-1.303c.59-.308 1.231-.71 1.223-1.892z" fill="#76B8EE"/><path d="M32.584 25.543l.135-1.02s-.583.445-1.507-.028c-.924-.473-.899-1.482-1.905-1.556l-.215 1.1a1.925 1.925 0 011.441.681c.41.537.93 1.095 2.051.823z" fill="#263238"/><path d="M26.791 66.678l.135-1.02s-.583.446-1.507-.027c-.924-.473-.899-1.48-1.905-1.556l-.215 1.1a1.926 1.926 0 011.441.681c.41.536.93 1.095 2.051.822z" fill="#76B8EE"/><path d="M60.397 63.937l.135-1.02s-.583.445-1.507-.027c-.924-.473-.9-1.48-1.905-1.556l-.215 1.1a1.925 1.925 0 011.438.681c.423.536.932 1.094 2.054.822z" fill="#455A64"/><path d="M100.502 28.13l.135-1.02s-.58.445-1.507-.03c-.926-.476-.898-1.48-1.905-1.554l-.212 1.1a1.926 1.926 0 011.438.681c.41.537.93 1.092 2.051.823z" fill="#76B8EE"/><path d="M40.818 67.866l.19 1.012s.412-.616 1.435-.473c1.023.143 1.309 1.1 2.285.839l-.14-1.12a1.889 1.889 0 01-1.573-.164c-.553-.369-1.218-.723-2.197-.094z" fill="#455A64"/><path d="M57.469 46.784l-1.05-.589s-.847 1.325.173 1.994c0-.011-.212-.872.877-1.405z" fill="#76B8EE"/><path d="M56.62 49.792l1.1-.427s.063-.978-1.13-1.187c.002 0 .75.885.03 1.614z" fill="#76B8EE"/><path d="M28.139 5.434l-1.048-.589s-.85 1.325.173 1.994c0 0-.212-.861.875-1.405z" fill="#455A64"/><path d="M27.292 8.452l1.1-.426s.063-.979-1.13-1.188c.003 0 .75.886.03 1.614z" fill="#455A64"/><path d="M64.508 30.13a.687.687 0 01.574-.774.672.672 0 01.748.593.69.69 0 01-.575.776.674.674 0 01-.747-.594z" fill="#263238"/><path d="M85.999 43.443a.685.685 0 01.575-.772.668.668 0 01.747.59.685.685 0 01-.571.776.674.674 0 01-.751-.594zm-14.036 24.17a.688.688 0 01.575-.775.672.672 0 01.748.594.687.687 0 01-.572.775.677.677 0 01-.75-.594zM16.35 56.316a.341.341 0 01.274-.388.336.336 0 01.374.297.347.347 0 01-.288.388.332.332 0 01-.36-.297zm53.936-7.424a.344.344 0 01.275-.387.334.334 0 01.374.297.344.344 0 01-.275.388.339.339 0 01-.374-.297z" fill="#76B8EE"/><path d="M61.27 21.267a.344.344 0 01.275-.388.334.334 0 01.374.297.344.344 0 01-.275.388.335.335 0 01-.374-.297z" fill="#37474F"/><path d="M86.426 24.369a.687.687 0 01.574-.776.671.671 0 01.748.594.684.684 0 01-.574.773.67.67 0 01-.748-.591z" fill="#76B8EE"/><path d="M17.895 49.052a.685.685 0 01.572-.772.67.67 0 01.75.59.687.687 0 01-.574.776.668.668 0 01-.748-.594zm27.866-24.356l-1.589.467s-.756-2.056.825-2.637c-.008 0-.544 1.095.764 2.17z" fill="#455A64"/><path d="M45.501 20.357l1.375.918s-.201 1.342-1.875 1.251c-.011 0 1.262-.962.5-2.17zm51.06 43.811l-1.586.468s-.756-2.057.825-2.637c-.008 0-.545 1.094.761 2.17zm-.257-4.338l1.374.918s-.2 1.342-1.875 1.25c-.01 0 1.26-.961.5-2.168z" fill="#455A64"/><path d="M85.873 50.339l-.215-1.697s2.073-.475 2.397 1.221c0 0-.97-.706-2.183.476zm4.185.363l-1.078 1.265s-1.254-.402-.924-2.104c0 0 .737 1.444 2.002.839zm-42.665 11.16l-1.59.464s-.756-2.053.825-2.634c-.005.014-.541 1.095.765 2.17z" fill="#263238"/><path d="M47.135 57.52l1.375.921s-.2 1.342-1.875 1.251c-.011.014 1.259-.962.5-2.172z" fill="#263238"/><path d="M75.89 19.928l1.047.591s.85-1.325-.17-1.993c0 0 .208.86-.878 1.402zm.85-3.016l-1.1.424s-.066.978 1.13 1.19c-.003 0-.753-.885-.03-1.614z" fill="#455A64"/><path d="M74.007 53.996l.174 1.22s1.534-.093 1.435-1.339c0 0-.536.69-1.609.119z" fill="#76B8EE"/><path d="M76.847 52.885l-.99-.657s-.795.533-.242 1.65c0 0 .236-1.156 1.232-.993z" fill="#76B8EE"/><path d="M37.1 114.33c.594.193 18.096-.027 18.734-.445.248-.154-.984-16.623-.984-16.623l-11.31.113 1.206 11.019s-6.436 2.978-7.088 3.511c-.651.534-1.16 2.238-.558 2.425z" fill="#D3766A"/><path d="M37.1 114.33c.591.193 18.1-.027 18.734-.445.116-.069-.085-3.604-.333-7.396H44.535l.21 1.903s-6.437 2.98-7.091 3.513c-.655.534-1.155 2.238-.553 2.425z" fill="#fff"/><path d="M36.908 114.572c.624.204 18.3.036 18.97-.401.259-.162-.115-5.991-.115-6.024H44.83v.195s-6.796 3.115-7.486 3.676c-.69.561-1.062 2.351-.437 2.554z" fill="#A6A6A6"/><path d="M36.954 113.868c3.005-.101 15.122-.231 18.107-.101.022 0 .022.016 0 .019-2.974.165-15.102.192-18.107.132-.063.008-.063-.05 0-.05zm6.599-5.677c1.179-.231 2.628-.063 3.538.773.036.03 0 .08-.05.069a16.477 16.477 0 00-3.483-.691.074.074 0 01-.046-.024.079.079 0 01-.004-.099.078.078 0 01.045-.028zm-.85.522c1.18-.231 2.628-.063 3.538.773.036.03 0 .08-.049.069a16.476 16.476 0 00-3.483-.691.074.074 0 01-.066-.073c0-.018.005-.035.016-.05a.078.078 0 01.044-.028zm-.845.523c1.18-.231 2.625-.063 3.538.77.036.033 0 .082-.05.071a16.541 16.541 0 00-3.483-.69.076.076 0 01-.046-.025.077.077 0 01.04-.126z" fill="#263238"/><path d="M43.6 107.927h12.18s-2.035-28.241-1.964-28.623c.121-.636.841-3.514 1.798-7.275.3-1.177.624-2.442.96-3.75.907-3.539 1.91-7.404 2.782-10.772 1.309-5.04 2.329-8.958 2.329-8.958H51.364s-1.202 3.814-2.72 8.776c-2.474 8.061-5.773 19.16-6.095 21.858-.396 3.266 1.05 28.744 1.05 28.744z" fill="#455A64"/><path d="M44.166 105.708c1.856-.038 1.323-.055 3.181-.071.907 0 6.874-.06 7.729.08a.018.018 0 01.008.007.019.019 0 01.004.011.018.018 0 01-.004.01.013.013 0 01-.008.007c-.85.141-6.822.091-7.729.08-1.858-.016-1.325-.033-3.18-.071l-.014.001a.045.045 0 01-.011-.005.028.028 0 01-.008-.035.032.032 0 01.008-.01.045.045 0 01.011-.005l.013.001zM59.81 49.949l-1.894 6.667-1.845 6.68c-.616 2.228-1.21 4.46-1.804 6.693a311.251 311.251 0 00-1.72 6.714c-.133.566-.276 1.127-.378 1.699-.03.14-.05.288-.074.431 0 .08-.016.168 0 .245l.017.215 1.619 24.601v.074l.137-.085-1.492-24.61-.017-.214v-.19c.028-.14.044-.275.074-.42.113-.55.25-1.122.38-1.683 1.083-4.49 2.29-8.95 3.464-13.417l3.533-13.4z" fill="#263238"/><path d="M51.62 48.55c.718 5.542 3.3 14.752 4.305 22.294 2.33-9.136 5.774-22.295 5.774-22.295H51.62z" fill="#263238"/><path d="M76.487 114.243c-.596.187-15.3.253-15.946-.174-.244-.156-.33-2.636-.349-5.636v-.093c0-.619-1.427-10.998-1.427-10.998l11.108.226 1.283 10.909v.187s4.15 2.598 4.8 3.143c.653.544 1.13 2.251.531 2.436z" fill="#D3766A"/><path d="M59.994 106.489c.124.993.206 1.702.206 1.85v.094c.02 2.999.105 5.477.35 5.636.637.426 15.34.363 15.946.176.605-.187.112-1.905-.536-2.444-.65-.539-4.803-3.156-4.803-3.156v-.185l-.234-1.982-10.929.011z" fill="#fff"/><path d="M77.217 114.572c-.627.204-16.439.036-17.112-.401-.259-.162.115-5.991.112-6.024h10.937v.195s4.933 3.115 5.623 3.676c.69.561 1.064 2.351.44 2.554z" fill="#A6A6A6"/><path d="M77.167 113.868c-3.002-.101-13.266-.231-16.243-.101-.025 0-.025.016 0 .019 2.975.165 13.238.192 16.243.132.063.008.063-.05 0-.05zm-6.901-5.352c-1.499-.415-3.363-.413-4.578.412-.047.03 0 .094.058.085a23.428 23.428 0 014.503-.33.085.085 0 00.017-.167zm1.056.698c-1.499-.415-3.363-.412-4.578.412-.047.031 0 .094.058.086a23.27 23.27 0 014.503-.33.086.086 0 00.08-.077.083.083 0 00-.015-.057.084.084 0 00-.048-.034zm1.055.698c-1.499-.415-3.363-.412-4.578.413-.047.03 0 .093.06.085a23.32 23.32 0 014.501-.33.086.086 0 00.08-.077.085.085 0 00-.063-.091z" fill="#263238"/><path d="M51.62 48.55s1.567 9.54 1.672 9.845c0 0 .582.275 1.633.761l4.278 48.722 12.237.049-6.464-59.386-13.356.008z" fill="#455A64"/><path d="M59.614 105.7c1.87-.03 1.331-.047 3.2-.058.916 0 6.929-.03 7.784.113.017 0 .017.036 0 .039-.858.137-6.873.06-7.783.049-1.87-.027-1.334-.041-3.2-.088a.028.028 0 01-.02-.008.027.027 0 01-.008-.019.028.028 0 01.027-.028zm-6.84-47.6a22.78 22.78 0 013.5 1.832.04.04 0 01.01.051.041.041 0 01-.05.02c-1.178-.572-2.382-1.124-3.532-1.762a.08.08 0 01.017-.138.08.08 0 01.055-.003zm.452-5.465c.193 1.14.3 2.301.429 3.45l.093.825c.007.254.075.503.198.726.248.385.693.566 1.1.742.047.02.028.094-.022.077a2.647 2.647 0 01-1.163-.616c-.368-.387-.357-.976-.412-1.473a31.956 31.956 0 01-.275-3.728.028.028 0 01.009-.015.028.028 0 01.043.011z" fill="#263238"/><path d="M54.614 52.984c.041.825.132 1.65.2 2.474.033.405.064.812.089 1.216.024.404.071.825.057 1.248 0 .027-.044.036-.05 0-.065-.39-.076-.797-.11-1.19-.032-.394-.06-.825-.084-1.249-.047-.825-.07-1.669-.144-2.496-.002-.028.039-.028.042-.003zm.552 7.393l.654 5.6.682 5.593 1.41 11.184 2.5 21.838-2.241-21.871-1.468-11.176-.756-5.584-.781-5.584z" fill="#263238"/><path d="M54.767 35.495c-1.594 2.172-6.598 8.77-9.917 9.219-2.185.297-9.199-.256-10.967-.949-.731-.288 1.309-6.97 2.178-6.873 1.61.156 7.723 1.682 8.655 1.47.825-.189 3.541-2.218 8.388-4.932 2.488-1.407 3.038.19 1.663 2.065z" fill="#D3766A"/><path d="M34.34 43.859c-.754.036-4.215-.11-5.169-.366-.954-.255-3.648-1.19-3.527-1.94.12-.751.932-.55.932-.55s-1.075-.575-.886-1.32c.19-.745 1.444-.374 1.444-.374s-1.061-.671-.825-1.4c.236-.728 1.438-.148 1.438-.148s-.998-.57-.55-1.1c.55-.618 2.268.635 3.343.839.245.047 5.015.583 5.015.583l-1.215 5.776z" fill="#D3766A"/><path d="M27.65 37.711c1.27.919 1.986 1.1 3.525 1.202.03 0 .033.047 0 .047-1.518.04-2.447-.061-3.574-1.19-.052-.045-.011-.092.05-.059zm-.615 1.532c1.4.838 2.175 1.044 3.778 1.267a.022.022 0 01.014.02.022.022 0 01-.014.021c-1.592-.088-2.519-.209-3.808-1.231-.06-.047-.036-.116.03-.077zm-.377 1.767c1.416.715 2.252.977 3.85.993a.03.03 0 01.014.047.03.03 0 01-.015.011 5.251 5.251 0 01-3.849-1.006c-.099-.044-.09-.08 0-.044z" fill="#263238"/><path d="M36.061 36.886s-1.65-1.077-2.474-1.39c-.825-.314-4.336-.347-4.399.409-.063.979 1.958 1.396 2.975 1.474 0 0-.154 2.262 1.232 2.875 1.385.613 2.666-3.368 2.666-3.368z" fill="#D3766A"/><path d="M29.276 36.175c.582.934 1.924.948 2.906 1.1a.09.09 0 01.071.129c0 .954.275 2.295 1.1 2.873a.023.023 0 01.01.013.023.023 0 01-.002.017.022.022 0 01-.013.01.022.022 0 01-.017-.002c-.968-.497-1.347-1.795-1.279-2.837-1.009-.138-2.353-.21-2.785-1.295-.002-.008.006-.014.009-.008z" fill="#263238"/><path d="M48.002 35.957l4.22 4.308s2.75-2.906 4.012-5.773c1.261-2.868-1.295-2.684-3.168-1.617-1.872 1.067-5.064 3.082-5.064 3.082z" fill="#76B8EE"/><path d="M56.137 34.706a3.59 3.59 0 01-.072.149h-.275a.989.989 0 00-.126 0 3.075 3.075 0 00-.698.146 5.63 5.63 0 00-1.213.566l-.08.047c-.08.046-.156.096-.233.145-.957.63-1.834 1.375-2.763 2.065-.163.118-.325.237-.49.35l-.077-.08c.168-.119.333-.24.498-.363.918-.688 1.787-1.45 2.75-2.09.068-.044.14-.09.21-.132a.727.727 0 01.078-.047 5.773 5.773 0 011.27-.602 3.51 3.51 0 01.718-.156l.143-.014h.222l.138.016zM54.743 36.5a9.307 9.307 0 01-.55-.49l-.09-.085-.339-.332-.102-.105-.167-.17c-.55-.57-1.07-1.166-1.603-1.752l-.055.033c.528.594 1.047 1.196 1.594 1.776l.154.16c.03.036.064.069.1.104.112.116.225.231.343.344l.09.085c.182.176.37.347.55.509.091.074.182.148.276.22L55 36.71c-.082-.069-.17-.14-.258-.212zm1.413-2.125c-.173.115-.34.23-.509.354-.087.06-.175.127-.274.193-.438.327-.858.668-1.284 1.003l-.075.058c-.206.165-.415.327-.624.484a10.39 10.39 0 01-2.983 1.68l-.211.063.063.063c.058-.012.116-.029.173-.05a10.445 10.445 0 003.024-1.665c.217-.16.432-.322.646-.49l.075-.057c.492-.38.981-.77 1.484-1.13.08-.06.16-.116.242-.17l.316-.218c.033-.077.063-.151.091-.223a2.92 2.92 0 01-.154.105z" fill="#fff"/><path d="M52.782 39.328a41.436 41.436 0 01-3.56-3.767c-.016-.014 0-.038.028-.022.3.35 2.169 2.172 3.574 3.764.005.02-.022.041-.041.025z" fill="#263238"/><path d="M56.233 34.492c-1.251 2.867-4.011 5.773-4.011 5.773l-1.944-1.985c1.495-1.803 3.907-4.712 5.105-6.12.998.003 1.595.633.85 2.332z" fill="#263238"/><path d="M49.335 53.454c.275.275 16.82.825 16.906.723.236-.275-1.845-11.072-3.574-15.201-2.22-5.295-3.49-5.774-4.248-6.104-.968-.412-3.55-.368-3.978-.195-.487.195-1.807 2.568-2.456 4.47-1.308 3.82-2.881 16.057-2.65 16.307z" fill="#76B8EE"/><path d="M65.24 48.244c-.826.583-1.623 1.243-2.448 1.85-.17.127-.34.25-.517.369l-.184.13a9.243 9.243 0 01-2.326 1.168 5.744 5.744 0 01-1.713.275 3.9 3.9 0 01-1.677-.413 6.83 6.83 0 01-1.438-.96 17.085 17.085 0 01-1.253-1.19c-.798-.825-1.54-1.718-2.337-2.548l-.168-.17-.102-.105c-.275-.275-.569-.55-.874-.825 0-.039.014-.077.02-.116.326.278.638.573.934.883.036.036.069.069.099.104l.154.16c.792.838 1.526 1.73 2.315 2.565.789.836 1.65 1.65 2.675 2.139a3.849 3.849 0 001.65.393 5.581 5.581 0 001.688-.275 8.274 8.274 0 002.062-1.03l.168-.11c.255-.174.505-.355.753-.55.825-.622 1.622-1.307 2.474-1.903.025.074.033.11.044.16zm-.311-1.402c-.55-.61-1.1-1.229-1.667-1.825a16.56 16.56 0 00-1.253-1.194 6.833 6.833 0 00-1.438-.96 3.901 3.901 0 00-1.677-.412 5.665 5.665 0 00-1.713.275 10.45 10.45 0 00-3.024 1.666 26.619 26.619 0 00-.72.547c-.674.52-1.337 1.05-2.044 1.515a6.7 6.7 0 01-.233.146l-.08.047a5.64 5.64 0 01-1.07.517l-.024.165c.42-.145.821-.339 1.196-.578a.717.717 0 00.077-.046c.071-.042.143-.088.211-.132.72-.476 1.375-1.018 2.057-1.548l.074-.058c.206-.165.415-.327.624-.484a10.326 10.326 0 012.983-1.68 5.58 5.58 0 011.688-.275 3.849 3.849 0 011.65.394c1.04.497 1.889 1.306 2.675 2.139.597.632 1.16 1.294 1.743 1.94l-.035-.159zm.437 1.977a10.01 10.01 0 01-2.838 1.572 2.583 2.583 0 01-.25.072 5.403 5.403 0 01-1.438.206 3.883 3.883 0 01-1.65-.393c-1.036-.498-1.888-1.306-2.674-2.139-.787-.833-1.524-1.727-2.316-2.568a17.56 17.56 0 00-.596-.605c-.03-.03-.06-.06-.09-.085a8.97 8.97 0 00-.564-.509 6.817 6.817 0 00-1.447-.96 3.99 3.99 0 00-.85-.296c0 .039-.013.077-.021.118.284.062.56.154.825.275.516.247.997.56 1.432.932.19.157.374.32.55.49l.09.085c.207.198.41.401.608.607.798.825 1.54 1.713 2.337 2.546.396.42.815.817 1.254 1.19.436.382.92.705 1.438.963a3.936 3.936 0 001.677.41c.324.002.647-.027.965-.088.096-.014.193-.036.275-.058.154-.036.308-.077.46-.124a9.978 9.978 0 002.836-1.528l-.013-.113zm-3.3-11.237a1.26 1.26 0 01-.175 0 2.303 2.303 0 01-.809-.203 2.103 2.103 0 01-.223-.113 1.224 1.224 0 01-.129-.074 7.288 7.288 0 01-1.022-.806 9.14 9.14 0 00-1.375-1.067 4.22 4.22 0 00-1.65-.571 3.9 3.9 0 00-.437-.036h-.443l-.142.014c-.245.027-.485.08-.718.156-.447.149-.873.35-1.27.602a.734.734 0 00-.077.047c-.072.041-.143.088-.212.132-.393.261-.773.55-1.144.825-.033.08-.063.162-.093.242.429-.333.863-.657 1.314-.954.077-.05.154-.099.234-.146l.08-.047a5.59 5.59 0 011.212-.566 3.104 3.104 0 01.698-.146.989.989 0 01.127 0 4.2 4.2 0 01.846.033 4.228 4.228 0 011.592.55c.483.306.935.656 1.35 1.048.297.276.614.528.949.756.04.029.083.056.126.08.11.068.225.129.344.181.272.122.563.195.86.215.085.006.17.006.253 0-.035-.056-.066-.105-.066-.152zm-.387-.805c-.314.148-.63.286-.949.412l-.178.066a8.849 8.849 0 01-1.026.316 7.654 7.654 0 01-1.694.226 3.684 3.684 0 01-1.65-.366 6.694 6.694 0 01-1.429-.932 9.307 9.307 0 01-.55-.49l-.09-.085-.339-.332-.101-.105-.168-.17c-.168-.173-.333-.35-.492-.528-.014.025-.025.05-.039.077.154.17.308.34.468.508l.154.16a13.866 13.866 0 00.442.448l.091.085c.181.176.369.347.55.509.44.38.927.701 1.449.957.527.26 1.108.394 1.696.39a7.162 7.162 0 001.724-.225 9.3 9.3 0 001.119-.363l.181-.072c.295-.118.583-.25.87-.387a.834.834 0 00-.053-.1h.014zm-2.274-3.33a5.74 5.74 0 00-.374-.03h-.442a3.54 3.54 0 00-.861.173 6.505 6.505 0 00-1.559.778c-.173.116-.34.231-.508.355-.089.06-.177.126-.276.192-.437.328-.857.669-1.283 1.004l-.075.058c-.206.165-.415.327-.624.484-.488.373-.998.715-1.528 1.025 0 .044-.025.088-.039.132a14.665 14.665 0 001.636-1.067c.217-.16.432-.321.646-.49l.074-.057c.492-.38.982-.77 1.485-1.13.08-.06.16-.115.242-.17l.316-.218a6.37 6.37 0 011.526-.756c.267-.087.544-.142.825-.162.282-.015.566-.003.847.036l.167.027a2.574 2.574 0 00-.209-.184h.014z" fill="#fff"/><path d="M59.206 35.275c1.65 2.131 6.826 8.603 10.148 8.966 2.2.24 9.188-.492 10.936-1.232.724-.305-1.484-6.931-2.35-6.824-1.606.198-7.68 1.88-8.617 1.691-.824-.17-3.596-2.128-8.509-4.718-2.524-1.333-3.032.278-1.608 2.117z" fill="#D3766A"/><path d="M79.836 43.117c.753.016 4.212-.217 5.16-.495.949-.278 3.616-1.284 3.475-2.032-.14-.748-.945-.517-.945-.517s1.06-.602.85-1.342c-.213-.74-1.45-.338-1.45-.338s1.042-.698.781-1.421c-.261-.723-1.443-.11-1.443-.11s.984-.594.517-1.1c-.55-.605-2.252.693-3.322.924-.242.052-4.998.712-4.998.712l1.375 5.719z" fill="#D3766A"/><path d="M86.365 36.81c-1.245.953-1.954 1.154-3.491 1.292-.03 0-.033.049 0 .049 1.517 0 2.444-.124 3.541-1.281.055-.058.011-.105-.05-.06zm.658 1.506c-1.374.875-2.147 1.1-3.747 1.375-.022 0-.016.041 0 .041 1.59-.126 2.513-.275 3.775-1.33.063-.058.036-.127-.028-.086zm.421 1.768c-1.397.75-2.227 1.033-3.814 1.1a.03.03 0 00-.021.028.03.03 0 00.021.029c1.622.1 2.662-.245 3.833-1.1.08-.071.069-.104-.02-.057z" fill="#263238"/><path d="M77.94 36.185s1.613-1.119 2.433-1.452c.819-.332 4.324-.459 4.399.298.09.976-1.925 1.446-2.934 1.547 0 0 .212 2.258-1.16 2.906-1.372.65-2.739-3.299-2.739-3.299z" fill="#D3766A"/><path d="M84.705 35.306c-.55.951-1.902.998-2.878 1.171a.091.091 0 00-.069.132c.025.951-.217 2.301-1.025 2.898a.022.022 0 10.021.038c.957-.52 1.304-1.828 1.207-2.87 1.007-.16 2.348-.275 2.75-1.375.005.006-.003 0-.006.006z" fill="#263238"/><path d="M65.98 35.564l-4.125 4.415s-2.832-2.834-4.157-5.669c-1.325-2.834 1.227-2.716 3.126-1.696 1.9 1.02 5.155 2.95 5.155 2.95z" fill="#76B8EE"/><path d="M65.092 35.036c-.55.259-1.1.55-1.633.825.03.022.06.041.093.058a25.705 25.705 0 011.625-.825l-.085-.058zm.313.184l-.066.066c-.327.325-.654.65-.995.957.05.014.1.023.151.028.316-.295.619-.602.921-.91l.083-.086-.094-.055zm-1.196 1.147c-.038.038-.077.071-.118.107a5.807 5.807 0 01-1.4.965l-.195.072c-.066.024-.134.032-.2.052a1.71 1.71 0 01-.413.016 2.304 2.304 0 01-.808-.203 2.112 2.112 0 01-.223-.113l-.181.072c.11.068.225.129.343.181.272.122.564.195.861.215.15.009.3 0 .448-.025.072-.02.146-.03.217-.055l.21-.08a5.92 5.92 0 001.424-1.003l.18-.168a1.242 1.242 0 01-.15-.033h.005z" fill="#fff"/><path d="M65.416 36.169l-.203.22-.11.027a1.761 1.761 0 01-.448.022 2.32 2.32 0 01-.451-.071 2.67 2.67 0 01-.41-.143 3.533 3.533 0 01-.404-.215l-.094-.06a8.67 8.67 0 01-.92-.74 8.627 8.627 0 00-1.35-1.047 4.165 4.165 0 00-1.593-.55 4.368 4.368 0 00-.846-.036c-.28.02-.558.075-.825.162a3.759 3.759 0 00-.248.086c-.016-.047-.033-.094-.044-.138.083-.033.165-.063.248-.088a3.54 3.54 0 01.86-.173h.443c.146 0 .291.019.437.036a4.27 4.27 0 011.65.574c.492.31.952.668 1.375 1.067.302.283.626.542.97.773a.66.66 0 00.093.057 2.524 2.524 0 00.944.347c.057.01.115.016.173.019.138.01.276.004.412-.02.066-.016.135-.027.2-.049l.141-.06z" fill="#fff"/><path d="M63.39 36.01l-.652.349c-.616.324-1.243.64-1.892.904l-.181.072c-.278.106-.56.198-.847.275-.03-.036-.058-.075-.085-.11.273-.07.542-.156.805-.256a7.934 7.934 0 01-.948-.756 9.778 9.778 0 00-1.221-.968c-.055-.09-.11-.184-.162-.275l.112.063c.492.311.952.669 1.375 1.067.316.299.659.568 1.023.806.672-.273 1.33-.58 1.971-.921l.608-.32.093.07z" fill="#fff"/><path d="M61.284 39.056a41.65 41.65 0 003.464-3.85c.016-.016-.014-.038-.028-.019-.275.355-2.111 2.224-3.466 3.85-.011.016.013.049.03.019z" fill="#263238"/><path d="M62.54 39.256c-.203.262-.41.517-.627.765l-.041.05-.047-.05a25.422 25.422 0 01-1.628-1.815 15.801 15.801 0 01-.742-.965 8.567 8.567 0 01-.657-1.028c.498.64 1.031 1.248 1.553 1.867l.787.926.775.932h-.088c.242-.233.473-.459.715-.682z" fill="#263238"/><path d="M58.977 37.051c.16.074.312.166.45.275.145.097.279.208.402.33a1.445 1.445 0 01-.852-.605z" fill="#263238"/><path d="M55.177 35.347c.907.313 2.65-.946 3.398-2.035.052-.074 0-.92.02-1.949 0-.624.024-1.32.09-1.955.014-.129-4.072.55-4.072.55.147.816.193 1.647.138 2.475a1.24 1.24 0 01-.055.255.294.294 0 010 .044c-.14.492-.4 2.31.48 2.615z" fill="#D3766A"/><path d="M58.438 29.4c-.291 1.053-1.22 3.574-3.346 3.404a2.4 2.4 0 01-.404-.064.17.17 0 010-.044 1.83 1.83 0 00.052-.255 10.06 10.06 0 00-.135-2.475s2.956-.503 3.833-.566z" fill="#263238"/><path d="M59.137 24.322c.48 1.4-.116 5.499-1.1 6.458-1.41 1.375-3.794 1.587-4.979-.123-1.15-1.65-.275-7.009.825-7.877 1.616-1.29 4.539-.526 5.254 1.542z" fill="#D3766A"/><path d="M55.878 26.857s.019.016.016.027c-.047.275-.055.602.181.729 0 0 0 .017 0 0-.305-.074-.288-.5-.197-.756z" fill="#263238"/><path d="M56.165 26.604c.45.027.36.927-.058.9-.418-.028-.319-.925.058-.9zm-1.886.09s-.025 0-.025.022c-.02.275-.088.597-.349.663v.016c.31-.01.399-.434.374-.7z" fill="#263238"/><path d="M54.058 26.378c-.445-.08-.572.825-.16.889.413.063.531-.828.16-.889zm2.512-.151c-.122-.044-.224-.102-.34-.157a.605.605 0 01-.31-.228.187.187 0 01.055-.225.467.467 0 01.479 0c.16.063.292.183.368.338a.203.203 0 01-.253.272zm-2.814-.338c.123-.012.245-.03.366-.055a.608.608 0 00.363-.13.19.19 0 00.014-.233.475.475 0 00-.462-.135.698.698 0 00-.448.22.204.204 0 00.167.333zm2.008 3.574c-.074.06-.151.143-.253.14a.75.75 0 01-.291-.099h-.014a.37.37 0 00.338.187.298.298 0 00.245-.223c.005-.005-.017-.005-.025-.005zm-1.096-.603c.11.162.26.292.434.378a.498.498 0 00.306.038c.228-.047.244-.25.214-.429a1.213 1.213 0 00-.085-.275 1.47 1.47 0 01-.869.289z" fill="#263238"/><path d="M55.103 29.238a.498.498 0 00.305.038c.228-.046.245-.25.215-.429a.522.522 0 00-.52.39z" fill="#FF9BBC"/><path d="M59.593 27.484c-1.1.112-1.71-1.18-1.485-2.241 0 0-2.908.476-3.117-1.864a2.302 2.302 0 01-1.867 1.1l-.3.874c-.302-.077-.649-.918.064-1.609a2.8 2.8 0 01.855-1.897 1.597 1.597 0 011.71-.294 2.422 2.422 0 011.748-.486 2.06 2.06 0 011.554 1.072s1.454.234 1.732 1.254a2.125 2.125 0 01-.234 1.723s.377.394.22 1.276c-.093.575-.542 1.059-.88 1.092z" fill="#263238"/><path d="M55.057 23.167a2.654 2.654 0 00.12 1.122c.123.353.375.648.705.824.337.165.708.247 1.083.24.19-.014.382 0 .572-.033.19-.033.377-.055.569-.075-.184.05-.374.094-.55.14-.176.047-.385.047-.577.072a2.395 2.395 0 01-1.152-.223 1.553 1.553 0 01-.734-.907 2.328 2.328 0 01-.036-1.16z" fill="#263238"/><path d="M53.59 24.57c.317-.12.611-.29.872-.506a1.83 1.83 0 00.332-.366c.093-.142.17-.293.232-.45a1.26 1.26 0 01-.144.502c-.082.16-.195.302-.332.418a1.72 1.72 0 01-.96.402z" fill="#263238"/><path d="M58.383 27.684s.902-1.339 1.51-1.017c.607.322-.061 2.246-.76 2.521a.72.72 0 01-.967-.37l.217-1.134z" fill="#D3766A"/><path d="M59.687 27.214v.02c-.493.208-.743.67-.919 1.146a.397.397 0 01.591-.115v.024a.44.44 0 00-.48.163 2.051 2.051 0 00-.229.395c-.022.044-.102.022-.085-.027-.028-.643.448-1.531 1.122-1.606zm27.899 11.242c-.478 2.475-.632 5.524-2.227 7.594-1.251 1.62-3.252 2.433-5.224 2.793-4.308.79-9.815-.294-11.619-4.817-.717-1.806-.132-5.067 1.958-5.812 1.072-.379 2.2-.253 3.327-.274a4.606 4.606 0 003.607-1.713c1.85-2.2 2.043-4.108 2.933-6.764a1.991 1.991 0 011.001-1.267 5.332 5.332 0 013.544-.382c1.171.415 2.06 1.8 2.826 2.713.767.913 1.031 1.76.825 2.959-.291 1.652-.627 3.31-.951 4.97z" fill="#263238"/><path d="M87.61 39.682c.292-2.295.537-4.594.798-6.892 0 0-.022-.02-.022 0-.275 1.886-.564 3.766-.809 5.655-.244 1.889-.36 3.767-.767 5.59-.899 4.094-5.498 4.748-8.908 3.717-.154-.047-.211.206-.052.25 3.025.811 6.918.64 8.63-2.452.943-1.691.894-3.99 1.13-5.868zM80.6 29.285a.035.035 0 00-.034-.026.036.036 0 00-.035.026c-.638 2.216-1.177 4.86-2.922 6.507a5.834 5.834 0 01-3.11 1.524c-.924.14-1.826-.044-2.75-.08-3.604-.151-4.75 4.49-2.683 6.9.041.05.132-.021.091-.074-1.424-1.825-1.394-4.514.49-6.048 1.511-1.226 3.61-.217 5.374-.652 3.662-.907 4.867-4.806 5.579-8.077z" fill="#263238"/><path d="M84.336 40.114c4.124 5.422 7.442 11.547 6.725 13.516-.962 2.631-5.812 7.148-8.545 9.257-.803.621-5.499-5.727-4.647-6.392 1.037-.8 6.467-4.867 6.544-4.977.16-.23-1.617-7.863-2.087-9.675-.77-3.032.193-4.132 2.01-1.729z" fill="#AD6359"/><path d="M78.263 65.845c1.603-.528 4.457-2.892 4.927-3.728.47-.835-3.39-5.82-4.371-5.82-.982 0-6.241 2.2-7.182 3.643-.94 1.443 4.966 6.455 6.626 5.905z" fill="#AD6359"/><path d="M73.528 58.01c.871.198.137 1.1.137 1.1s1.375-1.062 2.2-.509c.825.553-.138 1.608-.2 1.685.07-.055 1.357-.995 2.124-.354.767.64-.319 1.58-.39 1.65.085-.03 1.224-.419 1.694.2.808 1.064-2.073 2.134-2.475 3.134 0 0 1.62.888 1.65.924 0 0-2.72 1.072-4.039.445a.936.936 0 01-.525-1.047s-.839.443-1.457-.041c-.32-.25-.201-.982-.201-.982a1.168 1.168 0 01-1.21-.137c-.418-.371-.236-1.045-.236-1.045s-.803 0-1.1-.511c-.632-1.037 2.161-4.938 4.028-4.512z" fill="#AD6359"/><path d="M70.609 62.926c0 .014-.03 0-.022 0a8.33 8.33 0 013.112-3.85c.047-.027.113.034.069.075a17.026 17.026 0 00-3.16 3.775zm1.41 1.308c0 .017-.036 0-.028-.016a7.797 7.797 0 013.657-3.987c.06-.027.14 0 .074.044-1.097.627-2.911 2.626-3.703 3.96zm5.509-2.664c-1.609.847-2.788 2.123-3.808 3.607-.014.02-.039 0-.033-.019.302-.863 1.05-1.743 1.69-2.375a4.809 4.809 0 012.123-1.268c.03-.01.063.039.028.055z" fill="#263238"/><path d="M73.666 59.123c.281-.18.579-.332.888-.456a1.82 1.82 0 01.946-.151.6.6 0 01.374.217.898.898 0 01.176.407 1.08 1.08 0 01-.297.825l-.487.55.647-.347a3.05 3.05 0 01.918-.321 1.079 1.079 0 01.86.167.615.615 0 01.204.745 1.859 1.859 0 01-.588.718l-.685.55.825-.275c.227-.08.463-.13.704-.149.226-.026.456.015.66.119a.55.55 0 01.274.508 1.21 1.21 0 01-.316.605 9.622 9.622 0 01-1.113 1.017c-.193.163-.39.328-.578.5a1.814 1.814 0 00-.475.597c.137-.214.315-.401.522-.55.198-.156.404-.302.61-.45a8.334 8.334 0 001.19-.98c.202-.193.341-.442.402-.714a.778.778 0 00-.385-.767 1.414 1.414 0 00-.824-.168 3.091 3.091 0 00-.787.151l.135.256c.303-.216.546-.507.704-.844a.891.891 0 00.035-.6.99.99 0 00-.34-.483 1.353 1.353 0 00-1.1-.212 3.22 3.22 0 00-1.004.369l.163.203a1.275 1.275 0 00.313-1.031 1.1 1.1 0 00-.242-.495.798.798 0 00-.49-.256c-.349-.02-.696.06-1.003.229-.297.14-.577.314-.836.517z" fill="#263238"/><path d="M77.856 56.514s-7.135-.613-6.007 2.293c.335.863 2.749 4.008 3.381 3.538.825-.607.069-2.108-.55-2.974 0 0 2.398.55 3.28-1.007a1.771 1.771 0 00-.104-1.85z" fill="#AD6359"/><path d="M71.772 58.56c.09.354.233.693.423 1.006.18.318.382.623.605.913.436.591.922 1.143 1.455 1.65.141.133.302.246.475.335.1.052.21.08.322.082a.488.488 0 00.181-.025.64.64 0 00.163-.082.924.924 0 00.34-.55 1.71 1.71 0 000-.597 3.278 3.278 0 00-.379-1.064 7.27 7.27 0 00-.594-.934l-.134.198c.276.052.557.078.838.077a4.01 4.01 0 00.825-.077c.272-.054.535-.146.78-.275.244-.131.46-.309.636-.523a2.472 2.472 0 01-.674.443 2.87 2.87 0 01-.77.206 4.283 4.283 0 01-1.575-.088l-.316-.08.181.275c.204.293.388.599.55.916.163.306.277.637.336.979.044.321 0 .684-.231.846-.231.163-.52-.06-.778-.275-.259-.214-.517-.486-.767-.744-.25-.259-.495-.526-.726-.8a6.9 6.9 0 01-1.166-1.812z" fill="#263238"/><path d="M78.561 55.398l5.224 7.23a5.171 5.171 0 002.392-1.49c.962-1.124 5.015-5.498 5.224-7.83.209-2.331-3.673-9.097-6.049-12.372-2.375-3.274-3.983-2.881-3.098 1.303.885 4.185 1.96 8.93 1.834 9.073-.127.143-3.99 2.183-4.688 2.788-.41.332-.705.787-.839 1.298z" fill="#A6A6A6"/><path d="M84.586 47.263a2.175 2.175 0 00-.58-.135c.16.117.337.21.525.275.187.071.383.117.582.134a2.068 2.068 0 00-.527-.274zm.824 12.886a2.069 2.069 0 00-.58-.132c.162.115.338.208.525.275.187.072.384.116.583.132a2.16 2.16 0 00-.533-.275h.005zm1.87-5.57a2.067 2.067 0 00-.583-.132c.162.116.34.209.528.274.187.072.383.117.583.135a2.124 2.124 0 00-.534-.278h.006zm-5.543 0a2.068 2.068 0 00-.58-.132c.161.116.338.209.525.274.187.072.383.117.583.135a2.08 2.08 0 00-.533-.278h.005zm2.827-2.354a2.026 2.026 0 00-.132.58c.23-.325.37-.704.41-1.1-.118.16-.214.335-.284.52h.006zm2.6-6.744a2.066 2.066 0 00-.132.583c.116-.163.209-.34.275-.528.072-.186.117-.382.132-.58a2.141 2.141 0 00-.28.525h.005zm-3.917-6.599a2.086 2.086 0 00-.506.32 2.103 2.103 0 00.679-.234 1.226 1.226 0 00-.184-.091l.01.005zm5.908 13.294c-.183.08-.353.187-.506.316.197-.03.39-.09.57-.176a2.07 2.07 0 00.505-.316 2.11 2.11 0 00-.575.17l.006.006zm-6.805 6.26a2.12 2.12 0 00-.37.212l.315-.022.121-.053a2.13 2.13 0 00.506-.316c-.2.03-.394.089-.577.173l.005.006zm.886-13.92a2.24 2.24 0 00-.451.275l-.055.044h.063c.371-.076.719-.24 1.012-.481a2.106 2.106 0 00-.57.162zm1.77 11.99a2.083 2.083 0 00-.319-.506c.032.197.092.389.179.57.08.183.186.353.316.505a2.112 2.112 0 00-.173-.57h-.003zm4.243.918a2.115 2.115 0 00-.317-.503c.032.197.091.389.176.57 0 .024.025.049.039.073.035-.046.069-.093.104-.137l-.002-.003zm-2.024-8.028a2.2 2.2 0 00-.316-.503c.031.197.09.389.176.569.08.183.187.353.316.506a2.096 2.096 0 00-.173-.572h-.003zm-2.046-7.377a2.072 2.072 0 00-.316-.505c.03.197.09.389.176.569.082.182.188.352.316.506a2.016 2.016 0 00-.173-.57h-.003zm.197 19.152c-.825-1.242-.55-.899-1.403-2.133-.406-.602-3.1-4.567-3.599-5.05 0 0-.035 0-.03.021.275.635 3.055 4.542 3.478 5.136.864 1.213.633.855 1.512 2.057.017.022.058-.006.042-.03z" fill="#C7C7C7"/><path d="M66.088 117.635c.592.19 17.473-.027 18.11-.445.245-.154.358-2.615.407-5.595v-.094c0-.613.02-1.245.02-1.886v-.275c.024-4.297-.044-8.757-.044-8.757l-11.292.113.338 8.674.014.344.069 1.798v.184s-6.42 2.997-7.069 3.517c-.649.519-1.146 2.23-.553 2.422z" fill="#AD6359"/><path d="M71.161 112.863c.045 0 .067-.028.07-.039a.494.494 0 00-.07.039zm-5.072 4.769c.591.193 17.472-.025 18.11-.442.217-.138.33-2.098.388-4.622-3.093.643-15.08 3.068-15.41 2.045-.127-.404.896-1.099 1.545-1.493-1.771.845-3.734 1.81-4.08 2.093-.646.53-1.147 2.229-.553 2.419z" fill="#76B8EE"/><path d="M88.048 51.967S85.516 80.49 85.1 82.669c-.097.495-.154 3.192-.193 6.656-.088 7.563-.036 21.2-.036 21.2H72.973s.352-23.628.88-27.977c.528-4.35 3.885-30.581 3.885-30.581h10.31z" fill="#37474F"/><path d="M73.51 108.452c1.858-.038 1.324-.055 3.18-.071.91 0 6.874-.061 7.731.079.017 0 .017.036 0 .039-.85.14-6.82.088-7.73.08-1.857-.02-1.323-.033-3.182-.072-.033-.003-.033-.055 0-.055zm9.103-13.507c.01-1.727.024-3.453.038-5.177 0-1.672 0-3.346.088-5.018.163-3.382.847-6.706 1.337-10.049.489-3.343.893-6.703 1.262-10.063.415-3.769.778-7.544 1.165-11.319 0-.024.044-.024.041 0-.55 6.736-1.184 13.472-2.12 20.167a190.22 190.22 0 01-.758 4.987c-.275 1.68-.55 3.36-.688 5.059-.137 1.7-.15 3.33-.167 4.996l-.052 5.174c-.036 3.832-.075 9.73-.11 13.56a.06.06 0 01-.017.041.06.06 0 01-.082 0 .06.06 0 01-.017-.041c.028-3.418.052-8.9.08-12.317z" fill="#263238"/><path d="M90.558 51.967S85.515 80.49 85.1 82.669c-.096.495-.154 3.192-.192 6.656l-5.675-37.358h11.325z" fill="#263238"/><path d="M94.234 118.595c.616-.096 15.578-7.918 15.946-8.575.149-.251-.863-2.497-2.164-5.175l-.041-.085c-.275-.55-5.611-9.562-5.611-9.562l-9.202 5.402 5.102 9.098.091.162s-4.399 5.554-4.731 6.324c-.333.769-.009 2.51.61 2.411z" fill="#AD6359"/><path d="M94.234 118.595c.613-.097 15.575-7.916 15.946-8.578.129-.209-.591-1.884-1.614-4.034-2.144 1.625-12.501 9.4-13.257 8.592-.16-.17-.039-.574.17-1.006-.907 1.199-1.715 2.301-1.856 2.615-.33.764-.008 2.51.61 2.411z" fill="#76B8EE"/><path d="M96.947 109.365l10.903-6.739s-12.614-18.05-12.674-19.652c-.088-2.387-1.232-12.224-2.2-20.189 0 0 1.82-4.313-1.586-10.83H77.737s.915 6.2 2.474 10.132c1.048.366 2.06.826 3.024 1.375 0 0 1.361 17.76 1.414 19.977.118 4.39 12.297 25.926 12.297 25.926z" fill="#37474F"/><path d="M96.278 106.846c1.576-.987 1.1-.725 2.692-1.693.776-.476 5.876-3.574 6.676-3.901a.02.02 0 01.013-.001c.005.001.008.004.011.009a.02.02 0 01.002.013.019.019 0 01-.007.012c-.657.549-5.807 3.574-6.599 4.038-1.603.938-1.152.652-2.766 1.57-.024.019-.052-.027-.022-.047zM79.7 61.818c1.23.446 2.42.998 3.555 1.65a.041.041 0 01.015.05.041.041 0 01-.048.023c-1.196-.513-2.42-1.006-3.588-1.586a.08.08 0 01-.018-.093.08.08 0 01.084-.044zm1.675-1.98a26.873 26.873 0 01-.275-2.15 19.385 19.385 0 01.044-4.033.036.036 0 01.069 0 36.999 36.999 0 00.324 5.57c.135.885.58 2.221-.346 2.356-.927.135-1.556-2.098-1.672-2.708a20.451 20.451 0 01-.2-5.279c0-.041.077-.05.077 0a39.263 39.263 0 00.2 4.003c.055.616.55 4.028 1.622 3.778.18-.041.275-.217.3-.487a4.289 4.289 0 00-.143-1.047" fill="#263238"/><path d="M81.19 61.466c.095.23.175.466.24.706.069.186.103.382.101.58a.041.041 0 01-.055.031.042.042 0 01-.019-.014 2.058 2.058 0 01-.25-.567c-.08-.217-.168-.434-.242-.657a.121.121 0 01.225-.08zm8.604-8.65c.429.708.788 1.456 1.072 2.233.291.777.512 1.578.66 2.395.085.406.12.824.176 1.231.055.407.063.825.044 1.246-.01.83-.097 1.66-.262 2.474v-.027a1222.2 1222.2 0 011.056 10.318c.337 3.44.677 6.882 1.02 10.324l.03.322.017.162a.366.366 0 00.025.14c.068.16.187.366.288.55.215.374.44.742.663 1.1.45.733.91 1.466 1.375 2.2l2.766 4.39 5.57 8.754c-1.925-2.876-3.849-5.752-5.724-8.655-.944-1.45-1.89-2.898-2.816-4.358-.462-.731-.924-1.463-1.375-2.2-.225-.37-.453-.739-.67-1.116a5.05 5.05 0 01-.314-.6.59.59 0 01-.035-.172l-.017-.162-.033-.322c-.348-3.442-.687-6.886-1.017-10.332-.33-3.446-.656-6.89-.979-10.332v-.028c.17-.803.262-1.62.275-2.441.025-.413-.014-.825-.025-1.232a7.696 7.696 0 00-.148-1.226 13.865 13.865 0 00-.608-2.392c-.264-.78-.604-1.53-1.014-2.244z" fill="#263238"/><path d="M93.258 55.681c-.494.228-16.22-.093-16.22-.093s-.523-.451-.333-1.523c.173-.968 1.633-5.7 1.633-5.7a3.652 3.652 0 01-.567-2.867c.699-2.775 3.778-6.357 4.058-6.599a3.173 3.173 0 013.333-.426c3.648 1.696 7.338 11.173 8.377 14.923.207.77.106 1.589-.28 2.285z" fill="#A6A6A6"/><path d="M84.586 47.263a2.171 2.171 0 00-.58-.135c.16.117.337.21.525.275.187.072.383.117.583.135a2.068 2.068 0 00-.528-.275zm2.69 7.316a2.07 2.07 0 00-.584-.132c.162.116.34.209.528.275.187.071.383.117.583.134a2.128 2.128 0 00-.528-.277zm-7.534-10.761a2.154 2.154 0 00-.484-.121.228.228 0 000 .046c.14.088.288.162.443.22.187.071.383.116.583.132a2.158 2.158 0 00-.542-.277zm11.467 5.716a2.025 2.025 0 00-.58-.132c.162.116.34.209.528.275.186.072.382.117.58.134a2.036 2.036 0 00-.528-.277zm-9.474 5.04a2.072 2.072 0 00-.58-.133c.16.117.338.21.525.275.187.072.383.117.583.135a2.08 2.08 0 00-.53-.272l.002-.006zm7.366-11.686l-.168-.068a2.027 2.027 0 00-.58-.132c.255.18.544.306.85.37a1.044 1.044 0 01-.105-.164l.003-.006zm-2.29-3.137a1.987 1.987 0 00-.122.55 2.02 2.02 0 00.237-.423l-.116-.127zm4.805 15.224a2.131 2.131 0 00-.134.58c.118-.161.21-.34.275-.528.071-.186.117-.382.134-.58-.114.162-.203.34-.266.528h-.009zm-7.066-2.75a2.026 2.026 0 00-.132.58c.23-.325.371-.703.41-1.1-.113.16-.204.336-.27.52h-.008zm2.601-6.744a2.066 2.066 0 00-.132.583c.116-.163.209-.34.275-.528.072-.186.117-.381.132-.58a2.14 2.14 0 00-.266.525h-.009zm-8.696 3.525a2.029 2.029 0 00-.132.58 2.11 2.11 0 00.275-.528c.072-.186.117-.381.132-.58a2.16 2.16 0 00-.267.528h-.008zm2.395-8.336a2.17 2.17 0 00-.135.583c.117-.162.21-.34.275-.528a2.21 2.21 0 00.132-.583 2.2 2.2 0 00-.264.528h-.008zm2.38-1.793a2.085 2.085 0 00-.505.32 2.14 2.14 0 00.572-.18 2.01 2.01 0 00.503-.316 2.107 2.107 0 00-.564.176h-.005zm5.912 13.293c-.183.08-.353.187-.506.316.197-.03.389-.09.57-.175.182-.081.352-.188.505-.317a2.108 2.108 0 00-.56.176h-.01zm-7.53-1.13a2.163 2.163 0 00-.506.316 2.309 2.309 0 001.075-.492 2.08 2.08 0 00-.561.176h-.009zm1.624-6.524a2.164 2.164 0 00-.506.316c.198-.03.39-.09.57-.176.183-.08.353-.187.505-.316-.197.031-.388.09-.569.176zm7.484 1.765a2.163 2.163 0 00-.316-.506c.068.395.237.766.492 1.075a2.082 2.082 0 00-.173-.569h-.003zM78.397 52.88a2.075 2.075 0 00-.316-.506c.068.395.238.765.492 1.075a2.051 2.051 0 00-.173-.578l-.003.009zm2.601-5.224a2.163 2.163 0 00-.316-.506c.03.197.09.389.176.57.08.182.187.352.316.505a2.111 2.111 0 00-.173-.591l-.003.022zm11.861 4.902a2.2 2.2 0 00-.316-.503c.031.197.09.389.176.569.08.183.187.353.316.506a2.096 2.096 0 00-.176-.572zm-5.636-3.16a2.204 2.204 0 00-.316-.502c.031.197.09.389.176.569.08.183.187.353.316.506a2.095 2.095 0 00-.17-.575l-.006.003zm-2.046-7.376a2.075 2.075 0 00-.316-.505c.03.197.09.389.176.569.082.182.188.352.316.506a2.015 2.015 0 00-.17-.572l-.006.002z" fill="#C7C7C7"/><path d="M83.75 48.453a16.159 16.159 0 00-2.365-.039c-.39.028-.778.075-1.169.127-.192.027-.387.05-.58.069-.203.024-.41.024-.613 0-.016 0-.022.024 0 .027.189.045.38.076.572.094.188.012.376.012.564 0 .396-.025.792-.07 1.19-.097.8-.057 1.6-.115 2.406-.115.03 0 .03-.063-.005-.066zm1.787 1.034a17.311 17.311 0 00-1.9-.44 12.764 12.764 0 00-1.435-.148c-.157-.009-.344 0-.514 0-.017 0-.022.027 0 .027.162.017.322.058.481.085l.481.075.962.15c.644.094 1.284.196 1.925.312a.03.03 0 100-.06z" fill="#263238"/><path d="M85.483 33.7s2.114-2.012.791-3.973c-1.223-1.82-2.963-2.125-4.05-1.806 0 0 2.453.698 3.025 2.2.572 1.5.234 3.58.234 3.58z" fill="#76B8EE"/><path d="M84.762 38.995c-.069.275-1.4 1.958-2.617 1.862-.396-.033-.32-2.2-.32-2.2l-.03-.162-.431-2.263 2.694-1.61.388-.215s.077.63.168 1.41v.113c0 .041.013.085.016.126.014.116.03.237.041.355.011.118.02.179.025.275.006.096.017.19.025.275.061.676.075 1.356.041 2.034z" fill="#AD6359"/><path d="M84.61 35.811a4.633 4.633 0 01-2.818 2.678l-.431-2.262 2.694-1.612.388-.214s.08.63.168 1.41z" fill="#263238"/><path d="M78.26 32.322c-.792 3.968 1.495 4.889 2.35 5.06.776.153 3.44.58 4.639-3.283 1.198-3.863-.396-5.5-2.156-5.934-1.76-.434-4.042.198-4.833 4.157z" fill="#AD6359"/><path d="M79.696 31.811c.096 0 .184 0 .275-.022a.476.476 0 00.275-.077.145.145 0 00.022-.176.36.36 0 00-.339-.126.512.512 0 00-.349.143.151.151 0 00.116.258zm2.641.355c-.09-.022-.173-.06-.275-.09a.465.465 0 01-.25-.147.14.14 0 01.022-.173.35.35 0 01.36-.038.52.52 0 01.303.225.153.153 0 01-.012.16.154.154 0 01-.148.063zm-.63.707s.019.016.016.027c-.05.275-.06.588.173.718 0 0 0 .016 0 0-.31-.075-.28-.498-.19-.745z" fill="#263238"/><path d="M81.993 32.625c.443.033.344.916-.066.885-.41-.03-.305-.912.066-.885z" fill="#263238"/><path d="M82.161 32.69c.072.059.138.155.231.174.094.02.198-.06.275-.14h.014c-.017.17-.1.335-.275.34-.176.006-.275-.159-.291-.332-.014-.022.022-.066.046-.041zm-2.057-.117s-.025 0-.025.022c-.019.275-.088.585-.346.651v.014c.308-.01.396-.423.371-.687z" fill="#263238"/><path d="M79.89 32.26c-.437-.078-.563.802-.16.873.405.072.526-.805.16-.874z" fill="#263238"/><path d="M79.698 32.292c-.077.036-.157.11-.242.105-.086-.006-.154-.113-.204-.212h-.014c-.03.168 0 .352.157.407.157.055.275-.077.338-.24.011-.024-.005-.073-.035-.06zm.53 1.766s-.107.401-.132.593c0 .02.044.033.11.044a.918.918 0 00.932-.23c.017-.017 0-.039-.025-.03-.266.137-.57.185-.866.137 0-.055.207-.682.176-.688a1.652 1.652 0 00-.45.044c.2-.84.53-1.65.717-2.488 0-.03-.038-.044-.05-.019a14.194 14.194 0 00-.885 2.648c-.022.107.39.01.473-.011z" fill="#263238"/><path d="M80.235 34.627a1.1 1.1 0 00.376.423c.09.054.193.08.297.074.226-.02.275-.217.275-.393a1.132 1.132 0 00-.05-.275 1.436 1.436 0 01-.898.17z" fill="#263238"/><path d="M80.61 35.05c.09.054.193.08.297.074.225-.02.275-.217.275-.393a.52.52 0 00-.572.319z" fill="#FF9BBC"/><path d="M85.235 33.7c-.434-.042-1.534-1.279-1.504-3.39 0 0 .105 1.9.237 2.18.132.28-.613-.696-.613-2.397a6.904 6.904 0 01-1.774.85c-.824.2-1.303.175-1.358.117-.055-.057 1.139-.395 1.471-.756 0 0-2.17.927-3.156.974-.116 0-.179-2.346 1.374-3.3 1.554-.954 3.932.204 4.562.85 0 0 .759.132 1.55 1.284.792 1.152-.313 3.629-.789 3.588z" fill="#263238"/><path d="M84.555 34.002s1.018-1.157 1.554-.783-.327 2.122-1.023 2.298a.685.685 0 01-.871-.467l.34-1.047z" fill="#AD6359"/><path d="M85.847 33.714v.019a1.728 1.728 0 00-1.009.976.38.38 0 01.575-.039s0 .028-.017.022a.417.417 0 00-.475.096c-.1.106-.187.222-.262.347-.027.038-.101 0-.08-.039.064-.607.622-1.393 1.268-1.382z" fill="#263238"/><path d="M86.594 41.959c5.097-1.1 13.037-4.124 13.573-5.917.352-1.174.25-6.799-.36-11.651-.121-.965-7.566.368-7.335 1.374.456 1.996 1.198 7.479 1.135 7.852-.08.504-5.064 3.041-8.066 5.304-2.637 1.993-.897 3.464 1.053 3.038z" fill="#AD6359"/><path d="M99.772 24.72c.076-.824.129-4.654-.102-5.71-.231-1.056-1.1-4.047-1.925-3.953-.825.093-.64.99-.64.99s-.572-1.205-1.394-1.034c-.822.17-.487 1.553-.487 1.553s-.676-1.193-1.485-.965c-.808.228-.236 1.564-.236 1.564s-.566-1.121-1.155-.651c-.706.55.575 2.51.74 3.692.038.275.374 5.499.374 5.499l6.31-.984z" fill="#AD6359"/><path d="M93.448 17.05c.937 1.432 1.1 2.221 1.13 3.91 0 .032.05.038.052 0 .12-1.65.06-2.676-1.114-3.965-.057-.058-.107-.014-.068.055zm1.692-.597c.844 1.576 1.029 2.43 1.188 4.196 0 .025.044.022.044 0 0-1.743-.096-2.75-1.146-4.223-.047-.069-.124-.044-.086.027zm1.96-.316c.71 1.584.952 2.51.886 4.245a.033.033 0 00.012.017.033.033 0 00.04 0 .033.033 0 00.011-.017c.24-1.76-.055-2.922-.899-4.267-.055-.085-.093-.077-.05.022z" fill="#263238"/><path d="M93.45 26.79s-1.487-1.547-1.99-2.372c-.503-.825-1.248-4.586-.446-4.795 1.037-.275 1.895 1.82 2.183 2.898 0 0 2.398-.621 3.338.742.94 1.364-3.085 3.528-3.085 3.528z" fill="#AD6359"/><path d="M91.322 19.645c1.121.437 1.407 1.875 1.765 2.9a.098.098 0 00.11.069.097.097 0 00.044-.019c1.023-.192 2.521-.167 3.3.602a.025.025 0 00.035.003.025.025 0 00.003-.035c-.732-.94-2.2-1.084-3.3-.8-.349-1.056-.698-2.475-1.952-2.73l-.005.01z" fill="#263238"/><path d="M92.392 27.366l7.846-.894s.856.93.9 1.691c.044.762-.135 7.896-1.172 8.916-1.036 1.02-10.131 4.674-13.691 5.05-3.56.377-2.434-2.388-.344-3.64 2.09-1.25 7.283-4.888 7.437-5.13.154-.242-1.158-2.895-1.114-3.948.044-1.053.138-2.045.138-2.045z" fill="#A6A6A6"/><path d="M100.601 28.432c-1.341.108-.96.053-2.298.176-.657.063-4.963.473-5.562.671-.014 0 0 .033 0 .036.624.066 4.921-.443 5.576-.523 1.336-.16.95-.132 2.284-.31.031-.003.025-.052 0-.05z" fill="#C7C7C7"/><path d="M86.439 42.385a4.48 4.48 0 01.932-.434c.32-.118.654-.197.993-.237a4.768 4.768 0 01-.933.435 4.593 4.593 0 01-.992.236z" fill="#263238"/><path d="M86.921 42.66c.085-.157.195-.3.327-.42a1.52 1.52 0 01.207-.168c.074-.053.154-.095.239-.127a2.843 2.843 0 01-.773.715z" fill="#263238"/><path d="M84.867 41.514a2.1 2.1 0 01.316.505l.05.119-.174-.022-.016-.033a2.052 2.052 0 01-.177-.57zm1.833-1.218c.016-.2.06-.395.132-.58h-.002a2.11 2.11 0 01.277-.528 2.07 2.07 0 01-.132.58 2.124 2.124 0 01-.275.528zm6.725-8.573c.13.153.236.323.317.506h-.003a2.1 2.1 0 01.178.57 2.31 2.31 0 01-.492-1.076zm3.591-4.451c.128.153.235.323.316.506h-.003c.087.18.147.372.18.569a2.077 2.077 0 01-.317-.506 2.047 2.047 0 01-.176-.569zm2.639 4.361c.13.152.236.322.317.505h-.003c.086.18.147.372.178.57a2.314 2.314 0 01-.492-1.075zm-1.726 4.772c.129.153.235.323.316.506h-.003c.087.18.147.372.179.57a2.309 2.309 0 01-.492-1.076z" fill="#C7C7C7"/><path d="M26.665 39.141a23.85 23.85 0 01-.34-1.925 17.87 17.87 0 01-.386-2.782c-.085-1.54-.085-3.41 1.26-4.44a5.498 5.498 0 012.13-.907c.787-.18 1.636-.275 2.4.03.303.118.574.307.79.55a5.144 5.144 0 011.578.583c.602.23 1.036.824 1.33 1.374.336.665.581 1.372.732 2.1a5.2 5.2 0 01.165 2.035c-.12.597-.29 1.183-.509 1.752a6.362 6.362 0 00-.434 2.152.02.02 0 01-.033.014.02.02 0 01-.006-.014c-.06-1.187.506-2.282.773-3.414.153-.642.168-1.31.044-1.958a11.4 11.4 0 00-.616-2.2 3.779 3.779 0 00-1.166-1.649l.028.022c.624.536.932 1.334 1.16 2.1.273.854.42 1.744.434 2.64a8.651 8.651 0 01-.429 2.392 9.223 9.223 0 00-.483 2.39c.03.857.217 1.702.55 2.493.318.764.543 1.565.667 2.383a3.588 3.588 0 01-.445 2.156c-.693 1.21-2.329 2.238-3.69 1.46a4.589 4.589 0 01-.91-.734 11.23 11.23 0 01-.844-.927 13.896 13.896 0 01-1.473-2.2 26.58 26.58 0 01-1.958-4.901 30.026 30.026 0 01-.357-1.251c.19.96.433 1.907.728 2.84.55 1.68 1.218 3.376 2.233 4.828.262.376.548.736.855 1.077.332.374.698.707 1.056 1.056a.022.022 0 01-.01.04c-.007.001-.013 0-.018-.004a9.076 9.076 0 01-1.76-1.823 12.437 12.437 0 01-1.338-2.254 23.92 23.92 0 01-1.708-5.084z" fill="#AD594E"/><path d="M33.709 42.22c1.715 3.508 3.777 7.8 5.515 11.98.762 1.825 2.64 5.635 3.11 6.622.618 1.303-6.296 3.01-6.624 2.076-.214-.608-1.116-4.173-1.806-7.203-.888-3.893-2.386-9.02-2.216-12.647.151-3.217 1.356-2.189 2.02-.828z" fill="#F7A9A0"/><path d="M38.077 65.513c-.288-.308-.453-.16-.387.588s.954 3.654-.086 3.877c-1.039.223-2.238-3.89-2.249-5.144.045-1.105.181-2.204.407-3.286.396.756 1.523 2.494 2.315 3.965z" fill="#F7A9A0"/><path d="M41.526 59.2c1.1 2.2 2.524 4.878 2.285 7.572-.019.3-.138.586-.339.811-.085 1.21-.681 1.531-.681 1.531-.424 1.1-1.08 1.35-1.08 1.35s-.116 1.419-.985 1.493c-.974.085-.621-1.924-1.1-3.15-1.1-2.805-3.456-6.48-3.849-7.259l5.749-2.348z" fill="#F7A9A0"/><path d="M40.53 65.057c.332.817.608 1.655.825 2.51.181.949.29 1.91.328 2.876a.025.025 0 00.023.016c.005 0 .01-.001.014-.004a.025.025 0 00.01-.012 10.228 10.228 0 00-1.166-5.403c-.017-.038-.05-.027-.033.017zm1.595-.913c.256.824.696 2.279.638 4.97h.017a9.21 9.21 0 00-.616-4.987c-.02-.047-.055-.038-.039.017zm.867-.476a14.36 14.36 0 01.475 3.91h.017c.145-1.757 0-2.412-.446-3.93-.013-.051-.06-.035-.046.02zm-5.426-15.602l-5.268 1.336s-.877-4.124-.951-6.678c-.075-2.554.868-3.44 2.928-.325a54.199 54.199 0 013.29 5.667z" fill="#263238"/><path d="M36.623 48.307l-4.325 1.1s-.877-4.124-.951-6.68c-.044-1.433.236-2.343.855-2.307.995 1.74 3.31 5.765 4.421 7.887z" fill="#37474F"/><path d="M32.373 48.434c.72-.256 1.45-.492 2.18-.712.363-.11.724-.223 1.1-.325.377-.101.759-.181 1.133-.275a.022.022 0 01.014.042c-.358.115-.707.253-1.067.37-.36.119-.742.226-1.114.339-.736.223-1.476.423-2.221.608-.025-.017-.052-.047-.025-.047z" fill="#455A64"/><path d="M44.118 116.308c-.602.082-16.74-2.992-17.283-3.5-.206-.19.105-2.568.55-5.43l.017-.088c.093-.591 2.117-10.407 2.117-10.407l10.557 1.98-2.24 10.293-.036.176s5.65 3.94 6.186 4.562c.536.621.731 2.334.132 2.414z" fill="#F7A9A0"/><path d="M44.118 116.307c-.602.08-16.74-2.991-17.283-3.5-.208-.189.105-2.568.55-5.43l.017-.088c.016-.112.14-.728.275-1.358l10.447 1.925-.275 1.308-.035.176s5.65 3.94 6.186 4.559c.536.618.715 2.328.118 2.408z" fill="#fff"/><path d="M44.269 116.395c-.61.083-17.068-3.008-17.621-3.522-.212-.195.099-2.617.55-5.534l10.615 1.96s5.774 4.003 6.324 4.633c.55.629.745 2.378.132 2.463z" fill="#76B8EE"/><path d="M44.158 115.691c-2.75-.585-13.879-2.688-16.639-3.06-.022 0-.025 0 0 .017 2.708.64 13.857 2.656 16.63 3.09.059.008.067-.033.01-.047zm-.964-2.551a2.249 2.249 0 00-1.779.366 2.18 2.18 0 00-.893 1.355c0 .017.028.025.033 0a2.612 2.612 0 012.631-1.693c.022.011.03-.022.008-.028zm-4.352-3.365c-1.1-.223-2.455-.072-3.313.701-.033.03 0 .077.047.066a15.64 15.64 0 013.258-.627.072.072 0 00.062-.067.07.07 0 00-.014-.046.073.073 0 00-.04-.027zm.79.492c-1.1-.223-2.456-.071-3.3.701-.033.03 0 .077.047.066a15.64 15.64 0 013.258-.627.068.068 0 00.04-.026.072.072 0 00-.004-.091.076.076 0 00-.041-.023zm.788.495c-1.1-.223-2.455-.074-3.299.698-.033.03 0 .077.047.066a15.64 15.64 0 013.258-.627.068.068 0 00.048-.022.068.068 0 00.018-.049.067.067 0 00-.022-.048.07.07 0 00-.05-.018zm.792.492c-1.1-.223-2.455-.074-3.299.701-.036.027 0 .074.044.066a15.672 15.672 0 013.247-.627.068.068 0 00.05-.018.068.068 0 00.024-.048.07.07 0 00-.066-.074z" fill="#263238"/><path d="M28.716 110.143c-1.24-.231-1.598 1.697-.358 1.925 1.24.228 1.6-1.697.358-1.925z" fill="#fff"/><path d="M40.588 107.053c-.473-.569-1.262-.248-1.696.168a5.931 5.931 0 00-1.534 2.636.028.028 0 000 .014.03.03 0 00.005.013.028.028 0 00.011.009l.014.003a.138.138 0 00.181.126c.889-.396 1.886-.709 2.626-1.375.426-.376.839-1.055.393-1.594zm-1.795 2.092c-.432.206-.872.388-1.298.61.285-.522.596-1.029.932-1.52.169-.234.352-.458.55-.668.308-.319 1.567-1.039 1.452.184-.083.674-1.122 1.149-1.636 1.394z" fill="#263238"/><path d="M34.537 109.745c.935.33 1.977.242 2.95.275a.144.144 0 00.107-.062.137.137 0 00.014-.122.034.034 0 00.008-.011.029.029 0 00.003-.013.032.032 0 00-.003-.013 5.9 5.9 0 00-2.425-1.872c-.55-.219-1.41-.217-1.633.487-.223.704.434 1.147.979 1.331zm-.55-.754c-.57-1.086.866-.896 1.273-.717.261.12.514.259.756.415.496.327.975.68 1.435 1.056-.478-.044-.954-.05-1.432-.074-.567-.028-1.721-.075-2.03-.674l-.002-.006z" fill="#263238"/><path d="M39.001 107.413l-12.149-2.199s3.91-20.717 3.85-21.203c-.094-.622-6.036-30.158-6.036-30.158l10.019.418s7.104 27.466 7.31 30.097c.339 4.25-2.994 23.045-2.994 23.045z" fill="#76B8EE"/><path opacity=".3" d="M39.001 107.413l-12.149-2.199s3.91-20.717 3.85-21.203c-.094-.622-6.036-30.158-6.036-30.158l10.019.418s7.104 27.466 7.31 30.097c.339 4.25-2.994 23.045-2.994 23.045z" fill="#000"/><path d="M38.531 104.897c-2.073-.514-9.636-1.746-10.472-1.746-.02 0-.025.031 0 .036.795.275 7.3 1.424 10.472 1.762a.022.022 0 00.014-.01.025.025 0 00.005-.016.03.03 0 00-.005-.016.034.034 0 00-.014-.01zM26.84 56.198c.211.728.39 1.465.582 2.2.193.733.355 1.473.55 2.199.368 1.454.715 2.914 1.064 4.371a443.137 443.137 0 012.018 8.862c.323 1.466.64 2.932.951 4.398.314 1.471.646 2.94.919 4.419.142.694.187 1.405.132 2.111-.092.722-.22 1.439-.385 2.148-.306 1.48-.61 2.963-.913 4.448a869.757 869.757 0 01-1.883 8.977c-.08.365-.168.728-.253 1.099 0 .022-.041.014-.039 0 .525-2.977 1.155-5.941 1.752-8.905.296-1.466.594-2.932.893-4.399.157-.767.319-1.531.47-2.298a7.82 7.82 0 00.173-2.2 19.392 19.392 0 00-.384-2.163c-.15-.734-.303-1.46-.457-2.18a539.08 539.08 0 00-.943-4.4c-.64-2.945-1.3-5.886-1.98-8.822a2095.96 2095.96 0 00-2.048-8.76 47.723 47.723 0 01-.248-1.095c0-.004.002-.008.005-.011a.017.017 0 01.023 0z" fill="#263238"/><path d="M24.655 53.858s3.527 17.525 5.185 25.86l4.039-25.477-9.224-.383z" fill="#263238"/><path d="M33.66 118.581c-.586.16-16.986-.825-17.596-1.259-.23-.16-.225-2.56-.137-5.458v-.09c.016-.597.77-10.591.77-10.591l10.722.613-.905 10.495v.178s6.11 3.187 6.72 3.734c.61.547 1.009 2.221.426 2.378z" fill="#F7A9A0"/><path d="M33.66 118.581c-.586.157-16.986-.825-17.596-1.259-.23-.162-.225-2.56-.137-5.458v-.09c0-.113.046-.737.09-1.375l10.613.55-.116 1.333v.179s6.11 3.184 6.72 3.731c.61.547 1.009 2.232.426 2.389z" fill="#fff"/><path d="M33.821 118.647c-.594.162-17.32-.797-17.928-1.237-.234-.165-.237-2.607-.154-5.559l10.78.588s6.235 3.23 6.86 3.783c.624.553 1.039 2.266.442 2.425z" fill="#76B8EE"/><path d="M33.621 117.965c-2.799-.228-14.107-.891-16.892-.907-.022 0-.025.016 0 .019 2.769.289 14.082.858 16.89.935.06 0 .06-.042.002-.047zm-1.284-2.405a2.26 2.26 0 00-1.715.588c-.421.375-.68.898-.723 1.46 0 .016.03.019.033 0a2.602 2.602 0 012.392-2.015.022.022 0 00.01-.004.02.02 0 00.008-.008.022.022 0 000-.012.018.018 0 00-.005-.009zm-4.747-2.791c-1.121-.08-2.444.239-3.194 1.116-.03.036.02.077.055.06a15.595 15.595 0 013.177-1.046.068.068 0 00.02-.017.076.076 0 00.014-.023.071.071 0 00-.004-.053.07.07 0 00-.067-.037zm.85.399c-1.123-.083-2.445.239-3.196 1.116-.03.036.02.077.053.06a15.672 15.672 0 013.153-1.025.075.075 0 00.044-.133.074.074 0 00-.055-.018z" fill="#263238"/><path d="M29.282 113.552c-1.12-.079-2.445.242-3.192 1.119-.03.036.019.074.052.061a15.489 15.489 0 013.154-1.04.068.068 0 00.04-.028.071.071 0 00.012-.047.073.073 0 00-.022-.045.074.074 0 00-.044-.02zm.848.388c-1.119-.08-2.444.242-3.192 1.119-.03.033.02.074.052.06a15.526 15.526 0 013.151-1.039.069.069 0 00.04-.028.07.07 0 00.013-.047.072.072 0 00-.02-.044.073.073 0 00-.044-.021z" fill="#263238"/><path d="M17.595 114.438c-1.259-.069-1.374 1.889-.107 1.957 1.268.069 1.37-1.888.107-1.957z" fill="#fff"/><path d="M28.975 109.854c-.55-.503-1.281-.082-1.65.385a5.896 5.896 0 00-1.195 2.818.024.024 0 00.007.012.02.02 0 00.012.007.02.02 0 00.013.001.143.143 0 00.073.101c.02.01.04.016.062.016a.137.137 0 00.063-.013c.825-.508 1.782-.946 2.43-1.693.38-.429.696-1.158.185-1.634zm-1.512 2.307c-.404.259-.825.495-1.21.77.234-.55.443-1.1.729-1.625.13-.255.278-.502.442-.737.275-.357 1.419-1.231 1.46 0 .036.677-.943 1.281-1.421 1.592z" fill="#263238"/><path d="M23.32 113.319c.967.206 1.99-.014 2.96-.108a.138.138 0 00.058-.026.149.149 0 00.04-.05.138.138 0 00-.004-.124.035.035 0 00.01-.01.028.028 0 000-.027 5.914 5.914 0 00-2.646-1.544c-.584-.149-1.428-.039-1.56.69-.132.729.572 1.064 1.141 1.199zm-.641-.677c-.704-1.006.745-1 1.17-.874.275.086.544.191.804.313a17.29 17.29 0 011.559.864c-.479.016-.952.074-1.43.107-.57.027-1.716.129-2.103-.423v.013z" fill="#263238"/><path d="M34.674 54.262s-.275 4.784-1.515 8.523c-.102.311-.21.616-.325.908 0 0-.434-.022-2.224.976l-3.36 45.873-11.822-.616s2.898-24.26 2.947-25.82c.08-2.507 2.164-19.42 2.038-19.855-1.287-4.446 1.4-10.53 1.4-10.53l12.86.541z" fill="#76B8EE"/><path opacity=".3" d="M34.674 54.262s-.275 4.784-1.515 8.523c-.102.311-.21.616-.325.908 0 0-.434-.022-2.224.976l-3.36 45.873-11.822-.616s2.898-24.26 2.947-25.82c.08-2.507 2.164-19.42 2.038-19.855-1.287-4.446 1.4-10.53 1.4-10.53l12.86.541z" fill="#000"/><path d="M26.934 108.337c-3.32-.338-9.77-.657-10.604-.564-.016 0-.02.033 0 .036.825.182 8.65.657 10.604.583a.028.028 0 00.027-.028.027.027 0 00-.007-.019.028.028 0 00-.02-.008zm1.315-12.191c-.225 2.964-.437 5.931-.685 8.895a.033.033 0 01-.01.023.034.034 0 01-.023.01.034.034 0 01-.023-.01.033.033 0 01-.01-.023c.25-5.29.608-10.58.971-15.864.363-5.284.761-10.514 1.193-15.768.245-2.964.622-5.685.919-8.644a.08.08 0 01.136-.056.08.08 0 01.023.056c-.346 5.284-.905 10.324-1.298 15.608M18.923 96.14c.39-3.441.789-6.883 1.196-10.323.407-3.44.806-6.882 1.198-10.324.201-1.72.396-3.442.602-5.16.105-.86.208-1.72.311-2.582.14-.847.231-1.7.275-2.557 0-.937-.352-1.784-.533-2.689a10.245 10.245 0 01-.16-2.609c.1-1.803.473-3.335 1.1-5.246.033-.093.096-.099.069 0a25.84 25.84 0 00-1.001 4.872 10.46 10.46 0 00.069 2.475c.12.789.418 1.528.569 2.306.15.778.016 1.622-.08 2.428-.102.86-.195 1.721-.294 2.582-.19 1.685-.39 3.37-.586 5.058-.797 6.846-1.583 13.698-2.405 20.54-.462 3.85-.878 7.716-1.414 11.548 0 .028-.05.028-.046 0 .31-3.439.74-6.887 1.13-10.318zm4.361-35.914c.2-.069 1.067-.245 1.276-.327a4.86 4.86 0 001.124-.616 2.56 2.56 0 00.756-1.006c.096-.21.57-1.337.6-1.34a.024.024 0 01.027 0 2.23 2.23 0 01-.151.63c-.077.242-.151.487-.237.726a2.49 2.49 0 01-.761 1.163 3.936 3.936 0 01-1.243.663c-.232.075-.47.13-.712.165a1.861 1.861 0 01-.676 0c-.047.002-.033-.047-.003-.058zm9.004 1.801c.044-.413.094-.825.149-1.237.12-.938.258-1.878.461-2.802.017-.074.119-.041.108.028-.094.728-.206 1.457-.306 2.199-.099.742-.217 1.452-.26 2.177 0 .22-.014.594.252.666.36.096.55-.374.65-.63a12.25 12.25 0 00.535-1.974c.151-.761.245-1.537.352-2.307 0-.027.05-.021.05 0-.06 1.537-.149 3.14-.781 4.564a.856.856 0 01-.66.58h-.017a.045.045 0 010 .028c0 .041-.021.082-.03.127a.858.858 0 01-.027.107c-.011.035-.03.148-.053.22a.057.057 0 01-.063.04.058.058 0 01-.05-.057.044.044 0 01-.027-.047 1.16 1.16 0 01.116-.428.55.55 0 01-.382-.352 1.96 1.96 0 01-.017-.902z" fill="#263238"/><path d="M33.338 63.44a21.752 21.752 0 00-3.44 1.63.039.039 0 00.006.068.038.038 0 00.027 0c1.163-.505 2.348-.989 3.484-1.56a.079.079 0 00-.017-.145.079.079 0 00-.06.007zm-11.52-9.719l12.856.55.335-3.736s1.166-1.416 1.166-3.055c0-1.738-3.107-6.45-3.363-6.717-1.025-1.075-2.785-1.24-3.69-.55-4.825 3.67-7.304 13.508-7.304 13.508z" fill="#263238"/><path d="M21.818 53.721l12.856.55.335-3.736s1.166-1.416 1.166-3.055c0-1.738-3.107-6.45-3.363-6.717-1.025-1.075-2.785-1.24-3.69-.55-4.825 3.67-7.304 13.508-7.304 13.508z" fill="#263238"/><path d="M26.946 42.575c-5.078-1.188-12.342-3.368-12.922-5.224-.55-1.71-.135-6.804.55-11.646.137-.962 7.56.498 7.31 1.507-.49 1.99-1.49 6.667-1.267 7.833.096.5 4.737 3.142 7.698 5.454 2.598 2.032.572 2.533-1.37 2.076z" fill="#F7A9A0"/><path d="M14.597 26.038c-.063-.825-.05-4.655.198-5.708s1.177-4.025 2.002-3.918c.825.107.621 1 .621 1s.591-1.195 1.41-1.01c.82.183.46 1.56.46 1.56s.698-1.179 1.504-.94c.805.24.209 1.568.209 1.568s.585-1.1 1.165-.63c.696.575-.616 2.5-.803 3.679-.04.275-.467 5.498-.467 5.498l-6.299-1.1z" fill="#F7A9A0"/><path d="M21.05 18.466c-.964 1.416-1.137 2.2-1.195 3.887 0 .033-.05.042-.052 0-.097-1.65-.017-2.675 1.179-3.945.06-.044.118 0 .069.058zm-1.682-.613c-.871 1.559-1.07 2.411-1.259 4.17 0 .026-.044.026-.044 0 .041-1.745.143-2.749 1.218-4.203.047-.063.124-.038.085.033zm-1.957-.353c-.734 1.574-.992 2.497-.954 4.23 0 .04-.06.046-.063 0-.21-1.763.102-2.92.968-4.251.06-.085.096-.077.05.022z" fill="#263238"/><path d="M20.881 28.215s1.515-1.523 2.032-2.337c.517-.814 1.328-4.567.528-4.787-1.034-.274-1.925 1.787-2.233 2.86 0 0-2.386-.663-3.351.687-.965 1.35 3.024 3.577 3.024 3.577z" fill="#F7A9A0"/><path d="M23.13 21.105c-1.13.42-1.438 1.853-1.812 2.87a.099.099 0 01-.157.05c-1.017-.212-2.518-.212-3.316.55a.023.023 0 01-.007.008.024.024 0 01-.03-.003.024.024 0 01-.005-.03.025.025 0 01.007-.008c.745-.927 2.216-1.048 3.318-.745.366-1.048.74-2.475 1.999-2.697.005-.006.01.005.003.005zm-2.56 20.181l2.862-4.826s3.52 2.324 5.364 4.091c1.845 1.768 1.793 3.058-1.858 2.285-3.651-.772-6.368-1.55-6.368-1.55z" fill="#263238"/><path d="M24.064 37.208a42.022 42.022 0 01-1.053 2.04c-.181.33-.357.665-.55.99-.192.324-.412.665-.605 1.003 0 .022-.052 0-.041-.019.176-.333.327-.679.5-1.014.174-.336.371-.682.55-1.023.367-.675.752-1.338 1.155-1.99.025-.02.055-.006.044.013z" fill="#455A64"/><path d="M36.178 47.485c0 1.636-1.166 3.055-1.166 3.055l-.335 3.733-12.856-.55a42.423 42.423 0 012.392-6.626c.25.028 2.062 1.304 4.498-.115 1.465-.852 1.65-3.632 1.65-3.632l3.89-.371c.912 1.548 1.927 3.51 1.927 4.506z" fill="#76B8EE"/><path opacity=".3" d="M36.178 47.485c0 1.636-1.166 3.055-1.166 3.055l-.335 3.733-12.856-.55a42.423 42.423 0 012.392-6.626c.25.028 2.062 1.304 4.498-.115 1.465-.852 1.65-3.632 1.65-3.632l3.89-.371c.912 1.548 1.927 3.51 1.927 4.506z" fill="#000"/><path d="M30.351 43.348l-1.465-2.978.236-.154 1.512 3.107-.283.025z" fill="#76B8EE"/><path opacity=".3" d="M30.351 43.348l-1.465-2.978.236-.154 1.512 3.107-.283.025z" fill="#000"/><path d="M33.884 43.012L32.31 40.37l.347.132 1.5 2.485-.274.025z" fill="#76B8EE"/><path opacity=".3" d="M33.884 43.012L32.31 40.37l.347.132 1.5 2.485-.274.025z" fill="#000"/><path d="M30.927 43.788a.234.234 0 11-.468.005.234.234 0 01.468-.005zm3.37-.525a.217.217 0 01-.063.294.24.24 0 11.063-.294z" fill="#76B8EE"/><path d="M21.82 53.72c1.073.047 2.145.102 3.215.157l3.214.165c1.07.064 2.141.108 3.21.152 1.07.044 2.143.077 3.218.08-1.073.082-2.148.085-3.22.076a89.876 89.876 0 01-3.22-.101 83.752 83.752 0 01-3.213-.212 83.132 83.132 0 01-3.203-.316zm.35-1.225c1.053.04 2.104.093 3.157.145l3.153.157c1.05.06 2.1.102 3.154.14 1.053.039 2.103.072 3.156.077-1.05.083-2.106.088-3.162.083-1.056-.006-2.106-.05-3.159-.094a80.628 80.628 0 01-3.153-.203 79.97 79.97 0 01-3.146-.305z" fill="#263238"/><path d="M22.972 52.558a4.688 4.688 0 00-.154.6c-.02.1-.034.2-.041.302 0 .102 0 .203-.017.313a1.026 1.026 0 01-.08-.64 1.1 1.1 0 01.292-.575zm.282 0a4.688 4.688 0 00-.154.6c-.02.1-.035.2-.041.302-.014.102 0 .203-.014.313a1.01 1.01 0 01-.083-.64 1.1 1.1 0 01.292-.575zm3.381.239a5.076 5.076 0 00-.157.6c-.02.098-.03.197-.041.299-.011.102 0 .203 0 .313a.998.998 0 01-.08-.638c.032-.215.13-.415.278-.574zm.28 0a5.076 5.076 0 00-.157.6c-.02.098-.03.197-.041.299-.011.102 0 .203-.014.313a.998.998 0 01-.08-.638c.036-.216.138-.417.292-.574zm3.561 1.458c.064-.197.116-.397.156-.6.02-.099.03-.198.042-.3.01-.101 0-.206.013-.313a.998.998 0 01.08.638 1.075 1.075 0 01-.291.575zm-.28 0c.064-.197.117-.397.157-.6.019-.099.03-.198.04-.3.012-.101 0-.206 0-.313a.998.998 0 01.08.638 1.075 1.075 0 01-.277.575zm3.078 0a4.17 4.17 0 00.157-.6c.019-.099.033-.199.04-.3 0-.101 0-.206.015-.313a.998.998 0 01.08.638 1.075 1.075 0 01-.292.575zm-.28 0c.065-.197.117-.397.157-.6.02-.099.03-.198.041-.3.011-.101 0-.206.014-.313a.998.998 0 01.08.638 1.075 1.075 0 01-.292.575zm-2.018-4.721c.682.041 1.359.14 2.024.297.333.082.657.181.984.291.162.052.325.102.49.148a2 2 0 00.522.091c.014 0 .016.028 0 .028a3.017 3.017 0 01-.498 0 3.477 3.477 0 01-.478-.083c-.338-.082-.67-.178-1.006-.275-.68-.17-1.356-.34-2.043-.453-.03.027-.025-.044.005-.044zm-1.627.781a12.614 12.614 0 011.671-.168c.275 0 .55 0 .825.022.135 0 .275.02.401.033.127.014.292.055.44.066.014 0 .017.03 0 .03-.14 0-.275 0-.418.014h-.418l-.838.014c-.55 0-1.116 0-1.677.035-.025-.002-.025-.044.014-.046z" fill="#263238"/><path d="M29.491 40.645c.113.247 1.686 1.682 2.86 1.391.382-.096-.047-2.2-.047-2.2v-.162l.055-2.279-2.893-1.135-.415-.143s.028.624.069 1.402v.236c0 .116 0 .237.017.355.016.118 0 .176.019.275.019.099.016.187.022.275.06.668.165 1.33.313 1.985z" fill="#F7A9A0"/><path d="M29.123 37.514a4.58 4.58 0 003.184 2.155l.055-2.28-2.893-1.135-.415-.143s.02.624.07 1.403z" fill="#263238"/><path d="M35.015 33.642c.982 3.88-1.232 4.905-2.067 5.117-.762.19-3.374.745-4.748-3.024-1.375-3.77.118-5.441 1.833-5.97 1.716-.527 4.003-.002 4.982 3.877z" fill="#F7A9A0"/><path d="M33.49 33.17h-.274a.465.465 0 01-.275-.047.143.143 0 01-.044-.17.358.358 0 01.322-.166.53.53 0 01.365.102.154.154 0 01-.093.28zm-2.697.593c.086-.036.17-.076.253-.12a.46.46 0 00.23-.174.142.142 0 00-.04-.17.357.357 0 00-.363 0 .55.55 0 00-.275.258.153.153 0 00.029.168.154.154 0 00.166.038z" fill="#AD594E"/><path d="M31.549 34.382s-.017.02 0 .03c.088.258.148.575-.064.734v.014c.273-.13.193-.544.064-.778z" fill="#263238"/><path d="M31.229 34.178c-.432.1-.203.96.198.867.401-.094.168-.949-.198-.867z" fill="#263238"/><path d="M31.073 34.27c-.06.068-.113.173-.2.205-.089.033-.204-.03-.295-.098h-.014c.042.164.152.319.333.296.181-.022.245-.198.242-.373 0-.02-.038-.058-.066-.03zm2.001-.408s.022 0 .025.02c.052.275.157.571.42.607v.017c-.304.024-.44-.369-.445-.644z" fill="#263238"/><path d="M33.25 33.53c.425-.133.654.728.258.849-.396.12-.613-.742-.259-.85z" fill="#263238"/><path d="M33.445 33.538c.08.027.168.09.25.077.083-.014.14-.132.179-.237.05.163.041.35-.11.424-.151.074-.275-.047-.36-.2-.003-.015.008-.075.041-.064zm-.368 1.825s.15.388.198.575c0 .02-.039.038-.102.058a.924.924 0 01-.952-.124c-.019 0 0-.038.023-.033.28.107.586.12.874.036 0-.055-.275-.655-.253-.663.15-.02.301-.02.45 0-.296-.825-.717-1.573-1-2.386a.028.028 0 01.002-.018.027.027 0 01.012-.012.028.028 0 01.033.005c.48.8.876 1.646 1.185 2.527.036.096-.388.05-.47.035z" fill="#263238"/><path d="M33.136 35.93a1.15 1.15 0 01-.324.465.52.52 0 01-.275.107c-.228 0-.294-.182-.308-.36-.005-.092 0-.185.016-.275.283.115.595.137.891.063z" fill="#263238"/><path d="M32.813 36.394a.52.52 0 01-.275.108c-.228 0-.294-.182-.308-.36a.522.522 0 01.583.252z" fill="#FF9BBC"/><path d="M28.403 35.614c.643-.085.511-1.446.511-1.446s1.292-.275 1.328-2.2a2.903 2.903 0 01-.25 1.65s2.224-.715 2.782-2.818c0 0-.178 1.047-.464 1.468.54-.296.964-.768 1.201-1.336 0 0 .627 1.014.998 1.253 0 0-.926-3.959-4.523-2.766 0 0-2.273.636-2.721 2.637-.449 2.002 1.138 3.558 1.138 3.558z" fill="#AD594E"/><path d="M29.074 35.586s-1.06-1.1-1.572-.695c-.512.404.429 2.08 1.127 2.218a.677.677 0 00.825-.503l-.38-1.02z" fill="#F7A9A0"/><path d="M27.796 35.366v.02a1.699 1.699 0 011.044.912.375.375 0 00-.566 0s0 .028.017.022a.423.423 0 01.475.072c.103.1.195.21.275.33.028.038.1 0 .074-.042-.09-.618-.679-1.358-1.32-1.314z" fill="#263238"/></svg>