<svg viewBox="0 0 998 281" fill="none" xmlns="http://www.w3.org/2000/svg"><path d="M1 280c44.833-.334 149.01-13.678 197-38.5 8.5-3.833 20.3-14.6 23.5-29 4-18 3-55-23.5-55.5-21.2-.4-26.641 26.834-26.5 37 .141 10.166 4.84 33.299 10.5 38.5 25 25.288 65.2 39.5 124 15.5 73.5-30 171.5-68 171.5-68 71.333-33.527 216-102.365 224-109.5C731 49 743.5 1 717 1c-24.622 0-21.504 30.133-15.5 56.5 11.5 50.5 74.5 27 113 27 48.765 0 112.5-38 182.5-49.5" stroke="#76B7ED" stroke-width="2" stroke-dasharray="8 8"/></svg>