<svg min-width="28" min-height="28" viewBox="0 0 51 51" fill="none" xmlns="http://www.w3.org/2000/svg">
<g clip-path="url(#clip0_9_4662)">
<path d="M30.2297 25.2002C30.2297 27.6465 28.2463 29.6299 25.8 29.6299C23.3537 29.6299 21.3703 27.6465 21.3703 25.2002C21.3703 22.7539 23.3537 20.7705 25.8 20.7705C28.2463 20.7705 30.2297 22.7539 30.2297 25.2002Z" fill="#A6A6A6"/>
<path d="M33.2812 11.8127H18.3187C15.0619 11.8127 12.4125 14.4621 12.4125 17.719V32.6815C12.4125 35.9384 15.0619 38.5877 18.3187 38.5877H33.2812C36.5381 38.5877 39.1875 35.9384 39.1875 32.6815V17.719C39.1875 14.4621 36.5381 11.8127 33.2812 11.8127ZM25.8 32.5831C21.7291 32.5831 18.4172 29.2712 18.4172 25.2002C18.4172 21.1293 21.7291 17.8174 25.8 17.8174C29.8709 17.8174 33.1828 21.1293 33.1828 25.2002C33.1828 29.2712 29.8709 32.5831 25.8 32.5831ZM34.2656 18.2112C33.4501 18.2112 32.7891 17.5502 32.7891 16.7346C32.7891 15.919 33.4501 15.2581 34.2656 15.2581C35.0812 15.2581 35.7422 15.919 35.7422 16.7346C35.7422 17.5502 35.0812 18.2112 34.2656 18.2112Z" fill="#A6A6A6"/>
<path d="M37.711 0H13.8892C6.56172 0 0.600098 5.96162 0.600098 13.2891V37.1109C0.600098 44.4384 6.56172 50.4 13.8892 50.4H37.711C45.0385 50.4 51.0001 44.4384 51.0001 37.1109V13.2891C51.0001 5.96162 45.0385 0 37.711 0ZM42.1407 32.6813C42.1407 37.5662 38.1663 41.5406 33.2813 41.5406H18.3188C13.4339 41.5406 9.45947 37.5662 9.45947 32.6813V17.7188C9.45947 12.8338 13.4339 8.85938 18.3188 8.85938H33.2813C38.1663 8.85938 42.1407 12.8338 42.1407 17.7188V32.6813Z" fill="#A6A6A6"/>
</g>
<defs>
<clipPath id="clip0_9_4662">
<rect width="50.4" height="50.4" fill="white" transform="translate(0.600098)"/>
</clipPath>
</defs>
</svg>
